<?xml version="1.0" encoding="utf-8"?>
<!-- Generator: Adobe Illustrator 22.1.0, SVG Export Plug-In . SVG Version: 6.00 Build 0)  -->
<svg version="1.1" id="Layer_1" xmlns="http://www.w3.org/2000/svg" xmlns:xlink="http://www.w3.org/1999/xlink" x="0px" y="0px"
	 viewBox="0 0 580 237.3" style="enable-background:new 0 0 580 237.3;" xml:space="preserve">
<style type="text/css">
	.st0{fill:#4E4E4E;}
	.st1{fill:#00AB9C;}
	.st2{fill:#F8B32F;}
	.st3{fill:none;stroke:#00AB9C;stroke-width:10;stroke-miterlimit:10;}
	.st4{fill:#716977;stroke:#00AB9C;stroke-width:8;stroke-miterlimit:10;}
	.st5{fill:#FFC000;}
	.st6{fill:#B93A59;}
	.st7{fill:#FFC000;enable-background:new    ;}
</style>
<title>bureau</title>
<path class="st0" d="M12.3,222.9h8.6c2.8,0,5,2.2,5,5v0c0,2.7-2.2,5-5,5h-8.6c-2.8,0-5-2.2-5-5v0C7.3,225.1,9.5,222.9,12.3,222.9z"
	/>
<path class="st0" d="M89.2,222.9h8.6c2.8,0,5,2.2,5,5v0c0,2.7-2.2,5-5,5h-8.6c-2.8,0-5-2.2-5-5v0C84.2,225.1,86.4,222.9,89.2,222.9z
	"/>
<path class="st1" d="M12,58.8h85.7c6.6,0,12,5.4,12,12V217c0,6.6-5.4,12-12,12H12c-6.6,0-12-5.4-12-12V70.8C0,64.2,5.4,58.8,12,58.8
	z"/>
<circle class="st0" cx="10.9" cy="69.4" r="3.6"/>
<circle class="st0" cx="99.1" cy="69.4" r="3.6"/>
<circle class="st0" cx="10.9" cy="217.8" r="3.6"/>
<circle class="st0" cx="99.1" cy="217.8" r="3.6"/>
<circle class="st0" cx="54.9" cy="103" r="19.6"/>
<circle class="st2" cx="55.2" cy="103" r="15.2"/>
<circle class="st0" cx="55.2" cy="177" r="38.3"/>
<circle class="st0" cx="54.9" cy="103" r="7.2"/>
<circle class="st2" cx="54.9" cy="177.9" r="26.7"/>
<circle class="st0" cx="54.9" cy="177.9" r="14.2"/>
<path class="st3" d="M164.1,14.6h251.1c6.6,0,12,5.4,12,12v129.2c0,6.6-5.4,12-12,12H164.1c-6.6,0-12-5.4-12-12V26.6
	C152.1,20,157.5,14.6,164.1,14.6z"/>
<path class="st1" d="M275.6,164h28.8c0.9,0,1.6,0.7,1.6,1.6v66.1c0,0.9-0.7,1.6-1.6,1.6h-28.8c-0.9,0-1.6-0.7-1.6-1.6v-66.1
	C274,164.7,274.7,164,275.6,164z"/>
<line class="st4" x1="234.7" y1="233.3" x2="345.8" y2="232.8"/>
<path class="st5" d="M194.3,145.8h8.8c2.2,0,3.9,1.7,3.9,3.9v0c0,2.1-1.7,3.9-3.9,3.9h-8.8c-2.2,0-3.9-1.7-3.9-3.9v0
	C190.4,147.5,192.1,145.8,194.3,145.8z"/>
<path class="st5" d="M214.6,145.8h8.8c2.2,0,3.9,1.7,3.9,3.9v0c0,2.1-1.7,3.9-3.9,3.9h-8.8c-2.2,0-3.9-1.7-3.9-3.9v0
	C210.7,147.5,212.4,145.8,214.6,145.8z"/>
<path class="st5" d="M235,145.8h8.8c2.2,0,3.9,1.7,3.9,3.9v0c0,2.1-1.7,3.9-3.9,3.9H235c-2.2,0-3.9-1.7-3.9-3.9v0
	C231.1,147.5,232.8,145.8,235,145.8z"/>
<path class="st5" d="M255.4,145.8h8.8c2.2,0,3.9,1.7,3.9,3.9v0c0,2.1-1.7,3.9-3.9,3.9h-8.8c-2.2,0-3.9-1.7-3.9-3.9v0
	C251.5,147.5,253.2,145.8,255.4,145.8z"/>
<path class="st5" d="M275.7,145.8h8.8c2.2,0,3.9,1.7,3.9,3.9v0c0,2.1-1.7,3.9-3.9,3.9h-8.8c-2.2,0-3.9-1.7-3.9-3.9v0
	C271.8,147.5,273.5,145.8,275.7,145.8z"/>
<path class="st5" d="M296,145.8h8.8c2.2,0,3.9,1.7,3.9,3.9v0c0,2.1-1.7,3.9-3.9,3.9H296c-2.2,0-3.9-1.7-3.9-3.9v0
	C292.1,147.5,293.8,145.8,296,145.8z"/>
<path class="st5" d="M314.9,145.8h8.8c2.2,0,3.9,1.7,3.9,3.9v0c0,2.1-1.7,3.9-3.9,3.9h-8.8c-2.2,0-3.9-1.7-3.9-3.9v0
	C311,147.5,312.7,145.8,314.9,145.8z"/>
<path class="st5" d="M336.2,145.8h8.8c2.2,0,3.9,1.7,3.9,3.9v0c0,2.1-1.7,3.9-3.9,3.9h-8.8c-2.2,0-3.9-1.7-3.9-3.9v0
	C332.3,147.5,334,145.8,336.2,145.8z"/>
<path class="st5" d="M357,145.8h8.8c2.2,0,3.9,1.7,3.9,3.9v0c0,2.1-1.7,3.9-3.9,3.9H357c-2.2,0-3.9-1.7-3.9-3.9v0
	C353.1,147.5,354.8,145.8,357,145.8z"/>
<path class="st5" d="M377,145.8h8.8c2.2,0,3.9,1.7,3.9,3.9v0c0,2.1-1.7,3.9-3.9,3.9H377c-2.2,0-3.9-1.7-3.9-3.9v0
	C373.1,147.5,374.8,145.8,377,145.8z"/>
<path class="st5" d="M194.3,136.5h8.8c2.2,0,3.9,1.7,3.9,3.9l0,0c0,2.1-1.7,3.9-3.9,3.9h-8.8c-2.2,0-3.9-1.7-3.9-3.9l0,0
	C190.4,138.2,192.1,136.5,194.3,136.5z"/>
<path class="st5" d="M214.6,136.5h8.8c2.2,0,3.9,1.7,3.9,3.9l0,0c0,2.1-1.7,3.9-3.9,3.9h-8.8c-2.2,0-3.9-1.7-3.9-3.9l0,0
	C210.7,138.2,212.4,136.5,214.6,136.5z"/>
<path class="st5" d="M235,136.5h8.8c2.2,0,3.9,1.7,3.9,3.9l0,0c0,2.1-1.7,3.9-3.9,3.9H235c-2.2,0-3.9-1.7-3.9-3.9l0,0
	C231.1,138.2,232.8,136.5,235,136.5z"/>
<path class="st5" d="M255.4,136.5h8.8c2.2,0,3.9,1.7,3.9,3.9l0,0c0,2.1-1.7,3.9-3.9,3.9h-8.8c-2.2,0-3.9-1.7-3.9-3.9l0,0
	C251.5,138.2,253.2,136.5,255.4,136.5z"/>
<path class="st5" d="M275.7,136.5h8.8c2.2,0,3.9,1.7,3.9,3.9l0,0c0,2.1-1.7,3.9-3.9,3.9h-8.8c-2.2,0-3.9-1.7-3.9-3.9l0,0
	C271.8,138.2,273.5,136.5,275.7,136.5z"/>
<path class="st5" d="M296,136.5h8.8c2.2,0,3.9,1.7,3.9,3.9l0,0c0,2.1-1.7,3.9-3.9,3.9H296c-2.2,0-3.9-1.7-3.9-3.9l0,0
	C292.1,138.2,293.8,136.5,296,136.5z"/>
<path class="st5" d="M314.9,136.5h8.8c2.2,0,3.9,1.7,3.9,3.9l0,0c0,2.1-1.7,3.9-3.9,3.9h-8.8c-2.2,0-3.9-1.7-3.9-3.9l0,0
	C311,138.2,312.7,136.5,314.9,136.5z"/>
<path class="st5" d="M336.2,136.5h8.8c2.2,0,3.9,1.7,3.9,3.9l0,0c0,2.1-1.7,3.9-3.9,3.9h-8.8c-2.2,0-3.9-1.7-3.9-3.9l0,0
	C332.3,138.2,334,136.5,336.2,136.5z"/>
<path class="st5" d="M357,136.5h8.8c2.2,0,3.9,1.7,3.9,3.9l0,0c0,2.1-1.7,3.9-3.9,3.9H357c-2.2,0-3.9-1.7-3.9-3.9l0,0
	C353.1,138.2,354.8,136.5,357,136.5z"/>
<path class="st5" d="M377,136.5h8.8c2.2,0,3.9,1.7,3.9,3.9l0,0c0,2.1-1.7,3.9-3.9,3.9H377c-2.2,0-3.9-1.7-3.9-3.9l0,0
	C373.1,138.2,374.8,136.5,377,136.5z"/>
<path class="st5" d="M194.3,127.3h8.8c2.2,0,3.9,1.7,3.9,3.9l0,0c0,2.1-1.7,3.9-3.9,3.9h-8.8c-2.2,0-3.9-1.7-3.9-3.9l0,0
	C190.4,129,192.1,127.3,194.3,127.3z"/>
<path class="st5" d="M214.6,127.3h8.8c2.2,0,3.9,1.7,3.9,3.9l0,0c0,2.1-1.7,3.9-3.9,3.9h-8.8c-2.2,0-3.9-1.7-3.9-3.9l0,0
	C210.7,129,212.4,127.3,214.6,127.3z"/>
<path class="st5" d="M235,127.3h8.8c2.2,0,3.9,1.7,3.9,3.9l0,0c0,2.1-1.7,3.9-3.9,3.9H235c-2.2,0-3.9-1.7-3.9-3.9l0,0
	C231.1,129,232.8,127.3,235,127.3z"/>
<path class="st5" d="M255.4,127.3h8.8c2.2,0,3.9,1.7,3.9,3.9l0,0c0,2.1-1.7,3.9-3.9,3.9h-8.8c-2.2,0-3.9-1.7-3.9-3.9l0,0
	C251.5,129,253.2,127.3,255.4,127.3z"/>
<path class="st5" d="M275.7,127.3h8.8c2.2,0,3.9,1.7,3.9,3.9l0,0c0,2.1-1.7,3.9-3.9,3.9h-8.8c-2.2,0-3.9-1.7-3.9-3.9l0,0
	C271.8,129,273.5,127.3,275.7,127.3z"/>
<path class="st5" d="M296,127.3h8.8c2.2,0,3.9,1.7,3.9,3.9l0,0c0,2.1-1.7,3.9-3.9,3.9H296c-2.2,0-3.9-1.7-3.9-3.9l0,0
	C292.1,129,293.8,127.3,296,127.3z"/>
<path class="st5" d="M314.9,127.3h8.8c2.2,0,3.9,1.7,3.9,3.9l0,0c0,2.1-1.7,3.9-3.9,3.9h-8.8c-2.2,0-3.9-1.7-3.9-3.9l0,0
	C311,129,312.7,127.3,314.9,127.3z"/>
<path class="st5" d="M336.2,127.3h8.8c2.2,0,3.9,1.7,3.9,3.9l0,0c0,2.1-1.7,3.9-3.9,3.9h-8.8c-2.2,0-3.9-1.7-3.9-3.9l0,0
	C332.3,129,334,127.3,336.2,127.3z"/>
<path class="st5" d="M357,127.3h8.8c2.2,0,3.9,1.7,3.9,3.9l0,0c0,2.1-1.7,3.9-3.9,3.9H357c-2.2,0-3.9-1.7-3.9-3.9l0,0
	C353.1,129,354.8,127.3,357,127.3z"/>
<path class="st5" d="M377,127.3h8.8c2.2,0,3.9,1.7,3.9,3.9l0,0c0,2.1-1.7,3.9-3.9,3.9H377c-2.2,0-3.9-1.7-3.9-3.9l0,0
	C373.1,129,374.8,127.3,377,127.3z"/>
<path class="st5" d="M194.3,118.5h8.8c2.2,0,3.9,1.7,3.9,3.9v0c0,2.1-1.7,3.9-3.9,3.9h-8.8c-2.2,0-3.9-1.7-3.9-3.9v0
	C190.4,120.2,192.1,118.5,194.3,118.5z"/>
<path class="st5" d="M214.6,118.5h8.8c2.2,0,3.9,1.7,3.9,3.9v0c0,2.1-1.7,3.9-3.9,3.9h-8.8c-2.2,0-3.9-1.7-3.9-3.9v0
	C210.7,120.2,212.4,118.5,214.6,118.5z"/>
<path class="st5" d="M235,118.5h8.8c2.2,0,3.9,1.7,3.9,3.9v0c0,2.1-1.7,3.9-3.9,3.9H235c-2.2,0-3.9-1.7-3.9-3.9v0
	C231.1,120.2,232.8,118.5,235,118.5z"/>
<path class="st5" d="M255.4,118.5h8.8c2.2,0,3.9,1.7,3.9,3.9v0c0,2.1-1.7,3.9-3.9,3.9h-8.8c-2.2,0-3.9-1.7-3.9-3.9v0
	C251.5,120.2,253.2,118.5,255.4,118.5z"/>
<path class="st6" d="M275.7,118.5h8.8c2.2,0,3.9,1.7,3.9,3.9v0c0,2.1-1.7,3.9-3.9,3.9h-8.8c-2.2,0-3.9-1.7-3.9-3.9v0
	C271.8,120.2,273.5,118.5,275.7,118.5z"/>
<path class="st5" d="M296,118.5h8.8c2.2,0,3.9,1.7,3.9,3.9v0c0,2.1-1.7,3.9-3.9,3.9H296c-2.2,0-3.9-1.7-3.9-3.9v0
	C292.1,120.2,293.8,118.5,296,118.5z"/>
<path class="st5" d="M314.9,118.5h8.8c2.2,0,3.9,1.7,3.9,3.9v0c0,2.1-1.7,3.9-3.9,3.9h-8.8c-2.2,0-3.9-1.7-3.9-3.9v0
	C311,120.2,312.7,118.5,314.9,118.5z"/>
<path class="st5" d="M336.2,118.5h8.8c2.2,0,3.9,1.7,3.9,3.9v0c0,2.1-1.7,3.9-3.9,3.9h-8.8c-2.2,0-3.9-1.7-3.9-3.9v0
	C332.3,120.2,334,118.5,336.2,118.5z"/>
<path class="st5" d="M357,118.5h8.8c2.2,0,3.9,1.7,3.9,3.9v0c0,2.1-1.7,3.9-3.9,3.9H357c-2.2,0-3.9-1.7-3.9-3.9v0
	C353.1,120.2,354.8,118.5,357,118.5z"/>
<path class="st5" d="M377,118.5h8.8c2.2,0,3.9,1.7,3.9,3.9v0c0,2.1-1.7,3.9-3.9,3.9H377c-2.2,0-3.9-1.7-3.9-3.9v0
	C373.1,120.2,374.8,118.5,377,118.5z"/>
<path class="st5" d="M194.3,109.6h8.8c2.2,0,3.9,1.7,3.9,3.9v0c0,2.1-1.7,3.9-3.9,3.9h-8.8c-2.2,0-3.9-1.7-3.9-3.9v0
	C190.4,111.3,192.1,109.6,194.3,109.6z"/>
<path class="st5" d="M214.6,109.6h8.8c2.2,0,3.9,1.7,3.9,3.9v0c0,2.1-1.7,3.9-3.9,3.9h-8.8c-2.2,0-3.9-1.7-3.9-3.9v0
	C210.7,111.3,212.4,109.6,214.6,109.6z"/>
<path class="st6" d="M235,109.6h8.8c2.2,0,3.9,1.7,3.9,3.9v0c0,2.1-1.7,3.9-3.9,3.9H235c-2.2,0-3.9-1.7-3.9-3.9v0
	C231.1,111.3,232.8,109.6,235,109.6z"/>
<path class="st5" d="M255.4,109.6h8.8c2.2,0,3.9,1.7,3.9,3.9v0c0,2.1-1.7,3.9-3.9,3.9h-8.8c-2.2,0-3.9-1.7-3.9-3.9v0
	C251.5,111.3,253.2,109.6,255.4,109.6z"/>
<path class="st5" d="M296,109.6h8.8c2.2,0,3.9,1.7,3.9,3.9v0c0,2.1-1.7,3.9-3.9,3.9H296c-2.2,0-3.9-1.7-3.9-3.9v0
	C292.1,111.3,293.8,109.6,296,109.6z"/>
<path class="st5" d="M314.9,109.6h8.8c2.2,0,3.9,1.7,3.9,3.9v0c0,2.1-1.7,3.9-3.9,3.9h-8.8c-2.2,0-3.9-1.7-3.9-3.9v0
	C311,111.3,312.7,109.6,314.9,109.6z"/>
<path class="st5" d="M336.2,109.6h8.8c2.2,0,3.9,1.7,3.9,3.9v0c0,2.1-1.7,3.9-3.9,3.9h-8.8c-2.2,0-3.9-1.7-3.9-3.9v0
	C332.3,111.3,334,109.6,336.2,109.6z"/>
<path class="st5" d="M357,109.6h8.8c2.2,0,3.9,1.7,3.9,3.9v0c0,2.1-1.7,3.9-3.9,3.9H357c-2.2,0-3.9-1.7-3.9-3.9v0
	C353.1,111.3,354.8,109.6,357,109.6z"/>
<path class="st5" d="M377,109.6h8.8c2.2,0,3.9,1.7,3.9,3.9v0c0,2.1-1.7,3.9-3.9,3.9H377c-2.2,0-3.9-1.7-3.9-3.9v0
	C373.1,111.3,374.8,109.6,377,109.6z"/>
<path class="st5" d="M194.3,101.2h8.8c2.2,0,3.9,1.7,3.9,3.9v0c0,2.1-1.7,3.9-3.9,3.9h-8.8c-2.2,0-3.9-1.7-3.9-3.9v0
	C190.4,102.9,192.1,101.2,194.3,101.2z"/>
<path class="st6" d="M214.6,101.2h8.8c2.2,0,3.9,1.7,3.9,3.9v0c0,2.1-1.7,3.9-3.9,3.9h-8.8c-2.2,0-3.9-1.7-3.9-3.9v0
	C210.7,102.9,212.4,101.2,214.6,101.2z"/>
<path class="st5" d="M255.4,101.2h8.8c2.2,0,3.9,1.7,3.9,3.9v0c0,2.1-1.7,3.9-3.9,3.9h-8.8c-2.2,0-3.9-1.7-3.9-3.9v0
	C251.5,102.9,253.2,101.2,255.4,101.2z"/>
<path class="st5" d="M296,101.2h8.8c2.2,0,3.9,1.7,3.9,3.9v0c0,2.1-1.7,3.9-3.9,3.9H296c-2.2,0-3.9-1.7-3.9-3.9v0
	C292.1,102.9,293.8,101.2,296,101.2z"/>
<path class="st5" d="M314.9,101.2h8.8c2.2,0,3.9,1.7,3.9,3.9v0c0,2.1-1.7,3.9-3.9,3.9h-8.8c-2.2,0-3.9-1.7-3.9-3.9v0
	C311,102.9,312.7,101.2,314.9,101.2z"/>
<path class="st6" d="M336.2,101.2h8.8c2.2,0,3.9,1.7,3.9,3.9v0c0,2.1-1.7,3.9-3.9,3.9h-8.8c-2.2,0-3.9-1.7-3.9-3.9v0
	C332.3,102.9,334,101.2,336.2,101.2z"/>
<path class="st5" d="M357,101.2h8.8c2.2,0,3.9,1.7,3.9,3.9v0c0,2.1-1.7,3.9-3.9,3.9H357c-2.2,0-3.9-1.7-3.9-3.9v0
	C353.1,102.9,354.8,101.2,357,101.2z"/>
<path class="st5" d="M377,101.2h8.8c2.2,0,3.9,1.7,3.9,3.9v0c0,2.1-1.7,3.9-3.9,3.9H377c-2.2,0-3.9-1.7-3.9-3.9v0
	C373.1,102.9,374.8,101.2,377,101.2z"/>
<path class="st5" d="M194.3,92.8h8.8c2.2,0,3.9,1.7,3.9,3.9v0c0,2.1-1.7,3.9-3.9,3.9h-8.8c-2.2,0-3.9-1.7-3.9-3.9v0
	C190.4,94.5,192.1,92.8,194.3,92.8z"/>
<path class="st5" d="M255.4,92.8h8.8c2.2,0,3.9,1.7,3.9,3.9v0c0,2.1-1.7,3.9-3.9,3.9h-8.8c-2.2,0-3.9-1.7-3.9-3.9v0
	C251.5,94.5,253.2,92.8,255.4,92.8z"/>
<path class="st6" d="M296,92.8h8.8c2.2,0,3.9,1.7,3.9,3.9v0c0,2.1-1.7,3.9-3.9,3.9H296c-2.2,0-3.9-1.7-3.9-3.9v0
	C292.1,94.5,293.8,92.8,296,92.8z"/>
<path class="st5" d="M314.9,92.8h8.8c2.2,0,3.9,1.7,3.9,3.9v0c0,2.1-1.7,3.9-3.9,3.9h-8.8c-2.2,0-3.9-1.7-3.9-3.9v0
	C311,94.5,312.7,92.8,314.9,92.8z"/>
<path class="st6" d="M357,92.8h8.8c2.2,0,3.9,1.7,3.9,3.9v0c0,2.1-1.7,3.9-3.9,3.9H357c-2.2,0-3.9-1.7-3.9-3.9v0
	C353.1,94.5,354.8,92.8,357,92.8z"/>
<path class="st5" d="M377,92.8h8.8c2.2,0,3.9,1.7,3.9,3.9v0c0,2.1-1.7,3.9-3.9,3.9H377c-2.2,0-3.9-1.7-3.9-3.9v0
	C373.1,94.5,374.8,92.8,377,92.8z"/>
<path class="st6" d="M194.3,84h8.8c2.2,0,3.9,1.7,3.9,3.9v0c0,2.1-1.7,3.9-3.9,3.9h-8.8c-2.2,0-3.9-1.7-3.9-3.9v0
	C190.4,85.7,192.1,84,194.3,84z"/>
<path class="st6" d="M255.4,84h8.8c2.2,0,3.9,1.7,3.9,3.9v0c0,2.1-1.7,3.9-3.9,3.9h-8.8c-2.2,0-3.9-1.7-3.9-3.9v0
	C251.5,85.7,253.2,84,255.4,84z"/>
<path class="st5" d="M314.9,84h8.8c2.2,0,3.9,1.7,3.9,3.9v0c0,2.1-1.7,3.9-3.9,3.9h-8.8c-2.2,0-3.9-1.7-3.9-3.9v0
	C311,85.7,312.7,84,314.9,84z"/>
<path class="st6" d="M377,84h8.8c2.2,0,3.9,1.7,3.9,3.9v0c0,2.1-1.7,3.9-3.9,3.9H377c-2.2,0-3.9-1.7-3.9-3.9v0
	C373.1,85.7,374.8,84,377,84z"/>
<path class="st6" d="M314.9,75.1h8.8c2.2,0,3.9,1.7,3.9,3.9v0c0,2.1-1.7,3.9-3.9,3.9h-8.8c-2.2,0-3.9-1.7-3.9-3.9v0
	C311,76.8,312.7,75.1,314.9,75.1z"/>
<path class="st0" d="M482.6,222.9h8.6c2.8,0,5,2.2,5,5v0c0,2.7-2.2,5-5,5h-8.6c-2.8,0-5-2.2-5-5v0
	C477.6,225.1,479.8,222.9,482.6,222.9z"/>
<path class="st0" d="M559.5,222.9h8.6c2.8,0,5,2.2,5,5v0c0,2.7-2.2,5-5,5h-8.6c-2.8,0-5-2.2-5-5v0
	C554.5,225.1,556.7,222.9,559.5,222.9z"/>
<path class="st1" d="M482.3,58.8H568c6.6,0,12,5.4,12,12V217c0,6.6-5.4,12-12,12h-85.7c-6.6,0-12-5.4-12-12V70.8
	C470.3,64.2,475.7,58.8,482.3,58.8z"/>
<circle class="st0" cx="481.2" cy="69.4" r="3.6"/>
<circle class="st0" cx="525.4" cy="103" r="19.6"/>
<circle class="st0" cx="569.4" cy="69.4" r="3.6"/>
<circle class="st0" cx="481.2" cy="217.8" r="3.6"/>
<circle class="st0" cx="569.4" cy="217.8" r="3.6"/>
<circle class="st5" cx="525.5" cy="103" r="15.2"/>
<circle class="st0" cx="525.5" cy="177" r="38.3"/>
<circle class="st0" cx="525.2" cy="103" r="7.2"/>
<circle class="st5" cx="525.2" cy="177.9" r="26.7"/>
<circle class="st0" cx="525.2" cy="177.9" r="14.2"/>
<path class="st7" d="M289.9,174.6L289.9,174.6c2.7,0,4.8,2.1,4.8,4.7V202c0,2.6-2.1,4.7-4.7,4.7h-0.1c-2.6,0-4.7-2.1-4.7-4.7v-22.7
	C285.2,176.7,287.3,174.6,289.9,174.6z"/>
</svg>
