<svg version="1.1" id="H1aSdfjAG" xmlns="http://www.w3.org/2000/svg" xmlns:xlink="http://www.w3.org/1999/xlink" x="0px" y="0px" viewBox="0 0 485 475" style="enable-background:new 0 0 485.1 475.4;" xml:space="preserve"><style>@-webkit-keyframes HyCuaBOfjRG_SJAnOziAz_Animation{0%{-webkit-transform: scale(0, 0);transform: scale(0, 0);}44%{-webkit-transform: scale(0, 0);transform: scale(0, 0);}48.33%{-webkit-transform: scale(2, 2);transform: scale(2, 2);}49.67%{-webkit-transform: scale(1, 1);transform: scale(1, 1);}90%{-webkit-transform: scale(1, 1);transform: scale(1, 1);}100%{-webkit-transform: scale(0, 0);transform: scale(0, 0);}}@keyframes HyCuaBOfjRG_SJAnOziAz_Animation{0%{-webkit-transform: scale(0, 0);transform: scale(0, 0);}44%{-webkit-transform: scale(0, 0);transform: scale(0, 0);}48.33%{-webkit-transform: scale(2, 2);transform: scale(2, 2);}49.67%{-webkit-transform: scale(1, 1);transform: scale(1, 1);}90%{-webkit-transform: scale(1, 1);transform: scale(1, 1);}100%{-webkit-transform: scale(0, 0);transform: scale(0, 0);}}@-webkit-keyframes SJouaBOGi0G_BJ4aOGsCM_Animation{0%{-webkit-transform: scale(0, 0);transform: scale(0, 0);}40%{-webkit-transform: scale(0, 0);transform: scale(0, 0);}43.67%{-webkit-transform: scale(2, 2);transform: scale(2, 2);}45.67%{-webkit-transform: scale(1, 1);transform: scale(1, 1);}90%{-webkit-transform: scale(1, 1);transform: scale(1, 1);}100%{-webkit-transform: scale(0, 0);transform: scale(0, 0);}}@keyframes SJouaBOGi0G_BJ4aOGsCM_Animation{0%{-webkit-transform: scale(0, 0);transform: scale(0, 0);}40%{-webkit-transform: scale(0, 0);transform: scale(0, 0);}43.67%{-webkit-transform: scale(2, 2);transform: scale(2, 2);}45.67%{-webkit-transform: scale(1, 1);transform: scale(1, 1);}90%{-webkit-transform: scale(1, 1);transform: scale(1, 1);}100%{-webkit-transform: scale(0, 0);transform: scale(0, 0);}}@-webkit-keyframes BJmF6ruzjCz_SkGFdMj0G_Animation{0%{-webkit-transform: rotate(0deg);transform: rotate(0deg);}30%{-webkit-transform: rotate(120deg);transform: rotate(120deg);}90%{-webkit-transform: rotate(120deg);transform: rotate(120deg);}100%{-webkit-transform: rotate(0deg);transform: rotate(0deg);}}@keyframes BJmF6ruzjCz_SkGFdMj0G_Animation{0%{-webkit-transform: rotate(0deg);transform: rotate(0deg);}30%{-webkit-transform: rotate(120deg);transform: rotate(120deg);}90%{-webkit-transform: rotate(120deg);transform: rotate(120deg);}100%{-webkit-transform: rotate(0deg);transform: rotate(0deg);}}#H1aSdfjAG *{-webkit-animation-duration: 10s;animation-duration: 10s;-webkit-animation-iteration-count: infinite;animation-iteration-count: infinite;-webkit-animation-timing-function: cubic-bezier(0, 0, 1, 1);animation-timing-function: cubic-bezier(0, 0, 1, 1);}#Sye6BdzsCG{fill: #00AB9C;}#Bk-pSOMj0z{fill: #00AB9C;}#H1zaBufoCz{fill: #00AB9C;}#BJXar_fo0M{fill: #00AB9C;}#HkVardzjAz{fill: #00AB9C;}#HyraHuzoAG{fill: #00AB9C;}#SyIpB_fiRG{fill: #00AB9C;}#rkwpruzj0G{fill: #00AB9C;}#ryO6HOGoCf{fill: #00AB9C;}#rJYaBdMsCG{fill: #00AB9C;}#BJ5TBdzj0z{fill: #00AB9C;}#HysaBdGs0G{fill: #00AB9C;}#ByhTBuMsRz{fill: #00AB9C;}#S1aTBOGsCz{fill: #00AB9C;}#HyA6rdziAf{fill: #EDEDED;}#HkkeprOzi0z{fill: #FCFCFC;}#H1xlTSuzi0f{fill: #EDEDED;}#HkWgTBOMjCM{fill: #FCFCFC;}#ryGxTBuMjCG{fill: #EDEDED;}#SkmgpSdfjRf{fill: #FCFCFC;}#S1NepSdzoCf{fill: #EDEDED;}#HyBxaHufsAf{fill: #FCFCFC;}#SyUxpB_fj0M{fill: #EDEDED;}#ByDgTr_GoCf{fill: #FCFCFC;}#ryulTHOzsCM{fill: #EDEDED;}#B1KgTBdGjCM{fill: #FCFCFC;}#Sy9x6rdziAM{fill: #EDEDED;}#HJseTSuMsRz{fill: #FCFCFC;}#B13xpH_MsCf{fill: #EDEDED;}#ryTx6H_fsRG{fill: #FCFCFC;}#S10lpSufj0M{fill: #EDEDED;}#HyJWardGoCz{fill: #FCFCFC;}#BkxbTSufiRf{fill: #EDEDED;}#HyWbTHdGsCz{fill: #FCFCFC;}#H1zZprdMoCG{fill: #EDEDED;}#BymbpB_GsRM{fill: #FCFCFC;}#Sk4-ardMi0f{fill: #EDEDED;}#S1HbpSuMjRf{fill: #FCFCFC;}#SJU-THOzoAG{fill: #EDEDED;}#r1PW6r_zoCf{fill: #FCFCFC;}#BJ_-pHufsAM{fill: #FCFCFC;}#B1YZ6rufiCM{fill: #FCFCFC;}#r15-pBdMoRz{fill: #FCFCFC;}#S1oWpHuMiCM{fill: #FCFCFC;}#By2WTBdfiCf{fill: #FCFCFC;}#B1pWTr_zsRz{fill: #FCFCFC;}#SJRWpBOGoCz{fill: #EDEDED;}#SyJfaSOMiAM{fill: #EDEDED;}#HJxz6rOGi0G{fill: #EDEDED;}#B1Wz6BOGi0f{fill: #EDEDED;}#SyMfaS_GjAG{fill: #EDEDED;}#BJmz6r_GoAM{fill: #00AB9C;}#BkNzTSOzjAG{fill: #EDEDED;}#Syrf6BdfiAM{fill: #00AB9C;}#ry8fprufjAz{fill: #EDEDED;}#HkPfprdfoRf{fill: #EDEDED;}#rkufTS_fjCf{fill: #EDEDED;}#SJtz6ruGj0M{fill: #EDEDED;}#Sk5fprOGi0G{fill: #EDEDED;}#rJjf6SOGj0M{fill: #EDEDED;}#HynzTHdMjRf{fill: #EDEDED;}#rk6G6BuziRG{fill: #EDEDED;}#Hk0M6SdzjRG{fill: #EDEDED;}#SyJXardzjRf{fill: #EDEDED;}#HJgX6Bufj0z{fill: #EDEDED;}#Hy-QprdMjCG{fill: #EDEDED;}#rkG76rOGjCG{fill: #EDEDED;}#BJQ7ar_Mi0f{fill: #EDEDED;}#BJ47TH_MiCf{fill: #EDEDED;}#Hyr76SOfiAM{fill: #EDEDED;}#rJLQpH_foCz{fill: #EDEDED;}#HyvmaSuzoRM{fill: #EDEDED;}#HkOXpSdfoCf{fill: #EDEDED;}#SkKQpSuGsAf{fill: #EDEDED;}#B1cXTSOfs0z{fill: #EDEDED;}#Bkjm6H_foRM{fill: #EDEDED;}#SknmTSufjCG{fill: #EDEDED;}#SyaQpBufjRf{fill: #EDEDED;}#HJCXTS_zoAM{fill: #EDEDED;}#B1yEaHuzjRz{fill: #EDEDED;}#SygNaSdGoRM{fill: #EDEDED;}#S1WE6H_zoRz{fill: #EDEDED;}#S1f46rOzjCG{fill: #EDEDED;}#BkXN6SuMjAG{fill: #EDEDED;}#rJV4ardzoCz{fill: #EDEDED;}#rJSVaHOzi0f{fill: #EDEDED;}#HkLVTHOfj0G{fill: #EDEDED;}#ryvEpBOGs0z{fill: #EDEDED;}#Sku46SOzjAf{fill: #EDEDED;}#BkKNpBdMs0f{fill: #EDEDED;}#rycN6r_Gs0M{fill: #EDEDED;}#rkjVaBuMjRG{fill: #EDEDED;}#Sy2EpH_GiRf{fill: #EDEDED;}#rJpEpSuzjAG{fill: #EDEDED;}#BJR4TS_GoCf{fill: #EDEDED;}#HykBprOfiCz{fill: #EDEDED;}#HkxHpBOfo0f{fill: #EDEDED;}#HyWBTrdzsAz{fill: #EDEDED;}#SyfB6S_MiAf{fill: #EDEDED;}#H1XHaHuzi0M{fill: #EDEDED;}#S14SpBdzj0M{fill: #EDEDED;}#rJHSTHdMsAz{fill: #EDEDED;}#B1USpB_fiCG{fill: #EDEDED;}#HJPH6ruGjCM{fill: #EDEDED;}#BJ_S6HdzjRz{fill: #EDEDED;}#HyYrTHuMiRM{fill: #EDEDED;}#SJqHpSOfjAf{fill: #EDEDED;}#HyoSpS_Go0M{fill: #EDEDED;}#Hk2rardziRM{fill: #EDEDED;}#SyTBTruMjAG{fill: #EDEDED;}#rJAB6BufsCG{fill: #EDEDED;}#r11LprdMjAf{fill: #EDEDED;}#rkg86HufiRz{fill: #EDEDED;}#BybI6BOGjAM{fill: #EDEDED;}#SkMLpHOfiCG{fill: #EDEDED;}#HyQLpHufi0f{fill: #EDEDED;}#rkELaS_fj0G{fill: #EDEDED;}#HJHITSdMjCf{fill: #EDEDED;}#S18L6r_MiAf{fill: #EDEDED;}#SyPUaBOMoAf{fill: #EDEDED;}#HydL6HOMjAG{fill: #EDEDED;}#HktL6rOMsRf{fill: #EDEDED;}#B19LTrdGo0G{fill: #EDEDED;}#rJiLpHdMiAM{fill: #EDEDED;}#H12I6HdMjAG{fill: #EDEDED;}#SJaIaSdMsCG{fill: #EDEDED;}#rk0U6H_Go0M{fill: #EDEDED;}#ry1vTrdMjRM{fill: #EDEDED;}#rJxPaH_fiCG{fill: #EDEDED;}#rkWvaHdzoAf{fill: #EDEDED;}#S1GwpBOfoAf{fill: #EDEDED;}#SyXD6SuGsRf{fill: #EDEDED;}#BkNPpHuzsAz{fill: #EDEDED;}#BkSw6BuGoAf{fill: #EDEDED;}#ByIwaBdMoRG{fill: #EDEDED;}#r1wPpSOziRM{fill: #EDEDED;}#H1OvarOfoRf{fill: #EDEDED;}#rkKv6ruMoRG{fill: #EDEDED;}#Hk5P6SOfoAG{fill: #EDEDED;}#BkjwTrdziCf{fill: #EDEDED;}#B1nvpB_MsAf{fill: #EDEDED;}#BJpvaBOziRz{fill: #EDEDED;}#BJCP6S_fsAz{fill: #EDEDED;}#HykOTHuMsRG{fill: #EDEDED;}#rkeuarOMo0M{fill: #EDEDED;}#HyZupSdfiAf{fill: #EDEDED;}#S1zuaHuzjRz{fill: #EDEDED;}#SJQdTrOMoRG{fill: #EDEDED;}#rkVOaSufjAG{fill: #EDEDED;}#SkSdpHOMi0G{fill: #EDEDED;}#Sy8_TSOfi0z{fill: #EDEDED;}#B1D_ardfsRz{fill: #EDEDED;}#HJuOprdzjAM{fill: #EDEDED;}#rkYuTBuzsRM{fill: #871D22;}#HJqdTr_fi0M{fill: #FFC000;}#Bk2O6SuGjAf{fill: #871D22;}#rJTOpSOMiCM{fill: #FFC000;}#SJJYaH_Ms0f{fill: #871D22;}#r1gKTS_GjCz{fill: #FFC000;}#H1ZtTrdMiRf{fill: #871D22;}#BJfFpBdfiAf{fill: #FFC000;}#BJmF6ruzjCz{fill: #DDDDDD;}#BJmF6ruzjCz_SkGFdMj0G{-webkit-animation-name: BJmF6ruzjCz_SkGFdMj0G_Animation;animation-name: BJmF6ruzjCz_SkGFdMj0G_Animation;-webkit-transform-origin: 50% 50%;transform-origin: 50% 50%;transform-box: fill-box;-webkit-transform: rotate(0deg);transform: rotate(0deg);-webkit-animation-timing-function: cubic-bezier(0.42, 0, 0.58, 1);animation-timing-function: cubic-bezier(0.42, 0, 0.58, 1);}#SJouaBOGi0G_BJ4aOGsCM{-webkit-animation-name: SJouaBOGi0G_BJ4aOGsCM_Animation;animation-name: SJouaBOGi0G_BJ4aOGsCM_Animation;-webkit-transform-origin: 50% 50%;transform-origin: 50% 50%;transform-box: fill-box;-webkit-transform: scale(0, 0);transform: scale(0, 0);}#HyCuaBOfjRG_SJAnOziAz{-webkit-animation-name: HyCuaBOfjRG_SJAnOziAz_Animation;animation-name: HyCuaBOfjRG_SJAnOziAz_Animation;-webkit-transform-origin: 50% 50%;transform-origin: 50% 50%;transform-box: fill-box;-webkit-transform: scale(0, 0);transform: scale(0, 0);}</style>

<polygon points="217.5,130.4 201,132.8 201,97.7 217.5,93.6 " id="Sye6BdzsCG"/>
<polygon points="163.7,177.5 145.1,179.1 145.1,144.6 163.8,140.4 " id="Bk-pSOMj0z"/>
<polygon points="281.6,167.5 254.1,169 254.1,128.8 281.5,124.2 " id="H1zaBufoCz"/>
<polygon points="217.7,214.8 195.7,215.8 195.6,177.1 217.4,174.9 " id="BJXar_fo0M"/>
<polygon points="188.9,256.8 169.5,255.9 169.3,218.5 189,216 " id="HkVardzjAz"/>
<polygon points="247.7,257 223.5,257.6 223.5,216.4 247.7,215.8 " id="HyraHuzoAG"/>
<polygon points="317.9,260.4 293,259.7 293,214.7 318.3,214.7 " id="SyIpB_fiRG"/>
<polygon points="217.1,297.9 195.7,295.5 195.7,257 217.4,257.6 " id="rkwpruzj0G"/>
<polygon points="139.4,255.4 128,255 128.2,217.8 139.5,217.6 " id="ryO6HOGoCf"/>
<polygon points="163.7,332.2 145.4,328.7 145.4,293.9 163.3,295.6 " id="rJYaBdMsCG"/>
<polygon points="281.5,348.3 254.4,344.2 254.4,304.3 281.5,306.4 " id="BJ5TBdzj0z"/>
<polygon points="217.5,378.8 200.9,374.8 200.9,339.8 217.4,342.3 " id="HysaBdGs0G"/>
<polygon points="316.7,392.8 305,389.8 305.2,354.9 317,356.7 " id="ByhTBuMsRz"/>
<polygon points="319.2,115.7 305.8,117.7 305.2,82.4 319.6,78.6 " id="S1aTBOGsCz"/>
<line x1="116.3" y1="109" x2="319.7" y2="67.9" id="HyA6rdziAf"/>
<polyline points="116.4,109.3 319.7,68.1 319.6,67.6 116.3,108.8 " id="HkkeprOzi0z"/>
<line x1="352.1" y1="75.6" x2="319.7" y2="67.9" id="H1xlTSuzi0f"/>
<polyline points="352.1,75.3 319.7,67.6 319.6,68.1 352,75.8 " id="HkWgTBOMjCM"/>
<line x1="352.1" y1="395.8" x2="352.1" y2="75.6" id="ryGxTBuMjCG"/>
<polyline points="352.3,395.8 352.3,75.6 351.8,75.6 351.8,395.8 " id="SkmgpSdfjRf"/>
<line x1="316.6" y1="404" x2="352.1" y2="395.8" id="S1NepSdzoCf"/>
<polyline points="316.6,404.3 352.1,396 352,395.5 316.5,403.8 " id="HyBxaHufsAf"/>
<line x1="319.7" y1="67.9" x2="316.6" y2="404" id="SyUxpB_fj0M"/>
<polyline points="319.4,67.9 316.3,404 316.8,404 319.9,67.9 " id="ByDgTr_GoCf"/>
<line x1="316.5" y1="404.2" x2="117.3" y2="362.6" id="ryulTHOzsCM"/>
<polyline points="316.6,403.9 117.3,362.3 117.2,362.8 316.5,404.4 " id="B1KgTBdGjCM"/>
<line x1="116.3" y1="109" x2="117.3" y2="362.8" id="Sy9x6rdziAM"/>
<polyline points="116.1,109 117.1,362.8 117.6,362.8 116.6,109 " id="HJseTSuMsRz"/>
<line x1="117.3" y1="327.7" x2="317" y2="356.7" id="B13xpH_MsCf"/>
<polyline points="117.3,328 317,356.9 317,356.4 117.4,327.5 " id="ryTx6H_fsRG"/>
<line x1="116.8" y1="291.3" x2="317.4" y2="309.7" id="S10lpSufj0M"/>
<polyline points="116.8,291.5 317.4,310 317.5,309.5 116.8,291 " id="HyJWardGoCz"/>
<line x1="317.9" y1="260.4" x2="116.9" y2="254.7" id="BkxbTSufiRf"/>
<polyline points="317.9,260.1 116.9,254.5 116.9,255 317.9,260.7 " id="HyWbTHdGsCz"/>
<line x1="116.8" y1="218.2" x2="318.3" y2="212" id="H1zZprdMoCG"/>
<polyline points="116.8,218.4 318.3,212.3 318.3,211.7 116.7,217.9 " id="BymbpB_GsRM"/>
<line x1="318.8" y1="164.1" x2="116.6" y2="181.6" id="Sk4-ardMi0f"/>
<polyline points="318.7,163.9 116.6,181.4 116.6,181.9 318.8,164.4 " id="S1HbpSuMjRf"/>
<line x1="116.5" y1="145.1" x2="319.2" y2="115.7" id="SJU-THOzoAG"/>
<polyline points="116.5,145.3 319.2,116 319.2,115.5 116.4,144.8 " id="r1PW6r_zoCf"/>
<polyline points="140,104.2 138.4,367.2 139,367.2 140.5,104.2 " id="BJ_-pHufsAM"/>
<polyline points="163.6,99.4 163.2,372.4 163.8,372.4 164.1,99.4 " id="B1YZ6rufiCM"/>
<polyline points="188.9,94.3 188.5,377.6 189,377.6 189.4,94.3 " id="r15-pBdMoRz"/>
<polyline points="217.1,88.4 217.1,383.4 217.6,383.4 217.6,88.4 " id="S1oWpHuMiCM"/>
<polyline points="247.5,82.4 247.5,389.8 248,389.8 248,82.4 " id="By2WTBdfiCf"/>
<polyline points="281.3,75.6 281.4,396.8 281.9,396.8 281.8,75.6 " id="B1pWTr_zsRz"/>
<polyline points="140.2,104.4 163.6,109.2 163.7,108.8 140.3,104 " id="SJRWpBOGoCz"/>
<polyline points="163.8,99.6 180.9,103.6 181,103.2 163.9,99.2 " id="SyJfaSOMiAM"/>
<polyline points="181.1,135.7 181.1,103.4 180.7,103.4 180.7,135.7 " id="HJxz6rOGi0G"/>
<polyline points="189.1,99.9 180.8,103.2 181,103.6 189.2,100.2 " id="B1Wz6BOGi0f"/>
<polyline points="189.1,94.5 200.9,97.9 201,97.5 189.2,94.1 " id="SyMfaS_GjAG"/>
<line x1="201" y1="132.8" x2="201" y2="97.7" id="BJmz6r_GoAM"/>
<polyline points="201.2,132.8 201.2,97.7 200.8,97.7 200.8,132.8 " id="BkNzTSOzjAG"/>
<line x1="217.5" y1="93.6" x2="201" y2="97.7" id="Syrf6BdfiAM"/>
<polyline points="217.4,93.4 200.9,97.5 201,97.9 217.5,93.8 " id="ry8fprufjAz"/>
<polyline points="217.8,88.7 236.2,93 236.3,92.6 217.9,88.4 " id="HkPfprdfoRf"/>
<polyline points="247.6,88.3 236.2,92.6 236.3,93 247.8,88.6 " id="rkufTS_fjCf"/>
<polyline points="236.4,127.7 236.4,92.8 236.1,92.8 236.1,127.7 " id="SJtz6ruGj0M"/>
<polyline points="247.7,82.6 281.5,88.6 281.6,88.3 247.7,82.2 " id="Sk5fprOGi0G"/>
<polyline points="281.5,75.8 305.2,82.6 305.3,82.2 281.6,75.4 " id="rJjf6SOGj0M"/>
<polyline points="319.5,78.4 305.2,82.2 305.3,82.6 319.6,78.8 " id="HynzTHdMjRf"/>
<polyline points="306,117.7 305.4,82.4 305,82.4 305.6,117.7 " id="rk6G6BuziRG"/>
<polyline points="139.9,141.8 145,144.7 145.2,144.4 140.1,141.5 " id="Hk0M6SdzjRG"/>
<polyline points="163.7,140.3 145.1,144.4 145.2,144.7 163.8,140.6 " id="SyJXardzjRf"/>
<polyline points="145.3,179.1 145.3,144.6 144.9,144.6 144.9,179.1 " id="HJgX6Bufj0z"/>
<polyline points="163.6,138.4 188.9,142.7 189,142.3 163.7,138.1 " id="Hy-QprdMjCG"/>
<polyline points="189,134.8 212.3,139.1 212.4,138.7 189.1,134.4 " id="rkG76rOGjCG"/>
<polyline points="212.8,172.9 212.8,138.9 212.4,138.9 212.4,172.9 " id="BJQ7ar_Mi0f"/>
<polyline points="217.4,136.6 212.2,138.7 212.4,139.1 217.5,136.9 " id="BJ47TH_MiCf"/>
<polyline points="247.7,134.8 217.5,130.2 217.4,130.6 247.7,135.2 " id="Hyr76SOfiAM"/>
<polyline points="247.6,126.3 253.9,128.8 254.1,128.4 247.8,125.9 " id="rJLQpH_foCz"/>
<polyline points="254.3,169.7 254.3,128.6 253.9,128.6 253.9,169.7 " id="HyvmaSuzoRM"/>
<polyline points="281.5,124 254,128.4 254,128.8 281.6,124.4 " id="HkOXpSdfoCf"/>
<polyline points="281.5,121.4 319.1,127.5 319.1,127.1 281.6,121 " id="SkKQpSuGsAf"/>
<polyline points="116.6,181.8 134.3,184.6 134.4,184.2 116.6,181.4 " id="B1cXTSOfs0z"/>
<polyline points="134.2,217.6 134.5,184.4 134.1,184.4 133.8,217.6 " id="Bkjm6H_foRM"/>
<polyline points="139.7,182.8 134.3,184.2 134.4,184.6 139.8,183.2 " id="SknmTSufjCG"/>
<polyline points="139.5,179.8 163.6,183.2 163.7,182.8 139.5,179.4 " id="SyaQpBufjRf"/>
<polyline points="163.6,177.7 174.8,179.9 174.9,179.5 163.7,177.4 " id="HJCXTS_zoAM"/>
<polyline points="175.3,216.4 175.3,179.7 174.9,179.7 174.9,216.4 " id="B1yEaHuzjRz"/>
<polyline points="189,177.8 175.1,179.5 175.1,179.9 189,178.2 " id="SygNaSdGoRM"/>
<polyline points="188.9,175.5 195.4,177.2 195.5,176.8 189,175.2 " id="S1WE6H_zoRz"/>
<polyline points="217.4,174.7 195.4,176.8 195.5,177.2 217.4,175.1 " id="S1f46rOzjCG"/>
<polyline points="195.9,215.8 195.9,177 195.5,177 195.5,215.8 " id="BkXN6SuMjAG"/>
<polyline points="217.4,173.1 229.7,175.1 229.7,174.7 217.4,172.7 " id="rJV4ardzoCz"/>
<polyline points="247.7,172.7 229.7,174.7 229.7,175.1 247.7,173.1 " id="rJSVaHOzi0f"/>
<polyline points="230,214.7 230,174.9 229.6,174.9 229.6,214.7 " id="HkLVTHOfj0G"/>
<polyline points="247.7,170.5 276.8,174.1 276.8,173.7 247.7,170.1 " id="ryvEpBOGs0z"/>
<polyline points="281.5,172.7 276.8,173.7 276.8,174.1 281.6,173.1 " id="Sku46SOzjAf"/>
<polyline points="277,213.3 277,173.9 276.6,173.9 276.6,213.3 " id="BkKNpBdMs0f"/>
<polyline points="281.6,167.7 298.9,170.6 299,170.2 281.7,167.3 " id="rycN6r_Gs0M"/>
<polyline points="318.7,167.5 298.9,170.2 299,170.6 318.8,167.9 " id="rkjVaBuMjRG"/>
<polyline points="299.8,212.6 299.8,170.4 299.4,170.4 299.4,212.6 " id="Sy2EpH_GiRf"/>
<polyline points="281.5,213.3 293,214.9 293,214.5 281.6,212.9 " id="rJpEpSuzjAG"/>
<polyline points="318.3,214.5 293,214.5 293,214.9 318.3,214.9 " id="BJR4TS_GoCf"/>
<polyline points="293.2,259.7 293.2,214.7 292.8,214.7 292.8,259.7 " id="HykBprOfiCz"/>
<polyline points="247.7,214.4 277,216.6 277.1,216.2 247.7,214 " id="HkxHpBOfo0f"/>
<polyline points="281.4,213 276.9,216.2 277.2,216.5 281.6,213.3 " id="HyWBTrdzsAz"/>
<polyline points="277.2,259.3 277.2,216.4 276.9,216.4 276.9,259.3 " id="SyfB6S_MiAf"/>
<polyline points="217.6,214.9 223.5,216.6 223.6,216.2 217.7,214.6 " id="H1XHaHuzi0M"/>
<polyline points="223.7,257.6 223.7,216.4 223.3,216.4 223.3,257.6 " id="S14SpBdzj0M"/>
<polyline points="247.7,215.6 223.5,216.2 223.5,216.6 247.7,215.9 " id="rJHSTHdMsAz"/>
<polyline points="163.6,216.9 169.2,218.7 169.3,218.3 163.7,216.5 " id="B1USpB_fiCG"/>
<polyline points="169.5,256.2 169.5,218.5 169.1,218.5 169.1,256.2 " id="HJPH6ruGjCM"/>
<polyline points="188.9,215.6 169.2,218.3 169.3,218.7 189,215.9 " id="BJ_S6HdzjRz"/>
<polyline points="128.2,255 128.3,217.8 128,217.8 127.8,255 " id="HyYrTHuMiRM"/>
<polyline points="116.9,291.5 134.2,289.1 134.2,288.8 116.8,291.1 " id="SJqHpSOfjAf"/>
<polyline points="139.2,289 134.2,288.8 134.2,289.2 139.2,289.4 " id="HyoSpS_Go0M"/>
<polyline points="134,255.2 134,289 134.4,289 134.4,255.2 " id="Hk2rardziRM"/>
<polyline points="139.2,293.5 163.6,290.3 163.6,289.9 139.1,293.1 " id="SyTBTruMjAG"/>
<polyline points="163.7,295.8 175.2,293.4 175.1,293 163.6,295.4 " id="rJAB6BufsCG"/>
<polyline points="174.9,256.4 174.9,293.2 175.3,293.2 175.3,256.4 " id="r11LprdMjAf"/>
<polyline points="189,294.2 175.1,293 175.1,293.4 188.9,294.6 " id="rkg86HufiRz"/>
<polyline points="188.9,298.1 195.8,295.7 195.6,295.3 188.8,297.7 " id="BybI6BOGjAM"/>
<polyline points="195.5,257 195.5,295.5 195.9,295.5 195.9,257 " id="SkMLpHOfiCG"/>
<polyline points="217.5,297.8 195.7,295.3 195.7,295.7 217.4,298.2 " id="HyQLpHufi0f"/>
<polyline points="230,297.3 230,257.9 229.6,257.9 229.6,297.3 " id="rkELaS_fj0G"/>
<polyline points="217.5,300.7 229.9,297.5 229.8,297.1 217.4,300.4 " id="HJHITSdMjCf"/>
<polyline points="247.7,298.7 229.8,297.1 229.8,297.5 247.7,299.1 " id="S18L6r_MiAf"/>
<polyline points="247.7,303.5 278.2,298.3 278.2,297.9 247.7,303.1 " id="SyPUaBOMoAf"/>
<polyline points="278.1,259.3 278,298.1 278.4,298.1 278.5,259.3 " id="HydL6HOMjAG"/>
<polyline points="281.6,299.3 278.3,297.9 278.1,298.3 281.5,299.7 " id="HktL6rOMsRf"/>
<polyline points="281.6,306.6 299.6,302.3 299.5,301.9 281.5,306.3 " id="B19LTrdGo0G"/>
<polyline points="299.4,259.9 299.4,302.1 299.8,302.1 299.8,259.9 " id="rJiLpHdMiAM"/>
<polyline points="317.5,303.4 299.6,301.9 299.5,302.3 317.5,303.8 " id="H12I6HdMjAG"/>
<polyline points="281.6,351.7 317.2,343.8 317.1,343.5 281.5,351.4 " id="SJaIaSdMsCG"/>
<polyline points="247.8,346.9 254.2,344.3 254.1,344 247.6,346.5 " id="rk0U6H_Go0M"/>
<polyline points="254.2,303.9 254.2,344.2 254.6,344.2 254.6,303.9 " id="ry1vTrdMjRM"/>
<polyline points="281.6,348.1 254.4,344 254.4,344.4 281.5,348.5 " id="rJxPaH_fiCG"/>
<polyline points="217.4,342.5 247.8,336 247.7,335.6 217.4,342.1 " id="rkWvaHdzoAf"/>
<polyline points="188.8,338.4 213.1,333.7 213.1,333.3 188.8,338 " id="S1GwpBOfoAf"/>
<polyline points="212.8,300.1 212.9,333.5 213.3,333.5 213.2,300.1 " id="SyXD6SuGsRf"/>
<polyline points="217.5,335 213.2,333.3 213,333.7 217.4,335.3 " id="BkNPpHuzsAz"/>
<polyline points="163.6,334.7 189,329.9 188.9,329.6 163.5,334.4 " id="BkSw6BuGoAf"/>
<polyline points="139,331.2 145.5,328.9 145.3,328.5 138.9,330.8 " id="ByIwaBdMoRG"/>
<polyline points="145.2,293.9 145.2,328.7 145.6,328.7 145.6,293.9 " id="r1wPpSOziRM"/>
<polyline points="163.7,332 145.4,328.5 145.4,328.9 163.6,332.3 " id="H1OvarOfoRf"/>
<polyline points="117.4,327.9 139,323.5 138.9,323.1 117.3,327.5 " id="rkKv6ruMoRG"/>
<polyline points="117.3,362.8 138.8,359 138.7,358.6 117.2,362.4 " id="Hk5P6SOfoAG"/>
<polyline points="138.7,367.4 163.6,362.8 163.5,362.4 138.7,367.1 " id="BkjwTrdziCf"/>
<polyline points="163.5,372.6 181.1,368.8 181,368.4 163.5,372.2 " id="B1nvpB_MsAf"/>
<polyline points="180.9,337.1 180.9,368.6 181.2,368.6 181.2,337.1 " id="BJpvaBOziRz"/>
<polyline points="189,370.3 181.1,368.4 181,368.8 188.9,370.7 " id="BJCP6S_fsAz"/>
<polyline points="188.8,377.8 201,375 200.9,374.6 188.7,377.4 " id="HykOTHuMsRG"/>
<polyline points="200.7,339.8 200.7,374.8 201.1,374.8 201.1,339.8 " id="rkeuarOMo0M"/>
<polyline points="217.5,378.6 201,374.6 200.9,375 217.4,379 " id="HyZupSdfiAf"/>
<polyline points="217.4,383.6 235.8,379.5 235.7,379.1 217.3,383.2 " id="S1zuaHuzjRz"/>
<polyline points="234.9,344.9 234.9,379.3 235.2,379.3 235.2,344.9 " id="SJQdTrOMoRG"/>
<polyline points="247.8,382.5 235.8,379.1 235.7,379.5 247.7,382.8 " id="rkVOaSufjAG"/>
<polyline points="247.8,389.4 281.6,381.5 281.5,381.2 247.7,389 " id="SkSdpHOMi0G"/>
<polyline points="281.7,397 305,390 304.9,389.7 281.6,396.6 " id="Sy8_TSOfi0z"/>
<polyline points="305,354.9 304.8,389.8 305.2,389.8 305.3,354.9 " id="B1D_ardfsRz"/>
<polyline points="316.7,392.6 305,389.7 304.9,390 316.6,393 " id="HJuOprdzjAM"/>
<circle cx="165.1" cy="295.3" r="5.2" id="rkYuTBuzsRM"/>
<path d="M170.4,295.3h-0.5c0,1.3-0.5,2.5-1.4,3.3c-0.9,0.9-2,1.4-3.3,1.4c-1.3,0-2.5-0.5-3.3-1.4
	c-0.9-0.9-1.4-2-1.4-3.3c0-1.3,0.5-2.5,1.4-3.3c0.9-0.9,2-1.4,3.3-1.4c1.3,0,2.5,0.5,3.3,1.4c0.9,0.9,1.4,2,1.4,3.3H170.4h0.5
	c0-3.2-2.6-5.7-5.7-5.7c-3.2,0-5.7,2.6-5.7,5.7c0,3.2,2.6,5.7,5.7,5.7c3.2,0,5.7-2.6,5.7-5.7H170.4z" id="HJqdTr_fi0M"/>
<g id="SJouaBOGi0G_BJ4aOGsCM" data-animator-group="true" data-animator-type="2"><g id="SJouaBOGi0G">
	<circle cx="116.3" cy="110.3" r="5.2" id="Bk2O6SuGjAf"/>
	<path d="M121.5,110.3H121c0,1.3-0.5,2.5-1.4,3.3c-0.9,0.9-2,1.4-3.3,1.4c-1.3,0-2.5-0.5-3.3-1.4
		c-0.9-0.9-1.4-2-1.4-3.3c0-1.3,0.5-2.5,1.4-3.3c0.9-0.9,2-1.4,3.3-1.4c1.3,0,2.5,0.5,3.3,1.4c0.9,0.9,1.4,2,1.4,3.3H121.5h0.5
		c0-3.2-2.6-5.7-5.7-5.7c-3.2,0-5.7,2.6-5.7,5.7c0,3.2,2.6,5.7,5.7,5.7c3.2,0,5.7-2.6,5.7-5.7H121.5z" id="rJTOpSOMiCM"/>
</g></g>
<g id="HyCuaBOfjRG_SJAnOziAz" data-animator-group="true" data-animator-type="2"><g id="HyCuaBOfjRG">
	<circle cx="318.3" cy="259.7" r="5.2" id="SJJYaH_Ms0f"/>
	<path d="M323.5,259.7H323c0,1.3-0.5,2.5-1.4,3.3c-0.9,0.9-2,1.4-3.3,1.4c-1.3,0-2.5-0.5-3.3-1.4
		c-0.9-0.9-1.4-2-1.4-3.3c0-1.3,0.5-2.5,1.4-3.3c0.9-0.9,2-1.4,3.3-1.4c1.3,0,2.5,0.5,3.3,1.4c0.9,0.9,1.4,2,1.4,3.3H323.5h0.5
		c0-3.2-2.6-5.7-5.7-5.7c-3.2,0-5.7,2.6-5.7,5.7c0,3.2,2.6,5.7,5.7,5.7c3.2,0,5.7-2.6,5.7-5.7H323.5z" id="r1gKTS_GjCz"/>
</g></g>
<path d="M253.4,127.7c0,2.9-2.3,5.2-5.2,5.2c-2.9,0-5.2-2.3-5.2-5.2c0-2.9,2.3-5.2,5.2-5.2
	C251.1,122.5,253.4,124.8,253.4,127.7z" id="H1ZtTrdMiRf"/>
<path d="M253.4,127.7h-0.5c0,1.3-0.5,2.5-1.4,3.3c-0.9,0.9-2,1.4-3.3,1.4c-1.3,0-2.5-0.5-3.3-1.4
	c-0.9-0.9-1.4-2-1.4-3.3c0-1.3,0.5-2.5,1.4-3.3c0.9-0.9,2-1.4,3.3-1.4c1.3,0,2.5,0.5,3.3,1.4c0.9,0.9,1.4,2,1.4,3.3H253.4h0.5
	c0-3.2-2.6-5.7-5.7-5.7c-3.2,0-5.7,2.6-5.7,5.7c0,3.2,2.6,5.7,5.7,5.7c3.2,0,5.7-2.6,5.7-5.7H253.4z" id="BJfFpBdfiAf"/>
<g id="BJmF6ruzjCz_SkGFdMj0G" data-animator-group="true" data-animator-type="1"><path d="M455.1,234.1c0,0.2,0,0.3,0,0.5c0,2.9-0.1,5.8-0.2,8.7c0,0.1,0.1,0.3,0.2,0.3c0.1,0,0.3-0.1,0.3-0.2
	c0.1-2.9,0.2-5.8,0.2-8.8c0-0.2,0-0.3,0-0.5c0-0.1-0.1-0.3-0.3-0.3C455.3,233.8,455.1,234,455.1,234.1z M454.4,216.6
	c0.2,2.9,0.4,5.8,0.5,8.7c0,0.1,0.1,0.3,0.3,0.2c0.1,0,0.3-0.1,0.2-0.3c-0.1-2.9-0.3-5.9-0.5-8.8c0-0.1-0.1-0.2-0.3-0.2
	C454.5,216.4,454.4,216.5,454.4,216.6L454.4,216.6z M452.3,199.3c0.5,2.9,0.9,5.8,1.2,8.7c0,0.1,0.1,0.2,0.3,0.2
	c0.1,0,0.2-0.1,0.2-0.3c-0.4-2.9-0.8-5.8-1.2-8.7c0-0.1-0.2-0.2-0.3-0.2C452.4,199,452.3,199.1,452.3,199.3L452.3,199.3z
	 M448.8,182.1c0.7,2.8,1.3,5.7,1.9,8.5c0,0.1,0.2,0.2,0.3,0.2c0.1,0,0.2-0.2,0.2-0.3c-0.6-2.9-1.2-5.7-1.9-8.6
	c0-0.1-0.2-0.2-0.3-0.2C448.8,181.8,448.7,182,448.8,182.1z M443.9,165.3c0.9,2.8,1.8,5.5,2.6,8.4c0,0.1,0.2,0.2,0.3,0.2
	c0.1,0,0.2-0.2,0.2-0.3c-0.8-2.8-1.7-5.6-2.6-8.4c0-0.1-0.2-0.2-0.3-0.2C443.9,165,443.8,165.2,443.9,165.3L443.9,165.3z M437.6,149
	c1.1,2.7,2.2,5.4,3.3,8.1c0.1,0.1,0.2,0.2,0.3,0.1c0.1-0.1,0.2-0.2,0.1-0.3c-1-2.7-2.1-5.4-3.3-8.1c-0.1-0.1-0.2-0.2-0.3-0.1
	C437.6,148.7,437.6,148.9,437.6,149L437.6,149z M430.1,133.2c1.4,2.6,2.7,5.2,3.9,7.8c0.1,0.1,0.2,0.2,0.3,0.1
	c0.1-0.1,0.2-0.2,0.1-0.3c-1.3-2.6-2.6-5.2-3.9-7.8c-0.1-0.1-0.2-0.2-0.3-0.1C430.1,132.9,430.1,133.1,430.1,133.2L430.1,133.2z
	 M421.3,118.1c1.6,2.5,3.1,4.9,4.5,7.5c0.1,0.1,0.2,0.2,0.4,0.1c0.1-0.1,0.2-0.2,0.1-0.4c-1.5-2.5-3-5-4.6-7.5
	c-0.1-0.1-0.2-0.2-0.4-0.1C421.3,117.8,421.3,118,421.3,118.1L421.3,118.1z M411.4,103.8c1.8,2.3,3.5,4.7,5.1,7.1
	c0.1,0.1,0.2,0.1,0.4,0.1c0.1-0.1,0.1-0.2,0.1-0.4c-1.7-2.4-3.4-4.8-5.1-7.1c-0.1-0.1-0.2-0.1-0.4-0.1
	C411.3,103.5,411.3,103.6,411.4,103.8L411.4,103.8z M400.3,90.2c1.9,2.2,3.8,4.4,5.7,6.7c0.1,0.1,0.3,0.1,0.4,0
	c0.1-0.1,0.1-0.3,0-0.4c-1.9-2.3-3.8-4.5-5.7-6.7c-0.1-0.1-0.3-0.1-0.4,0C400.2,90,400.2,90.1,400.3,90.2L400.3,90.2z M388.1,77.6
	c2.1,2,4.2,4.1,6.2,6.2c0.1,0.1,0.3,0.1,0.4,0c0.1-0.1,0.1-0.3,0-0.4c-2-2.1-4.1-4.2-6.2-6.2c-0.1-0.1-0.3-0.1-0.4,0
	C388,77.4,388,77.5,388.1,77.6z M375,66c2.3,1.8,4.5,3.7,6.7,5.7c0.1,0.1,0.3,0.1,0.4,0c0.1-0.1,0.1-0.3,0-0.4
	c-2.2-1.9-4.4-3.8-6.7-5.7c-0.1-0.1-0.3-0.1-0.4,0C374.9,65.8,374.9,65.9,375,66z M361,55.5c2.4,1.7,4.8,3.4,7.1,5.1
	c0.1,0.1,0.3,0.1,0.4-0.1c0.1-0.1,0.1-0.3-0.1-0.4c-2.3-1.8-4.7-3.5-7.1-5.1c-0.1-0.1-0.3-0.1-0.4,0.1
	C360.9,55.3,360.9,55.4,361,55.5L361,55.5z M346.2,46.2c2.5,1.5,5,3,7.5,4.5c0.1,0.1,0.3,0,0.4-0.1c0.1-0.1,0-0.3-0.1-0.4
	c-2.5-1.6-5-3.1-7.5-4.5c-0.1-0.1-0.3,0-0.4,0.1C346.1,45.9,346.1,46.1,346.2,46.2L346.2,46.2z M330.7,38c2.6,1.3,5.3,2.6,7.8,3.9
	c0.1,0.1,0.3,0,0.3-0.1c0.1-0.1,0-0.3-0.1-0.3c-2.6-1.4-5.2-2.7-7.9-3.9c-0.1-0.1-0.3,0-0.3,0.1C330.5,37.8,330.6,38,330.7,38
	L330.7,38z M314.5,31.2c2.7,1,5.5,2.1,8.1,3.3c0.1,0.1,0.3,0,0.3-0.1c0.1-0.1,0-0.3-0.1-0.3c-2.7-1.1-5.4-2.2-8.2-3.3
	c-0.1-0.1-0.3,0-0.3,0.1C314.3,31,314.4,31.1,314.5,31.2z M297.9,25.7c2.8,0.8,5.6,1.7,8.4,2.6c0.1,0,0.3,0,0.3-0.2
	c0-0.1,0-0.3-0.2-0.3c-2.8-0.9-5.6-1.8-8.4-2.6c-0.1,0-0.3,0-0.3,0.2C297.7,25.5,297.8,25.6,297.9,25.7L297.9,25.7z M280.9,21.5
	c2.9,0.6,5.7,1.2,8.5,1.9c0.1,0,0.3-0.1,0.3-0.2c0-0.1-0.1-0.3-0.2-0.3c-2.8-0.7-5.7-1.3-8.6-1.9c-0.1,0-0.3,0.1-0.3,0.2
	C280.7,21.3,280.8,21.5,280.9,21.5z M263.6,18.8c2.9,0.3,5.8,0.7,8.7,1.2c0.1,0,0.3-0.1,0.3-0.2c0-0.1-0.1-0.3-0.2-0.3
	c-2.9-0.5-5.8-0.9-8.7-1.2c-0.1,0-0.3,0.1-0.3,0.2C263.4,18.6,263.5,18.7,263.6,18.8L263.6,18.8z M246.2,17.4
	c2.9,0.1,5.8,0.3,8.7,0.5c0.1,0,0.3-0.1,0.3-0.2c0-0.1-0.1-0.3-0.2-0.3c-2.9-0.2-5.8-0.4-8.8-0.5c-0.1,0-0.3,0.1-0.3,0.2
	C245.9,17.3,246,17.4,246.2,17.4L246.2,17.4z M228.7,17.4c2.9-0.1,5.8-0.2,8.7-0.2c0.1,0,0.3-0.1,0.3-0.3c0-0.1-0.1-0.3-0.3-0.3
	c-2.9,0-5.9,0.1-8.8,0.2c-0.1,0-0.3,0.1-0.2,0.3C228.4,17.3,228.5,17.4,228.7,17.4L228.7,17.4z M211.2,18.8c2.9-0.4,5.8-0.6,8.7-0.9
	c0.1,0,0.2-0.1,0.2-0.3c0-0.1-0.1-0.2-0.3-0.2c-2.9,0.2-5.8,0.5-8.7,0.9c-0.1,0-0.2,0.1-0.2,0.3C211,18.8,211.1,18.9,211.2,18.8
	L211.2,18.8z M194,21.7c2.8-0.6,5.7-1.1,8.6-1.6c0.1,0,0.2-0.2,0.2-0.3c0-0.1-0.2-0.2-0.3-0.2c-2.9,0.5-5.8,1-8.6,1.6
	c-0.1,0-0.2,0.2-0.2,0.3C193.7,21.6,193.8,21.7,194,21.7L194,21.7z M177,25.9c2.8-0.8,5.6-1.6,8.5-2.3c0.1,0,0.2-0.2,0.2-0.3
	c0-0.1-0.2-0.2-0.3-0.2c-2.8,0.7-5.7,1.5-8.5,2.3c-0.1,0-0.2,0.2-0.2,0.3C176.7,25.8,176.9,25.9,177,25.9L177,25.9z M160.4,31.4
	c2.7-1,5.5-2,8.2-3c0.1,0,0.2-0.2,0.2-0.3c0-0.1-0.2-0.2-0.3-0.2c-2.8,0.9-5.5,1.9-8.3,3c-0.1,0.1-0.2,0.2-0.1,0.3
	C160.1,31.4,160.3,31.5,160.4,31.4L160.4,31.4z M144.4,38.3c2.6-1.3,5.3-2.5,8-3.6c0.1-0.1,0.2-0.2,0.1-0.3
	c-0.1-0.1-0.2-0.2-0.3-0.1c-2.7,1.2-5.3,2.4-8,3.6c-0.1,0.1-0.2,0.2-0.1,0.3C144.1,38.3,144.2,38.4,144.4,38.3L144.4,38.3z
	 M128.9,46.4c2.5-1.5,5.1-2.9,7.6-4.2c0.1-0.1,0.2-0.2,0.1-0.3c-0.1-0.1-0.2-0.2-0.3-0.1c-2.6,1.4-5.1,2.8-7.7,4.2
	c-0.1,0.1-0.2,0.2-0.1,0.4C128.6,46.5,128.8,46.5,128.9,46.4z M114.2,55.8c2.4-1.7,4.8-3.3,7.3-4.8c0.1-0.1,0.2-0.2,0.1-0.4
	c-0.1-0.1-0.2-0.2-0.4-0.1c-2.5,1.6-4.9,3.2-7.3,4.8c-0.1,0.1-0.1,0.2-0.1,0.4C113.9,55.9,114,55.9,114.2,55.8L114.2,55.8z
	 M100.2,66.3c2.3-1.8,4.5-3.6,6.9-5.4c0.1-0.1,0.1-0.2,0.1-0.4c-0.1-0.1-0.2-0.1-0.4-0.1c-2.3,1.8-4.6,3.6-6.9,5.4
	c-0.1,0.1-0.1,0.3,0,0.4C99.9,66.4,100.1,66.4,100.2,66.3L100.2,66.3z M87.1,78c2.1-2,4.2-4,6.4-5.9c0.1-0.1,0.1-0.3,0-0.4
	c-0.1-0.1-0.3-0.1-0.4,0c-2.2,1.9-4.3,3.9-6.4,6c-0.1,0.1-0.1,0.3,0,0.4C86.8,78.1,87,78.1,87.1,78L87.1,78z M75,90.6
	c1.9-2.2,3.9-4.3,5.9-6.4c0.1-0.1,0.1-0.3,0-0.4c-0.1-0.1-0.3-0.1-0.4,0c-2,2.1-4,4.3-5.9,6.5c-0.1,0.1-0.1,0.3,0,0.4
	C74.7,90.7,74.9,90.7,75,90.6z M63.9,104.1c1.8-2.3,3.6-4.6,5.4-6.9c0.1-0.1,0.1-0.3,0-0.4c-0.1-0.1-0.3-0.1-0.4,0
	c-1.8,2.3-3.7,4.6-5.4,6.9c-0.1,0.1-0.1,0.3,0.1,0.4C63.7,104.3,63.8,104.3,63.9,104.1L63.9,104.1z M54,118.6
	c1.6-2.5,3.2-4.9,4.8-7.3c0.1-0.1,0.1-0.3-0.1-0.4c-0.1-0.1-0.3-0.1-0.4,0.1c-1.7,2.4-3.3,4.8-4.8,7.3c-0.1,0.1,0,0.3,0.1,0.4
	C53.7,118.7,53.9,118.7,54,118.6z M45.2,133.7c1.4-2.6,2.8-5.1,4.2-7.7c0.1-0.1,0-0.3-0.1-0.4c-0.1-0.1-0.3,0-0.4,0.1
	c-1.5,2.5-2.9,5.1-4.2,7.7c-0.1,0.1,0,0.3,0.1,0.3C45,133.9,45.1,133.9,45.2,133.7L45.2,133.7z M37.7,149.6c1.1-2.7,2.3-5.4,3.6-8
	c0.1-0.1,0-0.3-0.1-0.3c-0.1-0.1-0.3,0-0.3,0.1c-1.3,2.6-2.5,5.3-3.6,8c-0.1,0.1,0,0.3,0.1,0.3C37.5,149.8,37.6,149.7,37.7,149.6
	L37.7,149.6z M31.5,166c0.9-2.8,1.9-5.5,2.9-8.3c0.1-0.1,0-0.3-0.1-0.3c-0.1-0.1-0.3,0-0.3,0.1c-1,2.7-2,5.5-2.9,8.3
	c0,0.1,0,0.3,0.2,0.3C31.3,166.2,31.5,166.1,31.5,166L31.5,166z M26.7,182.8c0.7-2.8,1.4-5.7,2.2-8.5c0-0.1,0-0.3-0.2-0.3
	c-0.1,0-0.3,0-0.3,0.2c-0.8,2.8-1.6,5.6-2.3,8.5c0,0.1,0.1,0.3,0.2,0.3C26.5,183,26.6,182.9,26.7,182.8z M23.2,200
	c0.5-2.9,1-5.8,1.6-8.6c0-0.1-0.1-0.3-0.2-0.3c-0.1,0-0.3,0.1-0.3,0.2c-0.6,2.9-1.1,5.7-1.6,8.6c0,0.1,0.1,0.3,0.2,0.3
	C23,200.2,23.2,200.1,23.2,200z M21.1,217.3c0.2-2.9,0.5-5.8,0.9-8.7c0-0.1-0.1-0.3-0.2-0.3c-0.1,0-0.3,0.1-0.3,0.2
	c-0.3,2.9-0.6,5.8-0.9,8.7c0,0.1,0.1,0.3,0.2,0.3C21,217.6,21.1,217.5,21.1,217.3L21.1,217.3z M20.5,234.8c0-0.1,0-0.2,0-0.2
	c0-2.8,0.1-5.7,0.2-8.5c0-0.1-0.1-0.3-0.2-0.3c-0.1,0-0.3,0.1-0.3,0.2c-0.1,2.8-0.2,5.7-0.2,8.5c0,0.1,0,0.2,0,0.2
	c0,0.1,0.1,0.3,0.3,0.3C20.3,235.1,20.5,235,20.5,234.8L20.5,234.8z M21.2,252.3c-0.2-2.9-0.4-5.8-0.5-8.7c0-0.1-0.1-0.3-0.3-0.2
	c-0.1,0-0.3,0.1-0.2,0.3c0.1,2.9,0.3,5.9,0.5,8.8c0,0.1,0.1,0.2,0.3,0.2C21.1,252.6,21.2,252.5,21.2,252.3L21.2,252.3z M23.3,269.7
	c-0.5-2.9-0.9-5.8-1.2-8.7c0-0.1-0.1-0.2-0.3-0.2c-0.1,0-0.2,0.1-0.2,0.3c0.4,2.9,0.8,5.8,1.2,8.7c0,0.1,0.2,0.2,0.3,0.2
	C23.2,270,23.3,269.8,23.3,269.7L23.3,269.7z M26.8,286.8c-0.7-2.8-1.3-5.7-1.9-8.5c0-0.1-0.2-0.2-0.3-0.2c-0.1,0-0.2,0.2-0.2,0.3
	c0.6,2.9,1.2,5.7,1.9,8.6c0,0.1,0.2,0.2,0.3,0.2C26.7,287.1,26.8,287,26.8,286.8L26.8,286.8z M31.7,303.6c-0.9-2.8-1.8-5.5-2.6-8.4
	c0-0.1-0.2-0.2-0.3-0.2c-0.1,0-0.2,0.2-0.2,0.3c0.8,2.8,1.7,5.6,2.6,8.4c0,0.1,0.2,0.2,0.3,0.2C31.6,303.9,31.7,303.8,31.7,303.6
	L31.7,303.6z M37.9,320c-1.1-2.7-2.2-5.4-3.3-8.1c-0.1-0.1-0.2-0.2-0.3-0.1c-0.1,0.1-0.2,0.2-0.1,0.3c1,2.7,2.1,5.4,3.3,8.1
	c0.1,0.1,0.2,0.2,0.3,0.1C37.9,320.2,37.9,320.1,37.9,320L37.9,320z M45.4,335.7c-1.4-2.6-2.7-5.2-3.9-7.8c-0.1-0.1-0.2-0.2-0.3-0.1
	c-0.1,0.1-0.2,0.2-0.1,0.3c1.3,2.6,2.6,5.2,3.9,7.8c0.1,0.1,0.2,0.2,0.3,0.1C45.4,336,45.4,335.9,45.4,335.7L45.4,335.7z
	 M54.1,350.8c-1.6-2.5-3.1-4.9-4.5-7.5c-0.1-0.1-0.2-0.2-0.4-0.1c-0.1,0.1-0.2,0.2-0.1,0.4c1.5,2.5,3,5,4.5,7.5
	c0.1,0.1,0.2,0.2,0.4,0.1C54.2,351.1,54.2,351,54.1,350.8z M64.1,365.2c-1.8-2.3-3.5-4.7-5.1-7.1c-0.1-0.1-0.2-0.1-0.4-0.1
	c-0.1,0.1-0.1,0.2-0.1,0.4c1.7,2.4,3.4,4.8,5.1,7.1c0.1,0.1,0.2,0.1,0.4,0.1C64.1,365.5,64.2,365.3,64.1,365.2L64.1,365.2z
	 M75.2,378.8c-1.9-2.2-3.8-4.4-5.7-6.7c-0.1-0.1-0.3-0.1-0.4,0c-0.1,0.1-0.1,0.3,0,0.4c1.9,2.3,3.7,4.5,5.7,6.7
	c0.1,0.1,0.3,0.1,0.4,0C75.2,379,75.2,378.9,75.2,378.8L75.2,378.8z M87.3,391.4c-2.1-2-4.2-4.1-6.2-6.2c-0.1-0.1-0.3-0.1-0.4,0
	s-0.1,0.3,0,0.4c2,2.1,4.1,4.2,6.2,6.2c0.1,0.1,0.3,0.1,0.4,0C87.4,391.6,87.4,391.5,87.3,391.4L87.3,391.4z M100.4,403
	c-2.3-1.8-4.5-3.7-6.7-5.7c-0.1-0.1-0.3-0.1-0.4,0s-0.1,0.3,0,0.4c2.2,1.9,4.4,3.8,6.7,5.7c0.1,0.1,0.3,0.1,0.4,0
	C100.5,403.2,100.5,403.1,100.4,403L100.4,403z M114.4,413.5c-2.4-1.7-4.8-3.4-7.1-5.1c-0.1-0.1-0.3-0.1-0.4,0.1
	c-0.1,0.1-0.1,0.3,0.1,0.4c2.3,1.8,4.7,3.5,7.1,5.1c0.1,0.1,0.3,0.1,0.4-0.1S114.5,413.6,114.4,413.5L114.4,413.5z M129.2,422.9
	c-2.5-1.5-5-3-7.5-4.5c-0.1-0.1-0.3,0-0.4,0.1c-0.1,0.1,0,0.3,0.1,0.4c2.5,1.6,5,3.1,7.5,4.5c0.1,0.1,0.3,0,0.4-0.1
	C129.3,423.1,129.3,423,129.2,422.9L129.2,422.9z M144.7,431c-2.6-1.3-5.3-2.6-7.8-3.9c-0.1-0.1-0.3,0-0.3,0.1
	c-0.1,0.1,0,0.3,0.1,0.3c2.6,1.4,5.2,2.7,7.9,3.9c0.1,0.1,0.3,0,0.3-0.1C144.9,431.2,144.8,431.1,144.7,431L144.7,431z M160.8,437.9
	c-2.7-1-5.5-2.1-8.1-3.3c-0.1-0.1-0.3,0-0.3,0.1c-0.1,0.1,0,0.3,0.1,0.3c2.7,1.1,5.4,2.2,8.2,3.3c0.1,0.1,0.3,0,0.3-0.1
	C161,438.1,161,438,160.8,437.9L160.8,437.9z M177.5,443.4c-2.8-0.8-5.6-1.7-8.4-2.6c-0.1,0-0.3,0-0.3,0.2c0,0.1,0,0.3,0.2,0.3
	c2.8,0.9,5.6,1.8,8.4,2.6c0.1,0,0.3,0,0.3-0.2C177.7,443.6,177.6,443.5,177.5,443.4L177.5,443.4z M194.5,447.6
	c-2.9-0.6-5.7-1.2-8.5-1.9c-0.1,0-0.3,0.1-0.3,0.2c0,0.1,0.1,0.3,0.2,0.3c2.8,0.7,5.7,1.3,8.6,1.9c0.1,0,0.3-0.1,0.3-0.2
	C194.7,447.8,194.6,447.6,194.5,447.6L194.5,447.6z M211.7,450.4c-2.9-0.3-5.8-0.8-8.7-1.2c-0.1,0-0.3,0.1-0.3,0.2
	c0,0.1,0.1,0.3,0.2,0.3c2.9,0.5,5.8,0.9,8.7,1.2c0.1,0,0.3-0.1,0.3-0.2C212,450.5,211.9,450.4,211.7,450.4L211.7,450.4z
	 M229.2,451.8c-2.9-0.1-5.8-0.3-8.7-0.5c-0.1,0-0.3,0.1-0.3,0.2c0,0.1,0.1,0.3,0.2,0.3c2.9,0.2,5.8,0.4,8.8,0.5
	c0.1,0,0.3-0.1,0.3-0.2C229.4,451.9,229.3,451.8,229.2,451.8L229.2,451.8z M246.7,451.8c-2.9,0.1-5.8,0.2-8.8,0.2
	c-0.1,0-0.3,0.1-0.3,0.3c0,0.1,0.1,0.3,0.3,0.3c2.9,0,5.9-0.1,8.8-0.2c0.1,0,0.3-0.1,0.2-0.3C246.9,451.9,246.8,451.7,246.7,451.8
	L246.7,451.8z M264.1,450.4c-2.9,0.3-5.8,0.6-8.7,0.9c-0.1,0-0.2,0.1-0.2,0.3c0,0.1,0.1,0.2,0.3,0.2c2.9-0.2,5.8-0.5,8.7-0.9
	c0.1,0,0.2-0.1,0.2-0.3C264.4,450.4,264.3,450.3,264.1,450.4L264.1,450.4z M281.4,447.6c-2.8,0.6-5.7,1.1-8.6,1.6
	c-0.1,0-0.2,0.2-0.2,0.3c0,0.1,0.2,0.2,0.3,0.2c2.9-0.5,5.8-1,8.6-1.6c0.1,0,0.2-0.2,0.2-0.3C281.7,447.6,281.5,447.5,281.4,447.6
	L281.4,447.6z M298.4,443.4c-2.8,0.8-5.6,1.6-8.5,2.3c-0.1,0-0.2,0.2-0.2,0.3c0,0.1,0.2,0.2,0.3,0.2c2.8-0.7,5.7-1.5,8.5-2.3
	c0.1,0,0.2-0.2,0.2-0.3C298.7,443.4,298.5,443.3,298.4,443.4L298.4,443.4z M315,437.8c-2.7,1-5.5,2-8.2,2.9c-0.1,0-0.2,0.2-0.2,0.3
	c0,0.1,0.2,0.2,0.3,0.2c2.8-0.9,5.5-1.9,8.3-2.9c0.1-0.1,0.2-0.2,0.1-0.3C315.3,437.8,315.1,437.8,315,437.8L315,437.8z M331,431
	c-2.6,1.2-5.3,2.4-8,3.6c-0.1,0.1-0.2,0.2-0.1,0.3c0.1,0.1,0.2,0.2,0.3,0.1c2.7-1.1,5.3-2.3,8-3.6c0.1-0.1,0.2-0.2,0.1-0.3
	C331.3,431,331.2,430.9,331,431L331,431z M346.5,422.8c-2.5,1.5-5.1,2.9-7.6,4.2c-0.1,0.1-0.2,0.2-0.1,0.3c0.1,0.1,0.2,0.2,0.3,0.1
	c2.6-1.4,5.1-2.8,7.7-4.2c0.1-0.1,0.2-0.2,0.1-0.4C346.8,422.8,346.6,422.8,346.5,422.8L346.5,422.8z M361.2,413.5
	c-2.4,1.7-4.8,3.3-7.3,4.8c-0.1,0.1-0.2,0.2-0.1,0.4c0.1,0.1,0.2,0.2,0.4,0.1c2.5-1.6,4.9-3.2,7.3-4.8c0.1-0.1,0.1-0.2,0.1-0.4
	C361.5,413.4,361.4,413.4,361.2,413.5L361.2,413.5z M375.2,403c-2.3,1.8-4.6,3.6-6.9,5.4c-0.1,0.1-0.1,0.2-0.1,0.4
	c0.1,0.1,0.2,0.1,0.4,0.1c2.3-1.8,4.6-3.6,6.9-5.4c0.1-0.1,0.1-0.3,0-0.4C375.5,402.9,375.3,402.9,375.2,403L375.2,403z
	 M388.3,391.4c-2.1,2-4.2,4-6.4,5.9c-0.1,0.1-0.1,0.3,0,0.4c0.1,0.1,0.3,0.1,0.4,0c2.2-1.9,4.3-3.9,6.4-5.9c0.1-0.1,0.1-0.3,0-0.4
	C388.6,391.3,388.4,391.3,388.3,391.4L388.3,391.4z M400.4,378.8c-1.9,2.2-3.9,4.3-5.9,6.4c-0.1,0.1-0.1,0.3,0,0.4
	c0.1,0.1,0.3,0.1,0.4,0c2-2.1,4-4.3,6-6.4c0.1-0.1,0.1-0.3,0-0.4C400.7,378.6,400.5,378.7,400.4,378.8z M411.5,365.2
	c-1.8,2.3-3.6,4.6-5.4,6.9c-0.1,0.1-0.1,0.3,0,0.4c0.1,0.1,0.3,0.1,0.4,0c1.9-2.3,3.7-4.6,5.4-6.9c0.1-0.1,0.1-0.3-0.1-0.4
	C411.8,365.1,411.6,365.1,411.5,365.2z M421.5,350.8c-1.6,2.5-3.2,4.9-4.8,7.3c-0.1,0.1-0.1,0.3,0.1,0.4c0.1,0.1,0.3,0.1,0.4-0.1
	c1.7-2.4,3.3-4.8,4.9-7.3c0.1-0.1,0-0.3-0.1-0.4C421.7,350.7,421.6,350.7,421.5,350.8L421.5,350.8z M430.3,335.6
	c-1.4,2.6-2.8,5.1-4.2,7.7c-0.1,0.1,0,0.3,0.1,0.4c0.1,0.1,0.3,0,0.4-0.1c1.5-2.5,2.9-5.1,4.2-7.7c0.1-0.1,0-0.3-0.1-0.3
	C430.5,335.5,430.3,335.5,430.3,335.6L430.3,335.6z M437.8,319.8c-1.1,2.7-2.4,5.4-3.6,8c-0.1,0.1,0,0.3,0.1,0.3
	c0.1,0.1,0.3,0,0.3-0.1c1.3-2.6,2.5-5.3,3.6-8c0.1-0.1,0-0.3-0.1-0.3S437.9,319.7,437.8,319.8L437.8,319.8z M444,303.4
	c-0.9,2.8-1.9,5.5-2.9,8.3c-0.1,0.1,0,0.3,0.1,0.3c0.1,0.1,0.3,0,0.3-0.1c1-2.7,2-5.5,3-8.3c0-0.1,0-0.3-0.2-0.3
	C444.2,303.2,444.1,303.3,444,303.4L444,303.4z M448.9,286.6c-0.7,2.8-1.5,5.7-2.3,8.5c0,0.1,0,0.3,0.2,0.3c0.1,0,0.3,0,0.3-0.2
	c0.8-2.8,1.6-5.6,2.3-8.5c0-0.1-0.1-0.3-0.2-0.3C449.1,286.4,448.9,286.5,448.9,286.6L448.9,286.6z M452.4,269.4
	c-0.5,2.9-1,5.8-1.6,8.6c0,0.1,0.1,0.3,0.2,0.3c0.1,0,0.3-0.1,0.3-0.2c0.6-2.9,1.1-5.7,1.6-8.6c0-0.1-0.1-0.3-0.2-0.3
	C452.5,269.2,452.4,269.3,452.4,269.4z M454.5,252.1c-0.2,2.9-0.5,5.8-0.9,8.7c0,0.1,0.1,0.3,0.2,0.3c0.1,0,0.3-0.1,0.3-0.2
	c0.3-2.9,0.6-5.8,0.9-8.7c0-0.1-0.1-0.3-0.2-0.3C454.6,251.8,454.5,251.9,454.5,252.1L454.5,252.1z" id="BJmF6ruzjCz"/></g>
<script>(function(){var a=document.querySelector('#H1aSdfjAG'),b=a.querySelectorAll('style'),c=function(d){b.forEach(function(f){var g=f.textContent;g&amp;&amp;(f.textContent=g.replace(/transform-box:[^;\r\n]*/gi,'transform-box: '+d))})};c('initial'),window.requestAnimationFrame(function(){return c('fill-box')})})();</script></svg>