<svg version="1.1" id="HkPFijtRf" xmlns="http://www.w3.org/2000/svg" xmlns:xlink="http://www.w3.org/1999/xlink" x="0px" y="0px" viewBox="0 0 524 600" style="enable-background:new 0 0 524 717;" xml:space="preserve"><style>@-webkit-keyframes BkneDFsotAf_ryPynoFCM_Animation{0%{-webkit-transform: translate(0px, 90px);transform: translate(0px, 90px);}20%{-webkit-transform: translate(0px, -60px);transform: translate(0px, -60px);}90%{-webkit-transform: translate(0px, -60px);transform: translate(0px, -60px);}100%{-webkit-transform: translate(0px, 90px);transform: translate(0px, 90px);}}@keyframes BkneDFsotAf_ryPynoFCM_Animation{0%{-webkit-transform: translate(0px, 90px);transform: translate(0px, 90px);}20%{-webkit-transform: translate(0px, -60px);transform: translate(0px, -60px);}90%{-webkit-transform: translate(0px, -60px);transform: translate(0px, -60px);}100%{-webkit-transform: translate(0px, 90px);transform: translate(0px, 90px);}}@-webkit-keyframes rkEPtisYCz_SyRCosYAG_Animation{0%{-webkit-transform: translate(0px, 0px);transform: translate(0px, 0px);}17%{-webkit-transform: translate(0px, 200px);transform: translate(0px, 200px);}90%{-webkit-transform: translate(0px, 200px);transform: translate(0px, 200px);}100%{-webkit-transform: translate(0px, 0px);transform: translate(0px, 0px);}}@keyframes rkEPtisYCz_SyRCosYAG_Animation{0%{-webkit-transform: translate(0px, 0px);transform: translate(0px, 0px);}17%{-webkit-transform: translate(0px, 200px);transform: translate(0px, 200px);}90%{-webkit-transform: translate(0px, 200px);transform: translate(0px, 200px);}100%{-webkit-transform: translate(0px, 0px);transform: translate(0px, 0px);}}@-webkit-keyframes HkegPtsiYAG_S159jjYRG_Animation{0%{-webkit-transform: translate(0px, 150px);transform: translate(0px, 150px);}20%{-webkit-transform: translate(0px, -200px);transform: translate(0px, -200px);}90%{-webkit-transform: translate(0px, -200px);transform: translate(0px, -200px);}100%{-webkit-transform: translate(0px, 150px);transform: translate(0px, 150px);}}@keyframes HkegPtsiYAG_S159jjYRG_Animation{0%{-webkit-transform: translate(0px, 150px);transform: translate(0px, 150px);}20%{-webkit-transform: translate(0px, -200px);transform: translate(0px, -200px);}90%{-webkit-transform: translate(0px, -200px);transform: translate(0px, -200px);}100%{-webkit-transform: translate(0px, 150px);transform: translate(0px, 150px);}}#HkPFijtRf *{-webkit-animation-duration: 10s;animation-duration: 10s;-webkit-animation-iteration-count: infinite;animation-iteration-count: infinite;-webkit-animation-timing-function: cubic-bezier(0, 0, 1, 1);animation-timing-function: cubic-bezier(0, 0, 1, 1);}#HybwYjjYAM{fill: #00AB9C;}#H1fwtostCf{fill: #00AB9C;}#HyQPKjotCM{fill: #00AB9C;}#B1SPtiotCz{fill: #3A3A3A;}#SyUPtsoFRz{fill: #808285;}#S1wDtjoFRz{fill: #808285;}#HJOwtojtCM{fill: #808285;}#S1twKioYAz{fill: #3A3A3A;}#SJcvFjotRz{opacity: 0.52;fill: #191919;}#rJjDFioKAM{fill: #808285;}#H1nPYjsKAM{fill: #808285;}#SyawKjiYCz{fill: #808285;}#HyAwKist0z{fill: #231F20;}#SJ1eDtosFAG{opacity: 0.52;fill: #191919;}#SkbxvFiotRf{fill: #3A3A3A;}#ByMgPKojtAz{fill: #808285;}#BkXgDYosKAG{fill: #808285;}#r1VePFooFAf{fill: #808285;}#SJBlvtostRG{fill: #3A3A3A;}#ryIxvtjjK0f{opacity: 0.52;fill: #191919;}#BkPgDtojtCf{fill: #808285;}#rJOgPYojtCz{fill: #808285;}#SkYxwtjjKCG{fill: #808285;}#By9eDtooK0G{fill: #231F20;}#rkogPYijF0z{opacity: 0.52;fill: #191919;}#BJalDFiiYCf{fill: #3A3A3A;}#rJAlPKojYCM{fill: #808285;}#SJkbwFiiY0M{fill: #808285;}#B1gbPFjsK0f{fill: #808285;}#ryWWPFoiKCM{fill: #3A3A3A;}#rkzbvKosFAM{opacity: 0.52;fill: #191919;}#BJm-vKjstRM{fill: #808285;}#ByE-wFoiKAM{fill: #808285;}#H1BWDKjjYRf{fill: #808285;}#By8WvFijKAf{fill: #231F20;}#rJD-wYjjKAM{opacity: 0.52;fill: #191919;}#HkegPtsiYAG_S159jjYRG{-webkit-animation-name: HkegPtsiYAG_S159jjYRG_Animation;animation-name: HkegPtsiYAG_S159jjYRG_Animation;-webkit-transform-origin: 50% 50%;transform-origin: 50% 50%;transform-box: fill-box;-webkit-transform: translate(0px, 150px);transform: translate(0px, 150px);-webkit-animation-timing-function: cubic-bezier(0.42, 0, 0.58, 1);animation-timing-function: cubic-bezier(0.42, 0, 0.58, 1);}#rkEPtisYCz_SyRCosYAG{-webkit-animation-name: rkEPtisYCz_SyRCosYAG_Animation;animation-name: rkEPtisYCz_SyRCosYAG_Animation;-webkit-transform-origin: 50% 50%;transform-origin: 50% 50%;transform-box: fill-box;-webkit-transform: translate(0px, 0px);transform: translate(0px, 0px);-webkit-animation-timing-function: cubic-bezier(0.42, 0, 0.58, 1);animation-timing-function: cubic-bezier(0.42, 0, 0.58, 1);}#BkneDFsotAf_ryPynoFCM{-webkit-animation-name: BkneDFsotAf_ryPynoFCM_Animation;animation-name: BkneDFsotAf_ryPynoFCM_Animation;-webkit-transform-origin: 50% 50%;transform-origin: 50% 50%;transform-box: fill-box;-webkit-transform: translate(0px, 90px);transform: translate(0px, 90px);-webkit-animation-timing-function: cubic-bezier(0.42, 0, 0.58, 1);animation-timing-function: cubic-bezier(0.42, 0, 0.58, 1);}</style>

<g id="ByewKsjtAf">
	<path d="M464.8,15.7L464.8,15.7c2.8,0,5,5.6,5,12.6v649.4c0,6.9-2.2,12.6-5,12.6s-5-5.6-5-12.6V28.3
		C459.8,21.4,462.1,15.7,464.8,15.7z" id="HybwYjjYAM"/>
	<path d="M271.8,15.7L271.8,15.7c2.8,0,5.1,5.6,5.1,12.6v649.4c0,6.9-2.3,12.6-5.1,12.6s-5.1-5.6-5.1-12.6V28.3
		C266.7,21.4,269,15.7,271.8,15.7z" id="H1fwtostCf"/>
	<path d="M74.9,15.7L74.9,15.7c2.8,0,5,5.6,5,12.6v649.4c0,6.9-2.2,12.6-5,12.6s-5-5.6-5-12.6V28.3
		C69.9,21.4,72.1,15.7,74.9,15.7z" id="HyQPKjotCM"/>
</g>
<g id="rkEPtisYCz_SyRCosYAG" data-animator-group="true" data-animator-type="0"><g id="rkEPtisYCz">
	<rect x="229.6" y="75.3" width="84.4" height="91.6" id="B1SPtiotCz"/>
	<polyline points="235.5,112.3 306.2,112.3 306.2,110.3 235.5,110.3 	" id="SyUPtsoFRz"/>
	<polyline points="235.5,128.7 306.2,128.7 306.2,126.7 235.5,126.7 	" id="S1wDtjoFRz"/>
	<polyline points="235.5,145.3 306.2,145.3 306.2,143.3 235.5,143.3 	" id="HJOwtojtCM"/>
	<rect x="229.6" y="167" width="84.4" height="91.6" id="S1twKioYAz"/>
	<rect x="229.6" y="231.7" width="84.4" height="27.2" id="SJcvFjotRz"/>
	<polyline points="235.5,187.7 306.2,187.7 306.2,185.7 235.5,185.7 	" id="rJjDFioKAM"/>
	<polyline points="235.5,204.1 306.2,204.1 306.2,202.1 235.5,202.1 	" id="H1nPYjsKAM"/>
	<polyline points="235.5,220.5 306.2,220.5 306.2,218.5 235.5,218.5 	" id="SyawKjiYCz"/>
	<polyline points="235.5,168.1 306.2,168.1 306.2,166.1 235.5,166.1 	" id="HyAwKist0z"/>
	<rect x="229.6" y="75.3" width="84.4" height="27.2" id="SJ1eDtosFAG"/>
</g></g>
<g id="HkegPtsiYAG_S159jjYRG" data-animator-group="true" data-animator-type="0"><g id="HkegPtsiYAG">
	<rect x="32.7" y="274.3" width="84.4" height="91.6" id="SkbxvFiotRf"/>
	<polyline points="38.5,311.3 109.3,311.3 109.3,309.3 38.5,309.3 	" id="ByMgPKojtAz"/>
	<polyline points="38.5,327.7 109.3,327.7 109.3,325.7 38.5,325.7 	" id="BkXgDYosKAG"/>
	<polyline points="38.5,344.3 109.3,344.3 109.3,342.3 38.5,342.3 	" id="r1VePFooFAf"/>
	<rect x="32.7" y="365.9" width="84.4" height="91.6" id="SJBlvtostRG"/>
	<rect x="32.7" y="430.7" width="84.4" height="27.2" id="ryIxvtjjK0f"/>
	<polyline points="38.5,386.6 109.3,386.6 109.3,384.6 38.5,384.6 	" id="BkPgDtojtCf"/>
	<polyline points="38.5,403 109.3,403 109.3,401 38.5,401 	" id="rJOgPYojtCz"/>
	<polyline points="38.5,419.4 109.3,419.4 109.3,417.4 38.5,417.4 	" id="SkYxwtjjKCG"/>
	<polyline points="38.5,367.1 109.3,367.1 109.3,365.1 38.5,365.1 	" id="By9eDtooK0G"/>
	<rect x="32.7" y="274.3" width="84.4" height="27.2" id="rkogPYijF0z"/>
</g></g>
<g id="BkneDFsotAf_ryPynoFCM" data-animator-group="true" data-animator-type="0"><g id="BkneDFsotAf">
	<rect x="422.6" y="196.1" width="84.4" height="91.6" id="BJalDFiiYCf"/>
	<polyline points="428.5,233.1 499.2,233.1 499.2,231.1 428.5,231.1 	" id="rJAlPKojYCM"/>
	<polyline points="428.5,249.5 499.2,249.5 499.2,247.5 428.5,247.5 	" id="SJkbwFiiY0M"/>
	<polyline points="428.5,266.1 499.2,266.1 499.2,264.1 428.5,264.1 	" id="B1gbPFjsK0f"/>
	<rect x="422.6" y="287.8" width="84.4" height="91.6" id="ryWWPFoiKCM"/>
	<rect x="422.6" y="352.5" width="84.4" height="27.2" id="rkzbvKosFAM"/>
	<polyline points="428.5,308.5 499.2,308.5 499.2,306.5 428.5,306.5 	" id="BJm-vKjstRM"/>
	<polyline points="428.5,324.9 499.2,324.9 499.2,322.9 428.5,322.9 	" id="ByE-wFoiKAM"/>
	<polyline points="428.5,341.2 499.2,341.2 499.2,339.2 428.5,339.2 	" id="H1BWDKjjYRf"/>
	<polyline points="428.5,288.9 499.2,288.9 499.2,286.9 428.5,286.9 	" id="By8WvFijKAf"/>
	<rect x="422.6" y="196.1" width="84.4" height="27.2" id="rJD-wYjjKAM"/>
</g></g>
<script>(function(){var a=document.querySelector('#HkPFijtRf'),b=a.querySelectorAll('style'),c=function(d){b.forEach(function(f){var g=f.textContent;g&amp;&amp;(f.textContent=g.replace(/transform-box:[^;\r\n]*/gi,'transform-box: '+d))})};c('initial'),window.requestAnimationFrame(function(){return c('fill-box')})})();</script></svg>