<?xml version="1.0" encoding="utf-8"?>
<!-- Generator: Adobe Illustrator 22.1.0, SVG Export Plug-In . SVG Version: 6.00 Build 0)  -->
<svg version="1.1" id="Layer_1" xmlns="http://www.w3.org/2000/svg" xmlns:xlink="http://www.w3.org/1999/xlink" x="0px" y="0px"
	 viewBox="0 0 699.7 384.8" style="enable-background:new 0 0 699.7 384.8;" xml:space="preserve">
<style type="text/css">
	.st0{display:none;fill:#1A1A1A;stroke:#FFFFFF;stroke-miterlimit:10;}
	.st1{fill:none;stroke:#00AB9C;stroke-width:8;stroke-linecap:round;stroke-miterlimit:10;}
	.st2{fill:none;stroke:#FCCD4C;stroke-width:8;stroke-linecap:round;stroke-miterlimit:10;}
	.st3{fill:#FCF3E9;}
	.st4{fill:#00AB9C;}
	.st5{fill:#FFC000;}
</style>
<rect x="-22.2" y="-8.3" class="st0" width="756.3" height="431.5"/>
<title>hp</title>
<path id="trait_x5F_newsletter" class="st1" d="M557.8,319.3c0,0-32.4,26.1-54.1,2.9c-7.5-8.1-27.6-85.1-63.4-85.1
	s-73.2,131-140.2,91.9"/>
<path id="trait_x5F_social" class="st2" d="M564.5,310.2c0,0-98.8,79.7-160,46.1C355.6,329.4,333.1,210,333.1,210"/>
<path id="trait_x5F_chat" class="st1" d="M567.5,316.1c0,0,8.4-42.4-29.5-66.4s-110.5,71.2-123.5-33.2C401.8,114,326,91.8,326,91.8"
	/>
<path id="trait_x5F_form" class="st1" d="M574.6,285.7c0,0,10.8-63.7-56.3-92s-141.7,93.1-273.7,12.1"/>
<path id="trait_x5F_mail" class="st2" d="M578.8,272c0,0-21.5-6.6-41.8-11.8c-85.6-21.5-27.1-158.2-105.7-200"/>
<path id="megaphone_x5F_corps" class="st3" d="M644.1,319.7l-50.8-62.3c-4.4-2.1-9.6-0.3-11.7,4l-36.2,73.8c-2.1,4.4-0.3,9.6,4,11.7
	l80.7,3c4.4,2.1,9.6,0.3,11.7-4l6.3-14.5C650.2,327.1,648.4,321.9,644.1,319.7z"/>
<path id="megaphone_x5F_tete" class="st4" d="M651.7,315.9l31.6,15.5c5.9,2.9,8.4,10.1,5.5,16.1l-9.8,20c-2.9,5.9-10.1,8.4-16.1,5.5
	l-31.6-15.5c-5.9-2.9-8.4-10.1-5.5-16.1l9.8-20C638.6,315.4,645.8,313,651.7,315.9z"/>
<polygon id="bandeau" class="st4" points="600.7,267 597.2,262.8 555.8,347.1 561.2,347.3 "/>
<g id="mail">
	<rect id="mail_x5F_area" x="354.5" class="st5" width="76.8" height="60.2"/>
	<g>
		<g>
			<path class="st3" d="M420.6,7.8h-50.3c-2.9,0-5.3,2.2-5.3,5v33.1c0,2.7,2.4,5,5.4,5h50.3c2.9,0,5.4-2.2,5.4-5V12.8
				C426,10,423.6,7.8,420.6,7.8z M419.5,10.6l-24.1,22.6L371,10.6H419.5z M368,44.9V13l17.1,15.9L368,44.9z M371,47.1l17.1-16l6,5.6
				c0.7,0.6,1.8,0.6,2.5,0l5.8-5.5l17,15.9H371z M422,44.9L405,29l17-15.9V44.9z"/>
		</g>
	</g>
	<g>
	</g>
	<g>
	</g>
	<g>
	</g>
	<g>
	</g>
	<g>
	</g>
	<g>
	</g>
	<g>
	</g>
	<g>
	</g>
	<g>
	</g>
	<g>
	</g>
	<g>
	</g>
	<g>
	</g>
	<g>
	</g>
	<g>
	</g>
	<g>
	</g>
</g>
<g id="newsletter">
	<rect id="newsletter_x5F_area" x="214.2" y="294.8" class="st5" width="76.9" height="83.2"/>
	<g>
		<g>
			<g>
				<path class="st3" d="M270.4,318.1L270.4,318.1c0-0.8-0.8-1.4-1.8-1.4h-40.7c-2.8,0-5,1.7-5,3.8V356c0,4.6,4.9,8.4,10.9,8.4H274
					c6,0,10.9-3.7,10.9-8.4v-35c0-0.8-0.8-1.4-1.8-1.4h-10.9C271.2,319.5,270.4,318.9,270.4,318.1z M232,361.5c-3,0-5.5-1.9-5.5-4.2
					v-37.8h40.2v37.8c0,1.6,0.7,3,1.8,4.2H232z M281.3,357.4c0,2.3-2.4,4.2-5.5,4.2s-5.5-1.9-5.5-4.2v-35h3.6v34.6h3.6v-34.6h3.6
					V357.4z"/>
			</g>
		</g>
	</g>
	<g>
		<g>
			<rect x="230.2" y="328" class="st3" width="33" height="2.8"/>
		</g>
	</g>
	<g>
		<g>
			<rect x="248.5" y="339.1" class="st3" width="14.7" height="2.8"/>
		</g>
	</g>
	<g>
		<g>
			<rect x="248.5" y="350.3" class="st3" width="14.7" height="2.8"/>
		</g>
	</g>
	<g>
		<g>
			<path class="st3" d="M230.2,339.1v13.9h14.7v-13.9H230.2z M241.2,350.3h-7.4v-8.4h7.4V350.3z"/>
		</g>
	</g>
	<g>
	</g>
	<g>
	</g>
	<g>
	</g>
	<g>
	</g>
	<g>
	</g>
	<g>
	</g>
	<g>
	</g>
	<g>
	</g>
	<g>
	</g>
	<g>
	</g>
	<g>
	</g>
	<g>
	</g>
	<g>
	</g>
	<g>
	</g>
	<g>
	</g>
</g>
<g id="form">
	<rect id="form_x5F_area" x="164.4" y="167.7" class="st5" width="76.9" height="83.2"/>
	<g>
		<g>
			<path class="st3" d="M235.8,190.9l-17.3-17.3c-0.3-0.3-0.6-0.4-1-0.4h-33c-3.9,0-7.1,3.2-7.1,7.1v57.2c0,3.9,3.2,7.1,7.1,7.1
				h44.7c3.9,0,7.1-3.2,7.1-7.1V192C236.2,191.6,236.1,191.2,235.8,190.9z M219,178.2l12.3,12.3h-8.1c-1.1,0-2.2-0.4-2.9-1.2
				c-0.8-0.8-1.2-1.8-1.2-2.9V178.2z M233.3,237.5c0,2.3-1.9,4.2-4.2,4.2h-44.7c-2.3,0-4.2-1.9-4.2-4.2v-57.2c0-2.3,1.9-4.2,4.2-4.2
				H216v10.2c0,1.9,0.7,3.7,2.1,5c1.3,1.3,3.1,2.1,5,2.1h10.2L233.3,237.5L233.3,237.5z"/>
		</g>
	</g>
	<g>
		<g>
			<path class="st3" d="M191.7,215.6h-0.7c-0.8,0-1.5,0.7-1.5,1.5c0,0.8,0.7,1.5,1.5,1.5h0.7c0.8,0,1.5-0.7,1.5-1.5
				C193.2,216.2,192.5,215.6,191.7,215.6z"/>
		</g>
	</g>
	<g>
		<g>
			<path class="st3" d="M222.5,215.6h-26.1c-0.8,0-1.5,0.7-1.5,1.5c0,0.8,0.7,1.5,1.5,1.5h26.1c0.8,0,1.5-0.7,1.5-1.5
				C224,216.2,223.3,215.6,222.5,215.6z"/>
		</g>
	</g>
	<g>
		<g>
			<path class="st3" d="M191.7,208.9h-0.7c-0.8,0-1.5,0.7-1.5,1.5s0.7,1.5,1.5,1.5h0.7c0.8,0,1.5-0.7,1.5-1.5
				S192.5,208.9,191.7,208.9z"/>
		</g>
	</g>
	<g>
		<g>
			<path class="st3" d="M222.5,208.9h-26.1c-0.8,0-1.5,0.7-1.5,1.5s0.7,1.5,1.5,1.5h26.1c0.8,0,1.5-0.7,1.5-1.5
				S223.3,208.9,222.5,208.9z"/>
		</g>
	</g>
	<g>
		<g>
			<path class="st3" d="M191.7,202.3h-0.7c-0.8,0-1.5,0.7-1.5,1.5s0.7,1.5,1.5,1.5h0.7c0.8,0,1.5-0.7,1.5-1.5
				S192.5,202.3,191.7,202.3z"/>
		</g>
	</g>
	<g>
		<g>
			<path class="st3" d="M222.5,202.3h-26.1c-0.8,0-1.5,0.7-1.5,1.5s0.7,1.5,1.5,1.5h26.1c0.8,0,1.5-0.7,1.5-1.5
				S223.3,202.3,222.5,202.3z"/>
		</g>
	</g>
	<g>
	</g>
	<g>
	</g>
	<g>
	</g>
	<g>
	</g>
	<g>
	</g>
	<g>
	</g>
	<g>
	</g>
	<g>
	</g>
	<g>
	</g>
	<g>
	</g>
	<g>
	</g>
	<g>
	</g>
	<g>
	</g>
	<g>
	</g>
	<g>
	</g>
</g>
<g id="social">
	<rect id="social_x5F_area" x="288.1" y="131.4" class="st5" width="76.9" height="68.5"/>
	<g>
		<g>
			<path class="st3" d="M349.5,136.9h-46.9c-4,0-7.2,3.1-7.2,6.8v44.7c0,3.8,3.2,6.8,7.2,6.8h46.9c4,0,7.2-3.1,7.2-6.8v-44.7
				C356.7,140,353.4,136.9,349.5,136.9z M351.9,188.4c0,1.3-1.1,2.3-2.4,2.3h-13.6v-18.6h7.4l1.2-7.1h-8.6v-4.9
				c0-1.9,1.6-3.4,3.6-3.4h4.9v-7.1h-4.9c-6.1,0-11,4.7-11,10.5v4.9h-7.2v7.1h7.2v18.6h-25.9c-1.3,0-2.4-1-2.4-2.3v-44.7
				c0-1.3,1.1-2.3,2.4-2.3h46.9c1.3,0,2.4,1,2.4,2.3V188.4z"/>
		</g>
	</g>
	<g>
	</g>
	<g>
	</g>
	<g>
	</g>
	<g>
	</g>
	<g>
	</g>
	<g>
	</g>
	<g>
	</g>
	<g>
	</g>
	<g>
	</g>
	<g>
	</g>
	<g>
	</g>
	<g>
	</g>
	<g>
	</g>
	<g>
	</g>
	<g>
	</g>
</g>
<g id="chat">
	<rect id="chat_x5F_area" x="210" y="26.9" class="st5" width="107" height="94.5"/>
	<g>
		<g>
			<path class="st3" d="M229.2,116.2c0.2,0.1,0.5,0.1,0.7,0.1c0.4,0,0.9-0.2,1.2-0.5l12.3-11.7h23c4.8,0,8.7-3.9,8.7-8.7V82.4
				c0-1-0.8-1.8-1.8-1.8s-1.8,0.8-1.8,1.8v13.1c0,2.8-2.3,5.1-5.1,5.1h-23.8c-0.4,0-0.9,0.2-1.2,0.5l-9.8,9.3v-8
				c0-1-0.8-1.8-1.8-1.8h-5.4c-2.8,0-5.1-2.3-5.1-5.1V69.9c0-2.8,2.3-5.1,5.1-5.1h21c1,0,1.8-0.8,1.8-1.8s-0.8-1.8-1.8-1.8h-21
				c-4.8,0-8.7,3.9-8.7,8.7v25.6c0,4.8,3.9,8.7,8.7,8.7h3.6v10.5C228.1,115.3,228.5,116,229.2,116.2z"/>
			<path class="st3" d="M283.7,76.1L296,88c0.3,0.3,0.8,0.5,1.2,0.5c0.2,0,0.5,0,0.7-0.1c0.6-0.3,1.1-0.9,1.1-1.6V76.1h3.7
				c4.8,0,8.7-3.9,8.7-8.7V41.6c0-4.8-3.9-8.7-8.7-8.7h-42.3c-4.8,0-8.7,3.9-8.7,8.7v25.8c0,4.8,3.9,8.7,8.7,8.7H283.7L283.7,76.1z
				 M255.2,67.4V41.6c0-2.9,2.3-5.2,5.2-5.2h42.3c2.9,0,5.2,2.3,5.2,5.2v25.8c0,2.9-2.3,5.2-5.2,5.2h-5.5c-1,0-1.8,0.8-1.8,1.8v8.2
				l-9.9-9.4c-0.3-0.3-0.8-0.5-1.2-0.5h-23.9C257.6,72.6,255.2,70.3,255.2,67.4z"/>
			<path class="st3" d="M281.5,56.6c0.5,0,0.9-0.2,1.3-0.5c0.3-0.3,0.5-0.8,0.5-1.3c0-0.5-0.2-0.9-0.5-1.3c-0.3-0.3-0.8-0.5-1.3-0.5
				s-0.9,0.2-1.3,0.5c-0.3,0.3-0.5,0.8-0.5,1.3c0,0.5,0.2,0.9,0.5,1.3C280.6,56.5,281.1,56.6,281.5,56.6z"/>
			<path class="st3" d="M288.1,56.6c0.5,0,0.9-0.2,1.3-0.5c0.3-0.3,0.5-0.8,0.5-1.3c0-0.5-0.2-0.9-0.5-1.3c-0.3-0.3-0.8-0.5-1.3-0.5
				s-0.9,0.2-1.3,0.5c-0.3,0.3-0.5,0.8-0.5,1.3c0,0.5,0.2,0.9,0.5,1.3C287.2,56.5,287.7,56.6,288.1,56.6z"/>
			<path class="st3" d="M275,56.6c0.5,0,0.9-0.2,1.3-0.5c0.3-0.3,0.5-0.8,0.5-1.3c0-0.5-0.2-0.9-0.5-1.3c-0.3-0.3-0.8-0.5-1.3-0.5
				s-0.9,0.2-1.3,0.5c-0.3,0.3-0.5,0.8-0.5,1.3c0,0.5,0.2,0.9,0.5,1.3C274,56.5,274.5,56.6,275,56.6z"/>
		</g>
	</g>
	<g>
	</g>
	<g>
	</g>
	<g>
	</g>
	<g>
	</g>
	<g>
	</g>
	<g>
	</g>
	<g>
	</g>
	<g>
	</g>
	<g>
	</g>
	<g>
	</g>
	<g>
	</g>
	<g>
	</g>
	<g>
	</g>
	<g>
	</g>
	<g>
	</g>
</g>
</svg>
