<svg id="Layer_1" xmlns="http://www.w3.org/2000/svg" viewBox="0 0 580 237.3"><style>.st0{fill:#4e4e4e}.st1{fill:#00ab9c}.st2{fill:#f8b32f}.st3,.st4{fill:none;stroke:#00ab9c;stroke-width:10;stroke-miterlimit:10}.st4{fill:#716977;stroke-width:8}.st5{fill:#ffc000}.st6{fill:#b93a59}.st7{fill:#ffc000;enable-background:new}</style><title>bureau</title><path class="st0" d="M12.3 222.9h8.6c2.8 0 5 2.2 5 5 0 2.7-2.2 5-5 5h-8.6c-2.8 0-5-2.2-5-5s2.2-5 5-5zm76.9 0h8.6c2.8 0 5 2.2 5 5 0 2.7-2.2 5-5 5h-8.6c-2.8 0-5-2.2-5-5s2.2-5 5-5z"/><path class="st1" d="M12 58.8h85.7c6.6 0 12 5.4 12 12V217c0 6.6-5.4 12-12 12H12c-6.6 0-12-5.4-12-12V70.8c0-6.6 5.4-12 12-12z"/><circle class="st0" cx="10.9" cy="69.4" r="3.6"/><circle class="st0" cx="99.1" cy="69.4" r="3.6"/><circle class="st0" cx="10.9" cy="217.8" r="3.6"/><circle class="st0" cx="99.1" cy="217.8" r="3.6"/><circle class="st0" cx="54.9" cy="103" r="19.6"/><circle class="st2" cx="55.2" cy="103" r="15.2"/><circle class="st0" cx="55.2" cy="177" r="38.3"/><circle class="st0" cx="54.9" cy="103" r="7.2"/><circle class="st2" cx="54.9" cy="177.9" r="26.7"/><circle class="st0" cx="54.9" cy="177.9" r="14.2"/><path class="st3" d="M164.1 14.6h251.1c6.6 0 12 5.4 12 12v129.2c0 6.6-5.4 12-12 12H164.1c-6.6 0-12-5.4-12-12V26.6c0-6.6 5.4-12 12-12z"/><path class="st1" d="M275.6 164h28.8c.9 0 1.6.7 1.6 1.6v66.1c0 .9-.7 1.6-1.6 1.6h-28.8c-.9 0-1.6-.7-1.6-1.6v-66.1c0-.9.7-1.6 1.6-1.6z"/><path class="st4" d="M234.7 233.3l111.1-.5"/><path class="st5" d="M194.3 145.8h8.8c2.2 0 3.9 1.7 3.9 3.9 0 2.1-1.7 3.9-3.9 3.9h-8.8c-2.2 0-3.9-1.7-3.9-3.9s1.7-3.9 3.9-3.9zm20.3 0h8.8c2.2 0 3.9 1.7 3.9 3.9 0 2.1-1.7 3.9-3.9 3.9h-8.8c-2.2 0-3.9-1.7-3.9-3.9s1.7-3.9 3.9-3.9zm20.4 0h8.8c2.2 0 3.9 1.7 3.9 3.9 0 2.1-1.7 3.9-3.9 3.9H235c-2.2 0-3.9-1.7-3.9-3.9s1.7-3.9 3.9-3.9zm20.4 0h8.8c2.2 0 3.9 1.7 3.9 3.9 0 2.1-1.7 3.9-3.9 3.9h-8.8c-2.2 0-3.9-1.7-3.9-3.9s1.7-3.9 3.9-3.9zm20.3 0h8.8c2.2 0 3.9 1.7 3.9 3.9 0 2.1-1.7 3.9-3.9 3.9h-8.8c-2.2 0-3.9-1.7-3.9-3.9s1.7-3.9 3.9-3.9zm20.3 0h8.8c2.2 0 3.9 1.7 3.9 3.9 0 2.1-1.7 3.9-3.9 3.9H296c-2.2 0-3.9-1.7-3.9-3.9s1.7-3.9 3.9-3.9zm18.9 0h8.8c2.2 0 3.9 1.7 3.9 3.9 0 2.1-1.7 3.9-3.9 3.9h-8.8c-2.2 0-3.9-1.7-3.9-3.9s1.7-3.9 3.9-3.9zm21.3 0h8.8c2.2 0 3.9 1.7 3.9 3.9 0 2.1-1.7 3.9-3.9 3.9h-8.8c-2.2 0-3.9-1.7-3.9-3.9s1.7-3.9 3.9-3.9zm20.8 0h8.8c2.2 0 3.9 1.7 3.9 3.9 0 2.1-1.7 3.9-3.9 3.9H357c-2.2 0-3.9-1.7-3.9-3.9s1.7-3.9 3.9-3.9zm20 0h8.8c2.2 0 3.9 1.7 3.9 3.9 0 2.1-1.7 3.9-3.9 3.9H377c-2.2 0-3.9-1.7-3.9-3.9s1.7-3.9 3.9-3.9zm-182.7-9.3h8.8c2.2 0 3.9 1.7 3.9 3.9 0 2.1-1.7 3.9-3.9 3.9h-8.8c-2.2 0-3.9-1.7-3.9-3.9s1.7-3.9 3.9-3.9zm20.3 0h8.8c2.2 0 3.9 1.7 3.9 3.9 0 2.1-1.7 3.9-3.9 3.9h-8.8c-2.2 0-3.9-1.7-3.9-3.9s1.7-3.9 3.9-3.9zm20.4 0h8.8c2.2 0 3.9 1.7 3.9 3.9 0 2.1-1.7 3.9-3.9 3.9H235c-2.2 0-3.9-1.7-3.9-3.9s1.7-3.9 3.9-3.9zm20.4 0h8.8c2.2 0 3.9 1.7 3.9 3.9 0 2.1-1.7 3.9-3.9 3.9h-8.8c-2.2 0-3.9-1.7-3.9-3.9s1.7-3.9 3.9-3.9zm20.3 0h8.8c2.2 0 3.9 1.7 3.9 3.9 0 2.1-1.7 3.9-3.9 3.9h-8.8c-2.2 0-3.9-1.7-3.9-3.9s1.7-3.9 3.9-3.9zm20.3 0h8.8c2.2 0 3.9 1.7 3.9 3.9 0 2.1-1.7 3.9-3.9 3.9H296c-2.2 0-3.9-1.7-3.9-3.9s1.7-3.9 3.9-3.9zm18.9 0h8.8c2.2 0 3.9 1.7 3.9 3.9 0 2.1-1.7 3.9-3.9 3.9h-8.8c-2.2 0-3.9-1.7-3.9-3.9s1.7-3.9 3.9-3.9zm21.3 0h8.8c2.2 0 3.9 1.7 3.9 3.9 0 2.1-1.7 3.9-3.9 3.9h-8.8c-2.2 0-3.9-1.7-3.9-3.9s1.7-3.9 3.9-3.9zm20.8 0h8.8c2.2 0 3.9 1.7 3.9 3.9 0 2.1-1.7 3.9-3.9 3.9H357c-2.2 0-3.9-1.7-3.9-3.9s1.7-3.9 3.9-3.9zm20 0h8.8c2.2 0 3.9 1.7 3.9 3.9 0 2.1-1.7 3.9-3.9 3.9H377c-2.2 0-3.9-1.7-3.9-3.9s1.7-3.9 3.9-3.9zm-182.7-9.2h8.8c2.2 0 3.9 1.7 3.9 3.9 0 2.1-1.7 3.9-3.9 3.9h-8.8c-2.2 0-3.9-1.7-3.9-3.9s1.7-3.9 3.9-3.9zm20.3 0h8.8c2.2 0 3.9 1.7 3.9 3.9 0 2.1-1.7 3.9-3.9 3.9h-8.8c-2.2 0-3.9-1.7-3.9-3.9s1.7-3.9 3.9-3.9zm20.4 0h8.8c2.2 0 3.9 1.7 3.9 3.9 0 2.1-1.7 3.9-3.9 3.9H235c-2.2 0-3.9-1.7-3.9-3.9s1.7-3.9 3.9-3.9zm20.4 0h8.8c2.2 0 3.9 1.7 3.9 3.9 0 2.1-1.7 3.9-3.9 3.9h-8.8c-2.2 0-3.9-1.7-3.9-3.9s1.7-3.9 3.9-3.9zm20.3 0h8.8c2.2 0 3.9 1.7 3.9 3.9 0 2.1-1.7 3.9-3.9 3.9h-8.8c-2.2 0-3.9-1.7-3.9-3.9s1.7-3.9 3.9-3.9zm20.3 0h8.8c2.2 0 3.9 1.7 3.9 3.9 0 2.1-1.7 3.9-3.9 3.9H296c-2.2 0-3.9-1.7-3.9-3.9s1.7-3.9 3.9-3.9zm18.9 0h8.8c2.2 0 3.9 1.7 3.9 3.9 0 2.1-1.7 3.9-3.9 3.9h-8.8c-2.2 0-3.9-1.7-3.9-3.9s1.7-3.9 3.9-3.9zm21.3 0h8.8c2.2 0 3.9 1.7 3.9 3.9 0 2.1-1.7 3.9-3.9 3.9h-8.8c-2.2 0-3.9-1.7-3.9-3.9s1.7-3.9 3.9-3.9zm20.8 0h8.8c2.2 0 3.9 1.7 3.9 3.9 0 2.1-1.7 3.9-3.9 3.9H357c-2.2 0-3.9-1.7-3.9-3.9s1.7-3.9 3.9-3.9zm20 0h8.8c2.2 0 3.9 1.7 3.9 3.9 0 2.1-1.7 3.9-3.9 3.9H377c-2.2 0-3.9-1.7-3.9-3.9s1.7-3.9 3.9-3.9zm-182.7-8.8h8.8c2.2 0 3.9 1.7 3.9 3.9 0 2.1-1.7 3.9-3.9 3.9h-8.8c-2.2 0-3.9-1.7-3.9-3.9s1.7-3.9 3.9-3.9zm20.3 0h8.8c2.2 0 3.9 1.7 3.9 3.9 0 2.1-1.7 3.9-3.9 3.9h-8.8c-2.2 0-3.9-1.7-3.9-3.9s1.7-3.9 3.9-3.9zm20.4 0h8.8c2.2 0 3.9 1.7 3.9 3.9 0 2.1-1.7 3.9-3.9 3.9H235c-2.2 0-3.9-1.7-3.9-3.9s1.7-3.9 3.9-3.9zm20.4 0h8.8c2.2 0 3.9 1.7 3.9 3.9 0 2.1-1.7 3.9-3.9 3.9h-8.8c-2.2 0-3.9-1.7-3.9-3.9s1.7-3.9 3.9-3.9z"/><path class="st6" d="M275.7 118.5h8.8c2.2 0 3.9 1.7 3.9 3.9 0 2.1-1.7 3.9-3.9 3.9h-8.8c-2.2 0-3.9-1.7-3.9-3.9s1.7-3.9 3.9-3.9z"/><path class="st5" d="M296 118.5h8.8c2.2 0 3.9 1.7 3.9 3.9 0 2.1-1.7 3.9-3.9 3.9H296c-2.2 0-3.9-1.7-3.9-3.9s1.7-3.9 3.9-3.9zm18.9 0h8.8c2.2 0 3.9 1.7 3.9 3.9 0 2.1-1.7 3.9-3.9 3.9h-8.8c-2.2 0-3.9-1.7-3.9-3.9s1.7-3.9 3.9-3.9zm21.3 0h8.8c2.2 0 3.9 1.7 3.9 3.9 0 2.1-1.7 3.9-3.9 3.9h-8.8c-2.2 0-3.9-1.7-3.9-3.9s1.7-3.9 3.9-3.9zm20.8 0h8.8c2.2 0 3.9 1.7 3.9 3.9 0 2.1-1.7 3.9-3.9 3.9H357c-2.2 0-3.9-1.7-3.9-3.9s1.7-3.9 3.9-3.9zm20 0h8.8c2.2 0 3.9 1.7 3.9 3.9 0 2.1-1.7 3.9-3.9 3.9H377c-2.2 0-3.9-1.7-3.9-3.9s1.7-3.9 3.9-3.9zm-182.7-8.9h8.8c2.2 0 3.9 1.7 3.9 3.9 0 2.1-1.7 3.9-3.9 3.9h-8.8c-2.2 0-3.9-1.7-3.9-3.9s1.7-3.9 3.9-3.9zm20.3 0h8.8c2.2 0 3.9 1.7 3.9 3.9 0 2.1-1.7 3.9-3.9 3.9h-8.8c-2.2 0-3.9-1.7-3.9-3.9s1.7-3.9 3.9-3.9z"/><path class="st6" d="M235 109.6h8.8c2.2 0 3.9 1.7 3.9 3.9 0 2.1-1.7 3.9-3.9 3.9H235c-2.2 0-3.9-1.7-3.9-3.9s1.7-3.9 3.9-3.9z"/><path class="st5" d="M255.4 109.6h8.8c2.2 0 3.9 1.7 3.9 3.9 0 2.1-1.7 3.9-3.9 3.9h-8.8c-2.2 0-3.9-1.7-3.9-3.9s1.7-3.9 3.9-3.9zm40.6 0h8.8c2.2 0 3.9 1.7 3.9 3.9 0 2.1-1.7 3.9-3.9 3.9H296c-2.2 0-3.9-1.7-3.9-3.9s1.7-3.9 3.9-3.9zm18.9 0h8.8c2.2 0 3.9 1.7 3.9 3.9 0 2.1-1.7 3.9-3.9 3.9h-8.8c-2.2 0-3.9-1.7-3.9-3.9s1.7-3.9 3.9-3.9zm21.3 0h8.8c2.2 0 3.9 1.7 3.9 3.9 0 2.1-1.7 3.9-3.9 3.9h-8.8c-2.2 0-3.9-1.7-3.9-3.9s1.7-3.9 3.9-3.9zm20.8 0h8.8c2.2 0 3.9 1.7 3.9 3.9 0 2.1-1.7 3.9-3.9 3.9H357c-2.2 0-3.9-1.7-3.9-3.9s1.7-3.9 3.9-3.9zm20 0h8.8c2.2 0 3.9 1.7 3.9 3.9 0 2.1-1.7 3.9-3.9 3.9H377c-2.2 0-3.9-1.7-3.9-3.9s1.7-3.9 3.9-3.9zm-182.7-8.4h8.8c2.2 0 3.9 1.7 3.9 3.9 0 2.1-1.7 3.9-3.9 3.9h-8.8c-2.2 0-3.9-1.7-3.9-3.9s1.7-3.9 3.9-3.9z"/><path class="st6" d="M214.6 101.2h8.8c2.2 0 3.9 1.7 3.9 3.9 0 2.1-1.7 3.9-3.9 3.9h-8.8c-2.2 0-3.9-1.7-3.9-3.9s1.7-3.9 3.9-3.9z"/><path class="st5" d="M255.4 101.2h8.8c2.2 0 3.9 1.7 3.9 3.9 0 2.1-1.7 3.9-3.9 3.9h-8.8c-2.2 0-3.9-1.7-3.9-3.9s1.7-3.9 3.9-3.9zm40.6 0h8.8c2.2 0 3.9 1.7 3.9 3.9 0 2.1-1.7 3.9-3.9 3.9H296c-2.2 0-3.9-1.7-3.9-3.9s1.7-3.9 3.9-3.9zm18.9 0h8.8c2.2 0 3.9 1.7 3.9 3.9 0 2.1-1.7 3.9-3.9 3.9h-8.8c-2.2 0-3.9-1.7-3.9-3.9s1.7-3.9 3.9-3.9z"/><path class="st6" d="M336.2 101.2h8.8c2.2 0 3.9 1.7 3.9 3.9 0 2.1-1.7 3.9-3.9 3.9h-8.8c-2.2 0-3.9-1.7-3.9-3.9s1.7-3.9 3.9-3.9z"/><path class="st5" d="M357 101.2h8.8c2.2 0 3.9 1.7 3.9 3.9 0 2.1-1.7 3.9-3.9 3.9H357c-2.2 0-3.9-1.7-3.9-3.9s1.7-3.9 3.9-3.9zm20 0h8.8c2.2 0 3.9 1.7 3.9 3.9 0 2.1-1.7 3.9-3.9 3.9H377c-2.2 0-3.9-1.7-3.9-3.9s1.7-3.9 3.9-3.9zm-182.7-8.4h8.8c2.2 0 3.9 1.7 3.9 3.9 0 2.1-1.7 3.9-3.9 3.9h-8.8c-2.2 0-3.9-1.7-3.9-3.9s1.7-3.9 3.9-3.9zm61.1 0h8.8c2.2 0 3.9 1.7 3.9 3.9 0 2.1-1.7 3.9-3.9 3.9h-8.8c-2.2 0-3.9-1.7-3.9-3.9s1.7-3.9 3.9-3.9z"/><path class="st6" d="M296 92.8h8.8c2.2 0 3.9 1.7 3.9 3.9 0 2.1-1.7 3.9-3.9 3.9H296c-2.2 0-3.9-1.7-3.9-3.9s1.7-3.9 3.9-3.9z"/><path class="st5" d="M314.9 92.8h8.8c2.2 0 3.9 1.7 3.9 3.9 0 2.1-1.7 3.9-3.9 3.9h-8.8c-2.2 0-3.9-1.7-3.9-3.9s1.7-3.9 3.9-3.9z"/><path class="st6" d="M357 92.8h8.8c2.2 0 3.9 1.7 3.9 3.9 0 2.1-1.7 3.9-3.9 3.9H357c-2.2 0-3.9-1.7-3.9-3.9s1.7-3.9 3.9-3.9z"/><path class="st5" d="M377 92.8h8.8c2.2 0 3.9 1.7 3.9 3.9 0 2.1-1.7 3.9-3.9 3.9H377c-2.2 0-3.9-1.7-3.9-3.9s1.7-3.9 3.9-3.9z"/><path class="st6" d="M194.3 84h8.8c2.2 0 3.9 1.7 3.9 3.9 0 2.1-1.7 3.9-3.9 3.9h-8.8c-2.2 0-3.9-1.7-3.9-3.9s1.7-3.9 3.9-3.9zm61.1 0h8.8c2.2 0 3.9 1.7 3.9 3.9 0 2.1-1.7 3.9-3.9 3.9h-8.8c-2.2 0-3.9-1.7-3.9-3.9s1.7-3.9 3.9-3.9z"/><path class="st5" d="M314.9 84h8.8c2.2 0 3.9 1.7 3.9 3.9 0 2.1-1.7 3.9-3.9 3.9h-8.8c-2.2 0-3.9-1.7-3.9-3.9s1.7-3.9 3.9-3.9z"/><path class="st6" d="M377 84h8.8c2.2 0 3.9 1.7 3.9 3.9 0 2.1-1.7 3.9-3.9 3.9H377c-2.2 0-3.9-1.7-3.9-3.9s1.7-3.9 3.9-3.9zm-62.1-8.9h8.8c2.2 0 3.9 1.7 3.9 3.9 0 2.1-1.7 3.9-3.9 3.9h-8.8c-2.2 0-3.9-1.7-3.9-3.9s1.7-3.9 3.9-3.9z"/><path class="st0" d="M482.6 222.9h8.6c2.8 0 5 2.2 5 5 0 2.7-2.2 5-5 5h-8.6c-2.8 0-5-2.2-5-5s2.2-5 5-5zm76.9 0h8.6c2.8 0 5 2.2 5 5 0 2.7-2.2 5-5 5h-8.6c-2.8 0-5-2.2-5-5s2.2-5 5-5z"/><path class="st1" d="M482.3 58.8H568c6.6 0 12 5.4 12 12V217c0 6.6-5.4 12-12 12h-85.7c-6.6 0-12-5.4-12-12V70.8c0-6.6 5.4-12 12-12z"/><circle class="st0" cx="481.2" cy="69.4" r="3.6"/><circle class="st0" cx="525.4" cy="103" r="19.6"/><circle class="st0" cx="569.4" cy="69.4" r="3.6"/><circle class="st0" cx="481.2" cy="217.8" r="3.6"/><circle class="st0" cx="569.4" cy="217.8" r="3.6"/><circle class="st5" cx="525.5" cy="103" r="15.2"/><circle class="st0" cx="525.5" cy="177" r="38.3"/><circle class="st0" cx="525.2" cy="103" r="7.2"/><circle class="st5" cx="525.2" cy="177.9" r="26.7"/><circle class="st0" cx="525.2" cy="177.9" r="14.2"/><path class="st7" d="M289.9 174.6c2.7 0 4.8 2.1 4.8 4.7V202c0 2.6-2.1 4.7-4.7 4.7h-.1c-2.6 0-4.7-2.1-4.7-4.7v-22.7c0-2.6 2.1-4.7 4.7-4.7z"/></svg>