<svg id="Faders" xmlns="http://www.w3.org/2000/svg" viewBox="0 0 524 717"><style>.st0{fill:#00ab9c}.st1{fill:#3a3a3a}.st2{fill:#808285}.st3{opacity:.52;fill:#191919}.st4{fill:#231f20}</style><path class="st0" d="M464.8 15.7c2.8 0 5 5.6 5 12.6v649.4c0 6.9-2.2 12.6-5 12.6s-5-5.6-5-12.6V28.3c0-6.9 2.3-12.6 5-12.6zm-193 0c2.8 0 5.1 5.6 5.1 12.6v649.4c0 6.9-2.3 12.6-5.1 12.6s-5.1-5.6-5.1-12.6V28.3c0-6.9 2.3-12.6 5.1-12.6zm-196.9 0c2.8 0 5 5.6 5 12.6v649.4c0 6.9-2.2 12.6-5 12.6s-5-5.6-5-12.6V28.3c0-6.9 2.2-12.6 5-12.6z" id="Lines"/><g id="Fader2"><path class="st1" d="M229.6 75.3H314v91.6h-84.4z"/><path class="st2" d="M235.5 112.3h70.7v-2h-70.7m0 18.4h70.7v-2h-70.7m0 18.6h70.7v-2h-70.7"/><path class="st1" d="M229.6 167H314v91.6h-84.4z"/><path class="st3" d="M229.6 231.7H314v27.2h-84.4z"/><path class="st2" d="M235.5 187.7h70.7v-2h-70.7m0 18.4h70.7v-2h-70.7m0 18.4h70.7v-2h-70.7"/><path class="st4" d="M235.5 168.1h70.7v-2h-70.7"/><path class="st3" d="M229.6 75.3H314v27.2h-84.4z"/></g><g id="Fader1"><path class="st1" d="M32.7 274.3h84.4v91.6H32.7z"/><path class="st2" d="M38.5 311.3h70.8v-2H38.5m0 18.4h70.8v-2H38.5m0 18.6h70.8v-2H38.5"/><path class="st1" d="M32.7 365.9h84.4v91.6H32.7z"/><path class="st3" d="M32.7 430.7h84.4v27.2H32.7z"/><path class="st2" d="M38.5 386.6h70.8v-2H38.5m0 18.4h70.8v-2H38.5m0 18.4h70.8v-2H38.5"/><path class="st4" d="M38.5 367.1h70.8v-2H38.5"/><path class="st3" d="M32.7 274.3h84.4v27.2H32.7z"/></g><g id="Fader3"><path class="st1" d="M422.6 196.1H507v91.6h-84.4z"/><path class="st2" d="M428.5 233.1h70.7v-2h-70.7m0 18.4h70.7v-2h-70.7m0 18.6h70.7v-2h-70.7"/><path class="st1" d="M422.6 287.8H507v91.6h-84.4z"/><path class="st3" d="M422.6 352.5H507v27.2h-84.4z"/><path class="st2" d="M428.5 308.5h70.7v-2h-70.7m0 18.4h70.7v-2h-70.7m0 18.3h70.7v-2h-70.7"/><path class="st4" d="M428.5 288.9h70.7v-2h-70.7"/><path class="st3" d="M422.6 196.1H507v27.2h-84.4z"/></g></svg>