<svg id="rkoCsfsCf" xmlns="http://www.w3.org/2000/svg" viewBox="0 0 485 284"><style>@-webkit-keyframes rkSq-j0jzsCG_SJrd6Gj0G_Animation{0%,15%,to{-webkit-transform:scale(0,0);transform:scale(0,0)}26%,90%{-webkit-transform:scale(1,1);transform:scale(1,1)}}@keyframes rkSq-j0jzsCG_SJrd6Gj0G_Animation{0%,15%,to{-webkit-transform:scale(0,0);transform:scale(0,0)}26%,90%{-webkit-transform:scale(1,1);transform:scale(1,1)}}@-webkit-keyframes S1L5WoRizsCG_HJxv3GsAf_Animation{0%,to{-webkit-transform:scale(0,0);transform:scale(0,0)}15.33%,90%{-webkit-transform:scale(1,1);transform:scale(1,1)}}@keyframes S1L5WoRizsCG_HJxv3GsAf_Animation{0%,to{-webkit-transform:scale(0,0);transform:scale(0,0)}15.33%,90%{-webkit-transform:scale(1,1);transform:scale(1,1)}}#rkoCsfsCf *{-webkit-animation-duration:10s;animation-duration:10s;-webkit-animation-iteration-count:infinite;animation-iteration-count:infinite;-webkit-animation-timing-function:cubic-bezier(0,0,1,1);animation-timing-function:cubic-bezier(0,0,1,1)}#B1lsRiMs0f{-webkit-transform:matrix(1,0,0,1,37.6582,250.3696);transform:matrix(1,0,0,1,37.6582,250.3696)}#rJ-iAofiRz{-webkit-transform:matrix(1,0,0,1,63.8379,155.3881);transform:matrix(1,0,0,1,63.8379,155.3881)}#B1fiRsfs0f{-webkit-transform:matrix(1,0,0,1,138.3354,84.1127);transform:matrix(1,0,0,1,138.3354,84.1127)}#BJQiAjfiAz{-webkit-transform:matrix(1,0,0,1,240.9453,58.2846);transform:matrix(1,0,0,1,240.9453,58.2846)}#SJVoRszoAf{-webkit-transform:matrix(1,0,0,1,337.2304,83.937);transform:matrix(1,0,0,1,337.2304,83.937)}#HJBsAjMjRf{-webkit-transform:matrix(1,0,0,1,407.1601,154.5092);transform:matrix(1,0,0,1,407.1601,154.5092)}#SJLsRiGoAf{-webkit-transform:matrix(1,0,0,1,433.3388,250.5024);transform:matrix(1,0,0,1,433.3388,250.5024)}#HkYjCozoRG{opacity:.1294}#HkYjCozoRG,#SJsoRozjRz{fill:#ededed}#SyOsCjMjCf,#SyqjAozs0f,#rkPjAoGsRf{opacity:.1294;fill:#ededed}#SJsoRozjRz{opacity:.2314}#S13oRiGiAf,#r1aiAiGiCG,#rJCo0oMs0z,#ryyxiAjzi0G{opacity:.3294;fill:#ededed}#HJlxsAiMo0G{opacity:.2314;fill:#ededed}#B1NxoRjGoCM,#Hkfgo0jzoRG,#S1Xes0oMi0M,#S1ZeiCoGoRM{opacity:.3294;fill:#ededed}#ByHeo0jMsRG{opacity:.1412;fill:#ededed}#SkUliCsGsRG{opacity:.251;fill:#ededed}#SkPxi0jfoAM{opacity:.3412;fill:#ededed}#ByOxiCoGsAG,#rkFxiCjzsRf{opacity:.4235;fill:#ededed}#BJqgjCjMjCM{opacity:.1412;fill:#ededed}#HkoesAsGsRG{opacity:.251;fill:#ededed}#HyngjAoMj0G{opacity:.3412;fill:#ededed}#BJ0xoAifoAG,#SJ6eiAjfi0z{opacity:.4235;fill:#ededed}#HJyboCiGoCM{opacity:.3412;fill:#ededed}#SJlboRoziCz,#ry-Ws0jziRG{opacity:.4235;fill:#ededed}#Syzbo0szoRz{opacity:.1412;fill:#ededed}#H1Q-oCizi0G{opacity:.3412;fill:#ededed}#H1NZiAjzsAz{opacity:.1412;fill:#ededed}#SJB-s0sMjCf{opacity:.3569;fill:#ededed}#BJ8ZsRjfj0z{opacity:.4353;fill:#ededed}#S1v-oAifjAG,#rkdWiAjfiAz{opacity:.5059;fill:#ededed}#ryK-j0ifs0z{opacity:.2627;fill:#ededed}#SJcbsRoGo0f{opacity:.4353;fill:#ededed}#BkjZjRiGi0M{opacity:.1412;fill:#ededed}#B13Zo0oGoCG{opacity:.3569;fill:#ededed}#Hk6-iRszoCM{opacity:.4353;fill:#ededed}#SykzjCsGsCM,#ryRWsCjzoCf{opacity:.5059;fill:#ededed}#H1gzsRjGjRz{opacity:.2627;fill:#ededed}#H1-zi0jMoCM{opacity:.4353;fill:#ededed}#HJMzs0ifjRf{opacity:.1412;fill:#ededed}#HkmGs0iMiRM{opacity:.3569;fill:#ededed}#H1EMiRjGo0M{opacity:.4353;fill:#ededed}#BkSGjAozsAz,#S1LGoRjGoRz{opacity:.5059;fill:#ededed}#HJDzo0iMjAG{opacity:.3569;fill:#ededed}#rJ_zsCoMoCM{opacity:.2627;fill:#ededed}#rJtGiAszjAG{opacity:.4353;fill:#ededed}#BkcGiCiMsAz{opacity:.1412;fill:#ededed}#S1ofs0ifjCz{opacity:.3569;fill:#ededed}#ry3fiRoGsAM{opacity:.4353;fill:#ededed}#SyTfiCszj0M,#rkCfs0ozi0M{opacity:.5059;fill:#ededed}#HykQoAjGjAM{opacity:.3569;fill:#ededed}#r1xXiAjziAz{opacity:.2627;fill:#ededed}#HyZ7sRoMiCz{opacity:.4353;fill:#ededed}#HkGXsCszjRf{opacity:.1412;fill:#ededed}#H1XXiCozoRz{opacity:.2627;fill:#ededed}#ryV7iRofsCM{opacity:.4353;fill:#ededed}#HyrmiAsMoAf{opacity:.1412;fill:#ededed}#SyImoRjfoRf{opacity:.2627;fill:#ededed}#H1wXjAoziAG{opacity:.4353;fill:#ededed}#Hy_QiAszjAM{opacity:.1412;fill:#ededed}#BJYQj0iziAM{opacity:.4471;fill:#ededed}#HJcQjRofiAG{opacity:.5137;fill:#ededed}#HJjmj0ifj0M,#Syn7oAsGoAG{opacity:.5765;fill:#ededed}#H1aXsAoMo0G{opacity:.5137;fill:#ededed}#ByC7iRsMiAM{opacity:.4471;fill:#ededed}#SkJNoRiMoRM{opacity:.5137;fill:#ededed}#BkZNoCiMjRz,#ByxVoAoGo0G{opacity:.5765;fill:#ededed}#HJzEiAjMjRM,#SJ7Eo0jGsAz{opacity:.5137;fill:#ededed}#rJVVoCsziAz{opacity:.5765;fill:#ededed}#HkIVoCsMjRM,#r1BNiRoMsAf{opacity:.5137;fill:#ededed}#SkDVoCifsRz{opacity:.5765;fill:#ededed}#r1dEoCoGsRf{opacity:.5137;fill:#ededed}#BkKVj0szoAf{opacity:.2627;fill:#ededed}#Bk9ViRjfsAM{opacity:.3686;fill:#ededed}#S1j4jAiGsCz{opacity:.5137;fill:#ededed}#rJn4sAjfiRM{opacity:.2627;fill:#ededed}#rkaNi0iGoCG{opacity:.3686;fill:#ededed}#Bk0VjCofoAG{opacity:.5137;fill:#ededed}#r1kroRsMjAf{opacity:.2627;fill:#ededed}#rkxro0sMsCf{opacity:.3686;fill:#ededed}#rJbHoRsziCz{opacity:.5137;fill:#ededed}#B1fBj0sGj0M{opacity:.2627;fill:#ededed}#HyXHiCsziRf{opacity:.3686;fill:#ededed}#Bk4ro0iMoCf{opacity:.5137;fill:#ededed}#BkHBiRoMi0f{opacity:.1412;fill:#ededed}#SyUHjAiGjAf{opacity:.4471;fill:#ededed}#B1wSoAjfi0z{opacity:.5137;fill:#ededed}#B1FBsCsziAf,#Bk_ri0sMj0z{opacity:.5765;fill:#ededed}#SkqHjAofoRG{opacity:.5137;fill:#ededed}#H1sBoRozjCM{opacity:.4471;fill:#ededed}#BJhBsRsGjRG{opacity:.5137;fill:#ededed}#r1prs0jfsAz,#rk0BjRsfi0z{opacity:.5765;fill:#ededed}#ryyIiAifj0f{opacity:.5137;fill:#ededed}#B1lUoRszj0M{opacity:.2627;fill:#ededed}#SyZLjAsGjRz{opacity:.3686;fill:#ededed}#HyfUs0jzsCf{opacity:.5137;fill:#ededed}#BkXLiCsGj0M{opacity:.2627;fill:#ededed}#S1NLsRjfiRf{opacity:.3686;fill:#ededed}#rkBLi0ifsCf{opacity:.5137;fill:#ededed}#H1ULs0oGjAf{opacity:.4471;fill:#ededed}#SkvIiAjfjCG{opacity:.1412;fill:#ededed}#rk_UoAsMoAf{opacity:.2627;fill:#ededed}#B1KUiRjMiCz{opacity:.2314;fill:#ededed}#Hyi8jRjMjRM,#HyqIsCiMj0G{opacity:.3294;fill:#ededed}#H12UoCsGoAM{opacity:.4235;fill:#ededed}#ByR8i0iGsAG,#H1a8iCoGo0f{opacity:.5059;fill:#ededed}#rJkDjRozoCM{opacity:.5765;fill:#ededed}#ryxDoCszs0M{opacity:.6275;fill:#ededed}#BJbDiAjGoRG,#BkzDoRszjRz{opacity:.6745;fill:#ededed}#Bymws0jfoRG{opacity:.6275;fill:#ededed}#SyVwo0oMjCM{opacity:.4314;fill:#ededed}#ByrPs0oMiCM{opacity:.5137;fill:#ededed}#S1Lwi0izsRz{opacity:.6275;fill:#ededed}#SJwvoRiMjAM,#rJuDoAofs0M{opacity:.5765;fill:#ededed}#BJtDs0iGoCG{opacity:.3412;fill:#ededed}#ry5Ps0jfsCG{opacity:.4314;fill:#ededed}#S1owiCofiRz{opacity:.2314;fill:#ededed}#Bynvo0iziAf,#SkavoRsfjRz{opacity:.3294;fill:#ededed}#rk0wsAiGoRf{opacity:.4235;fill:#ededed}#SkxOiCjGsRf,#r11OjCoGi0f{opacity:.5059;fill:#ededed}#HJWdjAoMjRM{opacity:.5765;fill:#ededed}#BJz_iAiGo0z{opacity:.6275;fill:#ededed}#BkQ_jRszjCG,#ByVdoRozjAf{opacity:.6745;fill:#ededed}#HySds0jzsRf{opacity:.6275;fill:#ededed}#HyLus0ofiAG{opacity:.4314;fill:#ededed}#rkDOoRsGiCG{opacity:.5137;fill:#ededed}#r1_OiCozj0f{opacity:.6275;fill:#ededed}#BkYOiRjMj0f,#rJ9OoAifi0z{opacity:.5765;fill:#ededed}#rJidoRsMs0z{opacity:.3412;fill:#ededed}#S12dsAsMoCf{opacity:.4314;fill:#ededed}#SJadi0oMs0G,#r10OjCsMj0f{opacity:.3294;fill:#ededed}#SkJFjCsMoRf{opacity:.4235;fill:#ededed}#SkeFj0iGi0z{opacity:.5059;fill:#ededed}#Hybti0iGi0G{opacity:.2314;fill:#ededed}#B1XKoRifsRG,#ByGtsRiziRM{opacity:.3294;fill:#ededed}#SJ4FoCifiAf{opacity:.4235;fill:#ededed}#BJ_FoAsMiRG,#HyHtiAifi0f,#SJPYj0sfsAG,#SyLtsCsGo0z{opacity:.5059;fill:#ededed}#rkFti0sMi0z{opacity:.5765;fill:#ededed}#SJ5toRjfoAM{opacity:.6275;fill:#ededed}#BkjYoCsMjAM,#Sy2Yo0jfiRM{opacity:.6745;fill:#ededed}#SJaKiRoGsCf{opacity:.6275;fill:#ededed}#B1CKjRoMiAz{opacity:.5765;fill:#ededed}#SkJqsRiMiAf{opacity:.6275;fill:#ededed}#HJe9iCifjAz,#rkWqsAjMj0z{opacity:.6745;fill:#ededed}#HyM9iCofjRz{opacity:.6275;fill:#ededed}#HyXqoRszi0M{opacity:.4314;fill:#ededed}#HkVcoAjfs0f{opacity:.5137;fill:#ededed}#SJrqjRjMsCG{opacity:.6275;fill:#ededed}#SJU5sAofoRz{opacity:.4314;fill:#ededed}#SkvqoAoMjCG{opacity:.5137;fill:#ededed}#Bku5oRjGi0M{opacity:.6275;fill:#ededed}#Bkt9s0jfjCf,#S1ccoAszsCz{opacity:.5765;fill:#ededed}#HysqiAsfiCz{opacity:.3412;fill:#ededed}#rkh9jCsMj0z{opacity:.4314;fill:#ededed}#rJT9oCszoRz{opacity:.2314;fill:#ededed}#HJA5jRjGjCM{opacity:.6275;fill:#ededed}#S1ysiCsfsAz,#SJlioCsfjAz{opacity:.6745;fill:#ededed}#SkZssRoGsCM{opacity:.6275;fill:#ededed}#H1fijRoGiRf{opacity:.4314;fill:#ededed}#rkmsiAoMsRM{opacity:.5137;fill:#ededed}#ByNioCsziAM{opacity:.6275;fill:#ededed}#HkBoiAozs0f{opacity:.3412;fill:#ededed}#SJUoiRsGj0M{opacity:.4314;fill:#ededed}#S1PiiCoGoAM{opacity:.2314;fill:#ededed}#SkuisRjziRM{opacity:.6275;fill:#ededed}#r19ooRsMsRz,#r1YsiRszsAM{opacity:.6745;fill:#ededed}#SysjoAjfjCf{opacity:.6275;fill:#ededed}#HyhojRszjAz{opacity:.4314;fill:#ededed}#Hk6ssAoGi0f{opacity:.5137;fill:#ededed}#HyRiiAizsRf{opacity:.6275;fill:#ededed}#S1kno0szsAG{opacity:.3412;fill:#ededed}#Syeno0ifiRf{opacity:.4314;fill:#ededed}#SybhjAoziCG{opacity:.2314;fill:#ededed}#BkQ2j0iGiRM,#HJV3sRoMiAG,#SkGhiRjMsCM{opacity:.3294;fill:#ededed}#BJShsAofiAf,#BkLnoAiMoCG{opacity:.3412;fill:#ededed}#ryPhoAszoRz{opacity:.2314;fill:#ededed}#Bki2iRoGoRz,#By9ns0oMoAf,#Byt3o0oMo0z,#ryd3sRoMs0M{opacity:.3412;fill:#ededed}#H1n3oRsMoRM{opacity:.2314;fill:#ededed}#SJT2sAsziRf{opacity:.6275;fill:#ededed}#ry03oRsGiAf{opacity:.6745;fill:#ededed}#SJy6sCjMiCf{opacity:.6275;fill:#ededed}#Sye6sCoGjAf{opacity:.4314;fill:#ededed}#SkWaj0jGiAM{opacity:.5137;fill:#ededed}#Skz6i0iMoAf{opacity:.6275;fill:#ededed}#HyQTi0sMsRf{opacity:.3412;fill:#ededed}#ry46jAifjRf{opacity:.4314;fill:#ededed}#SyB6oCjMiRf{opacity:.4078;fill:#ededed}#HkUpiRiMsAz{opacity:.6745;fill:#ededed}#BJwai0jfj0z{opacity:.749;fill:#ededed}#BJO6j0jzsCz{opacity:.4078;fill:#ededed}#SJKpjAsfoCM,#SJcpoAifj0z{opacity:.749;fill:#ededed}#SJo6sAizjAz{opacity:.2314;fill:#ededed}#BkaTjAjzjAG,#SknasCoMoCM,#rJCas0jMi0G{opacity:.3294;fill:#ededed}#H1kAiAizoAG,#SygCiCoMsRf{opacity:.3412;fill:#ededed}#H1-0sRjfjAz{opacity:.2314;fill:#ededed}#B1XRsAiMj0f,#HJV0j0izoRz,#S1SAsCifjRz,#ryMAiAiMoAz{opacity:.3412;fill:#ededed}#ryURo0szsCz{opacity:.2314;fill:#ededed}#SJD0jCifiAf{opacity:.6275;fill:#ededed}#HyuRsRoGjAM{opacity:.6745;fill:#ededed}#HkK0j0jMjRf{opacity:.6275;fill:#ededed}#rk5CsRoMsAG{opacity:.4314;fill:#ededed}#rkjCjAizjCM{opacity:.5137;fill:#ededed}#ryhRjRsMs0z{opacity:.6275;fill:#ededed}#rk6AjCoGiAG{opacity:.3412;fill:#ededed}#r1AAi0sGi0G{opacity:.4314;fill:#ededed}#HJJJls0sMiCz{opacity:.4078;fill:#ededed}#B1b1xoCjzj0G,#ryg1giCozoCG{opacity:.4863;fill:#ededed}#H1M1esCjGsCz{opacity:.5569;fill:#ededed}#SJXyeiAsfiRf,#Sy4JliCsziRG{opacity:.6196;fill:#ededed}#H1r1lj0oGi0G{opacity:.6745;fill:#ededed}#r1IkgsCozs0z{opacity:.749;fill:#ededed}#S1O1gs0ofoCG,#SJw1xs0jGjAM{opacity:.6745;fill:#ededed}#B1Y1giAofo0z{opacity:.4078;fill:#ededed}#Skjkli0jfsCG,#SyqJesAsMi0G{opacity:.749;fill:#ededed}#B1n1gsCiMiRG{opacity:.4078;fill:#ededed}#Sk61xiCoGjRM{opacity:.4863;fill:#ededed}#HJC1xoCoMjRG{opacity:.2314;fill:#ededed}#BkZeej0iMoCG,#S1kllj0iGoRz,#rkexxiAsMs0G{opacity:.3294;fill:#ededed}#SkGgljAsGj0z,#r1QxesRozi0z{opacity:.3412;fill:#ededed}#H1EelsAizoRz{opacity:.2314;fill:#ededed}#B1ugxsRizo0z,#ByPggsRjzoAG,#HJrlliAoMoRM,#SkLlloRiziCz{opacity:.3412;fill:#ededed}#HyYggo0izjCG{opacity:.2314;fill:#ededed}#Sy5eljRiMjCM{opacity:.6275;fill:#ededed}#HyigejCoMiRM{opacity:.6745;fill:#ededed}#rkneesRsMjCG{opacity:.6275;fill:#ededed}#r1plgiCszsAG{opacity:.4314;fill:#ededed}#rJAels0sGiCM{opacity:.5137;fill:#ededed}#Hyk-eo0oMiRM{opacity:.6275;fill:#ededed}#rJxZlsRoMiRf{opacity:.3412;fill:#ededed}#Sy-WgiCifoRf{opacity:.4314;fill:#ededed}#BkzWxjRoMiRf{opacity:.4078;fill:#ededed}#Hk7bljAiGjRM{opacity:.6745;fill:#ededed}#rkV-esRizjCG{opacity:.749;fill:#ededed}#BkS-giCjzoAf{opacity:.4078;fill:#ededed}#BJUWesRiGsRM,#r1vWeiRjfiCz{opacity:.749;fill:#ededed}#Bk_WliCizi0G{opacity:.2314;fill:#ededed}#H1cbeiAozo0f,#ryKWxo0oziAM,#ryjZgoCoGoRf{opacity:.3294;fill:#ededed}#BkTbljCjGi0z,#Sk2-xiCsfs0M{opacity:.3412;fill:#ededed}#ByAblsCsGiAG{opacity:.2314;fill:#ededed}#BJJGeoAjGo0M,#HJWMesCoMiCf,#SkMfxs0iGoRf,#SkeMxsRiGjRf{opacity:.3412;fill:#ededed}#Sk7MxjRsfjAz{opacity:.2314;fill:#ededed}#SkEGxoRizsRG{opacity:.6275;fill:#ededed}#SJBGgs0iMsCz{opacity:.6745;fill:#ededed}#S1Lzeo0jMsCG{opacity:.6275;fill:#ededed}#SJwGljRoGsCM{opacity:.4314;fill:#ededed}#SyOzljCjfsCG{opacity:.5137;fill:#ededed}#S1YfxjAjMs0f{opacity:.6275;fill:#ededed}#HJqGgoAsGsAM{opacity:.3412;fill:#ededed}#Byifgs0ofsCf{opacity:.4314;fill:#ededed}#SJnGeiRiGsRG{opacity:.4078;fill:#ededed}#S1RGeoAsGiRM,#rJafgsRjMiCf{opacity:.4863;fill:#ededed}#HkJmgoRizo0z{opacity:.5569;fill:#ededed}#HygQloAjGi0z,#S1b7ej0sfj0f{opacity:.6196;fill:#ededed}#HJz7gjRsGjCf{opacity:.6745;fill:#ededed}#rk7QejAofsRG{opacity:.749;fill:#ededed}#B1EmgoCszjCM,#BkSXejRofjAG{opacity:.6745;fill:#ededed}#HkImgjAjGjCf{opacity:.4078;fill:#ededed}#S1PQlsRsMsRM,#rydmljCiGiAz{opacity:.749;fill:#ededed}#BJtmgs0sziAM{opacity:.4078;fill:#ededed}#Hy5QeiAjzjRf{opacity:.4863;fill:#ededed}#HJj7gsAjGj0f,#SJh7ejRjGsRM{opacity:.7059;fill:#ededed}#BkTQeo0iziAG,#S10Qxi0iMsRz{opacity:.749;fill:#ededed}#HyJNgoRofoRG{opacity:.2314;fill:#ededed}#Hy-ExsAjzjAM,#SJeNliRjGsRf,#SyM4xoCjfjCG{opacity:.3294;fill:#ededed}#H1Q4esCizsRf,#Hy8VgjCsfiAf,#SJH4lj0szoCG,#SJONlj0jGsCM,#SkPEejRiMsAM,#rkNVeiRiGoAG{opacity:.3412;fill:#ededed}#S1YNgjCsMjAz,#r1qEei0jfsAz{opacity:.4078;fill:#ededed}#rJsEljRiGjCf{opacity:.2314;fill:#ededed}#BJpEgjCjGo0z,#H10VxiAjMjCf,#r1nVxi0sGiCM{opacity:.3294;fill:#ededed}#BJXrxoRsziAG,#H1gSgiRsfsCM,#HJfSejAiziCM,#HkNSxoRsGs0G,#SJJSgs0jzs0M,#rJWHxjCsMiAz{opacity:.3412;fill:#ededed}#r1BHlsCoziCG,#rJ8Blj0jfsAG{opacity:.4078;fill:#ededed}#ByDHgi0jMsRM{opacity:.2314;fill:#ededed}#HytSgsAizsAG,#r19rxj0jfj0z,#rJOHljAiziAG{opacity:.3294;fill:#ededed}#Bkg8eiCszj0G,#H1hBgiAizsAz,#HJArgo0ozsCG,#HysBliCiziAG,#Sk6BesRiGjRG,#SkyIxiAizsAM{opacity:.3412;fill:#ededed}#B1z8gsCjMjCM,#HkQ8xjAsfoCz,#r1W8xjAoMsAz{opacity:.4078;fill:#ededed}#S1NUli0sGs0M{opacity:.7137;fill:#ededed}#H1r8xoRiGiRM{opacity:.749;fill:#ededed}#ByLUls0iGiCz{opacity:.7137;fill:#ededed}#Hkv8liCoMjAz{opacity:.5647;fill:#ededed}#rk_IljRjzoCf{opacity:.6275;fill:#ededed}#ByFLlo0iziRM{opacity:.7137;fill:#ededed}#r198esCjMo0f{opacity:.4941;fill:#ededed}#BJiIxiAjGoCG{opacity:.5647;fill:#ededed}#S1nUxoCiMsCz{opacity:.8078;fill:#ededed}#Bk6LgoAszjRM{opacity:.4078;fill:#ededed}#rJALlo0ozjCM{opacity:.4941;fill:#ededed}#HkkDxjCizoAG{opacity:.4078;fill:#ededed}#HJlwgs0jfsCf{opacity:.5451;fill:#ededed}#SJbwxo0sGiRM{opacity:.6667;fill:#ededed}#SJGDxsRsGjRz{opacity:.7137;fill:#ededed}#BkXweo0oGsCM{opacity:.6118;fill:#ededed}#SJEDlo0jfjCG{opacity:.6667;fill:#ededed}#HkrDeoAofsAM{opacity:.4078;fill:#ededed}#B18wxiRozo0M{opacity:.7804;fill:#ededed}#rJDPxoAjzj0f{opacity:.8078;fill:#ededed}#SyuDljAofsRz{opacity:.7804;fill:#ededed}#HJYweoRsGsCf{opacity:.6667;fill:#ededed}#By5PesAszi0f{opacity:.7137;fill:#ededed}#rkjPxiAofoCM{opacity:.7804;fill:#ededed}#Sk3PejRoMs0z{opacity:.6118;fill:#ededed}#rk6DgiAoGoCf{opacity:.6667;fill:#ededed}#BJRDesRoMiRz,#rk1_xjRofsAf{opacity:.851;fill:#ededed}#HJg_xoAsfsAM{opacity:.5451;fill:#ededed}#HJ-_gi0ozoCM{opacity:.7804;fill:#ededed}#SkzuxsCjGo0M{opacity:.6667;fill:#ededed}#rk7ulo0jMiRG{opacity:.7137;fill:#ededed}#BJVdgj0izsRf{opacity:.7804;fill:#ededed}#rJHOxiRozsCM{opacity:.6118;fill:#ededed}#ryLOejCjzj0z{opacity:.6667;fill:#ededed}#rJPOejCsfjRz{opacity:.8078;fill:#ededed}#rkOOxsAjfiAM{opacity:.2314;fill:#ededed}#H1Kdgi0ozsAz,#H1jdgiRsGsCM,#SJqdgiAozo0z{opacity:.3294;fill:#ededed}#H1adgoRiGsRM,#Hk2_li0izsAf,#HyxYxsAiGoRM,#S1yFeo0sGiCz,#r1CdejCoGo0f,#rkZFliAiMs0M{opacity:.3412;fill:#ededed}#H1GYxs0sMo0f,#H1Xtxi0ofjCz,#rJVKljCoMjRM{opacity:.4078;fill:#ededed}#ryBtgo0sGj0z{opacity:.7137;fill:#ededed}#B1ItxsRsMiRf{opacity:.749;fill:#ededed}#B1PFgoRoMsRz{opacity:.7137;fill:#ededed}#BkdYes0ifjAf{opacity:.5647;fill:#ededed}#r1FYli0izjCM{opacity:.6275;fill:#ededed}#H15Kgj0szsAG{opacity:.7137;fill:#ededed}#ByiYesAsMiRG{opacity:.4941;fill:#ededed}#Byhtei0izj0G{opacity:.5647;fill:#ededed}#H1TYxsAszoRM{opacity:.749;fill:#ededed}#H1Ctgi0ifoRM{opacity:.8078;fill:#ededed}#BJ1cxjRozj0M{opacity:.749;fill:#ededed}#B1xcliCsMo0f,#Bkb9eoRofoCG{opacity:.8078;fill:#ededed}#HkGqgoCofoAM{opacity:.4078;fill:#ededed}#H1N5xo0oGi0G,#ryX9xoCozsCM{opacity:.6039;fill:#ededed}#SJH5ljRofsRf{opacity:.6588;fill:#ededed}#SJv5giCsGjAf,#ryUcgjRiMiAM{opacity:.7059;fill:#ededed}#B1tcxj0izoCG,#Hk_clsRjfj0f,#Sk99xjCsMiAf{opacity:.749;fill:#ededed}#rys5gsAofs0z{opacity:.6039;fill:#ededed}#H1hqljAjzsRG{opacity:.8078;fill:#ededed}#Hk6cloCsMoRz,#SkC5gsAjGiAz{opacity:.4078;fill:#ededed}#H11sliAjzsAM{opacity:.8078;fill:#ededed}#HkgjgoCizsAM{opacity:.851;fill:#ededed}#H1-jxoRifsRf{opacity:.8078;fill:#ededed}#BkMigsAofiAz,#S17oxsAsMiRz{opacity:.851;fill:#ededed}#BJSsgiRjGjAz,#ByLslsRozsAG,#r1Eigs0jzjCM{opacity:.8078;fill:#ededed}#ByvjxoAiziRM,#Syujej0jGo0G{opacity:.851;fill:#ededed}#H1Fjxo0szjRM{opacity:.2314;fill:#ededed}#Bk2seiRiGi0M,#BkioxsAsfsCf,#By5ieoAofoAM{opacity:.3294;fill:#ededed}#B1AjgoAizoCM,#B1z2goRoMi0G,#BkyhgjCizsCz,#HkTjeiRjfjCM,#SkxhgsCiGjRM,#r1W3xs0sMs0G{opacity:.3412;fill:#ededed}#HkBngoAozi0z,#SyE2giRszi0f,#rkmneoCjGiRG{opacity:.4078;fill:#ededed}#HkIhxsCifiAz{opacity:.7137;fill:#ededed}#H1wnxo0oGiCz{opacity:.749;fill:#ededed}#BydnxiAofsCf{opacity:.7137;fill:#ededed}#HkF2giAiMj0f{opacity:.5647;fill:#ededed}#By53eoRjzj0z{opacity:.6275;fill:#ededed}#SkjhxsRjGoRz{opacity:.7137;fill:#ededed}#Sy3ngjRizi0G{opacity:.4941;fill:#ededed}#HyahliRoMsCG{opacity:.5647;fill:#ededed}#SJC3xj0iMoRM{opacity:.8078;fill:#ededed}#Hy1pxj0oMjAG{opacity:.4078;fill:#ededed}#SkgpgoCiGsAz{opacity:.4941;fill:#ededed}#SyWalj0ifiCM{opacity:.4078;fill:#ededed}#BJMpgo0jzoCM{opacity:.5451;fill:#ededed}#HyXaeoRiMjCz{opacity:.6667;fill:#ededed}#BkNpxoAjfjCM{opacity:.7137;fill:#ededed}#HyBTxs0jGiRM{opacity:.7804;fill:#ededed}#HJ8aesCoMiAM{opacity:.6118;fill:#ededed}#H1DTxiCjfiRz{opacity:.6667;fill:#ededed}#ryOTxo0ozjCz{opacity:.4078;fill:#ededed}#SJF6giRoMiAz{opacity:.7804;fill:#ededed}#rJc6gsCofsCM{opacity:.8078;fill:#ededed}#HJsTxiRiMsCf{opacity:.7804;fill:#ededed}#BynTljAoGi0M{opacity:.6667;fill:#ededed}#BypaxoCjGoRG{opacity:.7137;fill:#ededed}#r10TgoCifo0M{opacity:.7804;fill:#ededed}#Sk10ljAjMoAz{opacity:.6118;fill:#ededed}#r1gRxo0iGoAz{opacity:.6667;fill:#ededed}#BJG0xi0jMoCG,#H1ZCxiRjGoRG{opacity:.851;fill:#ededed}#rJmAliRiGsCM{opacity:.5451;fill:#ededed}#SJ40eoCjMj0M{opacity:.7804;fill:#ededed}#H1BReoCofs0G{opacity:.6667;fill:#ededed}#HyIAgiCsMoRM{opacity:.7137;fill:#ededed}#H1D0lsRoGs0G{opacity:.7804;fill:#ededed}#Bk_0xs0oGsRf{opacity:.6118;fill:#ededed}#SkK0lsAoMiAG{opacity:.6667;fill:#ededed}#Hkq0liRsGo0G{opacity:.8078;fill:#ededed}#S12RgiCjfsCM,#rkiCesAsziAG{opacity:.9137;fill:#ededed}#BkaAljCjMjRM{opacity:.8863;fill:#ededed}#BJ11-oRsMi0M,#HyARgi0sGjAz,#SkgyZoRjGsCz{opacity:.9137;fill:#ededed}#rybkWsRszsCf{opacity:.8863;fill:#ededed}#B1G1bj0szsAG,#BkE1Zi0jMjCz,#H1XyWoCizsAG{opacity:.9137;fill:#ededed}#SyB1boAjfoRz{opacity:.8706;fill:#ededed}#rJIyboRsfiAz{opacity:.8863;fill:#ededed}#SkOyboCoMsCz,#r1wJ-jRjfsRf{opacity:.8706;fill:#ededed}#BkFJbsRoMiCf{opacity:.902;fill:#ededed}#ByqkZsAjGiRf{opacity:.9137;fill:#ededed}#SJoyWj0ifi0M{opacity:.8863;fill:#ededed}#HJnkWo0iMjCM,#Hyp1WsCsGjCM{opacity:.9137;fill:#ededed}#H1AybsCszjAf{opacity:.5451;fill:#ededed}#H11g-sRszsRG{opacity:.6118;fill:#ededed}#Skegbs0jzo0f{opacity:.8314;fill:#ededed}#BkWlWiAjfiCG,#rJzx-iAoziRz{opacity:.851;fill:#ededed}#HkNxbs0iMoCz,#HymgbiAoMjCz,#SJHlWsCiGs0G{opacity:.8863;fill:#ededed}#HkLgbjAiMoRG{opacity:.651;fill:#ededed}#rkPlWo0iMsRM{opacity:.8314;fill:#ededed}#S1OlWo0iMsCz{opacity:.851;fill:#ededed}#H1Ygbj0oGjCG{opacity:.8314;fill:#ededed}#SycgWiRjzjAz{opacity:.7451;fill:#ededed}#r1igZsAifoCM{opacity:.7804;fill:#ededed}#Sk3lZiRofsCG{opacity:.8314;fill:#ededed}#SJ6e-sAoGiAz{opacity:.702;fill:#ededed}#Sy0x-oRiMj0f{opacity:.7451;fill:#ededed}#S1J-ZoAizsRf,#SyxWWjRszjAf{opacity:.8863;fill:#ededed}#H1bWbs0jzjCf,#HyQb-iCizs0M,#S1z-bo0ofjRG{opacity:.9137;fill:#ededed}#BkV-bsAsGo0f{opacity:.8706;fill:#ededed}#r1BZ-iCsfoRf{opacity:.8863;fill:#ededed}#BkIZZiCjGiAG{opacity:.8706;fill:#ededed}#SywZZjAoGoAG{opacity:.8039;fill:#ededed}#HydZ-oAjzi0M{opacity:.8314;fill:#ededed}#ryKZ-j0jzj0f{opacity:.8706;fill:#ededed}#Bk5-Zj0szsRf{opacity:.9137;fill:#ededed}#B1ob-sAofoCf{opacity:.8863;fill:#ededed}#Skhb-j0izoCG{opacity:.8314;fill:#ededed}#BJTb-jRizoRG{opacity:.851;fill:#ededed}#B10WbjRozjCG{opacity:.8314;fill:#ededed}#ByyGbsAoMoCG{opacity:.851;fill:#ededed}#BkezZiAsfi0f,#Hk-MZsAoziAf,#rJGzbiCjzsCM{opacity:.8863;fill:#ededed}#BJQzZsCizjCG,#SkVM-jAsMsCM,#SyHGbj0oGs0f{opacity:.8314;fill:#ededed}#ryIGboRsGsRz{opacity:.8863;fill:#ededed}#BJwfbiAifoRM,#H1_z-sAjfoCM{opacity:.9137;fill:#ededed}#SJYG-s0jMjAf{opacity:.8863;fill:#ededed}#rkcz-jRjzoCz{opacity:.2314;fill:#ededed}#BJsM-j0jzjRf,#BynGZsRjfjRz,#HJTz-o0szjRG{opacity:.3294;fill:#ededed}#BJgX-oRiGsAG,#ByAz-oCoGsCG,#HkQQbs0jGi0f,#r1zmWjRjfiAz,#rk17boRifiRz,#rybX-j0sGoAM{opacity:.3412;fill:#ededed}#HJVQbiCifs0G,#S18X-jCsMjAM,#SkSmbi0sfoRz{opacity:.4078;fill:#ededed}#ryPQboAjGo0f{opacity:.7137;fill:#ededed}#Sy_QZsAoGsCM{opacity:.749;fill:#ededed}#HJFXZs0oMo0M{opacity:.7137;fill:#ededed}#r15QbsRizo0f{opacity:.5647;fill:#ededed}#HJsX-iRoGjAG{opacity:.6275;fill:#ededed}#HJnQbsAsfjAG{opacity:.7137;fill:#ededed}#HJa7bsAozs0f{opacity:.4941;fill:#ededed}#BJC7ZjRsGsAG{opacity:.5647;fill:#ededed}#Hk1N-o0szo0G{opacity:.749;fill:#ededed}#B1eVWo0izjAf{opacity:.8078;fill:#ededed}#Hk-EZjRoMoCM{opacity:.749;fill:#ededed}#B1fEboAjMsCf,#rk74Wo0izs0z{opacity:.8078;fill:#ededed}#B1N4-sRjzoCf{opacity:.4078;fill:#ededed}#B1r4WiCiGsCM,#Sy8VbjRszs0G{opacity:.6039;fill:#ededed}#HJPV-iCiGj0z{opacity:.6588;fill:#ededed}#HkKVbsRjGsAz,#rJuVZsAofjAG{opacity:.7059;fill:#ededed}#H1hV-sAofiCf,#HkjNbiRifjRz,#SJcV-iAjzjRf{opacity:.749;fill:#ededed}#HJ64Zj0izoRf{opacity:.6039;fill:#ededed}#ByREbsAizsCM{opacity:.8078;fill:#ededed}#SygBWs0sGiCz,#rJySWoRszs0f{opacity:.4078;fill:#ededed}#ByZSZsCiGo0M{opacity:.8078;fill:#ededed}#rkzr-jAiMoAM{opacity:.851;fill:#ededed}#H1mrbjRsfsCf{opacity:.8078;fill:#ededed}#SyBH-sCifsRf,#SyEH-oRjMj0z{opacity:.851;fill:#ededed}#BkwSWi0izj0f,#HkIBWiAoMj0M,#rydS-o0jzjCG{opacity:.8078;fill:#ededed}#ByKH-iRsfoAz,#SycSWj0iziCM{opacity:.851;fill:#ededed}#rkiSWiRiMsRG{opacity:.5451;fill:#ededed}#rJ3r-j0ofjRz{opacity:.6118;fill:#ededed}#rJarWsCofsAM{opacity:.8314;fill:#ededed}#Hy18ZoCjGjRM,#rJRSZoRiGoRG{opacity:.851;fill:#ededed}#HJzIbiCsGsAz,#HylUWiAifjAz,#SkXUbsAjGiCM,#rJ-LboRofiAz{opacity:.8863;fill:#ededed}#BySI-j0izo0f,#SyNUbs0izoRf,#r1UUWiCszi0G{opacity:.9137;fill:#ededed}#SkvIZoRsGjCM{opacity:.651;fill:#ededed}#SJdIWjAiMs0f{opacity:.8314;fill:#ededed}#rytIWjRozoCf{opacity:.851;fill:#ededed}#SycLWoRsfjRf{opacity:.8314;fill:#ededed}#BJoUWoRsMiCz{opacity:.7451;fill:#ededed}#SJ2UWjCiGoRf{opacity:.7804;fill:#ededed}#BJp8WsAiGs0M{opacity:.8314;fill:#ededed}#ByAUZsRjGjRz{opacity:.702;fill:#ededed}#B1kw-oCifoRG{opacity:.7451;fill:#ededed}#BygDbjAizo0G{opacity:.8863;fill:#ededed}#rk-PWoAifj0G{opacity:.8706;fill:#ededed}#ryfwZj0oMsRM{opacity:.8863;fill:#ededed}#SJmP-sCjfoAf{opacity:.8706;fill:#ededed}#Bk4wWs0oGj0z{opacity:.8039;fill:#ededed}#S1HPZjAoMoCz{opacity:.8314;fill:#ededed}#BkIwWjAoGsRf{opacity:.8706;fill:#ededed}#H1vw-i0oGjRz{opacity:.9137;fill:#ededed}#BkdwWi0sMoRf{opacity:.8863;fill:#ededed}#ByYPboAjfsCf{opacity:.8314;fill:#ededed}#rycDZjAjMoRG{opacity:.851;fill:#ededed}#S1iDZjRofoRM{opacity:.8314;fill:#ededed}#S13D-oRoMsRz{opacity:.851;fill:#ededed}#ByJdWoRoMsCz,#HJAwZjCjziRG,#Skxd-i0oGi0G,#rkavbjAjGjAM{opacity:.8863;fill:#ededed}#Bkzu-iAoziCz,#HkWdbsCofi0f{opacity:.9137;fill:#ededed}#HJ4dbsCjGs0G,#Hkm_boAiGoAG{opacity:.8314;fill:#ededed}#HkS_WoAjzsRz{opacity:.7804;fill:#ededed}#rkLObj0oMj0M{opacity:.8314;fill:#ededed}#ByDO-i0izsAG{opacity:.8863;fill:#ededed}#Sy_OboAjziRM{opacity:.5451;fill:#ededed}#HkYO-iCiMjAG{opacity:.6118;fill:#ededed}#H1cdbiRifi0G{opacity:.6667;fill:#ededed}#rJjdboAjzsAG{opacity:.7451;fill:#ededed}#rkndWsCiMsAM{opacity:.702;fill:#ededed}#Hy6dZoCofiRz,#rJ0d-iAsziRf{opacity:.7451;fill:#ededed}#ByyY-iRizj0M{opacity:.702;fill:#ededed}#ByeYWoAszs0z{opacity:.7451;fill:#ededed}#HJbtWj0ifiCM{opacity:.8039;fill:#ededed}#SkGY-oCozi0f{opacity:.8314;fill:#ededed}#H17tWjCjMoAf{opacity:.8706;fill:#ededed}#SJEYWjAsfsCM{opacity:.8039;fill:#ededed}#B1HY-iAjMiAf{opacity:.851;fill:#ededed}#B1vt-j0iziAM,#HkIYWs0oMsRf{opacity:.8863;fill:#ededed}#S1OKZi0izj0f{opacity:.851;fill:#ededed}#SycK-oCozsRG,#SytYWoAsfoAf{opacity:.8863;fill:#ededed}#SyoKZsCjGsAM{opacity:.851;fill:#ededed}#SkntZs0ofi0z{opacity:.8863;fill:#ededed}#BkyqZiRifiCM,#SyRYWoRsfjAM,#r16YZsRifsCG{opacity:.851;fill:#ededed}#SJg5-jAsGiCG{opacity:.8863;fill:#ededed}#rJZqbsAsMoAG{opacity:.851;fill:#ededed}#BkGq-oCjMjRz,#S17cWoCifsRf,#S1N9WsCizi0M{opacity:.8863;fill:#ededed}#rkSq-j0jzsCG{fill:#871d22}#S1L5WoRizsCG{fill:#00ab9c}#BJoqWsCofoAf,#Byv9bjRofo0z,#HyF9WsAjGjAM,#HyhcZi0iGsAf,#S1Oq-oRsGiAf,#Sy0qWjCiMiCM,#r1q5Wi0sfjRG,#rJpqbiRjfoCM{fill:#ededed}#S1L5WoRizsCG_HJxv3GsAf,#rkSq-j0jzsCG_SJrd6Gj0G{-webkit-transform-origin:50% 100%;transform-origin:50% 100%;transform-box:fill-box;-webkit-transform:scale(0,0);transform:scale(0,0)}#S1L5WoRizsCG_HJxv3GsAf{-webkit-animation-timing-function:cubic-bezier(.42,0,.58,1);animation-timing-function:cubic-bezier(.42,0,.58,1);-webkit-animation-name:S1L5WoRizsCG_HJxv3GsAf_Animation;animation-name:S1L5WoRizsCG_HJxv3GsAf_Animation}#rkSq-j0jzsCG_SJrd6Gj0G{-webkit-animation-name:rkSq-j0jzsCG_SJrd6Gj0G_Animation;animation-name:rkSq-j0jzsCG_SJrd6Gj0G_Animation}</style><text id="B1lsRiMs0f">-90°</text><text id="rJ-iAofiRz">-60°</text><text id="B1fiRsfs0f">-30°</text><text id="BJQiAjfiAz">0°</text><text id="SJVoRszoAf">+30°</text><text id="HJBsAjMjRf">+60°</text><text id="SJLsRiGoAf">+90°</text><path d="M242.4 61.2c-25.3 0-49.9 5-73.1 14.9-22.4 9.6-42.6 23.2-60 40.6-17.4 17.4-31 37.6-40.6 60-9.9 23.2-14.9 47.9-14.9 73.1v.8l31.5-.1 124.8-.2-93.1.2h-.1v-.7l-30.9.1v-.2h-.8l-30.6.1v-.1c0-33.8 9.1-65.6 24.8-93.1l-.3-.2.7-1.2.3.2c16.5-28.2 40-51.7 68.2-68.1l-.2-.3 1.2-.7.2.3C176.7 71 208.2 62.1 241.7 62v-.6h1.4v.6c33.9.1 65.7 9.3 93.1 25.1l.2-.3 1.2.7-.2.3c27.8 16.4 51 39.7 67.3 67.5l.3-.2.7 1.2-.3.2c15.7 27.3 24.7 59 24.8 92.7v.1h-31.5v.2H368v.7h-93.4H431v-.4c0-25.3-5-49.9-14.9-73.1h.1-.1c-9.6-22.4-23.2-42.6-40.6-60-17.4-17.4-37.6-31-60-40.6-23.2-9.9-47.8-14.9-73.1-14.9" id="rkPjAoGsRf"/><path d="M242.4 61c-25.3 0-50 5-73.2 14.9-22.5 9.6-42.7 23.2-60.1 40.6-17.4 17.4-31.1 37.6-40.6 60.1-9.9 23.3-14.9 47.9-14.9 73.2v1l31.7-.1 124.8-.2v-.2l-124.8.2-31.5.1v-.8c0-25.3 5-49.9 14.9-73.1 9.6-22.4 23.2-42.6 40.6-60 17.4-17.4 37.6-31 60-40.6 23.2-9.9 47.9-14.9 73.1-14.9 25.3 0 49.9 5 73.1 14.9 22.4 9.6 42.6 23.2 60 40.6 17.4 17.4 31 37.6 40.6 60h.1-.1c9.9 23.2 14.9 47.9 14.9 73.1v.4H274.7v.2h156.6v-.6c0-25.3-5-50-14.9-73.2-9.6-22.5-23.2-42.7-40.6-60.1-17.4-17.4-37.6-31.1-60.1-40.6-23.4-9.9-48-14.9-73.3-14.9" id="SyOsCjMjCf"/><path d="M405.2 156.7L378 172.4c13 22.6 20.5 48.8 20.6 76.7h.1v.1H430c-.1-33.6-9.1-65.2-24.8-92.5m-325.6 0c-15.7 27.4-24.7 59.1-24.8 92.9l30.4-.1h.8v-.1h.1c.1-28 7.6-54.3 20.6-77l-27.1-15.7M337.3 88l-15.8 27.1c23 13.6 42.3 32.9 55.8 56l27.2-15.7c-16.3-27.7-39.5-51-67.2-67.4m-188.9-.5c-28.2 16.4-51.7 39.9-68.2 68l27.2 15.7c13.7-23.3 33.2-42.8 56.6-56.4l-15.6-27.3m94.7-25.3v31.4c28.1.1 54.5 7.7 77.2 20.8l15.8-27.1c-27.4-15.8-59.2-24.9-93-25.1m-1.4 0c-33.5.1-64.9 9.1-92.1 24.6l15.6 27.2c22.6-12.9 48.7-20.3 76.5-20.4V62.2" id="HkYjCozoRG"/><path d="M106.8 172.4c-13 22.7-20.5 49-20.6 77h.2c.1-28 7.6-54.2 20.6-76.9l-.2-.1m271.2 0l-.2.1c13 22.6 20.4 48.8 20.6 76.6h.2c-.1-27.9-7.6-54.1-20.6-76.7m52.1 76.9v-.1.1h.1-.1m-24.7-92.7l-.2.1c15.7 27.3 24.7 58.9 24.8 92.5h-31.2v.2h31.5v-.1c-.2-33.7-9.2-65.4-24.9-92.7m-326 0c-15.8 27.4-24.8 59.2-24.8 93.1v.1l30.6-.1h.8v-.2h-.8l-30.4.1c.1-33.8 9.1-65.5 24.8-92.9l-.2-.1m242.1-41.4l-.1.2c23 13.6 42.3 32.9 55.8 55.9l.2-.1c-13.6-23.1-32.9-42.4-55.9-56m-157.4-.5c-23.4 13.6-42.9 33.1-56.6 56.4l.2.1c13.6-23.3 33.2-42.8 56.5-56.4l-.1-.1m79-21v.2c28 .1 54.4 7.7 77.1 20.8l.1-.2c-22.8-13.2-49.1-20.7-77.2-20.8m-1.4 0c-27.8.1-53.9 7.5-76.5 20.4l.1.2c22.6-12.9 48.6-20.3 76.3-20.4v-.2m95.8-5.8l-.1.2c27.8 16.3 51 39.6 67.2 67.5l.2-.1c-16.3-28-39.5-51.3-67.3-67.6m-189.1-.6c-28.2 16.4-51.8 39.9-68.2 68.1l.2.1c16.4-28.1 40-51.6 68.2-68l-.2-.2M243.1 62v.2c33.8.1 65.6 9.3 93 25.1l.1-.2c-27.4-15.8-59.2-25-93.1-25.1m-1.4 0c-33.5.1-65 9.1-92.2 24.6l.1.2c27.2-15.5 58.6-24.5 92.1-24.6V62" id="SyqjAozs0f"/><path d="M398.4 249.1H368v.1h30.4v-.1" id="SJsoRozjRz"/><path d="M398.7 249.4H368v.2h30.7v-.2" id="S13oRiGiAf"/><path d="M398.4 249.2H368v.2h30.7-.3v-.2" id="r1aiAiGiCG"/><path d="M398.7 249.1h-.1v.1h.1v-.1" id="rJCo0oMs0z"/><path d="M398.6 249.1h-.2v.3h.3v-.2h-.1v-.1" id="ryyxiAjzi0G"/><path d="M116.9 249.3l-30.6.1v.1l30.6-.1v-.1" id="HJlxsAiMo0G"/><path id="S1ZeiCoGoRM" d="M116.9 249.7H86v.2l30.9-.1v-.1"/><path d="M116.9 249.4l-30.6.1v.2h-.1l30.6-.1c.1 0 .1-.1.1-.2" id="Hkfgo0jzoRG"/><path d="M86.1 249.4H86v.1h.1v-.1" id="S1Xes0oMi0M"/><path d="M86.4 249.4h-.2v.1h-.1v.2h.4v-.2c-.1 0-.1-.1-.1-.1" id="B1NxoRjGoCM"/><path d="M133.4 187.8c-2.4 4.2-4.6 8.6-6.5 13.1-6.5 15.4-9.9 31.7-9.9 48.4h.9c.1-22.2 5.9-43.1 16.2-61.1l-.7-.4m218.1-.1l-.7.4c10.2 18 16.1 38.8 16.2 61h.9c-.1-16.7-3.4-32.9-9.9-48.2-1.9-4.5-4.1-8.9-6.5-13.2m-45.3-46.2l-.4.7c18.3 10.9 33.6 26.3 44.3 44.7l.7-.4c-5.4-9.3-12-17.9-19.8-25.6-7.5-7.5-15.8-14-24.8-19.4m-126.9-.3c-9.2 5.4-17.7 12-25.3 19.7-7.7 7.8-14.4 16.3-19.8 25.7l.7.4c10.8-18.6 26.3-34.2 44.8-45.1l-.4-.7m62.4-17.3c-16.5.1-32.6 3.4-47.9 9.9-4.6 2-9.1 4.2-13.4 6.7l.4.7c18-10.3 38.7-16.2 60.9-16.4v-.9m1.4 0v.9c22.4.1 43.4 6.2 61.5 16.7l.4-.7c-4.5-2.6-9.1-4.9-13.9-7-15.3-6.5-31.4-9.8-48-9.9" id="ByHeo0jMsRG"/><path d="M148.2 249.8l-31.2.1v.6l31.2-.1v-.6m219.7-.2h-30.5v.5h30.5v-.5" id="SkUliCsGsRG"/><path d="M118 249.3h-.9v.1l31.2-.1H118c0 .1 0 0 0 0m249.9-.2h-.9v.1h-29.5H368c-.1 0-.1-.1-.1-.1" id="SkPxi0jfoAM"/><path d="M148.2 249.6l-31.2.1v.2l31.2-.1v-.2m219.7-.2h-30.5v.2h30.5v-.2" id="ByOxiCoGsAG"/><path d="M148.2 249.4l-31.2.1v.2l31.2-.1v-.2m219.7-.2h-30.5v.2h30.5v-.2" id="rkFxiCjzsRf"/><path d="M133.4 187.7c-2.4 4.2-4.6 8.6-6.5 13.1-6.5 15.4-9.9 31.7-9.9 48.5h.1c0-16.7 3.4-33 9.9-48.4 1.9-4.5 4-8.9 6.4-13.2m218.2-.1c2.3 4.3 4.5 8.7 6.5 13.3 6.5 15.3 9.8 31.5 9.9 48.2h.1c-.1-16.7-3.4-32.9-9.9-48.2-2-4.6-4.2-9-6.6-13.3m-45.4-46.2c8.9 5.5 17.3 12 24.8 19.5 7.7 7.7 14.3 16.3 19.8 25.6l.1-.1c-5.4-9.3-12.1-17.9-19.8-25.6-7.5-7.5-15.9-14-24.9-19.4m-127-.3c-9.2 5.4-17.7 12-25.3 19.7-7.7 7.8-14.4 16.4-19.8 25.7l.1.1c5.4-9.3 12.1-17.9 19.8-25.7 7.6-7.7 16.1-14.2 25.2-19.8m62.5-17.3c-16.6.1-32.7 3.4-47.9 10-4.6 2-9.1 4.2-13.4 6.7l.1.1c4.3-2.5 8.8-4.7 13.4-6.7 15.2-6.5 31.3-9.8 47.9-9.9v-.2m1.3 0v.1c16.6.1 32.8 3.4 48 9.9 4.8 2 9.4 4.4 13.9 7l.1-.1c-4.5-2.6-9.1-4.9-13.9-7-15.3-6.5-31.5-9.8-48.1-9.9" id="BJqgjCjMjCM"/><path d="M117 249.8h-.1v.7h.1l93.1-.2v-.1l-61.8.1h-.1v-.1l-31.2.1v-.5m251-.2h-.1v.6h-30.5v.1h-62.8v.1H368v-.8" id="HkoesAsGsRG"/><path d="M368 249.1h-.1v.1h.1v-.1" id="HyngjAoMj0G"/><path d="M368 249.4h-.1v.2h.1v-.2" id="SJ6eiAjfi0z"/><path d="M368 249.2h-.1v.2h.1v-.2" id="BJ0xoAifoAG"/><path d="M117 249.3h-.1v.1h.1v-.1" id="HJyboCiGoCM"/><path id="SJlboRoziCz" d="M117 249.7h-.1v.1h.1v-.1"/><path d="M117 249.4h-.1v.2h.1v-.2" id="ry-Ws0jziRG"/><path d="M134.1 188.2c-10.2 18.1-16.1 38.9-16.2 61.1l30.3-.1-30.2.1c.1-22.2 6-43 16.1-61.1m216.7-.1c10.1 18.1 16 38.8 16.1 61h-29.4H367c-.1-22.2-6-43-16.2-61m-45-45.9c18.2 10.9 33.5 26.4 44.2 44.8l.1-.1c-10.8-18.4-26-33.8-44.3-44.7m-126.1-.3c-18.5 10.9-34 26.5-44.8 45.1l.1.1c10.7-18.6 26.2-34.2 44.7-45.2m62-17c-22.1.1-42.9 6.1-60.9 16.4l.1.1c18-10.3 38.7-16.2 60.8-16.4v-.1m1.4 0v.1c22.4.1 43.3 6.2 61.4 16.6l.1-.1c-18.2-10.5-39.1-16.5-61.5-16.6" id="Syzbo0szoRz"/><path d="M148.2 249.3l-30.3.1v.1l30.3-.2m218.8-.2h-29.5v.1l29.5-.1" id="H1Q-oCizi0G"/><path d="M325.2 202.9l-.8.4c7.6 13.6 11.9 29.2 12 45.8h.9c0-16.4-4.3-32.2-12.1-46.2m-130.8-35.2c-6.6 4-12.7 8.9-18.3 14.5-6 6-11.1 12.7-15.2 19.9l.8.4c8-14 19.4-25.8 33.1-34.1l-.4-.7m96.6-.2l-.4.7c13.7 8.2 25.1 19.9 33.1 33.8l.8-.4c-4.1-7-9.1-13.6-14.9-19.5-5.7-5.6-11.9-10.5-18.6-14.6M241.7 154c-16.4.2-32.2 4.7-46.1 12.9l.4.8c13.5-7.9 29.1-12.5 45.7-12.7v-1m1.4 0v.9c16.9 0 32.7 4.6 46.4 12.6l.4-.8c-14.2-8.2-30.2-12.6-46.8-12.7" id="H1NZiAjzsAz"/><path d="M337.4 249.6h-31.8v.5h31.8v-.5" id="SJB-s0sMjCf"/><path d="M337.4 249.2h-31.8 31.8" id="BJ8ZsRjfj0z"/><path d="M337.4 249.4h-31.8v.2h31.8v-.2" id="S1v-oAifjAG"/><path d="M337.4 249.2h-31.8v.2h31.8v-.2" id="rkdWiAjfiAz"/><path d="M337.4 249.1h-.9.9" id="ryK-j0ifs0z"/><path d="M337.4 249.1h-31.8v.1l31.8-.1c0 .1 0 0 0 0" id="SJcbsRoGo0f"/><path d="M160.3 203.3c-7.8 14-11.9 29.7-12 46h.9c.1-16.5 4.3-32 11.8-45.6l-.7-.4" id="BkjZjRiGi0M"/><path id="B13Zo0oGoCG" d="M179.2 249.7l-30.9.1v.5l30.9-.1v-.5"/><path d="M179.2 249.3l-30.8.1 30.8-.1" id="Hk6-iRszoCM"/><path d="M179.2 249.5l-30.8.1v.2l30.8-.1v-.2" id="ryRWsCjzoCf"/><path d="M179.2 249.3l-30.8.1v.2l30.8-.1v-.2" id="SykzjCsGsCM"/><path d="M149.3 249.3h-.9.9" id="H1gzsRjGjRz"/><path d="M179.2 249.3l-29.9.1h-.9v.1l30.8-.2" id="H1-zi0jMoCM"/><path d="M325.3 202.8c7.8 14.1 12 29.9 12.1 46.3h.1c-.1-16.4-4.4-32.3-12.2-46.3m-130.4-34.4c-13.7 8.3-25.1 20.1-33.1 34.1l.1.1c7.9-14 19.3-25.8 33-34.2m95.7-.1c13.6 8.3 25 20 33 33.9l.1-.1c-8-13.9-19.4-25.6-33.1-33.8m-96.2-.7c-6.6 4-12.7 8.9-18.3 14.5-6 6.1-11.1 12.7-15.2 19.9l.1.1c4.1-7.2 9.2-13.9 15.2-19.9 5.5-5.7 11.7-10.5 18.2-14.6m96.7-.2c6.6 4.1 12.8 9 18.4 14.7 5.9 5.9 10.9 12.5 14.9 19.5l.1-.1c-4.1-7-9.1-13.6-15-19.5-5.5-5.6-11.7-10.5-18.4-14.6M241.7 155c-16.6.2-32.2 4.8-45.7 12.7l.1.1c13.5-7.9 29-12.5 45.6-12.7v-.1m1.4 0v.1c16.8 0 32.7 4.6 46.3 12.6l.1-.1c-13.7-8-29.6-12.6-46.4-12.6m-1.4-1.1c-16.4.2-32.2 4.7-46.2 12.9l.1.1c13.9-8.2 29.7-12.7 46.1-12.9v-.1m1.4 0v.1c16.6 0 32.7 4.5 46.8 12.8l.1-.1c-14.2-8.3-30.3-12.7-46.9-12.8" id="HJMzs0ifjRf"/><path d="M337.5 249.6h-.1v.5h-62.7 62.8v-.5" id="HkmGs0iMiRM"/><path d="M337.5 249.2h-.1.1" id="H1EMiRjGo0M"/><path d="M337.5 249.4h-.1v.2h.1v-.2" id="BkSGjAozsAz"/><path d="M337.5 249.2h-.1v.2h.1v-.2" id="S1LGoRjGoRz"/><path id="HJDzo0iMjAG" d="M337.5 250.1h-62.8v.1h62.8v-.1"/><path d="M337.5 249.1h-.1.1" id="rJ_zsCoMoCM"/><path d="M337.5 249.1h-.1v.1l.1-.1c0 .1 0 0 0 0" id="rJtGiAszjAG"/><path d="M160.2 203.2c-7.8 14-11.9 29.7-12 46h.1c.1-16.3 4.2-32 11.9-46" id="BkcGiCiMsAz"/><path id="S1ofs0ifjCz" d="M148.3 249.8h-.1v.5l61.8-.1h-30.8l-30.9.1v-.5"/><path d="M148.3 249.4h-.1.1" id="ry3fiRoGsAM"/><path d="M148.3 249.6h-.1v.2h.1v-.2" id="SyTfiCszj0M"/><path d="M148.3 249.4h-.1v.2h.1v-.2" id="rkCfs0ozi0M"/><path id="HykQoAjGjAM" d="M210 250.2l-61.8.1v.1h.1l61.7-.2"/><path d="M148.3 249.3h-.1.1" id="r1xXiAjziAz"/><path d="M148.3 249.3h-.1v.1l.1-.1" id="HyZ7sRoMiCz"/><path d="M324.4 203.3c7.4 13.6 11.8 29.2 11.9 45.7h-30.8v.1h30.9c-.1-16.6-4.4-32.2-12-45.8" id="HkGXsCszjRf"/><path d="M336.4 249.1h-30.9 30.9" id="H1XXiCozoRz"/><path d="M336.4 249.1h-30.9 30.9" id="ryV7iRofsCM"/><path d="M161 203.7c-7.4 13.5-11.7 29-11.8 45.6l29.9-.1v-.1l-29.8.1c.2-16.5 4.4-32 11.7-45.5" id="HyrmiAsMoAf"/><path d="M179.2 249.2l-29.9.1 29.9-.1" id="SyImoRjfoRf"/><path d="M179.2 249.2l-29.9.1 29.9-.1" id="H1wXjAoziAG"/><path d="M297.6 218.8l-.8.4c4.8 8.8 7.6 19 7.7 29.7h.9c-.1-10.6-2.8-20.9-7.8-30.1m-110.4 0c-5.1 9.2-7.8 19.6-7.9 30.4h.9c.1-10.8 2.9-21 7.7-29.9l-.7-.5m87.8-23.7l-.4.8c8.9 5.5 16.3 13.1 21.5 22.2l.8-.4c-2.7-4.7-6.1-9.1-10-13.1-3.7-3.7-7.6-6.9-11.9-9.5m-65-.3c-4.4 2.7-8.5 5.9-12.2 9.7-3.9 4-7.3 8.4-10 13.1l.8.4c5.3-9.2 12.8-16.9 21.9-22.4l-.5-.8m33.1-9v.9c11 .1 21.4 3.2 30.3 8.4l.4-.8c-9.2-5.4-19.8-8.4-30.7-8.5m-1.4-.1c-10.8.1-21.3 3-30.5 8.4l.4.8c8.9-5.1 19.1-8.1 30-8.2v-1" id="Hy_QiAszjAM"/><path d="M305.4 249.6h-30.8v.4h30.8v-.4" id="BJYQj0iziAM"/><path d="M305.4 249.2h-30.8 30.8" id="HJcQjRofiAG"/><path d="M305.4 249.4h-30.8v.2h30.8v-.2" id="HJjmj0ifj0M"/><path d="M305.4 249.2h-30.8v.2h30.8v-.2" id="Syn7oAsGoAG"/><path d="M305.4 249.1h-30.8v.1l30.8-.1c0 .1 0 .1 0 0" id="H1aXsAoMo0G"/><path d="M210 249.6l-30.8.1v.4l30.8-.1v-.4" id="ByC7iRsMiAM"/><path d="M210 249.3l-30.8.1 30.8-.1" id="SkJNoRiMoRM"/><path d="M210 249.5l-30.8.1v.2l30.8-.1v-.2" id="ByxVoAoGo0G"/><path d="M210 249.3l-30.8.1v.2l30.8-.1v-.2" id="BkZNoCiMjRz"/><path d="M210 249.2l-30.8.1v.1l30.8-.2" id="HJzEiAjMjRM"/><path d="M239.9 249.2l-28.5.1 28.5-.1" id="SJ7Eo0jGsAz"/><path d="M239.9 249.2l-28.5.1 28.5-.1" id="rJVVoCsziAz"/><path d="M239.8 249.1l-28.4.1v.1l28.4-.2" id="r1BNiRoMsAf"/><path d="M273.3 249.2h-28.4 28.4" id="HkIVoCsMjRM"/><path d="M273.3 249.2h-28.4 28.4" id="SkDVoCifsRz"/><path d="M273.3 249.1H245l-.1.1 28.4-.1c0 .1 0 .1 0 0" id="r1dEoCoGsRf"/><path d="M305.4 249h-30.7 30.7c0 .1 0 0 0 0" id="BkKVj0szoAf"/><path d="M305.4 249.1h-30.8 30.8" id="Bk9ViRjfsAM"/><path d="M305.4 249.1h-30.8 30.8" id="S1j4jAiGsCz"/><path d="M210 249.1l-29.8.1h-.9v.1l30.7-.2" id="rJn4sAjfiRM"/><path d="M210 249.1l-30.8.1 30.8-.1c0 .1 0 0 0 0" id="rkaNi0iGoCG"/><path d="M210 249.2l-30.8.1 30.8-.1" id="Bk0VjCofoAG"/><path d="M239.6 249.1l-28.2.1 28.2-.1" id="r1kroRsMjAf"/><path d="M239.7 249.1l-28.3.1 28.3-.1" id="rkxro0sMsCf"/><path d="M239.7 249.1l-28.3.1 28.3-.1" id="rJbHoRsziCz"/><path d="M273.3 249h-28.2 28.2c0 .1 0 .1 0 0" id="B1fBj0sGj0M"/><path d="M273.3 249.1h-28.2 28.2" id="HyXHiCsziRf"/><path d="M273.3 249.1h-28.4 28.4" id="Bk4ro0iMoCf"/><path d="M297.6 218.7c5 9.2 7.7 19.6 7.8 30.3h.1c-.1-10.7-2.8-21-7.9-30.3m-110.5 0c-5.1 9.2-7.8 19.6-7.9 30.4h.1c0-10.7 2.8-21.1 7.8-30.4m88-23.7c4.2 2.7 8.2 5.9 11.8 9.5 3.9 4 7.3 8.4 10 13.1l.1-.1c-2.7-4.7-6.1-9.1-10-13.1-3.7-3.6-7.7-6.8-11.9-9.4m-65.1-.3c-4.4 2.7-8.5 5.9-12.2 9.7-3.9 4-7.3 8.4-10 13.1l.1.1c2.7-4.7 6.1-9.1 10-13.1 3.7-3.7 7.8-7 12.1-9.8m33.1-9.1v.1c11 .1 21.5 3.1 30.8 8.6l.1-.1c-9.4-5.4-20-8.4-30.9-8.6m-1.4 0c-10.9.1-21.3 3-30.5 8.4l.1.1c9.2-5.4 19.7-8.3 30.5-8.4v-.1" id="BkHBiRoMi0f"/><path id="SyUHjAiGjAf" d="M305.5 249.6h-.1v.4h-30.7v.1h30.8v-.5"/><path d="M305.5 249.2h-.1.1" id="B1wSoAjfi0z"/><path d="M305.5 249.4h-.1v.2h.1v-.2" id="Bk_ri0sMj0z"/><path d="M305.5 249.2h-.1v.2h.1v-.2" id="B1FBsCsziAf"/><path d="M305.5 249.1h-.1v.1l.1-.1c0 .1 0 .1 0 0" id="SkqHjAofoRG"/><path id="H1sBoRozjCM" d="M179.3 249.7h-.1v.5l30.8-.1h-30.7v-.4"/><path d="M179.3 249.3h-.1.1" id="BJhBsRsGjRG"/><path id="r1prs0jfsAz" d="M179.3 249.5h-.1v.2h.1v-.2"/><path d="M179.3 249.3h-.1v.2h.1v-.2" id="rk0BjRsfi0z"/><path d="M179.3 249.3h-.1v.1l.1-.1" id="ryyIiAifj0f"/><path d="M305.5 249h-.1v.1l.1-.1c0 .1 0 0 0 0" id="B1lUoRszj0M"/><path d="M305.5 249.1h-.1.1" id="SyZLjAsGjRz"/><path d="M305.5 249.1h-.1.1" id="HyfUs0jzsCf"/><path d="M179.3 249.1h-.1v.1l.1-.1c0 .1 0 .1 0 0" id="BkXLiCsGj0M"/><path d="M179.3 249.2h-.1.1" id="S1NLsRjfiRf"/><path d="M179.3 249.2h-.1.1" id="rkBLi0ifsCf"/><path d="M210 250.1l-30.9.1h.1l30.8-.1m95.5 0h-30.9 30.9" id="H1ULs0oGjAf"/><path d="M239.5 248.9l-28 .1v.1l28.2-.1-.2-.1m33.8 0h-28l-.1.1 28.1-.1c0 .1 0 .1 0 0m23.5-29.6c4.7 8.9 7.5 19 7.6 29.7h-29.7v.1h29.8c-.1-10.9-2.9-21-7.7-29.8m-108.9-.1c-4.9 8.9-7.6 19.1-7.7 29.9l29.8-.1v-.1l-29.7.1c.1-10.7 2.9-20.9 7.6-29.8m86.7-23.4c8.8 5.6 16.2 13.2 21.4 22.3l.1-.1c-5.2-9-12.6-16.7-21.5-22.2m-64.1-.2c-9 5.5-16.6 13.2-21.9 22.4l.1.1c5.3-9.2 12.8-16.9 21.8-22.5m32.6-8.9v.1c11 .1 21.3 3.2 30.3 8.4l.1-.1c-9-5.2-19.4-8.3-30.4-8.4m-1.4 0c-10.9.1-21.2 3.1-30 8.2l.1.1c8.9-5.1 19.1-8.1 30-8.2v-.1" id="SkvIiAjfjCG"/><path d="M210 249.1l-29.8.1 29.8-.1m29.6-.1l-28.2.1 28.2-.1m33.7 0h-28.1 28.1m31.2 0h-29.8 29.8" id="rk_UoAsMoAf"/><path d="M214.3 234.4c-2.4 4.4-3.8 9.4-3.9 14.6h.7c.1-5.1 1.5-10 3.8-14.2l-.6-.4m44.8-12l-.4.6c4.2 2.6 7.8 6.3 10.4 10.6l.6-.4c-1.3-2.2-2.9-4.3-4.8-6.2-1.7-1.7-3.7-3.3-5.8-4.6m-33.3-.1c-2.2 1.3-4.2 2.9-6 4.8-1.9 1.9-3.5 3.9-4.8 6.1l.6.4c2.6-4.4 6.2-8 10.5-10.7l-.3-.6m17.3-4.7v.7c5.3.1 10.2 1.6 14.5 4l.4-.6c-4.6-2.6-9.6-4-14.9-4.1m-1.4 0c-5.2.1-10.2 1.5-14.7 4l.4.6c4.3-2.4 9.2-3.8 14.4-3.9v-.7" id="B1KUiRjMiCz"/><path id="HyqIsCiMj0G" d="M241.7 250.2l-31.3.1h31.3v-.1"/><path id="Hyi8jRjMjRM" d="M241.7 250.3h-31.3 31.4-.1"/><path id="H12UoCsGoAM" d="M241.6 250.2h-31.2v.1l31.3-.1h-.1"/><path id="H1a8iCoGo0f" d="M241.5 250.1l-31.1.1 31.1-.1"/><path id="ByR8i0iGsAG" d="M241.5 250.1l-31.1.1h31.2l-.1-.1"/><path d="M240.6 249.6l-30.2.1v.4l30.9-.1-.7-.4" id="rJkDjRozoCM"/><path d="M211.1 249.2h-.7.7c0 .1 0 .1 0 0" id="ryxDoCszs0M"/><path d="M211.1 249.5h-.7v.2l30.2-.1h-.1l-29.4.1v-.2" id="BJbDiAjGoRG"/><path d="M211.1 249.3h-.7v.2h.7v-.2" id="BkzDoRszjRz"/><path d="M211.1 249.2h-.7v.1l.7-.1" id="Bymws0jfoRG"/><path d="M211.1 249.1h-.7.7" id="SyVwo0oMjCM"/><path d="M211.1 249.1h-.7.7c0 .1 0 0 0 0" id="ByrPs0oMiCM"/><path d="M211.1 249.2h-.7.7" id="S1Lwi0izsRz"/><path id="SJwvoRiMjAM" d="M241.3 250l-30.9.1h31l-.1-.1"/><path id="rJuDoAofs0M" d="M241.4 250.1h-31v.1l31.1-.1h-.1"/><path d="M211.1 249h-.7v.1l.7-.1c0 .1 0 0 0 0" id="BJtDs0iGoCG"/><path d="M211.1 249.1h-.7.7" id="ry5Ps0jfsCG"/><path d="M270.4 234.5l-.6.4c2.3 4.2 3.6 9 3.8 14.1h.7c-.1-5.2-1.5-10.1-3.9-14.5" id="S1owiCofiRz"/><path id="Bynvo0iziAf" d="M274.3 250.2h-31.2l-.1.1h31.3v-.1"/><path id="SkavoRsfjRz" d="M274.3 250.3H243h31.3"/><path id="rk0wsAiGoRf" d="M274.3 250.2h-31.2 31.2"/><path id="r11OjCoGi0f" d="M274.3 250.1h-31.1 31.1"/><path id="SkxOiCjGsRf" d="M274.3 250.1h-31.1v.1h31.1v-.1"/><path d="M274.3 249.6h-30.1l-.7.4h30.9v-.1c-.1-.1-.1-.2-.1-.3" id="HJWdjAoMjRM"/><path d="M274.3 249.2h-.7.7" id="BJz_iAiGo0z"/><path d="M274.3 249.4h-.7v.1h-29.4 30.1v-.1" id="BkQ_jRszjCG"/><path d="M274.3 249.2h-.7v.2h.7v-.2" id="ByVdoRozjAf"/><path d="M274.3 249.1h-.7v.1l.7-.1c0 .1 0 .1 0 0" id="HySds0jzsRf"/><path d="M274.3 249h-.7.7c0 .1 0 .1 0 0" id="HyLus0ofiAG"/><path d="M274.3 249.1h-.7.7" id="rkDOoRsGiCG"/><path d="M274.3 249.1h-.7.7" id="r1_OiCozj0f"/><path id="BkYOiRjMj0f" d="M274.3 250h-30.8l-.2.1h31v-.1"/><path id="rJ9OoAifi0z" d="M274.3 250.1h-31 31"/><path d="M274.3 248.9h-.7v.1l.7-.1c0 .1 0 .1 0 0" id="rJidoRsMs0z"/><path d="M274.3 249h-.7.7" id="S12dsAsMoCf"/><path id="SJadi0oMs0G" d="M242.4 250.2h-.1v.1h.1v-.1"/><path id="r10OjCsMj0f" d="M242.4 250.3h-.1.2-.1"/><path id="SkJFjCsMoRf" d="M242.4 250.2h-.1.1"/><path d="M274.7 250.5h-32.6l-32.1.1v.1h.2l32.2-.1h32.3v-.1m-4-16.2l-.3.2c2.4 4.4 3.8 9.4 3.9 14.5h.3c-.1-5.2-1.5-10.2-3.9-14.7m-56.7 0c-2.5 4.5-3.8 9.5-4 14.7h.3c.1-5.2 1.5-10.1 3.9-14.6l-.2-.1m44.8-11.3l-.2.3c4.2 2.6 7.7 6.2 10.2 10.5l.3-.2c-2.5-4.3-6.1-7.9-10.3-10.6m-32.7-.1c-4.3 2.7-7.9 6.3-10.5 10.7l.3.2c2.6-4.3 6.2-7.9 10.4-10.6l-.2-.3m33.2-.8l-.2.3c2.1 1.3 4 2.9 5.8 4.7 1.9 1.9 3.5 4 4.8 6.2l.3-.2c-1.3-2.2-3-4.3-4.9-6.2-1.7-1.9-3.7-3.4-5.8-4.8m-33.7-.1c-2.2 1.4-4.2 3-6.1 4.9-1.9 1.9-3.5 4-4.8 6.2l.3.2c1.3-2.2 2.9-4.3 4.8-6.1 1.8-1.9 3.9-3.5 6-4.8l-.2-.4m17.5-3.7v.3c5.2.1 10.1 1.5 14.4 4l.2-.3c-4.4-2.4-9.4-3.9-14.6-4m-1.4 0c-5.2.1-10.1 1.5-14.4 3.9l.2.3c4.2-2.4 9.1-3.7 14.2-3.9v-.3m1.4-1v.3c5.3.1 10.4 1.5 14.9 4.1l.2-.3c-4.7-2.6-9.8-4-15.1-4.1m-1.4-.1c-5.3.1-10.4 1.5-14.9 4.1l.2.3c4.5-2.5 9.5-3.9 14.7-4v-.4" id="Hybti0iGi0G"/><path d="M210.4 250.3h-.3.3m64.3-.1h-.3.3" id="ByGtsRiziRM"/><path d="M241.8 250.3l-31.4.1h-.3v.2l32.1-.1-.4-.2m.7 0h-.1l-.1.1-.1.1h.4l-.1-.2m32.2 0H243l-.3.2h-.1 32v-.2" id="B1XKoRifsRG"/><path d="M210.4 250.2h-.3v.1l.3-.1m64.3 0h-.3v.1l.3-.1" id="SJ4FoCifiAf"/><path id="HyHtiAifi0f" d="M274.7 250.1h-.4.4"/><path id="SyLtsCsGo0z" d="M274.7 250.1h-.4v.1h.4v-.1"/><path id="SJPYj0sfsAG" d="M210.4 250.2h-.4.4"/><path id="BJ_FoAsMiRG" d="M210.4 250.2h-.4.4"/><path d="M274.7 249.6h-.3v.4h.3v-.4" id="rkFti0sMi0z"/><path d="M274.7 249.2h-.3.3" id="SJ5toRjfoAM"/><path d="M274.7 249.4h-.3v.2h.3v-.2" id="BkjYoCsMjAM"/><path d="M274.7 249.2h-.3v.2h.3v-.2" id="Sy2Yo0jfiRM"/><path d="M274.7 249.1h-.3v.1l.3-.1c0 .1 0 .1 0 0" id="SJaKiRoGsCf"/><path d="M210.4 249.6h-.3v.4h.3v-.4" id="B1CKjRoMiAz"/><path d="M210.4 249.2h-.3.3c0 .1 0 .1 0 0" id="SkJqsRiMiAf"/><path d="M210.4 249.5h-.3v.2h.3v-.2" id="HJe9iCifjAz"/><path d="M210.4 249.3h-.3v.2h.3v-.2" id="rkWqsAjMj0z"/><path d="M210.4 249.2h-.3v.1l.3-.1" id="HyM9iCofjRz"/><path d="M274.7 249h-.3.3c0 .1 0 .1 0 0" id="HyXqoRszi0M"/><path d="M274.7 249.1h-.3.3" id="HkVcoAjfs0f"/><path d="M274.7 249.1h-.3.3" id="SJrqjRjMsCG"/><path d="M210.4 249.1h-.3.3" id="SJU5sAofoRz"/><path d="M210.4 249.1h-.3.3c0 .1 0 0 0 0" id="SkvqoAoMjCG"/><path d="M210.4 249.2h-.3.3" id="Bku5oRjGi0M"/><path d="M210.4 250.1h-.3v.1l.3-.1m64.3-.1h-.3v.1l.3-.1" id="Bkt9s0jfjCf"/><path d="M210.4 250.1h-.3.3m64.3 0h-.3.3" id="S1ccoAszsCz"/><path d="M210.4 249h-.3v.1l.3-.1c0 .1 0 0 0 0m64.3-.1h-.3v.1l.3-.1c0 .1 0 .1 0 0" id="HysqiAsfiCz"/><path d="M210.4 249.1h-.3.3m64.3-.1h-.3.3" id="rkh9jCsMj0z"/><path d="M214.9 234.8c-2.3 4.2-3.7 9.1-3.8 14.2h.3c.1-5.1 1.5-9.9 3.8-14.1l-.3-.1" id="rJT9oCszoRz"/><path d="M211.4 249.2h-.3.3c0 .1 0 .1 0 0" id="HJA5jRjGjCM"/><path id="S1ysiCsfsAz" d="M240.3 249.4l-29.2.1v.1h29.4l-.2-.2"/><path d="M240 249.2l-28.5.1h-.3v.2l29.2-.1-.4-.2" id="SJlioCsfjAz"/><path d="M211.4 249.2h-.3v.1l.3-.1" id="SkZssRoGsCM"/><path d="M211.4 249.1h-.3.3" id="H1fijRoGiRf"/><path d="M211.4 249.1h-.3.3c0 .1 0 0 0 0" id="rkmsiAoMsRM"/><path d="M211.4 249.2h-.3.3" id="ByNioCsziAM"/><path d="M211.4 249h-.3v.1l.3-.1c0 .1 0 0 0 0" id="HkBoiAozs0f"/><path d="M211.4 249.1h-.3.3" id="SJUoiRsGj0M"/><path d="M269.8 234.8l-.3.2c2.3 4.2 3.6 8.9 3.7 14h.3c-.1-5.2-1.4-10-3.7-14.2" id="S1PiiCoGoAM"/><path d="M273.6 249.2h-.3.3" id="SkuisRjziRM"/><path id="r1YsiRszsAM" d="M273.6 249.4h-29.1l-.2.1h29.3v-.1"/><path d="M273.6 249.2h-28.8l-.3.2h29.1v-.2" id="r19ooRsMsRz"/><path d="M273.6 249.1h-.3v.1l.3-.1c0 .1 0 .1 0 0" id="SysjoAjfjCf"/><path d="M273.6 249h-.3.3c0 .1 0 .1 0 0" id="HyhojRszjAz"/><path d="M273.6 249.1h-.3.3" id="Hk6ssAoGi0f"/><path d="M273.6 249.1h-.3.3" id="HyRiiAizsRf"/><path d="M273.6 248.9h-.3v.1l.3-.1c0 .1 0 .1 0 0" id="S1kno0szsAG"/><path d="M273.6 249h-.3.3" id="Syeno0ifiRf"/><path d="M134.8 187.3c-.1.2-.2.4-.4.6l26 15c.1-.2.2-.4.4-.6l-26-15m-27.3-15.7c-.1.2-.2.4-.4.6l26.4 15.2c.1-.2.2-.4.4-.6l-26.4-15.2" id="SybhjAoziCG"/><path d="M79.9 155.7l-.4.6c.2-.2.3-.4.4-.6" id="SkGhiRjMsCM"/><path d="M80.1 155.8c-.1.2-.2.4-.4.6l27.2 15.7c.1-.2.2-.4.4-.6l-27.2-15.7" id="BkQ2j0iGiRM"/><path d="M107.3 171.5c-.1.2-.2.4-.4.6l.2.1c.1-.2.2-.4.4-.6l-.2-.1m-27.4-15.8c-.1.2-.2.4-.4.6l.2.1c.1-.2.2-.4.4-.6l-.2-.1" id="HJV3sRoMiAG"/><path d="M134 186.9c-.1.2-.2.4-.4.6l.7.4c.1-.2.2-.4.4-.6l-.7-.4" id="BJShsAofiAf"/><path d="M134.7 187.3c-.1.2-.2.4-.4.6l.1.1c.1-.3.2-.5.3-.7m-.8-.5c-.1.2-.2.4-.4.6l.1.1c.1-.2.2-.4.3-.7" id="BkLnoAiMoCG"/><path d="M188.6 218.4c-.1.2-.2.4-.4.6l26 15c.1-.2.2-.4.4-.6l-26-15m-26.9-15.6c-.1.2-.2.4-.4.6l25.9 15c.1-.2.2-.4.4-.6l-25.9-15" id="ryPhoAszoRz"/><path d="M160.8 202.3c-.1.2-.2.4-.4.6l.8.4c.1-.2.2-.4.4-.6l-.8-.4" id="ryd3sRoMs0M"/><path d="M161.6 202.8c-.1.2-.2.4-.4.6l.1.1c.1-.2.2-.5.3-.7m-.9-.5c-.1.2-.2.4-.4.6l.1.1c.2-.2.3-.4.3-.7" id="Byt3o0oMo0z"/><path d="M187.7 217.9c-.1.2-.2.4-.4.6l.8.4c.1-.2.2-.4.4-.6l-.8-.4" id="By9ns0oMoAf"/><path d="M188.5 218.3c-.1.2-.2.4-.4.6l.1.1c.1-.2.2-.4.3-.7m-.9-.5c-.1.2-.2.4-.4.6l.1.1c.1-.2.3-.4.3-.7" id="Bki2iRoGoRz"/><path d="M215.7 234c-.1.2-.2.4-.4.6l24.8 14.3h1l-.2-.4-25.2-14.5" id="H1n3oRsMoRM"/><path id="SJT2sAsziRf" d="M241.2 249.2h-.7.7"/><path id="ry03oRsGiAf" d="M241.2 249.2h-.6.6"/><path id="SJy6sCjMiCf" d="M241.2 249.1h-.8l.1.1h.7v-.1"/><path id="Sye6sCoGjAf" d="M241.1 249.1h-.8.9-.1"/><path id="SkWaj0jGiAM" d="M241.2 249.1h-.9.9"/><path id="Skz6i0iMoAf" d="M241.2 249.1h-.8.8"/><path id="HyQTi0sMsRf" d="M241.1 248.9h-1l.2.1h.8v-.1"/><path id="ry46jAifjRf" d="M241.1 249h-.8v.1h.8v-.1"/><path d="M214.8 233.5c-.1.2-.2.4-.4.6l.6.4c.1-.2.2-.4.4-.6l-.6-.4" id="SyB6oCjMiRf"/><path id="HkUpiRiMsAz" d="M241.5 249.6h-.3l.4.2-.1-.2"/><path id="BJwai0jfj0z" d="M241.4 249.6h-.2.3-.1"/><path d="M215.4 233.9c-.1.2-.2.4-.4.6l.3.2c.1-.2.2-.4.4-.6l-.3-.2m-.9-.6c-.1.2-.2.4-.4.6l.3.2c.1-.2.2-.4.4-.6l-.3-.2" id="BJO6j0jzsCz"/><path id="SJKpjAsfoCM" d="M241.4 249.4h-.5l.3.2h.2v-.2"/><path id="SJcpoAifj0z" d="M241.2 249.2h-.6l.3.2h.5l-.2-.2"/><path d="M134.4 188c-.1.1-.1.2-.2.3l26 15c.1-.1.1-.2.2-.3l-26-15m.5-1c-.1.1-.1.2-.2.3l25.9 15c.1-.1.1-.2.2-.3l-25.9-15m-27.8-14.8c-.1.1-.1.2-.2.3l26.4 15.2c.1-.1.1-.2.2-.3l-26.4-15.2m.5-.9c-.1.1-.1.2-.2.3l26.4 15.2c.1-.1.1-.2.2-.3l-26.4-15.2" id="SJo6sAizjAz"/><path d="M79.8 155.2l-.7 1.2.3.2c.1-.1.1-.2.2-.3l.4-.6c.1-.1.1-.2.2-.3l-.4-.2" id="SknasCoMoCM"/><path d="M79.7 156.4c-.1.1-.1.2-.2.3l27.2 15.7c.1-.1.1-.2.2-.3l-27.2-15.7m.6-.9c-.1.1-.1.2-.2.3l27.2 15.7c.1-.1.1-.2.2-.3l-27.2-15.7" id="BkaTjAjzjAG"/><path d="M106.9 172.1c-.1.1-.1.2-.2.3l.2.1c.1-.1.1-.2.2-.3l-.2-.1m.5-.9c-.1.1-.1.2-.2.3l.2.1c.1-.1.1-.2.2-.3l-.2-.1m-27.8-14.9c-.1.1-.1.2-.2.3l.2.1c.1-.1.1-.2.2-.3l-.2-.1m.5-.9c-.1.1-.1.2-.2.3l.2.1c.1-.1.1-.2.2-.3l-.2-.1" id="rJCas0jMi0G"/><path d="M133.6 187.5c-.1.1-.1.2-.2.3l.7.4c.1-.1.1-.2.2-.3l-.7-.4m.5-.9c-.1.1-.1.2-.2.3l.7.4c.1-.1.1-.2.2-.3l-.7-.4" id="H1kAiAizoAG"/><path d="M134.3 187.9c-.1.1-.1.2-.2.3l.1.1c.1-.2.1-.3.1-.4m-.8-.5c-.1.1-.1.2-.2.3l.1.1c.1-.1.2-.2.1-.4m1.3-.4c-.1.1-.1.2-.2.3l.1.1c.1-.2.2-.3.1-.4m-.8-.5c-.1.1-.1.2-.2.3l.1.1c.1-.1.2-.2.1-.4" id="SygCiCoMsRf"/><path d="M188.2 219c-.1.1-.1.2-.2.3l26 15c.1-.1.1-.2.2-.3l-26-15m.5-.9c-.1.1-.1.2-.2.3l26 15c.1-.1.1-.2.2-.3l-26-15m-27.4-14.6c-.1.1-.1.2-.2.3l25.9 15c.1-.1.1-.2.2-.3l-25.9-15m.5-.9c-.1.1-.1.2-.2.3l25.9 15c.1-.1.1-.2.2-.3l-25.9-15" id="H1-0sRjfjAz"/><path d="M160.4 203c-.1.1-.1.2-.2.3l.8.4c.1-.1.1-.2.2-.3l-.8-.4m.6-.9c-.1.1-.1.2-.2.3l.8.4c.1-.1.1-.2.2-.3l-.8-.4" id="ryMAiAiMoAz"/><path d="M161.2 203.4c-.1.1-.1.2-.2.3l.1.1c.1-.1.1-.2.1-.4m-.8-.5c-.1.1-.1.2-.2.3l.1.1c0-.1.1-.2.1-.4m1.3-.4c-.1.1-.1.2-.2.3l.1.1c.1-.2.2-.2.1-.4m-.8-.5c-.1.1-.1.2-.2.3l.1.1c.1-.1.1-.2.1-.4" id="B1XRsAiMj0f"/><path d="M187.3 218.5c-.1.1-.1.2-.2.3l.8.4c.1-.1.1-.2.2-.3l-.8-.4m.5-.9c-.1.1-.1.2-.2.3l.8.4c.1-.1.1-.2.2-.3l-.8-.4" id="HJV0j0izoRz"/><path d="M188.1 218.9c-.1.1-.1.2-.2.3l.1.1c.1-.1.1-.2.1-.4m-.9-.5c-.1.1-.1.2-.2.3l.1.1c.1-.1.2-.2.1-.4m1.4-.4c-.1.1-.1.2-.2.3l.1.1c.1-.1.2-.2.1-.4m-.9-.5c-.1.1-.1.2-.2.3l.1.1c.1-.1.2-.2.1-.4" id="S1SAsCifjRz"/><path d="M215.3 234.7c-.1.1-.1.2-.2.3l24.3 14h.6l-24.7-14.3m.6-1c-.1.1-.1.2-.2.3l25.1 14.5-.3-.6-24.6-14.2" id="ryURo0szsCz"/><path id="SJD0jCifiAf" d="M240.5 249.2h-.6.7-.1"/><path id="HyuRsRoGjAM" d="M240.6 249.2h-.7.7"/><path id="HkK0j0jMjRf" d="M240.4 249.1h-.6l.1.1h.6l-.1-.1"/><path id="rk5CsRoMsAG" d="M240.3 249.1h-.7.7"/><path id="rkjCjAizjCM" d="M240.3 249.1h-.6.7-.1"/><path id="ryhRjRsMs0z" d="M240.4 249.1h-.7.7"/><path id="rk6AjCoGiAG" d="M240.1 248.9h-.6l.1.1h.7l-.2-.1"/><path id="r1AAi0sGi0G" d="M240.3 249h-.7v.1h.7v-.1"/><path d="M214.5 234.1c-.1.1-.1.2-.2.3l.6.4c.1-.1.1-.2.2-.3l-.6-.4m.5-.9c-.1.1-.1.2-.2.3l.6.4c.1-.1.1-.2.2-.3l-.6-.4" id="HJJJls0sMiCz"/><path d="M241.8 250.2h-.1.1m.5 0h-.3.3" id="ryg1giCozoCG"/><path d="M242.3 250.3h-.4.4" id="B1b1xoCjzj0G"/><path d="M241.8 250.2h-.2.2m.6 0h-.3l-.1.1.4-.1" id="H1M1esCjGsCz"/><path d="M241.7 250.1h-.3.3m.7 0h-.2.2" id="SJXyeiAsfiRf"/><path d="M241.8 250.1h-.2l.1.1.1-.1m.6 0h-.2l-.1.1.3-.1" id="Sy4JliCsziRG"/><path id="H1r1lj0oGi0G" d="M241.2 249.6h-.6l.7.4h.4l-.1-.2-.4-.2"/><path id="r1IkgsCozs0z" d="M241.2 249.6h-.7.7"/><path d="M241.7 250h-.4l.1.1.3-.1" id="SJw1xs0jGjAM"/><path d="M241.7 250.1h-.3.3m.6 0" id="S1O1gs0ofoCG"/><path d="M215.1 234.5c-.1.1-.1.2-.2.3l.3.2c.1-.1.1-.2.2-.3l-.3-.2m-.9-.5c-.1.1-.1.2-.2.3l.3.2c.1-.1.1-.2.2-.3l-.3-.2m1.4-.4c-.1.1-.1.2-.2.3l.3.2c.1-.1.1-.2.2-.3l-.3-.2m-.9-.5c-.1.1-.1.2-.2.3l.3.2c.1-.1.1-.2.2-.3l-.3-.2" id="B1Y1giAofo0z"/><path id="SyqJesAsMi0G" d="M240.9 249.4h-.6l.2.2h.7l-.3-.2"/><path id="Skjkli0jfsCG" d="M240.6 249.2h-.6l.3.2h.6l-.3-.2"/><path id="B1n1gsCiMiRG" d="M242.2 250.5h-.1.1"/><path id="Sk61xiCoGjRM" d="M242.3 250.3h-.5l.3.2h.1l.1-.1v-.1"/><path d="M350.1 187.2l-25.4 14.6c.1.2.2.4.4.6l25.4-14.7c-.1 0-.2-.2-.4-.5m27.2-15.6L351 186.7c.1.2.2.4.4.6l26.3-15.2c-.1-.1-.3-.3-.4-.5" id="HJC1xoCoMjRG"/><path d="M404.9 155.7c.1.2.2.4.3.7l-.3-.7" id="S1kllj0iGoRz"/><path d="M404.7 155.8l-27.2 15.7c.1.2.2.4.4.6l27.2-15.7c-.2-.2-.3-.4-.4-.6" id="rkexxiAsMs0G"/><path d="M377.5 171.5l-.2.1c.1.2.2.4.4.6l.2-.1c-.2-.2-.3-.4-.4-.6m27.3-15.8l-.2.1c.1.2.2.4.4.6l.2-.1c-.1-.2-.2-.4-.4-.6" id="BkZeej0iMoCG"/><path d="M350.9 186.8l-.7.4c.1.2.2.4.4.6l.7-.4c-.1-.2-.2-.4-.4-.6" id="SkGgljAsGj0z"/><path d="M350.2 187.2c0 .3.2.5.3.7l.1-.1c-.1-.2-.2-.4-.4-.6m.8-.5c0 .3.2.5.3.7l.1-.1c-.1-.1-.3-.4-.4-.6" id="r1QxesRozi0z"/><path d="M296.2 218.4l-26 15c.1.2.2.4.4.6l26-15c-.2-.2-.3-.4-.4-.6m27.6-16l-26.7 15.4c.1.2.2.4.4.6l26.7-15.4c-.1-.1-.3-.4-.4-.6" id="H1EelsAizoRz"/><path d="M324.7 202l-.8.4c.1.2.2.4.4.6l.8-.4c-.2-.2-.3-.4-.4-.6" id="HJrlliAoMoRM"/><path d="M323.9 202.4c0 .3.2.5.3.7l.1-.1c-.2-.2-.3-.4-.4-.6m.8-.5c0 .3.1.5.3.7l.1-.1c-.1-.2-.2-.4-.4-.6" id="SkLlloRiziCz"/><path d="M297 217.9l-.8.4c.1.2.2.4.4.6l.8-.4c-.1-.2-.2-.4-.4-.6" id="ByPggsRjzoAG"/><path d="M296.3 218.3c0 .3.1.5.3.7l.1-.1c-.2-.1-.3-.4-.4-.6m.8-.5c0 .3.1.5.3.7l.1-.1c-.1-.1-.2-.4-.4-.6" id="B1ugxsRizo0z"/><path d="M269 234.1l-25 14.4-.2.4h1l24.7-14.3c-.2-.1-.4-.3-.5-.5" id="HyYggo0izjCG"/><path id="Sy5eljRiMjCM" d="M244.2 249.2h-.6.6"/><path id="HyigejCoMiRM" d="M244.2 249.2h-.7.7"/><path id="rkneesRsMjCG" d="M244.3 249.1h-.7v.1h.6l.1-.1"/><path id="r1plgiCszsAG" d="M244.5 249h-.9v.1h.8l.1-.1"/><path id="rJAels0sGiCM" d="M244.4 249.1h-.8.8"/><path id="Hyk-eo0oMiRM" d="M244.4 249.1h-.8.8"/><path id="rJxZlsRoMiRf" d="M244.7 248.9h-1v.1h.8l.2-.1"/><path id="Sy-WgiCifoRf" d="M244.5 249h-.9.9"/><path d="M269.9 233.5l-.6.4c.1.2.2.4.4.6l.6-.4c-.2-.1-.3-.3-.4-.6" id="BkzWxjRoMiRf"/><path id="Hk7bljAiGjRM" d="M243.6 249.6h-.3l-.1.2.4-.2"/><path id="rkV-esRizjCG" d="M243.6 249.5h-.2l-.1.1h.3v-.1"/><path d="M269.3 233.9l-.3.2c.1.2.2.4.4.6l.3-.2c-.2-.2-.3-.4-.4-.6m.9-.5l-.3.2c.1.2.2.4.4.6l.3-.2c-.2-.2-.3-.4-.4-.6" id="BkS-giCjzoAf"/><path id="BJUWesRiGsRM" d="M243.8 249.4h-.4v.1h.2l.2-.1"/><path id="r1vWeiRjfiCz" d="M244.2 249.2h-.7l-.1.2h.4l.4-.2"/><path d="M350.5 187.9l-25.4 14.7c.1.1.1.2.2.3l25.4-14.7c-.1-.1-.1-.2-.2-.3m-.5-.9l-25.4 14.6c.1.1.1.2.2.3l25.4-14.6c-.1-.1-.2-.2-.2-.3m27.7-14.8l-26.3 15.2c.1.1.1.2.2.3l26.3-15.2c-.1-.1-.2-.2-.2-.3m-.6-.9l-26.3 15.2c.1.1.1.2.2.3l26.3-15.2c-.1-.1-.1-.2-.2-.3" id="Bk_WliCizi0G"/><path d="M405 155.2l-.3.2c.1.1.1.2.2.3l.4.6c.1.1.1.2.2.3l.3-.2-.8-1.2" id="ryKWxo0oziAM"/><path d="M405 156.4l-27.2 15.7c.1.1.1.2.2.3l27.2-15.7c-.1-.1-.1-.2-.2-.3m-.5-.9l-27.2 15.7c.1.1.1.2.2.3l27.2-15.7c-.1-.1-.1-.2-.2-.3" id="H1cbeiAozo0f"/><path d="M377.9 172.1l-.2.1c.1.1.1.2.2.3l.2-.1c-.1-.1-.2-.2-.2-.3m-.6-.9l-.2.1c.1.1.1.2.2.3l.2-.1c-.1-.1-.1-.2-.2-.3m27.9-14.9l-.2.1c.1.1.1.2.2.3l.2-.1c-.1-.1-.1-.2-.2-.3m-.5-.9l-.2.1c.1.1.1.2.2.3l.2-.1c-.1-.1-.2-.2-.2-.3" id="ryjZgoCoGoRf"/><path d="M351.3 187.4l-.7.4c.1.1.1.2.2.3l.7-.4c-.1-.1-.1-.2-.2-.3m-.5-.9l-.7.4c.1.1.1.2.2.3l.7-.4c-.1-.1-.2-.2-.2-.3" id="Sk2-xiCsfs0M"/><path d="M350.6 187.8c0 .1 0 .2.1.3l.1-.1c-.1 0-.2-.1-.2-.2m.8-.4c0 .1 0 .2.1.3l.1-.1c-.1 0-.2-.1-.2-.2m-1.3-.5c0 .1 0 .2.1.3l.1-.1c-.1 0-.2-.1-.2-.2m.8-.4c0 .1 0 .2.1.3l.1-.1c-.1-.1-.2-.1-.2-.2" id="BkTbljCjGi0z"/><path d="M296.5 219l-26 15c.1.1.1.2.2.3l26-15c-.1-.1-.1-.2-.2-.3m-.5-.9l-26 15c.1.1.1.2.2.3l26-15c-.1-.1-.1-.2-.2-.3m28.2-15l-26.7 15.4c.1.1.1.2.2.3l26.7-15.4c-.1-.1-.2-.2-.2-.3m-.6-.9L297 217.6c.1.1.1.2.2.3l26.7-15.4c-.1-.2-.2-.2-.3-.3" id="ByAblsCsGiAG"/><path d="M325 202.6l-.8.4c.1.1.1.2.2.3l.8-.4c-.1-.1-.1-.2-.2-.3m-.5-.9l-.8.4c.1.1.1.2.2.3l.8-.4c-.1-.1-.2-.2-.2-.3" id="BJJGeoAjGo0M"/><path d="M324.3 203c0 .1 0 .2.1.3l.1-.1c-.1 0-.2-.1-.2-.2m.8-.5c0 .1 0 .2.1.3l.1-.1c-.1 0-.1-.1-.2-.2m-1.4-.4c0 .1 0 .2.1.3l.1-.1c-.1 0-.1-.1-.2-.2m.9-.5c0 .1 0 .2.1.3l.1-.1c-.1 0-.2-.1-.2-.2" id="SkeMxsRiGjRf"/><path d="M297.4 218.5l-.8.4c.1.1.1.2.2.3l.8-.4c-.1-.1-.1-.2-.2-.3m-.5-.9l-.8.4c.1.1.1.2.2.3l.8-.4c-.1-.1-.2-.2-.2-.3" id="HJWMesCoMiCf"/><path d="M296.6 219c0 .1 0 .2.1.3l.1-.1c-.1 0-.1-.1-.2-.2m.9-.5c0 .1 0 .2.1.3l.1-.1c-.1 0-.2-.1-.2-.2m-1.4-.4c0 .1 0 .2.1.3l.1-.1c-.1-.1-.1-.2-.2-.2m.9-.5c0 .1 0 .2.1.3l.1-.1-.2-.2" id="SkMfxs0iGoRf"/><path d="M269.4 234.7L244.7 249h.6l24.2-14c0-.1-.1-.2-.1-.3m-.5-.9L244.3 248l-.3.6 25.1-14.5c-.1-.1-.2-.2-.2-.3" id="Sk7MxjRsfjAz"/><path id="SkEGxoRizsRG" d="M244.9 249.2h-.7.7"/><path id="SJBGgs0iMsCz" d="M244.9 249.2h-.7.7"/><path id="S1Lzeo0jMsCG" d="M245 249.1h-.7l-.1.1h.7l.1-.1"/><path id="SJwGljRoGsCM" d="M245.1 249h-.6l-.1.1h.7v-.1"/><path id="SyOzljCjfsCG" d="M245.1 249.1h-.7.7"/><path id="S1YfxjAjMs0f" d="M245 249.1h-.7.7"/><path id="HJqGgoAsGsAM" d="M245.3 248.9h-.6l-.2.1h.7l.1-.1"/><path id="Byifgs0ofsCf" d="M245.2 249h-.7.7"/><path d="M270.3 234.2l-.6.4c.1.1.1.2.2.3l.6-.4c-.1-.1-.2-.2-.2-.3m-.6-.9l-.6.4c.1.1.1.2.2.3l.6-.4c0-.2-.1-.2-.2-.3" id="SJnGeiRiGsRG"/><path d="M242.8 250.2h-.3.3m.3 0h-.1.1" id="rJafgsRjMiCf"/><path d="M242.8 250.3h-.3.3m.2 0h-.1.1" id="S1RGeoAsGiRM"/><path d="M242.7 250.2h-.3v.1l.3-.1m.5 0h-.2v.1l.2-.1" id="HkJmgoRizo0z"/><path d="M242.5 250.1h-.1.1m.8 0h-.3.3" id="HygQloAjGi0z"/><path d="M242.6 250.1h-.2.2m.6 0h-.2.2" id="S1b7ej0sfj0f"/><path id="HJz7gjRsGjCf" d="M244.2 249.6h-.6l-.4.2-.1.2h.4l.7-.4"/><path id="rk7QejAofsRG" d="M244.3 249.5h-.7v.1h.6l.1-.1"/><path d="M243.5 250h-.4v.1h.3l.1-.1" id="B1EmgoCszjCM"/><path d="M243.3 250.1h-.3.3" id="BkSXejRofjAG"/><path d="M269.7 234.5l-.3.2c.1.1.1.2.2.3l.3-.2c-.1-.1-.2-.2-.2-.3m.8-.5l-.3.2c.1.1.1.2.2.3l.3-.2c0-.1-.1-.2-.2-.3m-1.4-.4l-.3.2c.1.1.1.2.2.3l.3-.2c-.1-.1-.1-.2-.2-.3m.9-.5l-.3.2c.1.1.1.2.2.3l.3-.2c-.1-.1-.1-.2-.2-.3" id="HkImgjAjGjCf"/><path id="S1PQlsRsMsRM" d="M244.5 249.4h-.7l-.2.1h.7l.2-.1"/><path id="rydmljCiGiAz" d="M244.8 249.2h-.6l-.4.2h.7l.3-.2"/><path id="BJtmgs0sziAM" d="M242.7 250.5h-.1.1"/><path id="Hy5QeiAjzjRf" d="M243 250.3h-.5l.1.2h.1v-.1l.3-.1"/><path id="SJh7ejRjGsRM" d="M242.4 250.1v.1-.1"/><path id="BkTQeo0iziAG" d="M242.4 250l-.1.1h.1v-.1"/><path id="S10Qxi0iMsRz" d="M242.4 250.1h-.1.1"/><path d="M242.4 218.6h-.3v29.2l.4.6.4-.6v-29.2h-.5m0-31.8h-.3v30.4h.7v-30.4h-.4m.4-31.7h-.7v30.5h.7v-30.5m-.3-30.1h-.5v29h.7v-29h-.2m-.1-31.1h-.4v29.9h.8V93.9h-.4" id="HyJNgoRofoRG"/><path d="M242.8 61.8h-.8v.2h.8v-.2" id="SJeNliRjGsRf"/><path d="M242.4 62.2h-.4v31.4h.8V62.2h-.4" id="Hy-ExsAjzjAM"/><path d="M242.4 93.7h-.4v.2h.8v-.2h-.4m0-31.7h-.4v.2h.8V62h-.4" id="SyM4xoCjfjCG"/><path d="M242.5 123.9h-.5v.9h.8v-.9h-.3" id="H1Q4esCizsRf"/><path d="M242.5 124.9h-.5v.1h.8v-.1h-.3m0-1.1h-.5v.1h.8v-.1h-.3" id="rkNVeiRiGoAG"/><path d="M242.8 154h-.7v.9h.7v-.9" id="SJH4lj0szoCG"/><path d="M242.8 155h-.7v.1h.7v-.1m0-1.1h-.7v.1h.7v-.1" id="Hy8VgjCsfiAf"/><path d="M242.4 185.7h-.3v.9h.7v-.9h-.4" id="SkPEejRiMsAM"/><path d="M242.4 186.7h-.3v.1h.7v-.1h-.4m0-1.1h-.3v.1h.7v-.1h-.4" id="SJONlj0jGsCM"/><path d="M242.4 217.6h-.3v.7h.7v-.7h-.4" id="S1YNgjCsMjAz"/><path d="M242.4 218.3h-.3v.3h.7v-.3h-.4m0-1.1h-.3v.3h.7v-.3h-.4" id="r1qEei0jfsAz"/><path d="M242.8 218.6v29.2l.3-.6v-28.7c-.1.1-.2.1-.3.1m-.8 0h-.3v28.6l.3.6v-29.2m.8-31.8v30.4h.3v-30.4h-.3m-.8 0h-.3v30.4h.3v-30.4m0-31.7h-.3v30.5h.3v-30.5m.8 0l-.1 30.6h.3v-30.6h-.2M242 125h-.3v29h.3v-29m.8 0v29h.3v-29h-.3m0-31.1v29.9h.3V93.9h-.3m-.8 0h-.3v29.9h.3V93.9" id="rJsEljRiGjCf"/><path d="M243.1 61.4h-1.4v.6h.3v-.3h.7v.3h.3v-.6" id="r1nVxi0sGiCM"/><path d="M242.8 62.2v31.4h.3V62.2h-.3m-.8 0h-.3v31.4h.3V62.2" id="BJpEgjCjGo0z"/><path d="M242.8 93.7v.2h.3v-.2h-.3m-.8 0h-.3v.2h.3v-.2m.8-31.7v.2h.3V62h-.3m-.8 0h-.3v.2h.3V62" id="H10VxiAjMjCf"/><path d="M242 123.9h-.3v.9h.3v-.9m.8 0v.9h.3v-.9h-.3" id="SJJSgs0jzs0M"/><path d="M242 124.9h-.3v.1h.3v-.1m.8 0v.1h.3v-.1h-.3m-.8-1.1h-.3v.1h.3v-.1m.8 0v.1h.3v-.1h-.3" id="H1gSgiRsfsCM"/><path d="M242 154h-.3v.9h.3v-.9m.8 0l-.1.9h.3v-.9h-.2" id="rJWHxjCsMiAz"/><path d="M242 155h-.3v.1h.3v-.1m.8 0l-.1.1h.3v-.1h-.2m-.8-1.1h-.3v.1h.3v-.1m.8 0l-.1.1h.3v-.1h-.2" id="HJfSejAiziCM"/><path d="M242.8 185.7v.9h.3v-.9h-.3m-.8 0h-.3v.9h.3v-.9" id="BJXrxoRsziAG"/><path d="M242.8 186.7v.1h.3v-.1h-.3m-.8 0h-.3v.1h.3v-.1m.8-1.1v.1h.3v-.1h-.3m-.8 0h-.3v.1h.3v-.1" id="HkNSxoRsGs0G"/><path d="M242.8 217.6v.7h.3v-.7h-.3m-.8 0h-.3v.7h.3v-.7" id="r1BHlsCoziCG"/><path d="M242.8 218.3v.3h.3v-.3h-.3m-.8 0h-.3v.3h.3v-.3m.8-1.1v.3h.3v-.3h-.3m-.8 0h-.3v.3h.3v-.3" id="rJ8Blj0jfsAG"/><path d="M257.7 222.8L243.1 248v.7l.6-.4 14.6-25.1c-.2-.2-.4-.3-.6-.4m15.9-27.4l-15.2 26.2c.2.1.4.2.6.4l15.2-26.2c-.1-.2-.4-.3-.6-.4m16.1-27.6l-15.5 26.6c.2.1.4.3.6.4l15.5-26.6c-.2-.1-.4-.3-.6-.4m15.1-26l-14.6 25.1c.2.1.4.2.6.4l14.6-25.1c-.2-.2-.4-.3-.6-.4m15.7-27l-15.1 26.1c.2.1.4.2.6.4l15.2-26.1c-.3-.1-.5-.2-.7-.4" id="ByDHgi0jMsRM"/><path d="M336.5 87.3c.2.2.4.3.6.4l-.6-.4" id="rJOHljAiziAG"/><path d="M336.4 87.5l-15.8 27.1c.2.1.4.2.6.4L337 87.9c-.2-.1-.4-.3-.6-.4" id="HytSgsAizsAG"/><path d="M320.6 114.7l-.1.2c.2.1.4.2.6.4l.1-.2c-.2-.2-.4-.3-.6-.4m15.9-27.4l-.1.2c.2.1.4.2.6.4l.1-.2c-.2-.1-.4-.2-.6-.4" id="r19rxj0jfj0z"/><path d="M305.3 141l-.4.7c.2.1.4.2.6.4l.4-.7c-.2-.2-.4-.3-.6-.4" id="HysBliCiziAG"/><path d="M304.9 141.7c.2.2.4.3.6.5l.1-.1c-.3-.2-.5-.3-.7-.4m.4-.8c.2.2.4.3.6.5l.1-.1c-.3-.2-.5-.3-.7-.4" id="H1hBgiAizsAz"/><path d="M290.1 167l-.4.7c.2.1.4.2.6.4l.4-.7c-.1-.2-.3-.3-.6-.4" id="Sk6BesRiGjRG"/><path d="M289.7 167.7c.2.2.4.3.6.5l.1-.1c-.3-.1-.5-.2-.7-.4m.5-.8c.2.2.4.3.6.5l.1-.1c-.3-.2-.5-.3-.7-.4" id="HJArgo0ozsCG"/><path d="M274.1 194.5l-.4.8c.2.1.4.3.6.4l.4-.8c-.1-.1-.4-.3-.6-.4" id="SkyIxiAizsAM"/><path d="M273.7 195.3c.2.2.4.3.6.5l.1-.1c-.3-.2-.5-.3-.7-.4m.5-.9c.2.2.4.3.6.5l.1-.1c-.3-.1-.5-.3-.7-.4" id="Bkg8eiCszj0G"/><path d="M258.2 221.9l-.4.6c.2.1.4.2.6.4l.4-.6c-.2-.2-.4-.3-.6-.4" id="r1W8xjAoMsAz"/><path d="M257.9 222.5l-.2.3c.2.1.4.2.6.4l.2-.3c-.2-.2-.4-.3-.6-.4m.5-.9l-.2.3c.2.1.4.2.6.4l.2-.3c-.2-.2-.4-.3-.6-.4" id="B1z8gsCjMjCM"/><path id="HkQ8xjAsfoCz" d="M243.4 248.8l-.2.1h.1l.1-.1"/><path id="S1NUli0sGs0M" d="M243.2 249.2h-.1.1"/><path id="H1r8xoRiGiRM" d="M243.2 249.2h-.1.1"/><path id="ByLUls0iGiCz" d="M243.2 249.1h-.1v.1h.1v-.1"/><path id="Hkv8liCoMjAz" d="M243.3 249h-.2v.1h.2v-.1"/><path id="rk_IljRjzoCf" d="M243.3 249.1h-.2.2"/><path id="ByFLlo0iziRM" d="M243.2 249.1h-.1.1"/><path id="r198esCjMo0f" d="M243.3 248.9h-.1l-.1.1h.2v-.1"/><path id="BJiIxiAjGoCG" d="M243.3 249h-.2.2"/><path id="S1nUxoCiMsCz" d="M243.2 249.2h-.1v.2l.1-.2"/><path id="Bk6LgoAszjRM" d="M243.7 248.3l-.6.3v.3h.1l.2-.1.3-.5"/><path id="rJALlo0ozjCM" d="M243.2 248.9h-.1v.1l.1-.1"/><path id="HkkDxjCizoAG" d="M242.8 248.5l-.2.3v.1l.2-.1v-.3"/><path id="HJlwgs0jfsCf" d="M242.8 248.8l-.2.1h.2v-.1"/><path id="SJbwxo0sGiRM" d="M242.8 249h-.1v.1h.1v-.1"/><path id="SJGDxsRsGjRz" d="M242.8 249.1h-.1.1"/><path id="BkXweo0oGsCM" d="M242.8 248.9h-.1v.1h.1v-.1"/><path id="SJEDlo0jfjCG" d="M242.8 249h-.1.1"/><path id="HkrDeoAofsAM" d="M243.1 247.9l-.3.6v.3l.3-.2v-.7"/><path id="B18wxiRozo0M" d="M243.1 249.2h-.3.3"/><path id="rJDPxoAjzj0f" d="M243.1 249.2h-.3.3"/><path id="SyuDljAofsRz" d="M243.1 249.1h-.2l-.1.1h.3v-.1"/><path id="HJYweoRsGsCf" d="M243.1 249h-.1v.1h.1v-.1"/><path id="By5PesAszi0f" d="M243.1 249.1h-.2.2"/><path id="rkjPxiAofoCM" d="M243.1 249.1h-.2.2"/><path id="rk6DgiAoGoCf" d="M243.1 249h-.1.1"/><path id="BJRDesRoMiRz" d="M243.1 249.4h-.2l.1.1.1-.1"/><path id="rk1_xjRofsAf" d="M243.1 249.2h-.3l.1.2h.2v-.2"/><path id="HJg_xoAsfsAM" d="M243.1 248.6l-.3.2v.1h.3v-.3"/><path id="HJ-_gi0ozoCM" d="M242.9 249.1h-.1v.1l.1-.1"/><path id="SkzuxsCjGo0M" d="M243 249h-.2v.1h.2v-.1"/><path id="rk7ulo0jMiRG" d="M243 249.1h-.2.2"/><path id="BJVdgj0izsRf" d="M242.9 249.1h-.1.1"/><path id="rJHOxiRozsCM" d="M243.1 248.9h-.3v.1h.3v-.1"/><path id="ryLOejCjzj0z" d="M243.1 249h-.3.3"/><path id="rJPOejCsfjRz" d="M242.9 249.8h-.2l.1.1.1-.1"/><path d="M258.3 223.1l-14.6 25.1.6-.3 14.3-24.7c-.1 0-.2 0-.3-.1m-.9-.5L243 247.3v.6l14.6-25.2s-.1-.1-.2-.1m16.9-26.8L259 222c.1.1.2.1.3.2l15.2-26.2c-.1-.1-.1-.2-.2-.2m-.9-.6l-15.2 26.2c.1.1.2.1.3.2l15.2-26.2c-.2-.1-.3-.1-.3-.2m16.9-27l-15.5 26.6c.1.1.2.1.3.2l15.5-26.6c-.1-.1-.2-.1-.3-.2m-.9-.5l-15.5 26.6c.1.1.2.1.3.2l15.5-26.6c-.1-.1-.2-.2-.3-.2m16-25.6l-14.6 25.1c.1.1.2.1.3.2l14.6-25.1c-.1 0-.2-.1-.3-.2m-.9-.5l-14.6 25.1c.1.1.2.1.3.2l14.6-25.1c-.1-.1-.2-.1-.3-.2m16.6-26.4l-15.2 26.1c.1.1.2.1.3.2l15.2-26.1c-.1-.1-.2-.1-.3-.2m-.9-.5l-15.2 26c.1.1.2.1.3.2l15.1-26.1s-.1-.1-.2-.1" id="rkOOxsAjfiAM"/><path d="M336.4 86.9l-.2.3c.1.1.2.1.3.2l.6.4c.1.1.2.1.3.2l.2-.3-1.2-.8" id="H1Kdgi0ozsAz"/><path d="M337 87.9L321.2 115c.1.1.2.1.3.2L337.3 88c-.1 0-.2-.1-.3-.1m-.9-.5l-15.8 27.1c.1.1.2.1.3.2l15.8-27.1c-.1-.1-.2-.2-.3-.2" id="SJqdgiAozo0z"/><path d="M321.2 115l-.1.2c.1.1.2.1.3.2l.1-.2c-.1-.1-.2-.1-.3-.2m-.9-.5l-.1.2c.1.1.2.1.3.2l.1-.2c-.1-.1-.2-.2-.3-.2m16.8-26.8l-.1.2c.1.1.2.1.3.2l.1-.2c-.1-.1-.2-.1-.3-.2m-.9-.5l-.1.2c.1.1.2.1.3.2l.1-.2c-.1-.1-.2-.2-.3-.2" id="H1jdgiRsGsCM"/><path d="M305.9 141.4l-.4.7c.1.1.2.1.3.2l.4-.7c-.1-.1-.2-.2-.3-.2m-.9-.6l-.4.7c.1.1.2.1.3.2l.4-.7c-.1-.1-.2-.1-.3-.2" id="Hk2_li0izsAf"/><path d="M305.5 142.1c0 .1.1.2.2.3l.1-.1c-.1-.1-.2-.2-.3-.2m-.9-.6c0 .1.1.2.2.3l.1-.1c-.1-.1-.2-.1-.3-.2m1.3-.2c0 .1.1.2.2.3l.1-.1c-.1-.1-.2-.2-.3-.2m-.9-.6c0 .1.1.2.2.3l.1-.1c-.1-.1-.2-.1-.3-.2" id="H1adgoRiGsRM"/><path d="M290.8 167.4l-.4.7c.1.1.2.1.3.2l.4-.7c-.1-.1-.2-.2-.3-.2m-.9-.6l-.4.8c.1.1.2.1.3.2l.4-.7c-.1-.2-.2-.2-.3-.3" id="r1CdejCoGo0f"/><path d="M290.3 168.1c0 .1.1.2.2.3l.1-.1c-.1-.1-.2-.1-.3-.2m-.9-.5c0 .1.1.2.2.3l.1-.1c-.1-.1-.2-.2-.3-.2m1.4-.3c0 .1.1.2.2.3l.1-.1c-.1-.1-.2-.2-.3-.2m-.9-.6c0 .1.1.2.2.3l.1-.1c-.1-.1-.2-.1-.3-.2" id="S1yFeo0sGiCz"/><path d="M274.8 194.9l-.4.8c.1.1.2.1.3.2l.4-.8c-.2-.1-.2-.1-.3-.2m-.9-.5l-.4.8c.1.1.2.1.3.2l.4-.8c-.2-.1-.2-.2-.3-.2" id="HyxYxsAiGoRM"/><path d="M274.3 195.7c0 .1.1.2.2.3l.1-.1c-.1-.1-.2-.2-.3-.2m-.9-.6c0 .1.1.2.2.3l.1-.1c-.1-.1-.2-.1-.3-.2m1.4-.3c0 .1.1.2.2.3l.1-.1c-.1-.1-.2-.1-.3-.2m-.9-.5c0 .1.1.2.2.3l.1-.1c-.1-.1-.2-.2-.3-.2" id="rkZFliAiMs0M"/><path d="M258.9 222.2l-.4.6c.1.1.2.1.3.2l.4-.6c-.2 0-.3-.1-.3-.2m-.9-.5l-.4.6c.1.1.2.1.3.2l.4-.6c-.2-.1-.3-.1-.3-.2" id="H1GYxs0sMo0f"/><path d="M258.5 222.9l-.2.3c.1.1.2.1.3.2l.2-.3c-.1-.1-.2-.2-.3-.2m-.9-.6l-.2.3c.1.1.2.1.3.2l.2-.3c-.1-.1-.2-.1-.3-.2m1.4-.3l-.2.3c.1.1.2.1.3.2l.2-.3c-.1-.1-.2-.2-.3-.2m-.9-.6l-.2.3c.1.1.2.1.3.2l.2-.3c-.1-.1-.2-.1-.3-.2" id="H1Xtxi0ofjCz"/><path id="rJVKljCoMjRM" d="M244 248.5l-.6.3-.1.1h.4l.3-.4"/><path id="ryBtgo0sGj0z" d="M243.6 249.2h-.4.4"/><path id="B1ItxsRsMiRf" d="M243.6 249.2h-.4.4"/><path id="B1PFgoRoMsRz" d="M243.6 249.1h-.4v.1h.4v-.1"/><path id="BkdYes0ifjAf" d="M243.6 249h-.3v.1h.3v-.1"/><path id="r1FYli0izjCM" d="M243.6 249.1h-.4.4"/><path id="H15Kgj0szsAG" d="M243.6 249.1h-.4.4"/><path id="ByiYesAsMiRG" d="M243.7 248.9h-.4v.1h.4v-.1"/><path id="Byhtei0izj0G" d="M243.7 249h-.4.4"/><path id="H1TYxsAszoRM" d="M243.3 249.6h-.2v.3l.1-.1.1-.2"/><path id="H1Ctgi0ifoRM" d="M243.4 249.5h-.3v.1h.2l.1-.1"/><path id="BJ1cxjRozj0M" d="M242.8 250h-.1v.1l.1-.1"/><path id="B1xcliCsMo0f" d="M243.4 249.4h-.3v.1h.3v-.1"/><path id="Bkb9eoRofoCG" d="M243.5 249.2h-.3l-.1.2h.3l.1-.2"/><path id="HkGqgoCofoAM" d="M244.3 248l-.6.3-.3.5.6-.3.3-.5"/><path id="ryX9xoCozsCM" d="M242.9 250.2h-.1v.1h.1v-.1"/><path id="H1N5xo0oGi0G" d="M242.9 250.3h-.1.1"/><path id="SJH5ljRofsRf" d="M243 250.2h-.3.3"/><path id="ryUcgjRiMiAM" d="M243 250.1h-.5.5"/><path id="SJv5giCsGjAf" d="M243 250.1h-.4l.1.1h.3v-.1"/><path id="Hk_clsRjfj0f" d="M243.2 249.8l-.1.1v.1l.1-.2"/><path id="B1tcxj0izoCG" d="M243.1 250h-.3l-.1.1v-.1h-.2l-.1.1h.6l.1-.1"/><path id="Sk99xjCsMiAf" d="M243 250.1h-.5.5"/><path id="rys5gsAofs0z" d="M242.9 250.3h-.1.1"/><path id="H1hqljAjzsRG" d="M242.5 250h-.1v.1l.1-.1"/><path id="Hk6cloCsMoRz" d="M242.8 247.8l-.4.7.2.3.2-.3v-.7"/><path id="SkC5gsAjGiAz" d="M243.1 247.3l-.3.5v.7l.3-.6v-.6"/><path id="H11sliAjzsAM" d="M243.1 249.6h-.1.1l-.2.1v.1h.2-.2v-.1.1l-.1.1-.1-.1-.1.1.1.1h.1l.3-.1v-.3"/><path id="HkgjgoCizsAM" d="M243.1 249.5h-.1v.1h.1v-.1"/><path id="H1-jxoRifsRf" d="M242.8 250h-.1.1"/><path id="BkMigsAofiAz" d="M243.1 249.4l-.1.1h.1v-.1"/><path id="r1Eigs0jzjCM" d="M243.1 249.9l-.3.1h.3v-.1"/><path id="BJSsgiRjGjAz" d="M242.6 249.9l-.1.1h.2l-.1-.1"/><path d="M242.7 250h-.2.2m.4 0h-.2.2" id="ByLslsRozsAG"/><path id="ByvjxoAiziRM" d="M242.5 250h-.1.1"/><path id="Syujej0jGo0G" d="M242.5 250h-.1.1"/><path d="M227.2 222.6c-.2.1-.4.2-.6.4l14.5 25.3.6.4v-.7l-14.5-25.4m-15.8-27.4c-.2.1-.4.2-.6.4l15.1 26.3c.2-.1.4-.3.6-.4l-15.1-26.3M195.8 168c-.2.1-.4.3-.6.4l15.1 26.3c.2-.1.4-.3.6-.4L195.8 168m-15.2-26.5c-.2.1-.4.2-.6.4l14.7 25.5c.2-.1.4-.3.6-.4l-14.7-25.5m-15.5-27.1c-.2.1-.4.2-.6.4l15 26.2c.2-.1.4-.2.6-.4l-15-26.2" id="H1Fjxo0szjRM"/><path d="M149.2 86.8l-.6.4c.2-.2.4-.3.6-.4" id="By5ieoAofoAM"/><path d="M149.3 87c-.2.1-.4.2-.6.4l15.6 27.2c.2-.1.4-.2.6-.4L149.3 87" id="BkioxsAsfsCf"/><path d="M165 114.2c-.2.1-.4.2-.6.4l.1.2c.2-.1.4-.2.6-.4l-.1-.2m-15.8-27.4c-.2.1-.4.2-.6.4l.1.2c.2-.1.4-.2.6-.4l-.1-.2" id="Bk2seiRiGi0M"/><path d="M180.2 140.7c-.2.1-.4.2-.6.4l.4.7c.2-.1.4-.2.6-.4l-.4-.7" id="HkTjeiRjfjCM"/><path d="M180.6 141.4c-.2.1-.4.2-.6.4l.1.1c.1-.2.3-.3.5-.5m-.5-.8c-.2.1-.4.2-.6.4l.1.1c.1-.2.4-.3.5-.5" id="B1AjgoAizoCM"/><path d="M195.3 167.1c-.2.1-.4.3-.6.4l.4.8c.2-.1.4-.3.6-.4l-.4-.8" id="BkyhgjCizsCz"/><path d="M195.8 167.9c-.2.1-.4.2-.6.4l.1.1c.1-.2.3-.3.5-.5m-.5-.9c-.2.1-.4.3-.6.4l.1.1.5-.5" id="SkxhgsCiGjRM"/><path d="M210.9 194.3c-.2.1-.4.2-.6.4l.4.8c.2-.1.4-.3.6-.4l-.4-.8" id="r1W3xs0sMs0G"/><path d="M211.4 195.1c-.2.1-.4.2-.6.4l.1.1c.1-.2.3-.3.5-.5m-.5-.9c-.2.1-.4.2-.6.4l.1.1c.1-.2.3-.3.5-.5" id="B1z2goRoMi0G"/><path d="M226.7 221.7c-.2.1-.4.2-.6.4l.4.6c.2-.1.4-.2.6-.4l-.4-.6" id="rkmneoCjGiRG"/><path d="M227 222.4c-.2.1-.4.2-.6.4l.2.3c.2-.1.4-.2.6-.4l-.2-.3m-.5-.9c-.2.1-.4.2-.6.4l.2.3c.2-.1.4-.3.6-.4l-.2-.3" id="SyE2giRszi0f"/><path id="HkBngoAozi0z" d="M241.4 248.8l.1.1h.1l-.2-.1"/><path id="HkIhxsCifiAz" d="M241.7 249.2h-.1.1"/><path id="H1wnxo0oGiCz" d="M241.7 249.2h-.1.1"/><path id="BydnxiAofsCf" d="M241.7 249.1h-.1v.1h.1v-.1"/><path id="HkF2giAiMj0f" d="M241.7 249h-.2v.1h.2v-.1"/><path id="By53eoRjzj0z" d="M241.7 249.1h-.2.2"/><path id="SkjhxsRjGoRz" d="M241.7 249.1h-.2.2"/><path id="Sy3ngjRizi0G" d="M241.6 248.9h-.1v.1h.2l-.1-.1"/><path id="HyahliRoMsCG" d="M241.7 249h-.2.2"/><path id="SJC3xj0iMoRM" d="M241.7 249.2h-.1l.1.2v-.2"/><path id="Hy1pxj0oMjAG" d="M241.1 248.3l.3.5.2.1h.1v-.3l-.6-.3"/><path id="SkgpgoCiGsAz" d="M241.7 248.9h-.1l.1.1v-.1"/><path id="SyWalj0ifiCM" d="M242 248.5v.3l.1.1.1-.1-.2-.3"/><path id="BJMpgo0jzoCM" d="M242 248.8v.1h.1l-.1-.1"/><path id="HyXaeoRiMjCz" d="M242.1 249h-.1v.1l.1-.1"/><path id="HJ8aesCoMiAM" d="M242.1 248.9h-.1v.1h.1v-.1"/><path id="H1DTxiCjfiRz" d="M242.1 249h-.1.1"/><path id="ryOTxo0ozjCz" d="M241.7 247.9v.7l.3.2v-.3l-.3-.6"/><path id="SJF6giRoMiAz" d="M242 249.2h-.3.3"/><path id="rJc6gsCofsCM" d="M242 249.2h-.3.3"/><path id="HJsTxiRiMsCf" d="M241.9 249.1h-.2v.1h.3l-.1-.1"/><path id="BynTljAoGi0M" d="M241.8 249h-.1v.1h.1v-.1"/><path id="BypaxoCjGoRG" d="M241.8 249.1h-.1.1"/><path id="r10TgoCifo0M" d="M241.8 249.1h-.1.2-.1"/><path id="r1gRxo0iGoAz" d="M241.7 249h.1-.1"/><path id="H1ZCxiRjGoRG" d="M241.8 249.4h-.1l.1.1v-.1"/><path id="BJG0xi0jMoCG" d="M241.9 249.2h-.2v.2h.1l.1-.2"/><path id="rJmAliRiGsCM" d="M241.7 248.6v.3h.3v-.1l-.3-.2"/><path id="SJ40eoCjMj0M" d="M242 249.1h-.1l.1.1v-.1"/><path id="H1BReoCofs0G" d="M242 249h-.2v.1h.2v-.1"/><path id="HyIAgiCsMoRM" d="M242 249.1h-.2.2"/><path id="H1D0lsRoGs0G" d="M242 249.1h-.2.2"/><path id="Bk_0xs0oGsRf" d="M242 248.9h-.3v.1h.3v-.1"/><path id="SkK0lsAoMiAG" d="M242 249h-.3.3"/><path id="Hkq0liRsGo0G" d="M241.9 249.7l.1.2.1-.1-.2-.1"/><path id="rkiCesAsziAG" d="M242.4 249.4h-.1l.1.1v-.1"/><path id="BkaAljCjMjRM" d="M242.5 249.6h-.1.1"/><path id="HyARgi0sGjAz" d="M242.6 249.5h-.2v.1h.1l.1-.1"/><path id="BJ11-oRsMi0M" d="M242.6 249.4h-.2v.1h.2v-.1"/><path id="SkgyZoRjGsCz" d="M242.5 249.3l-.1.1h.2l-.1-.1"/><path id="B1G1bj0szsAG" d="M242.4 249.5h-.2l.1.1.1-.1"/><path id="H1XyWoCizsAG" d="M242.4 249.4h-.2v.1h.2l-.1-.1h.1"/><path id="BkE1Zi0jMjCz" d="M242.3 249.3l-.1.1h.2l-.1-.1"/><path id="SyB1boAjfoRz" d="M242.4 249.2h-.1.1"/><path id="r1wJ-jRjfsRf" d="M242.4 249.1l-.1.1h.1v-.1"/><path id="BkFJbsRoMiCf" d="M242.4 249.2v.1-.1"/><path id="ByqkZsAjGiRf" d="M242.5 249.2h-.1v.1-.1h-.1v.1l.1.1.1-.1v-.1"/><path id="SJoyWj0ifi0M" d="M242.4 249.6h-.1l.1.1v-.1"/><path id="HJnkWo0iMjCM" d="M242.4 249.5l-.1.1h.1v-.1"/><path id="H1AybsCszjAf" d="M242.2 248.8l-.1.1h.2l-.1-.1"/><path id="H11g-sRszsRG" d="M242.3 248.9h-.1l.1.1v-.1"/><path id="BkWlWiAjfiCG" d="M242 249.2h.1-.1"/><path id="rJzx-iAoziRz" d="M242.1 249.6h-.1v.1h.1v-.1"/><path id="HymgbiAoMjCz" d="M242 249.6h.1-.1"/><path id="HkNxbs0iMoCz" d="M242 249.5v.1-.1"/><path id="SJHlWsCiGs0G" d="M242.1 249.2h-.1v.1l.1-.1"/><path id="HkLgbjAiMoRG" d="M242.1 248.9h.1-.1"/><path id="rkPlWo0iMsRM" d="M242.1 249.2h-.1.1"/><path id="S1OlWo0iMsCz" d="M242.1 249.2h-.1.1"/><path id="H1Ygbj0oGjCG" d="M242.2 249.1h-.2v.1h.1l.1-.1"/><path id="SycgWiRjzjAz" d="M242.4 249h-.3l-.1.1h.4v-.1"/><path id="r1igZsAifoCM" d="M242.3 249.1h-.3.3"/><path id="Sk3lZiRofsCG" d="M242.3 249.1h-.3.3"/><path id="SJ6e-sAoGiAz" d="M242.2 248.9h-.1v.1h.2l-.1-.1"/><path id="Sy0x-oRiMj0f" d="M242.3 249h-.2.3-.1"/><path id="SyxWWjRszjAf" d="M242.3 249.6h-.2v.1h.2v-.1"/><path id="H1bWbs0jzjCf" d="M242.2 249.5l-.2.1h.3l-.1-.1"/><path id="S1z-bo0ofjRG" d="M242.2 249.4h-.2v.2l.2-.1v-.1"/><path id="HyQb-iCizs0M" d="M242.1 249.2l-.1.1v.1h.2l.1-.1-.2-.1"/><path id="BkV-bsAsGo0f" d="M242.3 249.2h-.2.2"/><path id="r1BZ-iCsfoRf" d="M242.3 249.2h-.2.2"/><path id="BkIZZiCjGiAG" d="M242.4 249.1h-.2l-.1.1h.2l.1-.1"/><path id="SywZZjAoGoAG" d="M242.4 249.1h-.1.1"/><path id="HydZ-oAjzi0M" d="M242.4 249.1h-.1.1"/><path id="ryKZ-j0jzj0f" d="M242.4 249.1h-.2.2"/><path id="Bk5-Zj0szsRf" d="M242.3 249.2h-.2l.2.1v-.1"/><path id="B1ob-sAofoCf" d="M242.3 249.6v.1h.1l-.1-.1"/><path id="BJTb-jRizoRG" d="M242 249.2h-.1.1"/><path id="ByyGbsAoMoCG" d="M242 249.6h-.2l.1.1.2.1h.1l-.1-.1h-.1v-.1"/><path id="BkezZiAsfi0f" d="M242 249.6h-.2.2"/><path id="Hk-MZsAoziAf" d="M242 249.4h-.2v.2h.2v-.2"/><path id="rJGzbiCjzsCM" d="M242 249.2h-.1l-.1.2h.2l-.1-.1h.1v-.1"/><path id="SkVM-jAsMsCM" d="M242 249.1v.1-.1"/><path id="ryIGboRsGsRz" d="M242.3 249.7h-.2l.1.1.1-.1"/><path id="BJwfbiAifoRM" d="M242 249.4v.1-.1"/><path id="H1_z-sAjfoCM" d="M242 249.3h-.1l.1.1v-.1"/><path d="M226.6 223c-.1.1-.2.1-.3.2l14.2 24.8.6.3-14.5-25.3m.9-.5c-.1.1-.2.1-.3.2l14.5 25.3v-.6l-14.2-24.9m-16.7-27c-.1.1-.2.1-.3.2l15.1 26.3c.1-.1.2-.1.3-.2l-15.1-26.3m.9-.5c-.1.1-.2.1-.3.2l15.1 26.3c.1-.1.2-.1.3-.2L211.7 195m-16.5-26.7c-.1.1-.2.1-.3.2l15.1 26.3c.1-.1.2-.1.3-.2l-15.1-26.3m.9-.5c-.1.1-.2.1-.3.2l15.1 26.3c.1-.1.2-.1.3-.2l-15.1-26.3M180 141.9c-.1.1-.2.1-.3.2l14.7 25.5c.1-.1.2-.1.3-.2L180 141.9m.9-.6c-.1.1-.2.1-.3.2l14.6 25.5c.1-.1.2-.1.3-.2l-14.6-25.5m-16.5-26.5c-.1.1-.2.1-.3.2l15 26.2c.1-.1.2-.1.3-.2l-15-26.2m.9-.6c-.1.1-.2.1-.3.2l15 26.2c.1-.1.2-.1.3-.2l-15-26.2" id="rkcz-jRjzoCz"/><path d="M149.3 86.3l-1.2.7.2.3c.1-.1.2-.1.3-.2l.6-.4c.1-.1.2-.1.3-.2l-.2-.2" id="BJsM-j0jzjRf"/><path d="M148.7 87.4c-.1.1-.2.1-.3.2l15.6 27.2c.1-.1.2-.1.3-.2l-15.6-27.2m.9-.6c-.1.1-.2.1-.3.2l15.6 27.2c.1-.1.2-.1.3-.2l-15.6-27.2" id="BynGZsRjfjRz"/><path d="M164.3 114.6c-.1.1-.2.1-.3.2l.1.2c.1-.1.2-.1.3-.2l-.1-.2m.9-.5c-.1.1-.2.1-.3.2l.1.2c.1-.1.2-.1.3-.2l-.1-.2m-16.6-26.9c-.1.1-.2.1-.3.2l.1.2c.1-.1.2-.1.3-.2l-.1-.2m.9-.6c-.1.1-.2.1-.3.2l.1.2c.1-.1.2-.1.3-.2l-.1-.2" id="HJTz-o0szjRG"/><path d="M179.5 141.1c-.1.1-.2.1-.3.2l.4.7c.1-.1.2-.1.3-.2l-.4-.7m.9-.6c-.1.1-.2.1-.3.2l.4.7c.1-.1.2-.1.3-.2l-.4-.7" id="ByAz-oCoGsCG"/><path d="M179.9 141.8c-.1.1-.2.1-.3.2l.1.1c.1-.1.2-.2.2-.3m.9-.6c-.1.1-.2.1-.3.2l.1.1c.1-.1.2-.1.2-.3m-1.3-.2c-.1.1-.2.1-.3.2l.1.1c0-.1.1-.2.2-.3m.9-.5c-.1.1-.2.1-.3.2l.1.1c.1-.1.2-.2.2-.3" id="rk17boRifiRz"/><path d="M194.7 167.5c-.1.1-.2.1-.3.2l.4.7c.1-.1.2-.1.3-.2l-.4-.7m.9-.6c-.1.1-.2.1-.3.2l.4.8c.1-.1.2-.1.3-.2l-.4-.8" id="BJgX-oRiGsAG"/><path d="M195.1 168.2c-.1.1-.2.1-.3.2l.1.1c.1-.1.2-.1.2-.3m.9-.5c-.1.1-.2.1-.3.2l.1.1c.1-.1.2-.2.2-.3m-1.4-.3c-.1.1-.2.1-.3.2l.1.1c.1-.1.2-.2.2-.3m.9-.5c-.1.1-.2.1-.3.2l.1.1c.1-.1.2-.2.2-.3" id="rybX-j0sGoAM"/><path d="M210.3 194.7c-.1.1-.2.1-.3.2l.4.8c.1-.1.2-.1.3-.2l-.4-.8m.9-.6c-.1.1-.2.1-.3.2l.4.8c.1-.1.2-.1.3-.2l-.4-.8" id="r1zmWjRjfiAz"/><path d="M210.7 195.4c-.1.1-.2.1-.3.2l.1.1c.1 0 .2-.1.2-.3m1-.5c-.1.1-.2.1-.3.2l.1.1c0-.1.1-.1.2-.3m-1.5-.3c-.1.1-.2.1-.3.2l.1.1c.1-.1.2-.2.2-.3m1-.6c-.1.1-.2.1-.3.2l.1.1c0-.1.1-.1.2-.3" id="HkQQbs0jGi0f"/><path d="M226.1 222.1c-.1.1-.2.1-.3.2l.4.6c.1-.1.2-.1.3-.2l-.4-.6m.9-.5c-.1.1-.2.1-.3.2l.4.6c.1-.1.2-.1.3-.2l-.4-.6" id="HJVQbiCifs0G"/><path d="M226.4 222.7c-.1.1-.2.1-.3.2l.2.3c.1-.1.2-.1.3-.2l-.2-.3m.9-.5c-.1.1-.2.1-.3.2l.2.3c.1-.1.2-.1.3-.2l-.2-.3m-1.4-.4c-.1.1-.2.1-.3.2l.2.3c.1-.1.2-.1.3-.2l-.2-.3m.9-.5c-.1.1-.2.1-.3.2l.2.3c.1-.1.2-.1.3-.2l-.2-.3" id="SkSmbi0sfoRz"/><path id="S18X-jCsMjAM" d="M240.8 248.5l.3.4h.4l-.1-.1-.6-.3"/><path id="ryPQboAjGo0f" d="M241.6 249.2h-.4.4"/><path id="Sy_QZsAoGsCM" d="M241.6 249.2h-.4.4"/><path id="HJFXZs0oMo0M" d="M241.6 249.1h-.4v.1h.4v-.1"/><path id="r15QbsRizo0f" d="M241.5 249l-.4.1h.4v-.1"/><path id="HJsX-iRoGjAG" d="M241.5 249.1h-.3.3"/><path id="HJnQbsAsfjAG" d="M241.5 249.1h-.3.4-.1"/><path id="HJa7bsAozs0f" d="M241.5 248.9h-.4v.1h.4v-.1"/><path id="BJC7ZjRsGsAG" d="M241.5 249h-.4v.1l.4-.1"/><path id="Hk1N-o0szo0G" d="M241.7 249.6h-.2l.1.2.1.1v-.3"/><path id="B1eVWo0izjAf" d="M241.7 249.6h-.3.3"/><path id="Hk-EZjRoMoCM" d="M242.1 250h-.2l.2.1v-.1"/><path id="B1fEboAjMsCf" d="M241.7 249.4h-.3v.2h.3v-.2"/><path id="rk74Wo0izs0z" d="M241.6 249.2h-.4l.2.2h.3l-.1-.2"/><path id="B1N4-sRjzoCf" d="M240.5 248l.3.5.6.3-.3-.5-.6-.3"/><path id="B1r4WiCiGsCM" d="M242 250.2h-.2v.1h.2v-.1"/><path id="Sy8VbjRszs0G" d="M242 250.3h-.2.2"/><path id="HJPV-iCiGj0z" d="M242.1 250.2h-.3.3"/><path id="rJuVZsAofjAG" d="M242.3 250.1h-.6.6"/><path id="HkKVbsRjGsAz" d="M242.2 250.1h-.4v.1h.3l.1-.1"/><path id="SJcV-iAjzjRf" d="M241.6 249.8l.1.2v-.1l-.1-.1"/><path id="HkjNbiRifjRz" d="M241.7 250v.1h.6v-.1h-.2v.1l-.2-.1h-.2"/><path id="H1hV-sAofiCf" d="M242.3 250.1h-.6.6"/><path id="HJ64Zj0izoRf" d="M241.9 250.3h-.1.1"/><path id="ByREbsAizsCM" d="M242.3 250v.1l.1-.1h-.1"/><path id="rJySWoRszs0f" d="M242 247.8v.7l.2.3.2-.3-.4-.7"/><path id="SygBWs0sGiCz" d="M241.7 247.3v.6l.3.6v-.7l-.3-.5"/><path id="ByZSZsCiGo0M" d="M241.7 249.6v.3l.2.1h.2l.1-.1-.1-.1-.1.1-.1-.2-.2-.1"/><path id="rkzr-jAiMoAM" d="M241.8 249.6h-.1.1"/><path id="H1mrbjRsfsCf" d="M242.1 250h-.2.2"/><path id="SyEH-oRjMj0z" d="M241.7 249.4v.2h.1v-.1l-.1-.1"/><path id="HkIBWiAoMj0M" d="M241.7 249.9v.1h.2l-.2-.1"/><path id="BkwSWi0izj0f" d="M242.2 249.9l-.1.1h.2l-.1-.1"/><path d="M241.9 250h-.2.2m.4 0h-.2.2" id="rydS-o0jzjCG"/><path id="rkiSWiRiMsRG" d="M242.6 248.8l-.1.1h.1v-.1"/><path id="rJ3r-j0ofjRz" d="M242.6 248.9h-.1l-.1.1.2-.1"/><path id="rJRSZoRiGoRG" d="M242.8 249.2h-.1.1"/><path id="Hy18ZoCjGjRM" d="M242.8 249.6h-.1v.1h.1v-.1"/><path id="HylUWiAifjAz" d="M242.8 249.5h-.1v.1h.1v-.1"/><path id="rJ-LboRofiAz" d="M242.8 249.5h-.1.1"/><path id="HJzIbiCsGsAz" d="M242.8 249.2h-.1l.1.1v-.1"/><path id="SkXUbsAjGiCM" d="M242.7 249.6h-.3l.1.1h.2v-.1"/><path id="SyNUbs0izoRf" d="M242.7 249.5h-.1l-.1.1h.2v-.1"/><path id="BySI-j0izo0f" d="M242.8 249.4h-.2v.1h.2v-.1"/><path id="r1UUWiCszi0G" d="M242.7 249.2l-.2.1.1.1h.2v-.1l-.1-.1"/><path id="SkvIZoRsGjCM" d="M242.6 248.9h.1-.1"/><path id="SJdIWjAiMs0f" d="M242.8 249.2h-.2.2"/><path id="rytIWjRozoCf" d="M242.8 249.2h-.1.1"/><path id="SycLWoRsfjRf" d="M242.8 249.1h-.3l.1.1h.2v-.1"/><path id="BJoUWoRsMiCz" d="M242.7 249h-.3v.1h.3v-.1"/><path id="SJ2UWjCiGoRf" d="M242.7 249.1h-.2.3-.1"/><path id="BJp8WsAiGs0M" d="M242.8 249.1h-.3.3"/><path id="ByAUZsRjGjRz" d="M242.7 248.9h-.1l-.2.1h.3v-.1"/><path id="B1kw-oCifoRG" d="M242.7 249h-.3.3"/><path id="rk-PWoAifj0G" d="M242.6 249.2h-.2.3-.1"/><path id="ryfwZj0oMsRM" d="M242.7 249.2h-.3.3"/><path id="SJmP-sCjfoAf" d="M242.5 249.1h-.1v.1h.2l-.1-.1"/><path id="Bk4wWs0oGj0z" d="M242.4 249.1h.1-.1"/><path id="S1HPZjAoMoCz" d="M242.5 249.1h-.1.1"/><path id="BkIwWjAoGsRf" d="M242.5 249.1h-.1.1"/><path id="H1vw-i0oGjRz" d="M242.7 249.2h-.2v.1l.2-.1"/><path id="BkdwWi0sMoRf" d="M242.4 249.6v.1h.1l-.1-.1"/><path id="S13D-oRoMsRz" d="M243 249.6h-.2v.1h-.1l-.1.1h.3l.1-.2"/><path id="rkavbjAjGjAM" d="M243 249.5h-.2v.1h.2v-.1"/><path id="HJAwZjCjziRG" d="M242.9 249.4h-.1v.1h.2l-.1-.1"/><path id="ByJdWoRoMsCz" d="M242.8 249.2v.1h.1l-.1.1h.1l-.1-.2"/><path id="Skxd-i0oGi0G" d="M242.7 249.7h-.2l.1.1.1-.1"/><path id="HkWdbsCofi0f" d="M242.8 249.4v.1-.1"/><path id="Bkzu-iAoziCz" d="M242.8 249.3v.1l.1-.1h-.1"/><path id="HJ4dbsCjGs0G" d="M242.8 249.1v.1-.1"/><path id="ByDO-i0izsAG" d="M242.5 249.7h-.1.1"/><path id="Sy_OboAjziRM" d="M242.4 248.5l-.2.3.1.1h.2l.1-.1-.2-.3"/><path id="HkYO-iCiMjAG" d="M242.5 248.9h-.2v.1h.1l.1-.1"/><path id="rJjdboAjzsAG" d="M242.4 249v.1-.1"/><path id="rkndWsCiMsAM" d="M242.3 249h.1-.1"/><path id="Hy6dZoCofiRz" d="M242.4 249h-.1.1"/><path id="rJ0d-iAsziRf" d="M242.4 249v.1-.1"/><path id="HJbtWj0ifiCM" d="M242.4 249v.1-.1"/><path id="B1HY-iAjMiAf" d="M243 249.6l-.1.2v-.1l.2-.1h-.1"/><path id="HkIYWs0oMsRf" d="M243 249.5v.1-.1"/><path id="S1OKZi0izj0f" d="M241.8 249.6h-.1l.2.1-.1-.1"/><path id="SytYWoAsfoAf" d="M241.8 249.6h-.1.1"/><path id="SycK-oCozsRG" d="M241.8 249.5v.1-.1"/><path id="SyoKZsCjGsAM" d="M242.4 250h-.1.1"/><path id="SkntZs0ofi0z" d="M242.4 249.7h-.1.1"/><path id="r16YZsRifsCG" d="M242.2 249.8h-.1l.1.1v-.1"/><path id="SyRYWoRsfjAM" d="M242.2 249.8v.1l.1.1-.1-.2"/><path id="BkyqZiRifiCM" d="M242.6 249.8v.1l.1-.1h-.1"/><path id="SJg5-jAsGiCG" d="M242.5 249.7l.1.1-.1-.1"/><path id="rJZqbsAsMoAG" d="M242.6 249.8l-.1.2.1-.1v-.1"/><path id="BkGq-oCjMjRz" d="M242.3 249.7l-.1.1.1-.1"/><path id="S17cWoCifsRf" d="M242.4 249.7h-.1l-.1.1.1.2h.2l.1-.2-.1-.1h-.1"/><path id="S1N9WsCizi0M" d="M242.4 250h-.1.1"/><g id="rkSq-j0jzsCG_SJrd6Gj0G" data-animator-group="true" data-animator-type="2"><path d="M161 250.2s-22.6-17.6-20.9-24.9c10.7-11.1 82.6 17.6 82.6 17.6S98.1 202.8 111.9 174c13.8-14.6 68.4 26.7 68.4 26.7S163.7 185.1 161 180c1.4-3.6 23.4 11.2 23.4 11.2s1.6-6.3 3.9-9.1 26 30 26 30-22.1-32.8-22.8-38.1c-.4-9.6 18.1 24.3 20.6 24.1s-10-18.3-8.5-20.6c1.5-2.2 9.8 15.4 9.8 15.4s-23.3-53.6-20.6-60.8c4.2-2.6 23.9 44.6 23.9 44.6s-9.7-25.7-8.1-34.1c1.6-8.4 17.2 45.3 17.2 45.3s-10.5-46.7-8.6-48.4c1.9-1.8 10.2 26.2 10.2 26.2s-4-25.1-.9-28.3c3.2-3.2 10.4 55.7 10.4 55.7s-4.9-57.6-2.1-61c4-7.1 4 23.8 4 23.8s2.8-51.4 8.8-53.5c11.8-.9 1.2 99.7 1.2 99.7s4.4-31.2 5.6-36.6c2.5-3.9 1.9 10.8 1.9 10.8s6.9-11.8 9.1-12.2c2.3-.4 0 10.7 0 10.7s5.1-7.4 7-9.3c4.4-1.9-9.5 33.2-9.5 33.2s13.4-27 15.6-27c2.3 0-11.1 29.1-11.1 29.1s28.4-52 36.8-51.1c5.6.4-8.5 26.6-8.5 26.6s10.9-9.8 13.2-8.9c2.3.9-6.3 14.4-6.3 14.4s5.6-3.7 12.7-5.5c7-1.8-7 15-7 15s13.2-6 16.9-5.6c5.1 2.5-25.3 26.2-25.3 26.2s23.8-13.5 27.4-9.7c4.6 5.5-71.5 40.5-71.5 40.5s92.7-46.5 99.8-27.6c9.5 8.2-24.4 34-24.4 34L161 250.2z" id="rkSq-j0jzsCG"/></g><g id="S1L5WoRizsCG_HJxv3GsAf" data-animator-group="true" data-animator-type="2"><path d="M149.6 249.8s3.5-5.6 7.4-12.1c1.8-7.6-35.5-29.2-24.6-48.3 10.9-19.2 39.7 2.8 39.7 2.8s22 16.2 23.2 14.8c1.2-1.4-7.4-11.2-4.6-11.2 4.9.7 30.2 28.1 30.2 28.1s-28.3-36.4-24.2-38c4-1.6 12.1 12.7 15.8 14.8 3.7 2.1-11.9-26.9-7-28.8 4.9-1.9 17.4 32.9 19 32.3 1.6-.5-14.8-45.5-12.3-49.6 2.5-4.1 8.3 14.3 7.4 7.8-.9-6.4-8.8-54.8 2.1-60.4 10.9-5.6 17.9 48.1 17.9 48.1s1.4-21.1 6-22.1c4.6-1.1 3.5 19 5.3 20.4 3 3 5.1-14.8 8.8-14.4 3.7.4 1.6 11.2 3.5 13.4 2.3 3.7 5.1-9.8 9.5-9.5 4.4.4.2 13 1.8 14.1 1.1 5.3 11.4-16.5 15.8-15.5 4.4 1.1-7 26.4-5.6 28.5-1.2 8.3 23.7-40.2 38-36.9 16.3 19.2-47.8 86.1-47.8 86.1s39.9-41.3 43.6-38.1c5.3 7.6-16.5 26.4-15.8 27.6s19.7-9.8 26-7.7c6.3 5.3-11.8 18.1-11.2 21.1.5 3 13.4 1.8 17.6 8.8 5.6 8.1-4.6 24.2-4.6 24.2H149.6z" id="S1L5WoRizsCG"/></g><path d="M467.4 265.9v3.4H464c-.1 0-.2.1-.2.2s.1.2.2.2h3.6c.1 0 .1 0 .2-.1 0 0 .1-.1.1-.2v-3.6c0-.1-.1-.2-.2-.2-.2.1-.3.2-.3.3z" id="Byv9bjRofo0z"/><path d="M34.5 269.3h-7.3c-.1 0-.2.1-.2.2s.1.2.2.2h7.3c.1 0 .2-.1.2-.2s-.1-.2-.2-.2zm14.6 0h-7.3c-.1 0-.2.1-.2.2s.1.2.2.2h7.3c.1 0 .2-.1.2-.2s-.1-.2-.2-.2zm14.5 0h-7.3c-.1 0-.2.1-.2.2s.1.2.2.2h7.3c.1 0 .2-.1.2-.2s0-.2-.2-.2zm14.6 0h-7.3c-.1 0-.2.1-.2.2s.1.2.2.2h7.3c.1 0 .2-.1.2-.2s-.1-.2-.2-.2zm14.5 0h-7.3c-.1 0-.2.1-.2.2s.1.2.2.2h7.3c.1 0 .2-.1.2-.2.1-.1 0-.2-.2-.2zm14.6 0H100c-.1 0-.2.1-.2.2s.1.2.2.2h7.3c.1 0 .2-.1.2-.2s-.1-.2-.2-.2zm14.6 0h-7.3c-.1 0-.2.1-.2.2s.1.2.2.2h7.3c.1 0 .2-.1.2-.2s-.1-.2-.2-.2zm14.5 0h-7.3c-.1 0-.2.1-.2.2s.1.2.2.2h7.3c.1 0 .2-.1.2-.2s-.1-.2-.2-.2zm14.6 0h-7.3c-.1 0-.2.1-.2.2s.1.2.2.2h7.3c.1 0 .2-.1.2-.2s-.1-.2-.2-.2zm14.5 0h-7.3c-.1 0-.2.1-.2.2s.1.2.2.2h7.3c.1 0 .2-.1.2-.2s-.1-.2-.2-.2zm14.6 0h-7.3c-.1 0-.2.1-.2.2s.1.2.2.2h7.3c.1 0 .2-.1.2-.2s-.1-.2-.2-.2zm14.5 0h-7.3c-.1 0-.2.1-.2.2s.1.2.2.2h7.3c.1 0 .2-.1.2-.2.1-.1 0-.2-.2-.2zm14.6 0h-7.3c-.1 0-.2.1-.2.2s.1.2.2.2h7.3c.1 0 .2-.1.2-.2s-.1-.2-.2-.2zm14.6 0h-7.3c-.1 0-.2.1-.2.2s.1.2.2.2h7.3c.1 0 .2-.1.2-.2s-.1-.2-.2-.2zm14.5 0H231c-.1 0-.2.1-.2.2s.1.2.2.2h7.3c.1 0 .2-.1.2-.2s-.1-.2-.2-.2zm14.6 0h-7.3c-.1 0-.2.1-.2.2s.1.2.2.2h7.3c.1 0 .2-.1.2-.2s-.1-.2-.2-.2zm14.5 0h-7.3c-.1 0-.2.1-.2.2s.1.2.2.2h7.3c.1 0 .2-.1.2-.2s-.1-.2-.2-.2zm14.6 0h-7.3c-.1 0-.2.1-.2.2s.1.2.2.2h7.3c.1 0 .2-.1.2-.2s-.1-.2-.2-.2zm14.5 0h-7.3c-.1 0-.2.1-.2.2s.1.2.2.2h7.3c.1 0 .2-.1.2-.2.1-.1 0-.2-.2-.2zm14.6 0h-7.3c-.1 0-.2.1-.2.2s.1.2.2.2h7.3c.1 0 .2-.1.2-.2s-.1-.2-.2-.2zm14.6 0h-7.3c-.1 0-.2.1-.2.2s.1.2.2.2h7.3c.1 0 .2-.1.2-.2s-.1-.2-.2-.2zm14.5 0h-7.3c-.1 0-.2.1-.2.2s.1.2.2.2h7.3c.1 0 .2-.1.2-.2s-.1-.2-.2-.2zm14.6 0h-7.3c-.1 0-.2.1-.2.2s.1.2.2.2h7.3c.1 0 .2-.1.2-.2s-.1-.2-.2-.2zm14.5 0H362c-.1 0-.2.1-.2.2s.1.2.2.2h7.3c.1 0 .2-.1.2-.2s-.1-.2-.2-.2zm14.6 0h-7.3c-.1 0-.2.1-.2.2s.1.2.2.2h7.3c.1 0 .2-.1.2-.2s-.1-.2-.2-.2zm14.5 0h-7.3c-.1 0-.2.1-.2.2s.1.2.2.2h7.3c.1 0 .2-.1.2-.2s0-.2-.2-.2zm14.6 0h-7.3c-.1 0-.2.1-.2.2s.1.2.2.2h7.3c.1 0 .2-.1.2-.2s-.1-.2-.2-.2zm14.5 0h-7.3c-.1 0-.2.1-.2.2s.1.2.2.2h7.3c.1 0 .2-.1.2-.2.1-.1 0-.2-.2-.2zm14.6 0h-7.3c-.1 0-.2.1-.2.2s.1.2.2.2h7.3c.1 0 .2-.1.2-.2s-.1-.2-.2-.2zm14.6 0h-7.3c-.1 0-.2.1-.2.2s.1.2.2.2h7.3c.1 0 .2-.1.2-.2s-.1-.2-.2-.2z" id="S1Oq-oRsGiAf"/><path d="M20 269.3h-3.4v-3.4c0-.1-.1-.2-.2-.2s-.2.1-.2.2v3.6c0 .1 0 .1.1.2 0 0 .1.1.2.1H20c.1 0 .2-.1.2-.2 0-.2-.1-.3-.2-.3z" id="HyF9WsAjGjAM"/><path d="M16.5 36.1v-7.4c0-.1-.1-.2-.2-.2s-.2.1-.2.2v7.4c0 .1.1.2.2.2s.2 0 .2-.2zm0 14.9v-7.4c0-.1-.1-.2-.2-.2s-.2.1-.2.2V51c0 .1.1.2.2.2s.2-.1.2-.2zm0 14.8v-7.4c0-.1-.1-.2-.2-.2s-.2.1-.2.2v7.4c0 .1.1.2.2.2s.2-.1.2-.2zm0 14.8v-7.4c0-.1-.1-.2-.2-.2s-.2.1-.2.2v7.4c0 .1.1.2.2.2s.2-.1.2-.2zm0 14.8V88c0-.1-.1-.2-.2-.2s-.2.1-.2.2v7.4c0 .1.1.2.2.2s.2-.1.2-.2zm0 14.8v-7.4c0-.1-.1-.2-.2-.2s-.2.1-.2.2v7.4c0 .1.1.2.2.2.1.1.2 0 .2-.2zm0 14.9v-7.4c0-.1-.1-.2-.2-.2s-.2.1-.2.2v7.4c0 .1.1.2.2.2s.2-.1.2-.2zm0 14.8v-7.4c0-.1-.1-.2-.2-.2s-.2.1-.2.2v7.4c0 .1.1.2.2.2s.2-.1.2-.2zm0 14.8v-7.4c0-.1-.1-.2-.2-.2s-.2.1-.2.2v7.4c0 .1.1.2.2.2s.2-.1.2-.2zm0 14.8v-7.4c0-.1-.1-.2-.2-.2s-.2.1-.2.2v7.4c0 .1.1.2.2.2s.2-.1.2-.2zm0 14.9V177c0-.1-.1-.2-.2-.2s-.2.1-.2.2v7.4c0 .1.1.2.2.2s.2-.1.2-.2zm0 14.8v-7.4c0-.1-.1-.2-.2-.2s-.2.1-.2.2v7.4c0 .1.1.2.2.2s.2-.1.2-.2zm0 14.8v-7.4c0-.1-.1-.2-.2-.2s-.2.1-.2.2v7.4c0 .1.1.2.2.2s.2-.1.2-.2zm0 14.8v-7.4c0-.1-.1-.2-.2-.2s-.2.1-.2.2v7.4c0 .1.1.2.2.2s.2-.1.2-.2zm0 14.8v-7.4c0-.1-.1-.2-.2-.2s-.2.1-.2.2v7.4c0 .1.1.2.2.2.1.1.2 0 .2-.2zm0 14.9V251c0-.1-.1-.2-.2-.2s-.2.1-.2.2v7.4c0 .1.1.2.2.2.1.1.2 0 .2-.1z" id="r1q5Wi0sfjRG"/><path d="M16.5 21.3v-3.4h3.4c.1 0 .2-.1.2-.2s-.1-.2-.2-.2h-3.6c-.1 0-.1 0-.2.1 0 0-.1.1-.1.2v3.6c0 .1.1.2.2.2.2-.1.3-.2.3-.3z" id="BJoqWsCofoAf"/><path d="M449.4 17.9h7.3c.1 0 .2-.1.2-.2s-.1-.2-.2-.2h-7.3c-.1 0-.2.1-.2.2s.1.2.2.2zm-14.6 0h7.3c.1 0 .2-.1.2-.2s-.1-.2-.2-.2h-7.3c-.1 0-.2.1-.2.2s.1.2.2.2zm-14.5 0h7.3c.1 0 .2-.1.2-.2s-.1-.2-.2-.2h-7.3c-.1 0-.2.1-.2.2s0 .2.2.2zm-14.6 0h7.3c.1 0 .2-.1.2-.2s-.1-.2-.2-.2h-7.3c-.1 0-.2.1-.2.2s.1.2.2.2zm-14.5 0h7.3c.1 0 .2-.1.2-.2s-.1-.2-.2-.2h-7.3c-.1 0-.2.1-.2.2-.1.1 0 .2.2.2zm-14.6 0h7.3c.1 0 .2-.1.2-.2s-.1-.2-.2-.2h-7.3c-.1 0-.2.1-.2.2s.1.2.2.2zm-14.6 0h7.3c.1 0 .2-.1.2-.2s-.1-.2-.2-.2H362c-.1 0-.2.1-.2.2s.1.2.2.2zm-14.5 0h7.3c.1 0 .2-.1.2-.2s-.1-.2-.2-.2h-7.3c-.1 0-.2.1-.2.2s.1.2.2.2zm-14.6 0h7.3c.1 0 .2-.1.2-.2s-.1-.2-.2-.2h-7.3c-.1 0-.2.1-.2.2s.1.2.2.2zm-14.5 0h7.3c.1 0 .2-.1.2-.2s-.1-.2-.2-.2h-7.3c-.1 0-.2.1-.2.2s.1.2.2.2zm-14.6 0h7.3c.1 0 .2-.1.2-.2s-.1-.2-.2-.2h-7.3c-.1 0-.2.1-.2.2s.1.2.2.2zm-14.5 0h7.3c.1 0 .2-.1.2-.2s-.1-.2-.2-.2h-7.3c-.1 0-.2.1-.2.2-.1.1 0 .2.2.2zm-14.6 0h7.3c.1 0 .2-.1.2-.2s-.1-.2-.2-.2h-7.3c-.1 0-.2.1-.2.2s.1.2.2.2zm-14.6 0h7.3c.1 0 .2-.1.2-.2s-.1-.2-.2-.2h-7.3c-.1 0-.2.1-.2.2s.1.2.2.2zm-14.5 0h7.3c.1 0 .2-.1.2-.2s-.1-.2-.2-.2h-7.3c-.1 0-.2.1-.2.2s.1.2.2.2zm-14.6 0h7.3c.1 0 .2-.1.2-.2s-.1-.2-.2-.2H231c-.1 0-.2.1-.2.2s.1.2.2.2zm-14.5 0h7.3c.1 0 .2-.1.2-.2s-.1-.2-.2-.2h-7.3c-.1 0-.2.1-.2.2s.1.2.2.2zm-14.6 0h7.3c.1 0 .2-.1.2-.2s-.1-.2-.2-.2h-7.3c-.1 0-.2.1-.2.2s.1.2.2.2zm-14.5 0h7.3c.1 0 .2-.1.2-.2s-.1-.2-.2-.2h-7.3c-.1 0-.2.1-.2.2-.1.1 0 .2.2.2zm-14.6 0h7.3c.1 0 .2-.1.2-.2s-.1-.2-.2-.2h-7.3c-.1 0-.2.1-.2.2s.1.2.2.2zm-14.6 0h7.3c.1 0 .2-.1.2-.2s-.1-.2-.2-.2h-7.3c-.1 0-.2.1-.2.2s.1.2.2.2zm-14.5 0h7.3c.1 0 .2-.1.2-.2s-.1-.2-.2-.2h-7.3c-.1 0-.2.1-.2.2s.1.2.2.2zm-14.6 0h7.3c.1 0 .2-.1.2-.2s-.1-.2-.2-.2h-7.3c-.1 0-.2.1-.2.2s.1.2.2.2zm-14.5 0h7.3c.1 0 .2-.1.2-.2s-.1-.2-.2-.2h-7.3c-.1 0-.2.1-.2.2s.1.2.2.2zm-14.6 0h7.3c.1 0 .2-.1.2-.2s-.1-.2-.2-.2H100c-.1 0-.2.1-.2.2s.1.2.2.2zm-14.5 0h7.3c.1 0 .2-.1.2-.2s-.1-.2-.2-.2h-7.3c-.1 0-.2.1-.2.2s0 .2.2.2zm-14.6 0h7.3c.1 0 .2-.1.2-.2s-.1-.2-.2-.2h-7.3c-.1 0-.2.1-.2.2s.1.2.2.2zm-14.5 0h7.3c.1 0 .2-.1.2-.2s-.1-.2-.2-.2h-7.3c-.1 0-.2.1-.2.2-.1.1 0 .2.2.2zm-14.6 0h7.3c.1 0 .2-.1.2-.2s-.1-.2-.2-.2h-7.3c-.1 0-.2.1-.2.2s.1.2.2.2zm-14.6 0h7.3c.1 0 .2-.1.2-.2s-.1-.2-.2-.2h-7.3c-.1 0-.2.1-.2.2s.1.2.2.2z" id="HyhcZi0iGsAf"/><path d="M463.9 17.9h3.4v3.4c0 .1.1.2.2.2s.2-.1.2-.2v-3.6c0-.1 0-.1-.1-.2 0 0-.1-.1-.2-.1h-3.6c-.1 0-.2.1-.2.2.1.2.2.3.3.3z" id="rJpqbiRjfoCM"/><path d="M467.4 251v7.4c0 .1.1.2.2.2s.2-.1.2-.2V251c0-.1-.1-.2-.2-.2s-.2.1-.2.2zm0-14.8v7.4c0 .1.1.2.2.2s.2-.1.2-.2v-7.4c0-.1-.1-.2-.2-.2s-.2.1-.2.2zm0-14.8v7.4c0 .1.1.2.2.2s.2-.1.2-.2v-7.4c0-.1-.1-.2-.2-.2s-.2.1-.2.2zm0-14.8v7.4c0 .1.1.2.2.2s.2-.1.2-.2v-7.4c0-.1-.1-.2-.2-.2s-.2.1-.2.2zm0-14.8v7.4c0 .1.1.2.2.2s.2-.1.2-.2v-7.4c0-.1-.1-.2-.2-.2-.1-.1-.2 0-.2.2zm0-14.9v7.4c0 .1.1.2.2.2s.2-.1.2-.2v-7.4c0-.1-.1-.2-.2-.2s-.2.1-.2.2zm0-14.8v7.4c0 .1.1.2.2.2s.2-.1.2-.2v-7.4c0-.1-.1-.2-.2-.2s-.2.1-.2.2zm0-14.8v7.4c0 .1.1.2.2.2s.2-.1.2-.2v-7.4c0-.1-.1-.2-.2-.2s-.2.1-.2.2zm0-14.8v7.4c0 .1.1.2.2.2s.2-.1.2-.2v-7.4c0-.1-.1-.2-.2-.2s-.2.1-.2.2zm0-14.8v7.4c0 .1.1.2.2.2s.2-.1.2-.2v-7.4c0-.1-.1-.2-.2-.2-.1-.1-.2 0-.2.2zm0-14.9v7.4c0 .1.1.2.2.2s.2-.1.2-.2v-7.4c0-.1-.1-.2-.2-.2s-.2.1-.2.2zm0-14.8v7.4c0 .1.1.2.2.2s.2-.1.2-.2V88c0-.1-.1-.2-.2-.2s-.2.1-.2.2zm0-14.8v7.4c0 .1.1.2.2.2s.2-.1.2-.2v-7.4c0-.1-.1-.2-.2-.2s-.2.1-.2.2zm0-14.8v7.4c0 .1.1.2.2.2s.2-.1.2-.2v-7.4c0-.1-.1-.2-.2-.2s-.2 0-.2.2zm0-14.9V51c0 .1.1.2.2.2s.2-.1.2-.2v-7.4c0-.1-.1-.2-.2-.2-.1-.1-.2 0-.2.1zm0-14.8v7.4c0 .1.1.2.2.2s.2-.1.2-.2v-7.4c0-.1-.1-.2-.2-.2s-.2.1-.2.2z" id="Sy0qWjCiMiCM"/><script>(function(){var a=document.querySelector(&apos;#rkoCsfsCf&apos;),b=a.querySelectorAll(&apos;style&apos;),c=function(d){b.forEach(function(f){var g=f.textContent;g&amp;&amp;(f.textContent=g.replace(/transform-box:[^;\r\n]*/gi,&apos;transform-box: &apos;+d))})};c(&apos;initial&apos;),window.requestAnimationFrame(function(){return c(&apos;fill-box&apos;)})})();</script></svg>