<svg id="Faders" xmlns="http://www.w3.org/2000/svg" viewBox="0 0 485.1 284.1"><style>.st0{fill:#ededed}.st1{font-family:&apos;MyriadPro-Regular&apos;}.st2{font-size:8.7851px}.st3,.st4{opacity:.1294;fill:#ededed}.st4{opacity:.2314}.st5{opacity:.3294}.st5,.st6,.st7{fill:#ededed}.st6{opacity:.1412}.st7{opacity:.251}.st10,.st8,.st9{fill:#ededed}.st8{opacity:.3412}.st9{opacity:.4235}.st10{opacity:.3569}.st11{opacity:.4353}.st11,.st12,.st13{fill:#ededed}.st12{opacity:.5059}.st13{opacity:.2627}.st14{opacity:.4471}.st14,.st15,.st16{fill:#ededed}.st15{opacity:.5137}.st16{opacity:.5765}.st17{opacity:.3686}.st17,.st18,.st19{fill:#ededed}.st18{opacity:.6275}.st19{opacity:.6745}.st20{opacity:.4314}.st20,.st21,.st22{fill:#ededed}.st21{opacity:.4078}.st22{opacity:.749}.st23{opacity:.4863}.st23,.st24,.st25{fill:#ededed}.st24{opacity:.5569}.st25{opacity:.6196}.st26{opacity:.7059}.st26,.st27,.st28{fill:#ededed}.st27{opacity:.7137}.st28{opacity:.5647}.st29{opacity:.4941}.st29,.st30,.st31{fill:#ededed}.st30{opacity:.8078}.st31{opacity:.5451}.st32{opacity:.6667}.st32,.st33,.st34{fill:#ededed}.st33{opacity:.6118}.st34{opacity:.7804}.st35{opacity:.851}.st35,.st36,.st37{fill:#ededed}.st36{opacity:.6039}.st37{opacity:.6588}.st38{opacity:.9137}.st38,.st39,.st40{fill:#ededed}.st39{opacity:.8863}.st40{opacity:.8706}.st41{opacity:.902}.st41,.st42,.st43{fill:#ededed}.st42{opacity:.8314}.st43{opacity:.651}.st44{opacity:.7451}.st44,.st45,.st46{fill:#ededed}.st45{opacity:.702}.st46{opacity:.8039}.st47{fill:#871d22}.st48{fill:#00ab9c}</style><text transform="translate(37.658 250.37)" class="st0 st1 st2">-90°</text><text transform="translate(63.838 155.388)" class="st0 st1 st2">-60°</text><text transform="translate(138.335 84.113)" class="st0 st1 st2">-30°</text><text transform="translate(240.945 58.285)" class="st0 st1 st2">0°</text><text transform="translate(337.23 83.937)" class="st0 st1 st2">+30°</text><text transform="translate(407.16 154.51)" class="st0 st1 st2">+60°</text><text transform="translate(433.339 250.502)" class="st0 st1 st2">+90°</text><path class="st3" d="M242.4 61.2c-25.3 0-49.9 5-73.1 14.9-22.4 9.6-42.6 23.2-60 40.6-17.4 17.4-31 37.6-40.6 60-9.9 23.2-14.9 47.9-14.9 73.1v.8l31.5-.1 124.8-.2-93.1.2h-.1v-.7l-30.9.1v-.2h-.8l-30.6.1v-.1c0-33.8 9.1-65.6 24.8-93.1l-.3-.2.7-1.2.3.2c16.5-28.2 40-51.7 68.2-68.1l-.2-.3 1.2-.7.2.3C176.7 71 208.2 62.1 241.7 62v-.6h1.4v.6c33.9.1 65.7 9.3 93.1 25.1l.2-.3 1.2.7-.2.3c27.8 16.4 51 39.7 67.3 67.5l.3-.2.7 1.2-.3.2c15.7 27.3 24.7 59 24.8 92.7v.1h-31.5v.2H368v.7h-93.4H431v-.4c0-25.3-5-49.9-14.9-73.1h.1-.1c-9.6-22.4-23.2-42.6-40.6-60-17.4-17.4-37.6-31-60-40.6-23.2-9.9-47.8-14.9-73.1-14.9"/><path class="st3" d="M242.4 61c-25.3 0-50 5-73.2 14.9-22.5 9.6-42.7 23.2-60.1 40.6-17.4 17.4-31.1 37.6-40.6 60.1-9.9 23.3-14.9 47.9-14.9 73.2v1l31.7-.1 124.8-.2v-.2l-124.8.2-31.5.1v-.8c0-25.3 5-49.9 14.9-73.1 9.6-22.4 23.2-42.6 40.6-60 17.4-17.4 37.6-31 60-40.6 23.2-9.9 47.9-14.9 73.1-14.9 25.3 0 49.9 5 73.1 14.9 22.4 9.6 42.6 23.2 60 40.6 17.4 17.4 31 37.6 40.6 60h.1-.1c9.9 23.2 14.9 47.9 14.9 73.1v.4H274.7v.2h156.6v-.6c0-25.3-5-50-14.9-73.2-9.6-22.5-23.2-42.7-40.6-60.1-17.4-17.4-37.6-31.1-60.1-40.6-23.4-9.9-48-14.9-73.3-14.9"/><path class="st3" d="M405.2 156.7L378 172.4c13 22.6 20.5 48.8 20.6 76.7h.1v.1H430c-.1-33.6-9.1-65.2-24.8-92.5m-325.6 0c-15.7 27.4-24.7 59.1-24.8 92.9l30.4-.1h.8v-.1h.1c.1-28 7.6-54.3 20.6-77l-27.1-15.7M337.3 88l-15.8 27.1c23 13.6 42.3 32.9 55.8 56l27.2-15.7c-16.3-27.7-39.5-51-67.2-67.4m-188.9-.5c-28.2 16.4-51.7 39.9-68.2 68l27.2 15.7c13.7-23.3 33.2-42.8 56.6-56.4l-15.6-27.3m94.7-25.3v31.4c28.1.1 54.5 7.7 77.2 20.8l15.8-27.1c-27.4-15.8-59.2-24.9-93-25.1m-1.4 0c-33.5.1-64.9 9.1-92.1 24.6l15.6 27.2c22.6-12.9 48.7-20.3 76.5-20.4V62.2"/><path class="st3" d="M106.8 172.4c-13 22.7-20.5 49-20.6 77h.2c.1-28 7.6-54.2 20.6-76.9l-.2-.1m271.2 0l-.2.1c13 22.6 20.4 48.8 20.6 76.6h.2c-.1-27.9-7.6-54.1-20.6-76.7m52.1 76.9v-.1.1h.1-.1m-24.7-92.7l-.2.1c15.7 27.3 24.7 58.9 24.8 92.5h-31.2v.2h31.5v-.1c-.2-33.7-9.2-65.4-24.9-92.7m-326 0c-15.8 27.4-24.8 59.2-24.8 93.1v.1l30.6-.1h.8v-.2h-.8l-30.4.1c.1-33.8 9.1-65.5 24.8-92.9l-.2-.1m242.1-41.4l-.1.2c23 13.6 42.3 32.9 55.8 55.9l.2-.1c-13.6-23.1-32.9-42.4-55.9-56m-157.4-.5c-23.4 13.6-42.9 33.1-56.6 56.4l.2.1c13.6-23.3 33.2-42.8 56.5-56.4l-.1-.1m79-21v.2c28 .1 54.4 7.7 77.1 20.8l.1-.2c-22.8-13.2-49.1-20.7-77.2-20.8m-1.4 0c-27.8.1-53.9 7.5-76.5 20.4l.1.2c22.6-12.9 48.6-20.3 76.3-20.4v-.2m95.8-5.8l-.1.2c27.8 16.3 51 39.6 67.2 67.5l.2-.1c-16.3-28-39.5-51.3-67.3-67.6m-189.1-.6c-28.2 16.4-51.8 39.9-68.2 68.1l.2.1c16.4-28.1 40-51.6 68.2-68l-.2-.2M243.1 62v.2c33.8.1 65.6 9.3 93 25.1l.1-.2c-27.4-15.8-59.2-25-93.1-25.1m-1.4 0c-33.5.1-65 9.1-92.2 24.6l.1.2c27.2-15.5 58.6-24.5 92.1-24.6V62"/><path class="st4" d="M398.4 249.1H368v.1h30.4v-.1"/><path class="st5" d="M398.7 249.4H368v.2h30.7v-.2m-.3-.2H368v.2h30.7-.3v-.2m.3-.1h-.1v.1h.1v-.1"/><path class="st5" d="M398.6 249.1h-.2v.3h.3v-.2h-.1v-.1"/><path class="st4" d="M116.9 249.3l-30.6.1v.1l30.6-.1v-.1"/><path class="st5" d="M116.9 249.7H86v.2l30.9-.1v-.1m0-.3l-30.6.1v.2h-.1l30.6-.1c.1 0 .1-.1.1-.2m-30.8 0H86v.1h.1v-.1"/><path class="st5" d="M86.4 249.4h-.2v.1h-.1v.2h.4v-.2c-.1 0-.1-.1-.1-.1"/><path class="st6" d="M133.4 187.8c-2.4 4.2-4.6 8.6-6.5 13.1-6.5 15.4-9.9 31.7-9.9 48.4h.9c.1-22.2 5.9-43.1 16.2-61.1l-.7-.4m218.1-.1l-.7.4c10.2 18 16.1 38.8 16.2 61h.9c-.1-16.7-3.4-32.9-9.9-48.2-1.9-4.5-4.1-8.9-6.5-13.2m-45.3-46.2l-.4.7c18.3 10.9 33.6 26.3 44.3 44.7l.7-.4c-5.4-9.3-12-17.9-19.8-25.6-7.5-7.5-15.8-14-24.8-19.4m-126.9-.3c-9.2 5.4-17.7 12-25.3 19.7-7.7 7.8-14.4 16.3-19.8 25.7l.7.4c10.8-18.6 26.3-34.2 44.8-45.1l-.4-.7m62.4-17.3c-16.5.1-32.6 3.4-47.9 9.9-4.6 2-9.1 4.2-13.4 6.7l.4.7c18-10.3 38.7-16.2 60.9-16.4v-.9m1.4 0v.9c22.4.1 43.4 6.2 61.5 16.7l.4-.7c-4.5-2.6-9.1-4.9-13.9-7-15.3-6.5-31.4-9.8-48-9.9"/><path class="st7" d="M148.2 249.8l-31.2.1v.6l31.2-.1v-.6m219.7-.2h-30.5v.5h30.5v-.5"/><path class="st8" d="M118 249.3h-.9v.1l31.2-.1H118c0 .1 0 0 0 0m249.9-.2h-.9v.1h-29.5H368c-.1 0-.1-.1-.1-.1"/><path class="st9" d="M148.2 249.6l-31.2.1v.2l31.2-.1v-.2m219.7-.2h-30.5v.2h30.5v-.2"/><path class="st9" d="M148.2 249.4l-31.2.1v.2l31.2-.1v-.2m219.7-.2h-30.5v.2h30.5v-.2"/><path class="st6" d="M133.4 187.7c-2.4 4.2-4.6 8.6-6.5 13.1-6.5 15.4-9.9 31.7-9.9 48.5h.1c0-16.7 3.4-33 9.9-48.4 1.9-4.5 4-8.9 6.4-13.2m218.2-.1c2.3 4.3 4.5 8.7 6.5 13.3 6.5 15.3 9.8 31.5 9.9 48.2h.1c-.1-16.7-3.4-32.9-9.9-48.2-2-4.6-4.2-9-6.6-13.3m-45.4-46.2c8.9 5.5 17.3 12 24.8 19.5 7.7 7.7 14.3 16.3 19.8 25.6l.1-.1c-5.4-9.3-12.1-17.9-19.8-25.6-7.5-7.5-15.9-14-24.9-19.4m-127-.3c-9.2 5.4-17.7 12-25.3 19.7-7.7 7.8-14.4 16.4-19.8 25.7l.1.1c5.4-9.3 12.1-17.9 19.8-25.7 7.6-7.7 16.1-14.2 25.2-19.8m62.5-17.3c-16.6.1-32.7 3.4-47.9 10-4.6 2-9.1 4.2-13.4 6.7l.1.1c4.3-2.5 8.8-4.7 13.4-6.7 15.2-6.5 31.3-9.8 47.9-9.9v-.2m1.3 0v.1c16.6.1 32.8 3.4 48 9.9 4.8 2 9.4 4.4 13.9 7l.1-.1c-4.5-2.6-9.1-4.9-13.9-7-15.3-6.5-31.5-9.8-48.1-9.9"/><path class="st7" d="M117 249.8h-.1v.7h.1l93.1-.2v-.1l-61.8.1h-.1v-.1l-31.2.1v-.5m251-.2h-.1v.6h-30.5v.1h-62.8v.1H368v-.8"/><path class="st8" d="M368 249.1h-.1v.1h.1v-.1"/><path class="st9" d="M368 249.4h-.1v.2h.1v-.2m0-.2h-.1v.2h.1v-.2"/><path class="st8" d="M117 249.3h-.1v.1h.1v-.1"/><path class="st9" d="M117 249.7h-.1v.1h.1v-.1m0-.3h-.1v.2h.1v-.2"/><path class="st6" d="M134.1 188.2c-10.2 18.1-16.1 38.9-16.2 61.1l30.3-.1-30.2.1c.1-22.2 6-43 16.1-61.1m216.7-.1c10.1 18.1 16 38.8 16.1 61h-29.4H367c-.1-22.2-6-43-16.2-61m-45-45.9c18.2 10.9 33.5 26.4 44.2 44.8l.1-.1c-10.8-18.4-26-33.8-44.3-44.7m-126.1-.3c-18.5 10.9-34 26.5-44.8 45.1l.1.1c10.7-18.6 26.2-34.2 44.7-45.2m62-17c-22.1.1-42.9 6.1-60.9 16.4l.1.1c18-10.3 38.7-16.2 60.8-16.4v-.1m1.4 0v.1c22.4.1 43.3 6.2 61.4 16.6l.1-.1c-18.2-10.5-39.1-16.5-61.5-16.6"/><path class="st8" d="M148.2 249.3l-30.3.1v.1l30.3-.2m218.8-.2h-29.5v.1l29.5-.1"/><path class="st6" d="M325.2 202.9l-.8.4c7.6 13.6 11.9 29.2 12 45.8h.9c0-16.4-4.3-32.2-12.1-46.2m-130.8-35.2c-6.6 4-12.7 8.9-18.3 14.5-6 6-11.1 12.7-15.2 19.9l.8.4c8-14 19.4-25.8 33.1-34.1l-.4-.7m96.6-.2l-.4.7c13.7 8.2 25.1 19.9 33.1 33.8l.8-.4c-4.1-7-9.1-13.6-14.9-19.5-5.7-5.6-11.9-10.5-18.6-14.6M241.7 154c-16.4.2-32.2 4.7-46.1 12.9l.4.8c13.5-7.9 29.1-12.5 45.7-12.7v-1m1.4 0v.9c16.9 0 32.7 4.6 46.4 12.6l.4-.8c-14.2-8.2-30.2-12.6-46.8-12.7"/><path class="st10" d="M337.4 249.6h-31.8v.5h31.8v-.5"/><path class="st11" d="M337.4 249.2h-31.8 31.8"/><path class="st12" d="M337.4 249.4h-31.8v.2h31.8v-.2m0-.2h-31.8v.2h31.8v-.2"/><path class="st13" d="M337.4 249.1h-.9.9"/><path class="st11" d="M337.4 249.1h-31.8v.1l31.8-.1c0 .1 0 0 0 0"/><path class="st6" d="M160.3 203.3c-7.8 14-11.9 29.7-12 46h.9c.1-16.5 4.3-32 11.8-45.6l-.7-.4"/><path class="st10" d="M179.2 249.7l-30.9.1v.5l30.9-.1v-.5"/><path class="st11" d="M179.2 249.3l-30.8.1 30.8-.1"/><path class="st12" d="M179.2 249.5l-30.8.1v.2l30.8-.1v-.2"/><path class="st12" d="M179.2 249.3l-30.8.1v.2l30.8-.1v-.2"/><path class="st13" d="M149.3 249.3h-.9.9"/><path class="st11" d="M179.2 249.3l-29.9.1h-.9v.1l30.8-.2"/><path class="st6" d="M325.3 202.8c7.8 14.1 12 29.9 12.1 46.3h.1c-.1-16.4-4.4-32.3-12.2-46.3m-130.4-34.4c-13.7 8.3-25.1 20.1-33.1 34.1l.1.1c7.9-14 19.3-25.8 33-34.2m95.7-.1c13.6 8.3 25 20 33 33.9l.1-.1c-8-13.9-19.4-25.6-33.1-33.8m-96.2-.7c-6.6 4-12.7 8.9-18.3 14.5-6 6.1-11.1 12.7-15.2 19.9l.1.1c4.1-7.2 9.2-13.9 15.2-19.9 5.5-5.7 11.7-10.5 18.2-14.6m96.7-.2c6.6 4.1 12.8 9 18.4 14.7 5.9 5.9 10.9 12.5 14.9 19.5l.1-.1c-4.1-7-9.1-13.6-15-19.5-5.5-5.6-11.7-10.5-18.4-14.6M241.7 155c-16.6.2-32.2 4.8-45.7 12.7l.1.1c13.5-7.9 29-12.5 45.6-12.7v-.1m1.4 0v.1c16.8 0 32.7 4.6 46.3 12.6l.1-.1c-13.7-8-29.6-12.6-46.4-12.6m-1.4-1.1c-16.4.2-32.2 4.7-46.2 12.9l.1.1c13.9-8.2 29.7-12.7 46.1-12.9v-.1m1.4 0v.1c16.6 0 32.7 4.5 46.8 12.8l.1-.1c-14.2-8.3-30.3-12.7-46.9-12.8"/><path class="st10" d="M337.5 249.6h-.1v.5h-62.7 62.8v-.5"/><path class="st11" d="M337.5 249.2h-.1.1"/><path class="st12" d="M337.5 249.4h-.1v.2h.1v-.2m0-.2h-.1v.2h.1v-.2"/><path class="st10" d="M337.5 250.1h-62.8v.1h62.8v-.1"/><path class="st13" d="M337.5 249.1h-.1.1"/><path class="st11" d="M337.5 249.1h-.1v.1l.1-.1c0 .1 0 0 0 0"/><path class="st6" d="M160.2 203.2c-7.8 14-11.9 29.7-12 46h.1c.1-16.3 4.2-32 11.9-46"/><path class="st10" d="M148.3 249.8h-.1v.5l61.8-.1h-30.8l-30.9.1v-.5"/><path class="st11" d="M148.3 249.4h-.1.1"/><path class="st12" d="M148.3 249.6h-.1v.2h.1v-.2m0-.2h-.1v.2h.1v-.2"/><path class="st10" d="M210 250.2l-61.8.1v.1h.1l61.7-.2"/><path class="st13" d="M148.3 249.3h-.1.1"/><path class="st11" d="M148.3 249.3h-.1v.1l.1-.1"/><path class="st6" d="M324.4 203.3c7.4 13.6 11.8 29.2 11.9 45.7h-30.8v.1h30.9c-.1-16.6-4.4-32.2-12-45.8"/><path class="st13" d="M336.4 249.1h-30.9 30.9"/><path class="st11" d="M336.4 249.1h-30.9 30.9"/><path class="st6" d="M161 203.7c-7.4 13.5-11.7 29-11.8 45.6l29.9-.1v-.1l-29.8.1c.2-16.5 4.4-32 11.7-45.5"/><path class="st13" d="M179.2 249.2l-29.9.1 29.9-.1"/><path class="st11" d="M179.2 249.2l-29.9.1 29.9-.1"/><path class="st6" d="M297.6 218.8l-.8.4c4.8 8.8 7.6 19 7.7 29.7h.9c-.1-10.6-2.8-20.9-7.8-30.1m-110.4 0c-5.1 9.2-7.8 19.6-7.9 30.4h.9c.1-10.8 2.9-21 7.7-29.9l-.7-.5m87.8-23.7l-.4.8c8.9 5.5 16.3 13.1 21.5 22.2l.8-.4c-2.7-4.7-6.1-9.1-10-13.1-3.7-3.7-7.6-6.9-11.9-9.5m-65-.3c-4.4 2.7-8.5 5.9-12.2 9.7-3.9 4-7.3 8.4-10 13.1l.8.4c5.3-9.2 12.8-16.9 21.9-22.4l-.5-.8m33.1-9v.9c11 .1 21.4 3.2 30.3 8.4l.4-.8c-9.2-5.4-19.8-8.4-30.7-8.5m-1.4-.1c-10.8.1-21.3 3-30.5 8.4l.4.8c8.9-5.1 19.1-8.1 30-8.2v-1"/><path class="st14" d="M305.4 249.6h-30.8v.4h30.8v-.4"/><path class="st15" d="M305.4 249.2h-30.8 30.8"/><path class="st16" d="M305.4 249.4h-30.8v.2h30.8v-.2m0-.2h-30.8v.2h30.8v-.2"/><path class="st15" d="M305.4 249.1h-30.8v.1l30.8-.1c0 .1 0 .1 0 0"/><path class="st14" d="M210 249.6l-30.8.1v.4l30.8-.1v-.4"/><path class="st15" d="M210 249.3l-30.8.1 30.8-.1"/><path class="st16" d="M210 249.5l-30.8.1v.2l30.8-.1v-.2"/><path class="st16" d="M210 249.3l-30.8.1v.2l30.8-.1v-.2"/><path class="st15" d="M210 249.2l-30.8.1v.1l30.8-.2m29.9 0l-28.5.1 28.5-.1"/><path class="st16" d="M239.9 249.2l-28.5.1 28.5-.1"/><path class="st15" d="M239.8 249.1l-28.4.1v.1l28.4-.2m33.5.1h-28.4 28.4"/><path class="st16" d="M273.3 249.2h-28.4 28.4"/><path class="st15" d="M273.3 249.1H245l-.1.1 28.4-.1c0 .1 0 .1 0 0"/><path class="st13" d="M305.4 249h-30.7 30.7c0 .1 0 0 0 0"/><path class="st17" d="M305.4 249.1h-30.8 30.8"/><path class="st15" d="M305.4 249.1h-30.8 30.8"/><path class="st13" d="M210 249.1l-29.8.1h-.9v.1l30.7-.2"/><path class="st17" d="M210 249.1l-30.8.1 30.8-.1c0 .1 0 0 0 0"/><path class="st15" d="M210 249.2l-30.8.1 30.8-.1"/><path class="st13" d="M239.6 249.1l-28.2.1 28.2-.1"/><path class="st17" d="M239.7 249.1l-28.3.1 28.3-.1"/><path class="st15" d="M239.7 249.1l-28.3.1 28.3-.1"/><path class="st13" d="M273.3 249h-28.2 28.2c0 .1 0 .1 0 0"/><path class="st17" d="M273.3 249.1h-28.2 28.2"/><path class="st15" d="M273.3 249.1h-28.4 28.4"/><path class="st6" d="M297.6 218.7c5 9.2 7.7 19.6 7.8 30.3h.1c-.1-10.7-2.8-21-7.9-30.3m-110.5 0c-5.1 9.2-7.8 19.6-7.9 30.4h.1c0-10.7 2.8-21.1 7.8-30.4m88-23.7c4.2 2.7 8.2 5.9 11.8 9.5 3.9 4 7.3 8.4 10 13.1l.1-.1c-2.7-4.7-6.1-9.1-10-13.1-3.7-3.6-7.7-6.8-11.9-9.4m-65.1-.3c-4.4 2.7-8.5 5.9-12.2 9.7-3.9 4-7.3 8.4-10 13.1l.1.1c2.7-4.7 6.1-9.1 10-13.1 3.7-3.7 7.8-7 12.1-9.8m33.1-9.1v.1c11 .1 21.5 3.1 30.8 8.6l.1-.1c-9.4-5.4-20-8.4-30.9-8.6m-1.4 0c-10.9.1-21.3 3-30.5 8.4l.1.1c9.2-5.4 19.7-8.3 30.5-8.4v-.1"/><path class="st14" d="M305.5 249.6h-.1v.4h-30.7v.1h30.8v-.5"/><path class="st15" d="M305.5 249.2h-.1.1"/><path class="st16" d="M305.5 249.4h-.1v.2h.1v-.2m0-.2h-.1v.2h.1v-.2"/><path class="st15" d="M305.5 249.1h-.1v.1l.1-.1c0 .1 0 .1 0 0"/><path class="st14" d="M179.3 249.7h-.1v.5l30.8-.1h-30.7v-.4"/><path class="st15" d="M179.3 249.3h-.1.1"/><path class="st16" d="M179.3 249.5h-.1v.2h.1v-.2m0-.2h-.1v.2h.1v-.2"/><path class="st15" d="M179.3 249.3h-.1v.1l.1-.1"/><path class="st13" d="M305.5 249h-.1v.1l.1-.1c0 .1 0 0 0 0"/><path class="st17" d="M305.5 249.1h-.1.1"/><path class="st15" d="M305.5 249.1h-.1.1"/><path class="st13" d="M179.3 249.1h-.1v.1l.1-.1c0 .1 0 .1 0 0"/><path class="st17" d="M179.3 249.2h-.1.1"/><path class="st15" d="M179.3 249.2h-.1.1"/><path class="st14" d="M210 250.1l-30.9.1h.1l30.8-.1m95.5 0h-30.9 30.9"/><path class="st6" d="M239.5 248.9l-28 .1v.1l28.2-.1-.2-.1m33.8 0h-28l-.1.1 28.1-.1c0 .1 0 .1 0 0m23.5-29.6c4.7 8.9 7.5 19 7.6 29.7h-29.7v.1h29.8c-.1-10.9-2.9-21-7.7-29.8m-108.9-.1c-4.9 8.9-7.6 19.1-7.7 29.9l29.8-.1v-.1l-29.7.1c.1-10.7 2.9-20.9 7.6-29.8m86.7-23.4c8.8 5.6 16.2 13.2 21.4 22.3l.1-.1c-5.2-9-12.6-16.7-21.5-22.2m-64.1-.2c-9 5.5-16.6 13.2-21.9 22.4l.1.1c5.3-9.2 12.8-16.9 21.8-22.5m32.6-8.9v.1c11 .1 21.3 3.2 30.3 8.4l.1-.1c-9-5.2-19.4-8.3-30.4-8.4m-1.4 0c-10.9.1-21.2 3.1-30 8.2l.1.1c8.9-5.1 19.1-8.1 30-8.2v-.1"/><path class="st13" d="M210 249.1l-29.8.1 29.8-.1m29.6-.1l-28.2.1 28.2-.1m33.7 0h-28.1 28.1m31.2 0h-29.8 29.8"/><path class="st4" d="M214.3 234.4c-2.4 4.4-3.8 9.4-3.9 14.6h.7c.1-5.1 1.5-10 3.8-14.2l-.6-.4m44.8-12l-.4.6c4.2 2.6 7.8 6.3 10.4 10.6l.6-.4c-1.3-2.2-2.9-4.3-4.8-6.2-1.7-1.7-3.7-3.3-5.8-4.6m-33.3-.1c-2.2 1.3-4.2 2.9-6 4.8-1.9 1.9-3.5 3.9-4.8 6.1l.6.4c2.6-4.4 6.2-8 10.5-10.7l-.3-.6m17.3-4.7v.7c5.3.1 10.2 1.6 14.5 4l.4-.6c-4.6-2.6-9.6-4-14.9-4.1m-1.4 0c-5.2.1-10.2 1.5-14.7 4l.4.6c4.3-2.4 9.2-3.8 14.4-3.9v-.7"/><path class="st5" d="M241.7 250.2l-31.3.1h31.3v-.1m0 .1h-31.3 31.4-.1"/><path class="st9" d="M241.6 250.2h-31.2v.1l31.3-.1h-.1"/><path class="st12" d="M241.5 250.1l-31.1.1 31.1-.1m0 0l-31.1.1h31.2l-.1-.1"/><path class="st16" d="M240.6 249.6l-30.2.1v.4l30.9-.1-.7-.4"/><path class="st18" d="M211.1 249.2h-.7.7c0 .1 0 .1 0 0"/><path class="st19" d="M211.1 249.5h-.7v.2l30.2-.1h-.1l-29.4.1v-.2m0-.2h-.7v.2h.7v-.2"/><path class="st18" d="M211.1 249.2h-.7v.1l.7-.1"/><path class="st20" d="M211.1 249.1h-.7.7"/><path class="st15" d="M211.1 249.1h-.7.7c0 .1 0 0 0 0"/><path class="st18" d="M211.1 249.2h-.7.7"/><path class="st16" d="M241.3 250l-30.9.1h31l-.1-.1m.1.1h-31v.1l31.1-.1h-.1"/><path class="st8" d="M211.1 249h-.7v.1l.7-.1c0 .1 0 0 0 0"/><path class="st20" d="M211.1 249.1h-.7.7"/><path class="st4" d="M270.4 234.5l-.6.4c2.3 4.2 3.6 9 3.8 14.1h.7c-.1-5.2-1.5-10.1-3.9-14.5"/><path class="st5" d="M274.3 250.2h-31.2l-.1.1h31.3v-.1m0 .1H243h31.3"/><path class="st9" d="M274.3 250.2h-31.2 31.2"/><path class="st12" d="M274.3 250.1h-31.1 31.1m0 0h-31.1v.1h31.1v-.1"/><path class="st16" d="M274.3 249.6h-30.1l-.7.4h30.9v-.1c-.1-.1-.1-.2-.1-.3"/><path class="st18" d="M274.3 249.2h-.7.7"/><path class="st19" d="M274.3 249.4h-.7v.1h-29.4 30.1v-.1m0-.2h-.7v.2h.7v-.2"/><path class="st18" d="M274.3 249.1h-.7v.1l.7-.1c0 .1 0 .1 0 0"/><path class="st20" d="M274.3 249h-.7.7c0 .1 0 .1 0 0"/><path class="st15" d="M274.3 249.1h-.7.7"/><path class="st18" d="M274.3 249.1h-.7.7"/><path class="st16" d="M274.3 250h-30.8l-.2.1h31v-.1m0 .1h-31 31"/><path class="st8" d="M274.3 248.9h-.7v.1l.7-.1c0 .1 0 .1 0 0"/><path class="st20" d="M274.3 249h-.7.7"/><path class="st5" d="M242.4 250.2h-.1v.1h.1v-.1m0 .1h-.1.2-.1"/><path class="st9" d="M242.4 250.2h-.1.1"/><path class="st4" d="M274.7 250.5h-32.6l-32.1.1v.1h.2l32.2-.1h32.3v-.1m-4-16.2l-.3.2c2.4 4.4 3.8 9.4 3.9 14.5h.3c-.1-5.2-1.5-10.2-3.9-14.7m-56.7 0c-2.5 4.5-3.8 9.5-4 14.7h.3c.1-5.2 1.5-10.1 3.9-14.6l-.2-.1m44.8-11.3l-.2.3c4.2 2.6 7.7 6.2 10.2 10.5l.3-.2c-2.5-4.3-6.1-7.9-10.3-10.6m-32.7-.1c-4.3 2.7-7.9 6.3-10.5 10.7l.3.2c2.6-4.3 6.2-7.9 10.4-10.6l-.2-.3m33.2-.8l-.2.3c2.1 1.3 4 2.9 5.8 4.7 1.9 1.9 3.5 4 4.8 6.2l.3-.2c-1.3-2.2-3-4.3-4.9-6.2-1.7-1.9-3.7-3.4-5.8-4.8m-33.7-.1c-2.2 1.4-4.2 3-6.1 4.9-1.9 1.9-3.5 4-4.8 6.2l.3.2c1.3-2.2 2.9-4.3 4.8-6.1 1.8-1.9 3.9-3.5 6-4.8l-.2-.4m17.5-3.7v.3c5.2.1 10.1 1.5 14.4 4l.2-.3c-4.4-2.4-9.4-3.9-14.6-4m-1.4 0c-5.2.1-10.1 1.5-14.4 3.9l.2.3c4.2-2.4 9.1-3.7 14.2-3.9v-.3m1.4-1v.3c5.3.1 10.4 1.5 14.9 4.1l.2-.3c-4.7-2.6-9.8-4-15.1-4.1m-1.4-.1c-5.3.1-10.4 1.5-14.9 4.1l.2.3c4.5-2.5 9.5-3.9 14.7-4v-.4"/><path class="st5" d="M210.4 250.3h-.3.3m64.3-.1h-.3.3m-32.9.1l-31.4.1h-.3v.2l32.1-.1-.4-.2m.7 0h-.1l-.1.1-.1.1h.4l-.1-.2m32.2 0H243l-.3.2h-.1 32v-.2"/><path class="st9" d="M210.4 250.2h-.3v.1l.3-.1m64.3 0h-.3v.1l.3-.1"/><path class="st12" d="M274.7 250.1h-.4.4m0 0h-.4v.1h.4v-.1m-64.3.1h-.4.4m0 0h-.4.4"/><path class="st16" d="M274.7 249.6h-.3v.4h.3v-.4"/><path class="st18" d="M274.7 249.2h-.3.3"/><path class="st19" d="M274.7 249.4h-.3v.2h.3v-.2m0-.2h-.3v.2h.3v-.2"/><path class="st18" d="M274.7 249.1h-.3v.1l.3-.1c0 .1 0 .1 0 0"/><path class="st16" d="M210.4 249.6h-.3v.4h.3v-.4"/><path class="st18" d="M210.4 249.2h-.3.3c0 .1 0 .1 0 0"/><path class="st19" d="M210.4 249.5h-.3v.2h.3v-.2m0-.2h-.3v.2h.3v-.2"/><path class="st18" d="M210.4 249.2h-.3v.1l.3-.1"/><path class="st20" d="M274.7 249h-.3.3c0 .1 0 .1 0 0"/><path class="st15" d="M274.7 249.1h-.3.3"/><path class="st18" d="M274.7 249.1h-.3.3"/><path class="st20" d="M210.4 249.1h-.3.3"/><path class="st15" d="M210.4 249.1h-.3.3c0 .1 0 0 0 0"/><path class="st18" d="M210.4 249.2h-.3.3"/><path class="st16" d="M210.4 250.1h-.3v.1l.3-.1m64.3-.1h-.3v.1l.3-.1m-64.3.1h-.3.3m64.3 0h-.3.3"/><path class="st8" d="M210.4 249h-.3v.1l.3-.1c0 .1 0 0 0 0m64.3-.1h-.3v.1l.3-.1c0 .1 0 .1 0 0"/><path class="st20" d="M210.4 249.1h-.3.3m64.3-.1h-.3.3"/><path class="st4" d="M214.9 234.8c-2.3 4.2-3.7 9.1-3.8 14.2h.3c.1-5.1 1.5-9.9 3.8-14.1l-.3-.1"/><path class="st18" d="M211.4 249.2h-.3.3c0 .1 0 .1 0 0"/><path class="st19" d="M240.3 249.4l-29.2.1v.1h29.4l-.2-.2"/><path class="st19" d="M240 249.2l-28.5.1h-.3v.2l29.2-.1-.4-.2"/><path class="st18" d="M211.4 249.2h-.3v.1l.3-.1"/><path class="st20" d="M211.4 249.1h-.3.3"/><path class="st15" d="M211.4 249.1h-.3.3c0 .1 0 0 0 0"/><path class="st18" d="M211.4 249.2h-.3.3"/><path class="st8" d="M211.4 249h-.3v.1l.3-.1c0 .1 0 0 0 0"/><path class="st20" d="M211.4 249.1h-.3.3"/><path class="st4" d="M269.8 234.8l-.3.2c2.3 4.2 3.6 8.9 3.7 14h.3c-.1-5.2-1.4-10-3.7-14.2"/><path class="st18" d="M273.6 249.2h-.3.3"/><path class="st19" d="M273.6 249.4h-29.1l-.2.1h29.3v-.1m0-.2h-28.8l-.3.2h29.1v-.2"/><path class="st18" d="M273.6 249.1h-.3v.1l.3-.1c0 .1 0 .1 0 0"/><path class="st20" d="M273.6 249h-.3.3c0 .1 0 .1 0 0"/><path class="st15" d="M273.6 249.1h-.3.3"/><path class="st18" d="M273.6 249.1h-.3.3"/><path class="st8" d="M273.6 248.9h-.3v.1l.3-.1c0 .1 0 .1 0 0"/><path class="st20" d="M273.6 249h-.3.3"/><path class="st4" d="M134.8 187.3c-.1.2-.2.4-.4.6l26 15c.1-.2.2-.4.4-.6l-26-15m-27.3-15.7c-.1.2-.2.4-.4.6l26.4 15.2c.1-.2.2-.4.4-.6l-26.4-15.2"/><path class="st5" d="M79.9 155.7l-.4.6c.2-.2.3-.4.4-.6m.2.1c-.1.2-.2.4-.4.6l27.2 15.7c.1-.2.2-.4.4-.6l-27.2-15.7"/><path class="st5" d="M107.3 171.5c-.1.2-.2.4-.4.6l.2.1c.1-.2.2-.4.4-.6l-.2-.1m-27.4-15.8c-.1.2-.2.4-.4.6l.2.1c.1-.2.2-.4.4-.6l-.2-.1"/><path class="st8" d="M134 186.9c-.1.2-.2.4-.4.6l.7.4c.1-.2.2-.4.4-.6l-.7-.4"/><path class="st8" d="M134.7 187.3c-.1.2-.2.4-.4.6l.1.1c.1-.3.2-.5.3-.7m-.8-.5c-.1.2-.2.4-.4.6l.1.1c.1-.2.2-.4.3-.7"/><path class="st4" d="M188.6 218.4c-.1.2-.2.4-.4.6l26 15c.1-.2.2-.4.4-.6l-26-15m-26.9-15.6c-.1.2-.2.4-.4.6l25.9 15c.1-.2.2-.4.4-.6l-25.9-15"/><path class="st8" d="M160.8 202.3c-.1.2-.2.4-.4.6l.8.4c.1-.2.2-.4.4-.6l-.8-.4"/><path class="st8" d="M161.6 202.8c-.1.2-.2.4-.4.6l.1.1c.1-.2.2-.5.3-.7m-.9-.5c-.1.2-.2.4-.4.6l.1.1c.2-.2.3-.4.3-.7m27 15.6c-.1.2-.2.4-.4.6l.8.4c.1-.2.2-.4.4-.6l-.8-.4"/><path class="st8" d="M188.5 218.3c-.1.2-.2.4-.4.6l.1.1c.1-.2.2-.4.3-.7m-.9-.5c-.1.2-.2.4-.4.6l.1.1c.1-.2.3-.4.3-.7"/><path class="st4" d="M215.7 234c-.1.2-.2.4-.4.6l24.8 14.3h1l-.2-.4-25.2-14.5"/><path class="st18" d="M241.2 249.2h-.7.7"/><path class="st19" d="M241.2 249.2h-.6.6"/><path class="st18" d="M241.2 249.1h-.8l.1.1h.7v-.1"/><path class="st20" d="M241.1 249.1h-.8.9-.1"/><path class="st15" d="M241.2 249.1h-.9.9"/><path class="st18" d="M241.2 249.1h-.8.8"/><path class="st8" d="M241.1 248.9h-1l.2.1h.8v-.1"/><path class="st20" d="M241.1 249h-.8v.1h.8v-.1"/><path class="st21" d="M214.8 233.5c-.1.2-.2.4-.4.6l.6.4c.1-.2.2-.4.4-.6l-.6-.4"/><path class="st19" d="M241.5 249.6h-.3l.4.2-.1-.2"/><path class="st22" d="M241.4 249.6h-.2.3-.1"/><path class="st21" d="M215.4 233.9c-.1.2-.2.4-.4.6l.3.2c.1-.2.2-.4.4-.6l-.3-.2m-.9-.6c-.1.2-.2.4-.4.6l.3.2c.1-.2.2-.4.4-.6l-.3-.2"/><path class="st22" d="M241.4 249.4h-.5l.3.2h.2v-.2m-.2-.2h-.6l.3.2h.5l-.2-.2"/><path class="st4" d="M134.4 188c-.1.1-.1.2-.2.3l26 15c.1-.1.1-.2.2-.3l-26-15m.5-1c-.1.1-.1.2-.2.3l25.9 15c.1-.1.1-.2.2-.3l-25.9-15m-27.8-14.8c-.1.1-.1.2-.2.3l26.4 15.2c.1-.1.1-.2.2-.3l-26.4-15.2m.5-.9c-.1.1-.1.2-.2.3l26.4 15.2c.1-.1.1-.2.2-.3l-26.4-15.2"/><path class="st5" d="M79.8 155.2l-.7 1.2.3.2c.1-.1.1-.2.2-.3l.4-.6c.1-.1.1-.2.2-.3l-.4-.2m-.1 1.2c-.1.1-.1.2-.2.3l27.2 15.7c.1-.1.1-.2.2-.3l-27.2-15.7m.6-.9c-.1.1-.1.2-.2.3l27.2 15.7c.1-.1.1-.2.2-.3l-27.2-15.7"/><path class="st5" d="M106.9 172.1c-.1.1-.1.2-.2.3l.2.1c.1-.1.1-.2.2-.3l-.2-.1m.5-.9c-.1.1-.1.2-.2.3l.2.1c.1-.1.1-.2.2-.3l-.2-.1m-27.8-14.9c-.1.1-.1.2-.2.3l.2.1c.1-.1.1-.2.2-.3l-.2-.1m.5-.9c-.1.1-.1.2-.2.3l.2.1c.1-.1.1-.2.2-.3l-.2-.1"/><path class="st8" d="M133.6 187.5c-.1.1-.1.2-.2.3l.7.4c.1-.1.1-.2.2-.3l-.7-.4m.5-.9c-.1.1-.1.2-.2.3l.7.4c.1-.1.1-.2.2-.3l-.7-.4"/><path class="st8" d="M134.3 187.9c-.1.1-.1.2-.2.3l.1.1c.1-.2.1-.3.1-.4m-.8-.5c-.1.1-.1.2-.2.3l.1.1c.1-.1.2-.2.1-.4m1.3-.4c-.1.1-.1.2-.2.3l.1.1c.1-.2.2-.3.1-.4m-.8-.5c-.1.1-.1.2-.2.3l.1.1c.1-.1.2-.2.1-.4"/><path class="st4" d="M188.2 219c-.1.1-.1.2-.2.3l26 15c.1-.1.1-.2.2-.3l-26-15m.5-.9c-.1.1-.1.2-.2.3l26 15c.1-.1.1-.2.2-.3l-26-15m-27.4-14.6c-.1.1-.1.2-.2.3l25.9 15c.1-.1.1-.2.2-.3l-25.9-15m.5-.9c-.1.1-.1.2-.2.3l25.9 15c.1-.1.1-.2.2-.3l-25.9-15"/><path class="st8" d="M160.4 203c-.1.1-.1.2-.2.3l.8.4c.1-.1.1-.2.2-.3l-.8-.4m.6-.9c-.1.1-.1.2-.2.3l.8.4c.1-.1.1-.2.2-.3l-.8-.4"/><path class="st8" d="M161.2 203.4c-.1.1-.1.2-.2.3l.1.1c.1-.1.1-.2.1-.4m-.8-.5c-.1.1-.1.2-.2.3l.1.1c0-.1.1-.2.1-.4m1.3-.4c-.1.1-.1.2-.2.3l.1.1c.1-.2.2-.2.1-.4m-.8-.5c-.1.1-.1.2-.2.3l.1.1c.1-.1.1-.2.1-.4m26.4 16.5c-.1.1-.1.2-.2.3l.8.4c.1-.1.1-.2.2-.3l-.8-.4m.5-.9c-.1.1-.1.2-.2.3l.8.4c.1-.1.1-.2.2-.3l-.8-.4"/><path class="st8" d="M188.1 218.9c-.1.1-.1.2-.2.3l.1.1c.1-.1.1-.2.1-.4m-.9-.5c-.1.1-.1.2-.2.3l.1.1c.1-.1.2-.2.1-.4m1.4-.4c-.1.1-.1.2-.2.3l.1.1c.1-.1.2-.2.1-.4m-.9-.5c-.1.1-.1.2-.2.3l.1.1c.1-.1.2-.2.1-.4"/><path class="st4" d="M215.3 234.7c-.1.1-.1.2-.2.3l24.3 14h.6l-24.7-14.3m.6-1c-.1.1-.1.2-.2.3l25.1 14.5-.3-.6-24.6-14.2"/><path class="st18" d="M240.5 249.2h-.6.7-.1"/><path class="st19" d="M240.6 249.2h-.7.7"/><path class="st18" d="M240.4 249.1h-.6l.1.1h.6l-.1-.1"/><path class="st20" d="M240.3 249.1h-.7.7"/><path class="st15" d="M240.3 249.1h-.6.7-.1"/><path class="st18" d="M240.4 249.1h-.7.7"/><path class="st8" d="M240.1 248.9h-.6l.1.1h.7l-.2-.1"/><path class="st20" d="M240.3 249h-.7v.1h.7v-.1"/><path class="st21" d="M214.5 234.1c-.1.1-.1.2-.2.3l.6.4c.1-.1.1-.2.2-.3l-.6-.4m.5-.9c-.1.1-.1.2-.2.3l.6.4c.1-.1.1-.2.2-.3l-.6-.4"/><path class="st23" d="M241.8 250.2h-.1.1m.5 0h-.3.3m0 .1h-.4.4"/><path class="st24" d="M241.8 250.2h-.2.2m.6 0h-.3l-.1.1.4-.1"/><path class="st25" d="M241.7 250.1h-.3.3m.7 0h-.2.2m-.6 0h-.2l.1.1.1-.1m.6 0h-.2l-.1.1.3-.1"/><path class="st19" d="M241.2 249.6h-.6l.7.4h.4l-.1-.2-.4-.2"/><path class="st22" d="M241.2 249.6h-.7.7"/><path class="st19" d="M241.7 250h-.4l.1.1.3-.1m0 .1h-.3.3m.6 0"/><path class="st21" d="M215.1 234.5c-.1.1-.1.2-.2.3l.3.2c.1-.1.1-.2.2-.3l-.3-.2m-.9-.5c-.1.1-.1.2-.2.3l.3.2c.1-.1.1-.2.2-.3l-.3-.2m1.4-.4c-.1.1-.1.2-.2.3l.3.2c.1-.1.1-.2.2-.3l-.3-.2m-.9-.5c-.1.1-.1.2-.2.3l.3.2c.1-.1.1-.2.2-.3l-.3-.2"/><path class="st22" d="M240.9 249.4h-.6l.2.2h.7l-.3-.2m-.3-.2h-.6l.3.2h.6l-.3-.2"/><path class="st21" d="M242.2 250.5h-.1.1"/><path class="st23" d="M242.3 250.3h-.5l.3.2h.1l.1-.1v-.1"/><path class="st4" d="M350.1 187.2l-25.4 14.6c.1.2.2.4.4.6l25.4-14.7c-.1 0-.2-.2-.4-.5m27.2-15.6L351 186.7c.1.2.2.4.4.6l26.3-15.2c-.1-.1-.3-.3-.4-.5"/><path class="st5" d="M404.9 155.7c.1.2.2.4.3.7l-.3-.7m-.2.1l-27.2 15.7c.1.2.2.4.4.6l27.2-15.7c-.2-.2-.3-.4-.4-.6"/><path class="st5" d="M377.5 171.5l-.2.1c.1.2.2.4.4.6l.2-.1c-.2-.2-.3-.4-.4-.6m27.3-15.8l-.2.1c.1.2.2.4.4.6l.2-.1c-.1-.2-.2-.4-.4-.6"/><path class="st8" d="M350.9 186.8l-.7.4c.1.2.2.4.4.6l.7-.4c-.1-.2-.2-.4-.4-.6"/><path class="st8" d="M350.2 187.2c0 .3.2.5.3.7l.1-.1c-.1-.2-.2-.4-.4-.6m.8-.5c0 .3.2.5.3.7l.1-.1c-.1-.1-.3-.4-.4-.6"/><path class="st4" d="M296.2 218.4l-26 15c.1.2.2.4.4.6l26-15c-.2-.2-.3-.4-.4-.6m27.6-16l-26.7 15.4c.1.2.2.4.4.6l26.7-15.4c-.1-.1-.3-.4-.4-.6"/><path class="st8" d="M324.7 202l-.8.4c.1.2.2.4.4.6l.8-.4c-.2-.2-.3-.4-.4-.6"/><path class="st8" d="M323.9 202.4c0 .3.2.5.3.7l.1-.1c-.2-.2-.3-.4-.4-.6m.8-.5c0 .3.1.5.3.7l.1-.1c-.1-.2-.2-.4-.4-.6m-27.7 16l-.8.4c.1.2.2.4.4.6l.8-.4c-.1-.2-.2-.4-.4-.6"/><path class="st8" d="M296.3 218.3c0 .3.1.5.3.7l.1-.1c-.2-.1-.3-.4-.4-.6m.8-.5c0 .3.1.5.3.7l.1-.1c-.1-.1-.2-.4-.4-.6"/><path class="st4" d="M269 234.1l-25 14.4-.2.4h1l24.7-14.3c-.2-.1-.4-.3-.5-.5"/><path class="st18" d="M244.2 249.2h-.6.6"/><path class="st19" d="M244.2 249.2h-.7.7"/><path class="st18" d="M244.3 249.1h-.7v.1h.6l.1-.1"/><path class="st20" d="M244.5 249h-.9v.1h.8l.1-.1"/><path class="st15" d="M244.4 249.1h-.8.8"/><path class="st18" d="M244.4 249.1h-.8.8"/><path class="st8" d="M244.7 248.9h-1v.1h.8l.2-.1"/><path class="st20" d="M244.5 249h-.9.9"/><path class="st21" d="M269.9 233.5l-.6.4c.1.2.2.4.4.6l.6-.4c-.2-.1-.3-.3-.4-.6"/><path class="st19" d="M243.6 249.6h-.3l-.1.2.4-.2"/><path class="st22" d="M243.6 249.5h-.2l-.1.1h.3v-.1"/><path class="st21" d="M269.3 233.9l-.3.2c.1.2.2.4.4.6l.3-.2c-.2-.2-.3-.4-.4-.6m.9-.5l-.3.2c.1.2.2.4.4.6l.3-.2c-.2-.2-.3-.4-.4-.6"/><path class="st22" d="M243.8 249.4h-.4v.1h.2l.2-.1m.4-.2h-.7l-.1.2h.4l.4-.2"/><path class="st4" d="M350.5 187.9l-25.4 14.7c.1.1.1.2.2.3l25.4-14.7c-.1-.1-.1-.2-.2-.3m-.5-.9l-25.4 14.6c.1.1.1.2.2.3l25.4-14.6c-.1-.1-.2-.2-.2-.3m27.7-14.8l-26.3 15.2c.1.1.1.2.2.3l26.3-15.2c-.1-.1-.2-.2-.2-.3m-.6-.9l-26.3 15.2c.1.1.1.2.2.3l26.3-15.2c-.1-.1-.1-.2-.2-.3"/><path class="st5" d="M405 155.2l-.3.2c.1.1.1.2.2.3l.4.6c.1.1.1.2.2.3l.3-.2-.8-1.2m0 1.2l-27.2 15.7c.1.1.1.2.2.3l27.2-15.7c-.1-.1-.1-.2-.2-.3m-.5-.9l-27.2 15.7c.1.1.1.2.2.3l27.2-15.7c-.1-.1-.1-.2-.2-.3"/><path class="st5" d="M377.9 172.1l-.2.1c.1.1.1.2.2.3l.2-.1c-.1-.1-.2-.2-.2-.3m-.6-.9l-.2.1c.1.1.1.2.2.3l.2-.1c-.1-.1-.1-.2-.2-.3m27.9-14.9l-.2.1c.1.1.1.2.2.3l.2-.1c-.1-.1-.1-.2-.2-.3m-.5-.9l-.2.1c.1.1.1.2.2.3l.2-.1c-.1-.1-.2-.2-.2-.3"/><path class="st8" d="M351.3 187.4l-.7.4c.1.1.1.2.2.3l.7-.4c-.1-.1-.1-.2-.2-.3m-.5-.9l-.7.4c.1.1.1.2.2.3l.7-.4c-.1-.1-.2-.2-.2-.3"/><path class="st8" d="M350.6 187.8c0 .1 0 .2.1.3l.1-.1c-.1 0-.2-.1-.2-.2m.8-.4c0 .1 0 .2.1.3l.1-.1c-.1 0-.2-.1-.2-.2m-1.3-.5c0 .1 0 .2.1.3l.1-.1c-.1 0-.2-.1-.2-.2m.8-.4c0 .1 0 .2.1.3l.1-.1c-.1-.1-.2-.1-.2-.2"/><path class="st4" d="M296.5 219l-26 15c.1.1.1.2.2.3l26-15c-.1-.1-.1-.2-.2-.3m-.5-.9l-26 15c.1.1.1.2.2.3l26-15c-.1-.1-.1-.2-.2-.3m28.2-15l-26.7 15.4c.1.1.1.2.2.3l26.7-15.4c-.1-.1-.2-.2-.2-.3m-.6-.9L297 217.6c.1.1.1.2.2.3l26.7-15.4c-.1-.2-.2-.2-.3-.3"/><path class="st8" d="M325 202.6l-.8.4c.1.1.1.2.2.3l.8-.4c-.1-.1-.1-.2-.2-.3m-.5-.9l-.8.4c.1.1.1.2.2.3l.8-.4c-.1-.1-.2-.2-.2-.3"/><path class="st8" d="M324.3 203c0 .1 0 .2.1.3l.1-.1c-.1 0-.2-.1-.2-.2m.8-.5c0 .1 0 .2.1.3l.1-.1c-.1 0-.1-.1-.2-.2m-1.4-.4c0 .1 0 .2.1.3l.1-.1c-.1 0-.1-.1-.2-.2m.9-.5c0 .1 0 .2.1.3l.1-.1c-.1 0-.2-.1-.2-.2m-27.2 16.9l-.8.4c.1.1.1.2.2.3l.8-.4c-.1-.1-.1-.2-.2-.3m-.5-.9l-.8.4c.1.1.1.2.2.3l.8-.4c-.1-.1-.2-.2-.2-.3"/><path class="st8" d="M296.6 219c0 .1 0 .2.1.3l.1-.1c-.1 0-.1-.1-.2-.2m.9-.5c0 .1 0 .2.1.3l.1-.1c-.1 0-.2-.1-.2-.2m-1.4-.4c0 .1 0 .2.1.3l.1-.1c-.1-.1-.1-.2-.2-.2m.9-.5c0 .1 0 .2.1.3l.1-.1-.2-.2"/><path class="st4" d="M269.4 234.7L244.7 249h.6l24.2-14c0-.1-.1-.2-.1-.3m-.5-.9L244.3 248l-.3.6 25.1-14.5c-.1-.1-.2-.2-.2-.3"/><path class="st18" d="M244.9 249.2h-.7.7"/><path class="st19" d="M244.9 249.2h-.7.7"/><path class="st18" d="M245 249.1h-.7l-.1.1h.7l.1-.1"/><path class="st20" d="M245.1 249h-.6l-.1.1h.7v-.1"/><path class="st15" d="M245.1 249.1h-.7.7"/><path class="st18" d="M245 249.1h-.7.7"/><path class="st8" d="M245.3 248.9h-.6l-.2.1h.7l.1-.1"/><path class="st20" d="M245.2 249h-.7.7"/><path class="st21" d="M270.3 234.2l-.6.4c.1.1.1.2.2.3l.6-.4c-.1-.1-.2-.2-.2-.3m-.6-.9l-.6.4c.1.1.1.2.2.3l.6-.4c0-.2-.1-.2-.2-.3"/><path class="st23" d="M242.8 250.2h-.3.3m.3 0h-.1.1m-.3.1h-.3.3m.2 0h-.1.1"/><path class="st24" d="M242.7 250.2h-.3v.1l.3-.1m.5 0h-.2v.1l.2-.1"/><path class="st25" d="M242.5 250.1h-.1.1m.8 0h-.3.3m-.7 0h-.2.2m.6 0h-.2.2"/><path class="st19" d="M244.2 249.6h-.6l-.4.2-.1.2h.4l.7-.4"/><path class="st22" d="M244.3 249.5h-.7v.1h.6l.1-.1"/><path class="st19" d="M243.5 250h-.4v.1h.3l.1-.1m-.2.1h-.3.3"/><path class="st21" d="M269.7 234.5l-.3.2c.1.1.1.2.2.3l.3-.2c-.1-.1-.2-.2-.2-.3m.8-.5l-.3.2c.1.1.1.2.2.3l.3-.2c0-.1-.1-.2-.2-.3m-1.4-.4l-.3.2c.1.1.1.2.2.3l.3-.2c-.1-.1-.1-.2-.2-.3m.9-.5l-.3.2c.1.1.1.2.2.3l.3-.2c-.1-.1-.1-.2-.2-.3"/><path class="st22" d="M244.5 249.4h-.7l-.2.1h.7l.2-.1m.3-.2h-.6l-.4.2h.7l.3-.2"/><path class="st21" d="M242.7 250.5h-.1.1"/><path class="st23" d="M243 250.3h-.5l.1.2h.1v-.1l.3-.1"/><path class="st26" d="M242.4 250.1v.1-.1"/><path class="st22" d="M242.4 250l-.1.1h.1v-.1m0 .1h-.1.1"/><path class="st4" d="M242.4 218.6h-.3v29.2l.4.6.4-.6v-29.2h-.5m0-31.8h-.3v30.4h.7v-30.4h-.4m.4-31.7h-.7v30.5h.7v-30.5m-.3-30.1h-.5v29h.7v-29h-.2m-.1-31.1h-.4v29.9h.8V93.9h-.4"/><path class="st5" d="M242.8 61.8h-.8v.2h.8v-.2m-.4.4h-.4v31.4h.8V62.2h-.4m0 31.5h-.4v.2h.8v-.2h-.4m0-31.7h-.4v.2h.8V62h-.4"/><path class="st8" d="M242.5 123.9h-.5v.9h.8v-.9h-.3m0 1h-.5v.1h.8v-.1h-.3m0-1.1h-.5v.1h.8v-.1h-.3m.3 30.2h-.7v.9h.7v-.9m0 1h-.7v.1h.7v-.1m0-1.1h-.7v.1h.7v-.1m-.4 31.8h-.3v.9h.7v-.9h-.4m0 1h-.3v.1h.7v-.1h-.4m0-1.1h-.3v.1h.7v-.1h-.4"/><path class="st21" d="M242.4 217.6h-.3v.7h.7v-.7h-.4m0 .7h-.3v.3h.7v-.3h-.4m0-1.1h-.3v.3h.7v-.3h-.4"/><path class="st4" d="M242.8 218.6v29.2l.3-.6v-28.7c-.1.1-.2.1-.3.1m-.8 0h-.3v28.6l.3.6v-29.2m.8-31.8v30.4h.3v-30.4h-.3m-.8 0h-.3v30.4h.3v-30.4m0-31.7h-.3v30.5h.3v-30.5m.8 0l-.1 30.6h.3v-30.6h-.2M242 125h-.3v29h.3v-29m.8 0v29h.3v-29h-.3m0-31.1v29.9h.3V93.9h-.3m-.8 0h-.3v29.9h.3V93.9"/><path class="st5" d="M243.1 61.4h-1.4v.6h.3v-.3h.7v.3h.3v-.6m-.2.8v31.4h.3V62.2h-.3m-.8 0h-.3v31.4h.3V62.2m.8 31.5v.2h.3v-.2h-.3m-.8 0h-.3v.2h.3v-.2m.8-31.7v.2h.3V62h-.3m-.8 0h-.3v.2h.3V62"/><path class="st8" d="M242 123.9h-.3v.9h.3v-.9m.8 0v.9h.3v-.9h-.3m-.8 1h-.3v.1h.3v-.1m.8 0v.1h.3v-.1h-.3m-.8-1.1h-.3v.1h.3v-.1m.8 0v.1h.3v-.1h-.3M242 154h-.3v.9h.3v-.9m.8 0l-.1.9h.3v-.9h-.2m-.8 1h-.3v.1h.3v-.1m.8 0l-.1.1h.3v-.1h-.2m-.8-1.1h-.3v.1h.3v-.1m.8 0l-.1.1h.3v-.1h-.2m0 31.8v.9h.3v-.9h-.3m-.8 0h-.3v.9h.3v-.9m.8 1v.1h.3v-.1h-.3m-.8 0h-.3v.1h.3v-.1m.8-1.1v.1h.3v-.1h-.3m-.8 0h-.3v.1h.3v-.1"/><path class="st21" d="M242.8 217.6v.7h.3v-.7h-.3m-.8 0h-.3v.7h.3v-.7m.8.7v.3h.3v-.3h-.3m-.8 0h-.3v.3h.3v-.3m.8-1.1v.3h.3v-.3h-.3m-.8 0h-.3v.3h.3v-.3"/><path class="st4" d="M257.7 222.8L243.1 248v.7l.6-.4 14.6-25.1c-.2-.2-.4-.3-.6-.4m15.9-27.4l-15.2 26.2c.2.1.4.2.6.4l15.2-26.2c-.1-.2-.4-.3-.6-.4m16.1-27.6l-15.5 26.6c.2.1.4.3.6.4l15.5-26.6c-.2-.1-.4-.3-.6-.4m15.1-26l-14.6 25.1c.2.1.4.2.6.4l14.6-25.1c-.2-.2-.4-.3-.6-.4m15.7-27l-15.1 26.1c.2.1.4.2.6.4l15.2-26.1c-.3-.1-.5-.2-.7-.4"/><path class="st5" d="M336.5 87.3c.2.2.4.3.6.4l-.6-.4m-.1.2l-15.8 27.1c.2.1.4.2.6.4L337 87.9c-.2-.1-.4-.3-.6-.4"/><path class="st5" d="M320.6 114.7l-.1.2c.2.1.4.2.6.4l.1-.2c-.2-.2-.4-.3-.6-.4m15.9-27.4l-.1.2c.2.1.4.2.6.4l.1-.2c-.2-.1-.4-.2-.6-.4"/><path class="st8" d="M305.3 141l-.4.7c.2.1.4.2.6.4l.4-.7c-.2-.2-.4-.3-.6-.4"/><path class="st8" d="M304.9 141.7c.2.2.4.3.6.5l.1-.1c-.3-.2-.5-.3-.7-.4m.4-.8c.2.2.4.3.6.5l.1-.1c-.3-.2-.5-.3-.7-.4M290.1 167l-.4.7c.2.1.4.2.6.4l.4-.7c-.1-.2-.3-.3-.6-.4"/><path class="st8" d="M289.7 167.7c.2.2.4.3.6.5l.1-.1c-.3-.1-.5-.2-.7-.4m.5-.8c.2.2.4.3.6.5l.1-.1c-.3-.2-.5-.3-.7-.4m-16.1 27.6l-.4.8c.2.1.4.3.6.4l.4-.8c-.1-.1-.4-.3-.6-.4"/><path class="st8" d="M273.7 195.3c.2.2.4.3.6.5l.1-.1c-.3-.2-.5-.3-.7-.4m.5-.9c.2.2.4.3.6.5l.1-.1c-.3-.1-.5-.3-.7-.4"/><path class="st21" d="M258.2 221.9l-.4.6c.2.1.4.2.6.4l.4-.6c-.2-.2-.4-.3-.6-.4"/><path class="st21" d="M257.9 222.5l-.2.3c.2.1.4.2.6.4l.2-.3c-.2-.2-.4-.3-.6-.4m.5-.9l-.2.3c.2.1.4.2.6.4l.2-.3c-.2-.2-.4-.3-.6-.4m-15 27.2l-.2.1h.1l.1-.1"/><path class="st27" d="M243.2 249.2h-.1.1"/><path class="st22" d="M243.2 249.2h-.1.1"/><path class="st27" d="M243.2 249.1h-.1v.1h.1v-.1"/><path class="st28" d="M243.3 249h-.2v.1h.2v-.1"/><path class="st18" d="M243.3 249.1h-.2.2"/><path class="st27" d="M243.2 249.1h-.1.1"/><path class="st29" d="M243.3 248.9h-.1l-.1.1h.2v-.1"/><path class="st28" d="M243.3 249h-.2.2"/><path class="st30" d="M243.2 249.2h-.1v.2l.1-.2"/><path class="st21" d="M243.7 248.3l-.6.3v.3h.1l.2-.1.3-.5"/><path class="st29" d="M243.2 248.9h-.1v.1l.1-.1"/><path class="st21" d="M242.8 248.5l-.2.3v.1l.2-.1v-.3"/><path class="st31" d="M242.8 248.8l-.2.1h.2v-.1"/><path class="st32" d="M242.8 249h-.1v.1h.1v-.1"/><path class="st27" d="M242.8 249.1h-.1.1"/><path class="st33" d="M242.8 248.9h-.1v.1h.1v-.1"/><path class="st32" d="M242.8 249h-.1.1"/><path class="st21" d="M243.1 247.9l-.3.6v.3l.3-.2v-.7"/><path class="st34" d="M243.1 249.2h-.3.3"/><path class="st30" d="M243.1 249.2h-.3.3"/><path class="st34" d="M243.1 249.1h-.2l-.1.1h.3v-.1"/><path class="st32" d="M243.1 249h-.1v.1h.1v-.1"/><path class="st27" d="M243.1 249.1h-.2.2"/><path class="st34" d="M243.1 249.1h-.2.2"/><path class="st32" d="M243.1 249h-.1.1"/><path class="st35" d="M243.1 249.4h-.2l.1.1.1-.1m0-.2h-.3l.1.2h.2v-.2"/><path class="st31" d="M243.1 248.6l-.3.2v.1h.3v-.3"/><path class="st34" d="M242.9 249.1h-.1v.1l.1-.1"/><path class="st32" d="M243 249h-.2v.1h.2v-.1"/><path class="st27" d="M243 249.1h-.2.2"/><path class="st34" d="M242.9 249.1h-.1.1"/><path class="st33" d="M243.1 248.9h-.3v.1h.3v-.1"/><path class="st32" d="M243.1 249h-.3.3"/><path class="st30" d="M242.9 249.8h-.2l.1.1.1-.1"/><path class="st4" d="M258.3 223.1l-14.6 25.1.6-.3 14.3-24.7c-.1 0-.2 0-.3-.1m-.9-.5L243 247.3v.6l14.6-25.2s-.1-.1-.2-.1m16.9-26.8L259 222c.1.1.2.1.3.2l15.2-26.2c-.1-.1-.1-.2-.2-.2m-.9-.6l-15.2 26.2c.1.1.2.1.3.2l15.2-26.2c-.2-.1-.3-.1-.3-.2m16.9-27l-15.5 26.6c.1.1.2.1.3.2l15.5-26.6c-.1-.1-.2-.1-.3-.2m-.9-.5l-15.5 26.6c.1.1.2.1.3.2l15.5-26.6c-.1-.1-.2-.2-.3-.2m16-25.6l-14.6 25.1c.1.1.2.1.3.2l14.6-25.1c-.1 0-.2-.1-.3-.2m-.9-.5l-14.6 25.1c.1.1.2.1.3.2l14.6-25.1c-.1-.1-.2-.1-.3-.2m16.6-26.4l-15.2 26.1c.1.1.2.1.3.2l15.2-26.1c-.1-.1-.2-.1-.3-.2m-.9-.5l-15.2 26c.1.1.2.1.3.2l15.1-26.1s-.1-.1-.2-.1"/><path class="st5" d="M336.4 86.9l-.2.3c.1.1.2.1.3.2l.6.4c.1.1.2.1.3.2l.2-.3-1.2-.8m.6 1L321.2 115c.1.1.2.1.3.2L337.3 88c-.1 0-.2-.1-.3-.1m-.9-.5l-15.8 27.1c.1.1.2.1.3.2l15.8-27.1c-.1-.1-.2-.2-.3-.2"/><path class="st5" d="M321.2 115l-.1.2c.1.1.2.1.3.2l.1-.2c-.1-.1-.2-.1-.3-.2m-.9-.5l-.1.2c.1.1.2.1.3.2l.1-.2c-.1-.1-.2-.2-.3-.2m16.8-26.8l-.1.2c.1.1.2.1.3.2l.1-.2c-.1-.1-.2-.1-.3-.2m-.9-.5l-.1.2c.1.1.2.1.3.2l.1-.2c-.1-.1-.2-.2-.3-.2"/><path class="st8" d="M305.9 141.4l-.4.7c.1.1.2.1.3.2l.4-.7c-.1-.1-.2-.2-.3-.2m-.9-.6l-.4.7c.1.1.2.1.3.2l.4-.7c-.1-.1-.2-.1-.3-.2"/><path class="st8" d="M305.5 142.1c0 .1.1.2.2.3l.1-.1c-.1-.1-.2-.2-.3-.2m-.9-.6c0 .1.1.2.2.3l.1-.1c-.1-.1-.2-.1-.3-.2m1.3-.2c0 .1.1.2.2.3l.1-.1c-.1-.1-.2-.2-.3-.2m-.9-.6c0 .1.1.2.2.3l.1-.1c-.1-.1-.2-.1-.3-.2m-14.2 26.7l-.4.7c.1.1.2.1.3.2l.4-.7c-.1-.1-.2-.2-.3-.2m-.9-.6l-.4.8c.1.1.2.1.3.2l.4-.7c-.1-.2-.2-.2-.3-.3"/><path class="st8" d="M290.3 168.1c0 .1.1.2.2.3l.1-.1c-.1-.1-.2-.1-.3-.2m-.9-.5c0 .1.1.2.2.3l.1-.1c-.1-.1-.2-.2-.3-.2m1.4-.3c0 .1.1.2.2.3l.1-.1c-.1-.1-.2-.2-.3-.2m-.9-.6c0 .1.1.2.2.3l.1-.1c-.1-.1-.2-.1-.3-.2m-15.1 28.2l-.4.8c.1.1.2.1.3.2l.4-.8c-.2-.1-.2-.1-.3-.2m-.9-.5l-.4.8c.1.1.2.1.3.2l.4-.8c-.2-.1-.2-.2-.3-.2"/><path class="st8" d="M274.3 195.7c0 .1.1.2.2.3l.1-.1c-.1-.1-.2-.2-.3-.2m-.9-.6c0 .1.1.2.2.3l.1-.1c-.1-.1-.2-.1-.3-.2m1.4-.3c0 .1.1.2.2.3l.1-.1c-.1-.1-.2-.1-.3-.2m-.9-.5c0 .1.1.2.2.3l.1-.1c-.1-.1-.2-.2-.3-.2"/><path class="st21" d="M258.9 222.2l-.4.6c.1.1.2.1.3.2l.4-.6c-.2 0-.3-.1-.3-.2m-.9-.5l-.4.6c.1.1.2.1.3.2l.4-.6c-.2-.1-.3-.1-.3-.2"/><path class="st21" d="M258.5 222.9l-.2.3c.1.1.2.1.3.2l.2-.3c-.1-.1-.2-.2-.3-.2m-.9-.6l-.2.3c.1.1.2.1.3.2l.2-.3c-.1-.1-.2-.1-.3-.2m1.4-.3l-.2.3c.1.1.2.1.3.2l.2-.3c-.1-.1-.2-.2-.3-.2m-.9-.6l-.2.3c.1.1.2.1.3.2l.2-.3c-.1-.1-.2-.1-.3-.2M244 248.5l-.6.3-.1.1h.4l.3-.4"/><path class="st27" d="M243.6 249.2h-.4.4"/><path class="st22" d="M243.6 249.2h-.4.4"/><path class="st27" d="M243.6 249.1h-.4v.1h.4v-.1"/><path class="st28" d="M243.6 249h-.3v.1h.3v-.1"/><path class="st18" d="M243.6 249.1h-.4.4"/><path class="st27" d="M243.6 249.1h-.4.4"/><path class="st29" d="M243.7 248.9h-.4v.1h.4v-.1"/><path class="st28" d="M243.7 249h-.4.4"/><path class="st22" d="M243.3 249.6h-.2v.3l.1-.1.1-.2"/><path class="st30" d="M243.4 249.5h-.3v.1h.2l.1-.1"/><path class="st22" d="M242.8 250h-.1v.1l.1-.1"/><path class="st30" d="M243.4 249.4h-.3v.1h.3v-.1m.1-.2h-.3l-.1.2h.3l.1-.2"/><path class="st21" d="M244.3 248l-.6.3-.3.5.6-.3.3-.5"/><path class="st36" d="M242.9 250.2h-.1v.1h.1v-.1m0 .1h-.1.1"/><path class="st37" d="M243 250.2h-.3.3"/><path class="st26" d="M243 250.1h-.5.5m0 0h-.4l.1.1h.3v-.1"/><path class="st22" d="M243.2 249.8l-.1.1v.1l.1-.2m-.1.2h-.3l-.1.1v-.1h-.2l-.1.1h.6l.1-.1m-.1.1h-.5.5"/><path class="st36" d="M242.9 250.3h-.1.1"/><path class="st30" d="M242.5 250h-.1v.1l.1-.1"/><path class="st21" d="M242.8 247.8l-.4.7.2.3.2-.3v-.7"/><path class="st21" d="M243.1 247.3l-.3.5v.7l.3-.6v-.6"/><path class="st30" d="M243.1 249.6h-.1.1l-.2.1v.1h.2-.2v-.1.1l-.1.1-.1-.1-.1.1.1.1h.1l.3-.1v-.3"/><path class="st35" d="M243.1 249.5h-.1v.1h.1v-.1"/><path class="st30" d="M242.8 250h-.1.1"/><path class="st35" d="M243.1 249.4l-.1.1h.1v-.1m0 0"/><path class="st30" d="M243.1 249.9l-.3.1h.3v-.1m-.5 0l-.1.1h.2l-.1-.1m.1.1h-.2.2m.4 0h-.2.2"/><path class="st35" d="M242.5 250h-.1.1m0 0h-.1.1"/><path class="st4" d="M227.2 222.6c-.2.1-.4.2-.6.4l14.5 25.3.6.4v-.7l-14.5-25.4m-15.8-27.4c-.2.1-.4.2-.6.4l15.1 26.3c.2-.1.4-.3.6-.4l-15.1-26.3M195.8 168c-.2.1-.4.3-.6.4l15.1 26.3c.2-.1.4-.3.6-.4L195.8 168m-15.2-26.5c-.2.1-.4.2-.6.4l14.7 25.5c.2-.1.4-.3.6-.4l-14.7-25.5m-15.5-27.1c-.2.1-.4.2-.6.4l15 26.2c.2-.1.4-.2.6-.4l-15-26.2"/><path class="st5" d="M149.2 86.8l-.6.4c.2-.2.4-.3.6-.4m.1.2c-.2.1-.4.2-.6.4l15.6 27.2c.2-.1.4-.2.6-.4L149.3 87"/><path class="st5" d="M165 114.2c-.2.1-.4.2-.6.4l.1.2c.2-.1.4-.2.6-.4l-.1-.2m-15.8-27.4c-.2.1-.4.2-.6.4l.1.2c.2-.1.4-.2.6-.4l-.1-.2"/><path class="st8" d="M180.2 140.7c-.2.1-.4.2-.6.4l.4.7c.2-.1.4-.2.6-.4l-.4-.7"/><path class="st8" d="M180.6 141.4c-.2.1-.4.2-.6.4l.1.1c.1-.2.3-.3.5-.5m-.5-.8c-.2.1-.4.2-.6.4l.1.1c.1-.2.4-.3.5-.5m15.2 26.5c-.2.1-.4.3-.6.4l.4.8c.2-.1.4-.3.6-.4l-.4-.8"/><path class="st8" d="M195.8 167.9c-.2.1-.4.2-.6.4l.1.1c.1-.2.3-.3.5-.5m-.5-.9c-.2.1-.4.3-.6.4l.1.1.5-.5m15.6 27.3c-.2.1-.4.2-.6.4l.4.8c.2-.1.4-.3.6-.4l-.4-.8"/><path class="st8" d="M211.4 195.1c-.2.1-.4.2-.6.4l.1.1c.1-.2.3-.3.5-.5m-.5-.9c-.2.1-.4.2-.6.4l.1.1c.1-.2.3-.3.5-.5"/><path class="st21" d="M226.7 221.7c-.2.1-.4.2-.6.4l.4.6c.2-.1.4-.2.6-.4l-.4-.6"/><path class="st21" d="M227 222.4c-.2.1-.4.2-.6.4l.2.3c.2-.1.4-.2.6-.4l-.2-.3m-.5-.9c-.2.1-.4.2-.6.4l.2.3c.2-.1.4-.3.6-.4l-.2-.3m14.9 27.3l.1.1h.1l-.2-.1"/><path class="st27" d="M241.7 249.2h-.1.1"/><path class="st22" d="M241.7 249.2h-.1.1"/><path class="st27" d="M241.7 249.1h-.1v.1h.1v-.1"/><path class="st28" d="M241.7 249h-.2v.1h.2v-.1"/><path class="st18" d="M241.7 249.1h-.2.2"/><path class="st27" d="M241.7 249.1h-.2.2"/><path class="st29" d="M241.6 248.9h-.1v.1h.2l-.1-.1"/><path class="st28" d="M241.7 249h-.2.2"/><path class="st30" d="M241.7 249.2h-.1l.1.2v-.2"/><path class="st21" d="M241.1 248.3l.3.5.2.1h.1v-.3l-.6-.3"/><path class="st29" d="M241.7 248.9h-.1l.1.1v-.1"/><path class="st21" d="M242 248.5v.3l.1.1.1-.1-.2-.3"/><path class="st31" d="M242 248.8v.1h.1l-.1-.1"/><path class="st32" d="M242.1 249h-.1v.1l.1-.1"/><path class="st33" d="M242.1 248.9h-.1v.1h.1v-.1"/><path class="st32" d="M242.1 249h-.1.1"/><path class="st21" d="M241.7 247.9v.7l.3.2v-.3l-.3-.6"/><path class="st34" d="M242 249.2h-.3.3"/><path class="st30" d="M242 249.2h-.3.3"/><path class="st34" d="M241.9 249.1h-.2v.1h.3l-.1-.1"/><path class="st32" d="M241.8 249h-.1v.1h.1v-.1"/><path class="st27" d="M241.8 249.1h-.1.1"/><path class="st34" d="M241.8 249.1h-.1.2-.1"/><path class="st32" d="M241.7 249h.1-.1"/><path class="st35" d="M241.8 249.4h-.1l.1.1v-.1m.1-.2h-.2v.2h.1l.1-.2"/><path class="st31" d="M241.7 248.6v.3h.3v-.1l-.3-.2"/><path class="st34" d="M242 249.1h-.1l.1.1v-.1"/><path class="st32" d="M242 249h-.2v.1h.2v-.1"/><path class="st27" d="M242 249.1h-.2.2"/><path class="st34" d="M242 249.1h-.2.2"/><path class="st33" d="M242 248.9h-.3v.1h.3v-.1"/><path class="st32" d="M242 249h-.3.3"/><path class="st30" d="M241.9 249.7l.1.2.1-.1-.2-.1"/><path class="st38" d="M242.4 249.4h-.1l.1.1v-.1m0 0"/><path class="st39" d="M242.5 249.6h-.1.1"/><path class="st38" d="M242.6 249.5h-.2v.1h.1l.1-.1m0-.1h-.2v.1h.2v-.1m-.1-.1l-.1.1h.2l-.1-.1m-.1.2h-.2l.1.1.1-.1m0-.1h-.2v.1h.2l-.1-.1h.1m-.1-.1l-.1.1h.2l-.1-.1"/><path class="st40" d="M242.4 249.2h-.1.1m0-.1l-.1.1h.1v-.1m0 0"/><path class="st41" d="M242.4 249.2v.1-.1"/><path class="st38" d="M242.5 249.2h-.1v.1-.1h-.1v.1l.1.1.1-.1v-.1"/><path class="st39" d="M242.4 249.6h-.1l.1.1v-.1"/><path class="st38" d="M242.4 249.5l-.1.1h.1v-.1m0 0"/><path class="st31" d="M242.2 248.8l-.1.1h.2l-.1-.1"/><path class="st33" d="M242.3 248.9h-.1l.1.1v-.1"/><path class="st35" d="M242 249.2h.1-.1m.1.4h-.1v.1h.1v-.1"/><path class="st39" d="M242 249.6h.1-.1m0-.1v.1-.1m.1-.3h-.1v.1l.1-.1"/><path class="st43" d="M242.1 248.9h.1-.1"/><path class="st42" d="M242.1 249.2h-.1.1"/><path class="st35" d="M242.1 249.2h-.1.1"/><path class="st42" d="M242.2 249.1h-.2v.1h.1l.1-.1"/><path class="st44" d="M242.4 249h-.3l-.1.1h.4v-.1"/><path class="st34" d="M242.3 249.1h-.3.3"/><path class="st42" d="M242.3 249.1h-.3.3"/><path class="st45" d="M242.2 248.9h-.1v.1h.2l-.1-.1"/><path class="st44" d="M242.3 249h-.2.3-.1"/><path class="st39" d="M242.3 249.6h-.2v.1h.2v-.1"/><path class="st38" d="M242.2 249.5l-.2.1h.3l-.1-.1"/><path class="st38" d="M242.2 249.4h-.2v.2l.2-.1v-.1m-.1-.2l-.1.1v.1h.2l.1-.1-.2-.1"/><path class="st40" d="M242.3 249.2h-.2.2"/><path class="st39" d="M242.3 249.2h-.2.2"/><path class="st40" d="M242.4 249.1h-.2l-.1.1h.2l.1-.1"/><path class="st46" d="M242.4 249.1h-.1.1"/><path class="st42" d="M242.4 249.1h-.1.1"/><path class="st40" d="M242.4 249.1h-.2.2"/><path class="st38" d="M242.3 249.2h-.2l.2.1v-.1"/><path class="st39" d="M242.3 249.6v.1h.1l-.1-.1"/><path class="st35" d="M242 249.2h-.1.1m0 .4h-.2l.1.1.2.1h.1l-.1-.1h-.1v-.1"/><path class="st39" d="M242 249.6h-.2.2m0-.2h-.2v.2h.2v-.2m0-.2h-.1l-.1.2h.2l-.1-.1h.1v-.1"/><path class="st42" d="M242 249.1v.1-.1m0 0"/><path class="st39" d="M242.3 249.7h-.2l.1.1.1-.1"/><path class="st38" d="M242 249.4v.1-.1m0-.1h-.1l.1.1v-.1"/><path class="st4" d="M226.6 223c-.1.1-.2.1-.3.2l14.2 24.8.6.3-14.5-25.3m.9-.5c-.1.1-.2.1-.3.2l14.5 25.3v-.6l-14.2-24.9m-16.7-27c-.1.1-.2.1-.3.2l15.1 26.3c.1-.1.2-.1.3-.2l-15.1-26.3m.9-.5c-.1.1-.2.1-.3.2l15.1 26.3c.1-.1.2-.1.3-.2L211.7 195m-16.5-26.7c-.1.1-.2.1-.3.2l15.1 26.3c.1-.1.2-.1.3-.2l-15.1-26.3m.9-.5c-.1.1-.2.1-.3.2l15.1 26.3c.1-.1.2-.1.3-.2l-15.1-26.3M180 141.9c-.1.1-.2.1-.3.2l14.7 25.5c.1-.1.2-.1.3-.2L180 141.9m.9-.6c-.1.1-.2.1-.3.2l14.6 25.5c.1-.1.2-.1.3-.2l-14.6-25.5m-16.5-26.5c-.1.1-.2.1-.3.2l15 26.2c.1-.1.2-.1.3-.2l-15-26.2m.9-.6c-.1.1-.2.1-.3.2l15 26.2c.1-.1.2-.1.3-.2l-15-26.2"/><path class="st5" d="M149.3 86.3l-1.2.7.2.3c.1-.1.2-.1.3-.2l.6-.4c.1-.1.2-.1.3-.2l-.2-.2m-.6 1.1c-.1.1-.2.1-.3.2l15.6 27.2c.1-.1.2-.1.3-.2l-15.6-27.2m.9-.6c-.1.1-.2.1-.3.2l15.6 27.2c.1-.1.2-.1.3-.2l-15.6-27.2"/><path class="st5" d="M164.3 114.6c-.1.1-.2.1-.3.2l.1.2c.1-.1.2-.1.3-.2l-.1-.2m.9-.5c-.1.1-.2.1-.3.2l.1.2c.1-.1.2-.1.3-.2l-.1-.2m-16.6-26.9c-.1.1-.2.1-.3.2l.1.2c.1-.1.2-.1.3-.2l-.1-.2m.9-.6c-.1.1-.2.1-.3.2l.1.2c.1-.1.2-.1.3-.2l-.1-.2"/><path class="st8" d="M179.5 141.1c-.1.1-.2.1-.3.2l.4.7c.1-.1.2-.1.3-.2l-.4-.7m.9-.6c-.1.1-.2.1-.3.2l.4.7c.1-.1.2-.1.3-.2l-.4-.7"/><path class="st8" d="M179.9 141.8c-.1.1-.2.1-.3.2l.1.1c.1-.1.2-.2.2-.3m.9-.6c-.1.1-.2.1-.3.2l.1.1c.1-.1.2-.1.2-.3m-1.3-.2c-.1.1-.2.1-.3.2l.1.1c0-.1.1-.2.2-.3m.9-.5c-.1.1-.2.1-.3.2l.1.1c.1-.1.2-.2.2-.3m14.3 27c-.1.1-.2.1-.3.2l.4.7c.1-.1.2-.1.3-.2l-.4-.7m.9-.6c-.1.1-.2.1-.3.2l.4.8c.1-.1.2-.1.3-.2l-.4-.8"/><path class="st8" d="M195.1 168.2c-.1.1-.2.1-.3.2l.1.1c.1-.1.2-.1.2-.3m.9-.5c-.1.1-.2.1-.3.2l.1.1c.1-.1.2-.2.2-.3m-1.4-.3c-.1.1-.2.1-.3.2l.1.1c.1-.1.2-.2.2-.3m.9-.5c-.1.1-.2.1-.3.2l.1.1c.1-.1.2-.2.2-.3m14.8 27.8c-.1.1-.2.1-.3.2l.4.8c.1-.1.2-.1.3-.2l-.4-.8m.9-.6c-.1.1-.2.1-.3.2l.4.8c.1-.1.2-.1.3-.2l-.4-.8"/><path class="st8" d="M210.7 195.4c-.1.1-.2.1-.3.2l.1.1c.1 0 .2-.1.2-.3m1-.5c-.1.1-.2.1-.3.2l.1.1c0-.1.1-.1.2-.3m-1.5-.3c-.1.1-.2.1-.3.2l.1.1c.1-.1.2-.2.2-.3m1-.6c-.1.1-.2.1-.3.2l.1.1c0-.1.1-.1.2-.3"/><path class="st21" d="M226.1 222.1c-.1.1-.2.1-.3.2l.4.6c.1-.1.2-.1.3-.2l-.4-.6m.9-.5c-.1.1-.2.1-.3.2l.4.6c.1-.1.2-.1.3-.2l-.4-.6"/><path class="st21" d="M226.4 222.7c-.1.1-.2.1-.3.2l.2.3c.1-.1.2-.1.3-.2l-.2-.3m.9-.5c-.1.1-.2.1-.3.2l.2.3c.1-.1.2-.1.3-.2l-.2-.3m-1.4-.4c-.1.1-.2.1-.3.2l.2.3c.1-.1.2-.1.3-.2l-.2-.3m.9-.5c-.1.1-.2.1-.3.2l.2.3c.1-.1.2-.1.3-.2l-.2-.3m14 27.2l.3.4h.4l-.1-.1-.6-.3"/><path class="st27" d="M241.6 249.2h-.4.4"/><path class="st22" d="M241.6 249.2h-.4.4"/><path class="st27" d="M241.6 249.1h-.4v.1h.4v-.1"/><path class="st28" d="M241.5 249l-.4.1h.4v-.1"/><path class="st18" d="M241.5 249.1h-.3.3"/><path class="st27" d="M241.5 249.1h-.3.4-.1"/><path class="st29" d="M241.5 248.9h-.4v.1h.4v-.1"/><path class="st28" d="M241.5 249h-.4v.1l.4-.1"/><path class="st22" d="M241.7 249.6h-.2l.1.2.1.1v-.3"/><path class="st30" d="M241.7 249.6h-.3.3"/><path class="st22" d="M242.1 250h-.2l.2.1v-.1"/><path class="st30" d="M241.7 249.4h-.3v.2h.3v-.2m-.1-.2h-.4l.2.2h.3l-.1-.2"/><path class="st21" d="M240.5 248l.3.5.6.3-.3-.5-.6-.3"/><path class="st36" d="M242 250.2h-.2v.1h.2v-.1m0 .1h-.2.2"/><path class="st37" d="M242.1 250.2h-.3.3"/><path class="st26" d="M242.3 250.1h-.6.6m-.1 0h-.4v.1h.3l.1-.1"/><path class="st22" d="M241.6 249.8l.1.2v-.1l-.1-.1m.1.2v.1h.6v-.1h-.2v.1l-.2-.1h-.2m.6.1h-.6.6"/><path class="st36" d="M241.9 250.3h-.1.1"/><path class="st30" d="M242.3 250v.1l.1-.1h-.1"/><path class="st21" d="M242 247.8v.7l.2.3.2-.3-.4-.7"/><path class="st21" d="M241.7 247.3v.6l.3.6v-.7l-.3-.5"/><path class="st30" d="M241.7 249.6v.3l.2.1h.2l.1-.1-.1-.1-.1.1-.1-.2-.2-.1"/><path class="st35" d="M241.8 249.6h-.1.1"/><path class="st30" d="M242.1 250h-.2.2"/><path class="st35" d="M241.7 249.4v.2h.1v-.1l-.1-.1m0 0"/><path class="st30" d="M241.7 249.9v.1h.2l-.2-.1m.5 0l-.1.1h.2l-.1-.1m-.3.1h-.2.2m.4 0h-.2.2"/><path class="st31" d="M242.6 248.8l-.1.1h.1v-.1"/><path class="st33" d="M242.6 248.9h-.1l-.1.1.2-.1"/><path class="st35" d="M242.8 249.2h-.1.1m0 .4h-.1v.1h.1v-.1"/><path class="st39" d="M242.8 249.5h-.1v.1h.1v-.1m0 0h-.1.1m0-.3h-.1l.1.1v-.1m-.1.4h-.3l.1.1h.2v-.1"/><path class="st38" d="M242.7 249.5h-.1l-.1.1h.2v-.1m.1-.1h-.2v.1h.2v-.1m-.1-.2l-.2.1.1.1h.2v-.1l-.1-.1"/><path class="st43" d="M242.6 248.9h.1-.1"/><path class="st42" d="M242.8 249.2h-.2.2"/><path class="st35" d="M242.8 249.2h-.1.1"/><path class="st42" d="M242.8 249.1h-.3l.1.1h.2v-.1"/><path class="st44" d="M242.7 249h-.3v.1h.3v-.1"/><path class="st34" d="M242.7 249.1h-.2.3-.1"/><path class="st42" d="M242.8 249.1h-.3.3"/><path class="st45" d="M242.7 248.9h-.1l-.2.1h.3v-.1"/><path class="st44" d="M242.7 249h-.3.3"/><path class="st40" d="M242.6 249.2h-.2.3-.1"/><path class="st39" d="M242.7 249.2h-.3.3"/><path class="st40" d="M242.5 249.1h-.1v.1h.2l-.1-.1"/><path class="st46" d="M242.4 249.1h.1-.1"/><path class="st42" d="M242.5 249.1h-.1.1"/><path class="st40" d="M242.5 249.1h-.1.1"/><path class="st38" d="M242.7 249.2h-.2v.1l.2-.1"/><path class="st39" d="M242.4 249.6v.1h.1l-.1-.1"/><path class="st35" d="M243 249.6h-.2v.1h-.1l-.1.1h.3l.1-.2"/><path class="st39" d="M243 249.5h-.2v.1h.2v-.1m-.1-.1h-.1v.1h.2l-.1-.1m-.1-.2v.1h.1l-.1.1h.1l-.1-.2m-.1.5h-.2l.1.1.1-.1"/><path class="st38" d="M242.8 249.4v.1-.1m0-.1v.1l.1-.1h-.1"/><path class="st42" d="M242.8 249.1v.1-.1"/><path class="st39" d="M242.5 249.7h-.1.1"/><path class="st31" d="M242.4 248.5l-.2.3.1.1h.2l.1-.1-.2-.3"/><path class="st33" d="M242.5 248.9h-.2v.1h.1l.1-.1"/><path class="st44" d="M242.4 249v.1-.1"/><path class="st45" d="M242.3 249h.1-.1"/><path class="st44" d="M242.4 249h-.1.1m0 0v.1-.1"/><path class="st46" d="M242.4 249v.1-.1"/><path class="st35" d="M243 249.6l-.1.2v-.1l.2-.1h-.1"/><path class="st39" d="M243 249.5v.1-.1m0 0"/><path class="st35" d="M241.8 249.6h-.1l.2.1-.1-.1"/><path class="st39" d="M241.8 249.6h-.1.1m0-.1v.1-.1"/><path class="st35" d="M242.4 250h-.1.1"/><path class="st39" d="M242.4 249.7h-.1.1"/><path class="st35" d="M242.2 249.8h-.1l.1.1v-.1m0 0v.1l.1.1-.1-.2m.4 0v.1l.1-.1h-.1"/><path class="st39" d="M242.5 249.7l.1.1-.1-.1"/><path class="st35" d="M242.6 249.8l-.1.2.1-.1v-.1"/><path class="st39" d="M242.3 249.7l-.1.1.1-.1m.1 0h-.1l-.1.1.1.2h.2l.1-.2-.1-.1h-.1m0 .3h-.1.1"/><path class="st47" d="M161 250.2s-22.6-17.6-20.9-24.9c10.7-11.1 82.6 17.6 82.6 17.6S98.1 202.8 111.9 174c13.8-14.6 68.4 26.7 68.4 26.7S163.7 185.1 161 180c1.4-3.6 23.4 11.2 23.4 11.2s1.6-6.3 3.9-9.1 26 30 26 30-22.1-32.8-22.8-38.1c-.4-9.6 18.1 24.3 20.6 24.1s-10-18.3-8.5-20.6c1.5-2.2 9.8 15.4 9.8 15.4s-23.3-53.6-20.6-60.8c4.2-2.6 23.9 44.6 23.9 44.6s-9.7-25.7-8.1-34.1c1.6-8.4 17.2 45.3 17.2 45.3s-10.5-46.7-8.6-48.4c1.9-1.8 10.2 26.2 10.2 26.2s-4-25.1-.9-28.3c3.2-3.2 10.4 55.7 10.4 55.7s-4.9-57.6-2.1-61c4-7.1 4 23.8 4 23.8s2.8-51.4 8.8-53.5c11.8-.9 1.2 99.7 1.2 99.7s4.4-31.2 5.6-36.6c2.5-3.9 1.9 10.8 1.9 10.8s6.9-11.8 9.1-12.2c2.3-.4 0 10.7 0 10.7s5.1-7.4 7-9.3c4.4-1.9-9.5 33.2-9.5 33.2s13.4-27 15.6-27c2.3 0-11.1 29.1-11.1 29.1s28.4-52 36.8-51.1c5.6.4-8.5 26.6-8.5 26.6s10.9-9.8 13.2-8.9c2.3.9-6.3 14.4-6.3 14.4s5.6-3.7 12.7-5.5c7-1.8-7 15-7 15s13.2-6 16.9-5.6c5.1 2.5-25.3 26.2-25.3 26.2s23.8-13.5 27.4-9.7c4.6 5.5-71.5 40.5-71.5 40.5s92.7-46.5 99.8-27.6c9.5 8.2-24.4 34-24.4 34L161 250.2z"/><path class="st48" d="M149.6 249.8s3.5-5.6 7.4-12.1c1.8-7.6-35.5-29.2-24.6-48.3 10.9-19.2 39.7 2.8 39.7 2.8s22 16.2 23.2 14.8c1.2-1.4-7.4-11.2-4.6-11.2 4.9.7 30.2 28.1 30.2 28.1s-28.3-36.4-24.2-38c4-1.6 12.1 12.7 15.8 14.8 3.7 2.1-11.9-26.9-7-28.8 4.9-1.9 17.4 32.9 19 32.3 1.6-.5-14.8-45.5-12.3-49.6 2.5-4.1 8.3 14.3 7.4 7.8-.9-6.4-8.8-54.8 2.1-60.4 10.9-5.6 17.9 48.1 17.9 48.1s1.4-21.1 6-22.1c4.6-1.1 3.5 19 5.3 20.4 3 3 5.1-14.8 8.8-14.4 3.7.4 1.6 11.2 3.5 13.4 2.3 3.7 5.1-9.8 9.5-9.5 4.4.4.2 13 1.8 14.1 1.1 5.3 11.4-16.5 15.8-15.5 4.4 1.1-7 26.4-5.6 28.5-1.2 8.3 23.7-40.2 38-36.9 16.3 19.2-47.8 86.1-47.8 86.1s39.9-41.3 43.6-38.1c5.3 7.6-16.5 26.4-15.8 27.6s19.7-9.8 26-7.7c6.3 5.3-11.8 18.1-11.2 21.1.5 3 13.4 1.8 17.6 8.8 5.6 8.1-4.6 24.2-4.6 24.2H149.6z"/><path class="st0" d="M467.4 265.9v3.4H464c-.1 0-.2.1-.2.2s.1.2.2.2h3.6c.1 0 .1 0 .2-.1 0 0 .1-.1.1-.2v-3.6c0-.1-.1-.2-.2-.2-.2.1-.3.2-.3.3zm-432.9 3.4h-7.3c-.1 0-.2.1-.2.2s.1.2.2.2h7.3c.1 0 .2-.1.2-.2s-.1-.2-.2-.2zm14.6 0h-7.3c-.1 0-.2.1-.2.2s.1.2.2.2h7.3c.1 0 .2-.1.2-.2s-.1-.2-.2-.2zm14.5 0h-7.3c-.1 0-.2.1-.2.2s.1.2.2.2h7.3c.1 0 .2-.1.2-.2s0-.2-.2-.2zm14.6 0h-7.3c-.1 0-.2.1-.2.2s.1.2.2.2h7.3c.1 0 .2-.1.2-.2s-.1-.2-.2-.2zm14.5 0h-7.3c-.1 0-.2.1-.2.2s.1.2.2.2h7.3c.1 0 .2-.1.2-.2.1-.1 0-.2-.2-.2zm14.6 0H100c-.1 0-.2.1-.2.2s.1.2.2.2h7.3c.1 0 .2-.1.2-.2s-.1-.2-.2-.2zm14.6 0h-7.3c-.1 0-.2.1-.2.2s.1.2.2.2h7.3c.1 0 .2-.1.2-.2s-.1-.2-.2-.2zm14.5 0h-7.3c-.1 0-.2.1-.2.2s.1.2.2.2h7.3c.1 0 .2-.1.2-.2s-.1-.2-.2-.2zm14.6 0h-7.3c-.1 0-.2.1-.2.2s.1.2.2.2h7.3c.1 0 .2-.1.2-.2s-.1-.2-.2-.2zm14.5 0h-7.3c-.1 0-.2.1-.2.2s.1.2.2.2h7.3c.1 0 .2-.1.2-.2s-.1-.2-.2-.2zm14.6 0h-7.3c-.1 0-.2.1-.2.2s.1.2.2.2h7.3c.1 0 .2-.1.2-.2s-.1-.2-.2-.2zm14.5 0h-7.3c-.1 0-.2.1-.2.2s.1.2.2.2h7.3c.1 0 .2-.1.2-.2.1-.1 0-.2-.2-.2zm14.6 0h-7.3c-.1 0-.2.1-.2.2s.1.2.2.2h7.3c.1 0 .2-.1.2-.2s-.1-.2-.2-.2zm14.6 0h-7.3c-.1 0-.2.1-.2.2s.1.2.2.2h7.3c.1 0 .2-.1.2-.2s-.1-.2-.2-.2zm14.5 0H231c-.1 0-.2.1-.2.2s.1.2.2.2h7.3c.1 0 .2-.1.2-.2s-.1-.2-.2-.2zm14.6 0h-7.3c-.1 0-.2.1-.2.2s.1.2.2.2h7.3c.1 0 .2-.1.2-.2s-.1-.2-.2-.2zm14.5 0h-7.3c-.1 0-.2.1-.2.2s.1.2.2.2h7.3c.1 0 .2-.1.2-.2s-.1-.2-.2-.2zm14.6 0h-7.3c-.1 0-.2.1-.2.2s.1.2.2.2h7.3c.1 0 .2-.1.2-.2s-.1-.2-.2-.2zm14.5 0h-7.3c-.1 0-.2.1-.2.2s.1.2.2.2h7.3c.1 0 .2-.1.2-.2.1-.1 0-.2-.2-.2zm14.6 0h-7.3c-.1 0-.2.1-.2.2s.1.2.2.2h7.3c.1 0 .2-.1.2-.2s-.1-.2-.2-.2zm14.6 0h-7.3c-.1 0-.2.1-.2.2s.1.2.2.2h7.3c.1 0 .2-.1.2-.2s-.1-.2-.2-.2zm14.5 0h-7.3c-.1 0-.2.1-.2.2s.1.2.2.2h7.3c.1 0 .2-.1.2-.2s-.1-.2-.2-.2zm14.6 0h-7.3c-.1 0-.2.1-.2.2s.1.2.2.2h7.3c.1 0 .2-.1.2-.2s-.1-.2-.2-.2zm14.5 0H362c-.1 0-.2.1-.2.2s.1.2.2.2h7.3c.1 0 .2-.1.2-.2s-.1-.2-.2-.2zm14.6 0h-7.3c-.1 0-.2.1-.2.2s.1.2.2.2h7.3c.1 0 .2-.1.2-.2s-.1-.2-.2-.2zm14.5 0h-7.3c-.1 0-.2.1-.2.2s.1.2.2.2h7.3c.1 0 .2-.1.2-.2s0-.2-.2-.2zm14.6 0h-7.3c-.1 0-.2.1-.2.2s.1.2.2.2h7.3c.1 0 .2-.1.2-.2s-.1-.2-.2-.2zm14.5 0h-7.3c-.1 0-.2.1-.2.2s.1.2.2.2h7.3c.1 0 .2-.1.2-.2.1-.1 0-.2-.2-.2zm14.6 0h-7.3c-.1 0-.2.1-.2.2s.1.2.2.2h7.3c.1 0 .2-.1.2-.2s-.1-.2-.2-.2zm14.6 0h-7.3c-.1 0-.2.1-.2.2s.1.2.2.2h7.3c.1 0 .2-.1.2-.2s-.1-.2-.2-.2zm-436.7 0h-3.4v-3.4c0-.1-.1-.2-.2-.2s-.2.1-.2.2v3.6c0 .1 0 .1.1.2 0 0 .1.1.2.1H20c.1 0 .2-.1.2-.2 0-.2-.1-.3-.2-.3zM16.5 36.1v-7.4c0-.1-.1-.2-.2-.2s-.2.1-.2.2v7.4c0 .1.1.2.2.2s.2 0 .2-.2zm0 14.9v-7.4c0-.1-.1-.2-.2-.2s-.2.1-.2.2V51c0 .1.1.2.2.2s.2-.1.2-.2zm0 14.8v-7.4c0-.1-.1-.2-.2-.2s-.2.1-.2.2v7.4c0 .1.1.2.2.2s.2-.1.2-.2zm0 14.8v-7.4c0-.1-.1-.2-.2-.2s-.2.1-.2.2v7.4c0 .1.1.2.2.2s.2-.1.2-.2zm0 14.8V88c0-.1-.1-.2-.2-.2s-.2.1-.2.2v7.4c0 .1.1.2.2.2s.2-.1.2-.2zm0 14.8v-7.4c0-.1-.1-.2-.2-.2s-.2.1-.2.2v7.4c0 .1.1.2.2.2.1.1.2 0 .2-.2zm0 14.9v-7.4c0-.1-.1-.2-.2-.2s-.2.1-.2.2v7.4c0 .1.1.2.2.2s.2-.1.2-.2zm0 14.8v-7.4c0-.1-.1-.2-.2-.2s-.2.1-.2.2v7.4c0 .1.1.2.2.2s.2-.1.2-.2zm0 14.8v-7.4c0-.1-.1-.2-.2-.2s-.2.1-.2.2v7.4c0 .1.1.2.2.2s.2-.1.2-.2zm0 14.8v-7.4c0-.1-.1-.2-.2-.2s-.2.1-.2.2v7.4c0 .1.1.2.2.2s.2-.1.2-.2zm0 14.9V177c0-.1-.1-.2-.2-.2s-.2.1-.2.2v7.4c0 .1.1.2.2.2s.2-.1.2-.2zm0 14.8v-7.4c0-.1-.1-.2-.2-.2s-.2.1-.2.2v7.4c0 .1.1.2.2.2s.2-.1.2-.2zm0 14.8v-7.4c0-.1-.1-.2-.2-.2s-.2.1-.2.2v7.4c0 .1.1.2.2.2s.2-.1.2-.2zm0 14.8v-7.4c0-.1-.1-.2-.2-.2s-.2.1-.2.2v7.4c0 .1.1.2.2.2s.2-.1.2-.2zm0 14.8v-7.4c0-.1-.1-.2-.2-.2s-.2.1-.2.2v7.4c0 .1.1.2.2.2.1.1.2 0 .2-.2zm0 14.9V251c0-.1-.1-.2-.2-.2s-.2.1-.2.2v7.4c0 .1.1.2.2.2.1.1.2 0 .2-.1zm0-237.2v-3.4h3.4c.1 0 .2-.1.2-.2s-.1-.2-.2-.2h-3.6c-.1 0-.1 0-.2.1 0 0-.1.1-.1.2v3.6c0 .1.1.2.2.2.2-.1.3-.2.3-.3zm432.9-3.4h7.3c.1 0 .2-.1.2-.2s-.1-.2-.2-.2h-7.3c-.1 0-.2.1-.2.2s.1.2.2.2zm-14.6 0h7.3c.1 0 .2-.1.2-.2s-.1-.2-.2-.2h-7.3c-.1 0-.2.1-.2.2s.1.2.2.2zm-14.5 0h7.3c.1 0 .2-.1.2-.2s-.1-.2-.2-.2h-7.3c-.1 0-.2.1-.2.2s0 .2.2.2zm-14.6 0h7.3c.1 0 .2-.1.2-.2s-.1-.2-.2-.2h-7.3c-.1 0-.2.1-.2.2s.1.2.2.2zm-14.5 0h7.3c.1 0 .2-.1.2-.2s-.1-.2-.2-.2h-7.3c-.1 0-.2.1-.2.2-.1.1 0 .2.2.2zm-14.6 0h7.3c.1 0 .2-.1.2-.2s-.1-.2-.2-.2h-7.3c-.1 0-.2.1-.2.2s.1.2.2.2zm-14.6 0h7.3c.1 0 .2-.1.2-.2s-.1-.2-.2-.2H362c-.1 0-.2.1-.2.2s.1.2.2.2zm-14.5 0h7.3c.1 0 .2-.1.2-.2s-.1-.2-.2-.2h-7.3c-.1 0-.2.1-.2.2s.1.2.2.2zm-14.6 0h7.3c.1 0 .2-.1.2-.2s-.1-.2-.2-.2h-7.3c-.1 0-.2.1-.2.2s.1.2.2.2zm-14.5 0h7.3c.1 0 .2-.1.2-.2s-.1-.2-.2-.2h-7.3c-.1 0-.2.1-.2.2s.1.2.2.2zm-14.6 0h7.3c.1 0 .2-.1.2-.2s-.1-.2-.2-.2h-7.3c-.1 0-.2.1-.2.2s.1.2.2.2zm-14.5 0h7.3c.1 0 .2-.1.2-.2s-.1-.2-.2-.2h-7.3c-.1 0-.2.1-.2.2-.1.1 0 .2.2.2zm-14.6 0h7.3c.1 0 .2-.1.2-.2s-.1-.2-.2-.2h-7.3c-.1 0-.2.1-.2.2s.1.2.2.2zm-14.6 0h7.3c.1 0 .2-.1.2-.2s-.1-.2-.2-.2h-7.3c-.1 0-.2.1-.2.2s.1.2.2.2zm-14.5 0h7.3c.1 0 .2-.1.2-.2s-.1-.2-.2-.2h-7.3c-.1 0-.2.1-.2.2s.1.2.2.2zm-14.6 0h7.3c.1 0 .2-.1.2-.2s-.1-.2-.2-.2H231c-.1 0-.2.1-.2.2s.1.2.2.2zm-14.5 0h7.3c.1 0 .2-.1.2-.2s-.1-.2-.2-.2h-7.3c-.1 0-.2.1-.2.2s.1.2.2.2zm-14.6 0h7.3c.1 0 .2-.1.2-.2s-.1-.2-.2-.2h-7.3c-.1 0-.2.1-.2.2s.1.2.2.2zm-14.5 0h7.3c.1 0 .2-.1.2-.2s-.1-.2-.2-.2h-7.3c-.1 0-.2.1-.2.2-.1.1 0 .2.2.2zm-14.6 0h7.3c.1 0 .2-.1.2-.2s-.1-.2-.2-.2h-7.3c-.1 0-.2.1-.2.2s.1.2.2.2zm-14.6 0h7.3c.1 0 .2-.1.2-.2s-.1-.2-.2-.2h-7.3c-.1 0-.2.1-.2.2s.1.2.2.2zm-14.5 0h7.3c.1 0 .2-.1.2-.2s-.1-.2-.2-.2h-7.3c-.1 0-.2.1-.2.2s.1.2.2.2zm-14.6 0h7.3c.1 0 .2-.1.2-.2s-.1-.2-.2-.2h-7.3c-.1 0-.2.1-.2.2s.1.2.2.2zm-14.5 0h7.3c.1 0 .2-.1.2-.2s-.1-.2-.2-.2h-7.3c-.1 0-.2.1-.2.2s.1.2.2.2zm-14.6 0h7.3c.1 0 .2-.1.2-.2s-.1-.2-.2-.2H100c-.1 0-.2.1-.2.2s.1.2.2.2zm-14.5 0h7.3c.1 0 .2-.1.2-.2s-.1-.2-.2-.2h-7.3c-.1 0-.2.1-.2.2s0 .2.2.2zm-14.6 0h7.3c.1 0 .2-.1.2-.2s-.1-.2-.2-.2h-7.3c-.1 0-.2.1-.2.2s.1.2.2.2zm-14.5 0h7.3c.1 0 .2-.1.2-.2s-.1-.2-.2-.2h-7.3c-.1 0-.2.1-.2.2-.1.1 0 .2.2.2zm-14.6 0h7.3c.1 0 .2-.1.2-.2s-.1-.2-.2-.2h-7.3c-.1 0-.2.1-.2.2s.1.2.2.2zm-14.6 0h7.3c.1 0 .2-.1.2-.2s-.1-.2-.2-.2h-7.3c-.1 0-.2.1-.2.2s.1.2.2.2zm436.7 0h3.4v3.4c0 .1.1.2.2.2s.2-.1.2-.2v-3.6c0-.1 0-.1-.1-.2 0 0-.1-.1-.2-.1h-3.6c-.1 0-.2.1-.2.2.1.2.2.3.3.3zm3.5 233.1v7.4c0 .1.1.2.2.2s.2-.1.2-.2V251c0-.1-.1-.2-.2-.2s-.2.1-.2.2zm0-14.8v7.4c0 .1.1.2.2.2s.2-.1.2-.2v-7.4c0-.1-.1-.2-.2-.2s-.2.1-.2.2zm0-14.8v7.4c0 .1.1.2.2.2s.2-.1.2-.2v-7.4c0-.1-.1-.2-.2-.2s-.2.1-.2.2zm0-14.8v7.4c0 .1.1.2.2.2s.2-.1.2-.2v-7.4c0-.1-.1-.2-.2-.2s-.2.1-.2.2zm0-14.8v7.4c0 .1.1.2.2.2s.2-.1.2-.2v-7.4c0-.1-.1-.2-.2-.2-.1-.1-.2 0-.2.2zm0-14.9v7.4c0 .1.1.2.2.2s.2-.1.2-.2v-7.4c0-.1-.1-.2-.2-.2s-.2.1-.2.2zm0-14.8v7.4c0 .1.1.2.2.2s.2-.1.2-.2v-7.4c0-.1-.1-.2-.2-.2s-.2.1-.2.2zm0-14.8v7.4c0 .1.1.2.2.2s.2-.1.2-.2v-7.4c0-.1-.1-.2-.2-.2s-.2.1-.2.2zm0-14.8v7.4c0 .1.1.2.2.2s.2-.1.2-.2v-7.4c0-.1-.1-.2-.2-.2s-.2.1-.2.2zm0-14.8v7.4c0 .1.1.2.2.2s.2-.1.2-.2v-7.4c0-.1-.1-.2-.2-.2-.1-.1-.2 0-.2.2zm0-14.9v7.4c0 .1.1.2.2.2s.2-.1.2-.2v-7.4c0-.1-.1-.2-.2-.2s-.2.1-.2.2zm0-14.8v7.4c0 .1.1.2.2.2s.2-.1.2-.2V88c0-.1-.1-.2-.2-.2s-.2.1-.2.2zm0-14.8v7.4c0 .1.1.2.2.2s.2-.1.2-.2v-7.4c0-.1-.1-.2-.2-.2s-.2.1-.2.2zm0-14.8v7.4c0 .1.1.2.2.2s.2-.1.2-.2v-7.4c0-.1-.1-.2-.2-.2s-.2 0-.2.2zm0-14.9V51c0 .1.1.2.2.2s.2-.1.2-.2v-7.4c0-.1-.1-.2-.2-.2-.1-.1-.2 0-.2.1zm0-14.8v7.4c0 .1.1.2.2.2s.2-.1.2-.2v-7.4c0-.1-.1-.2-.2-.2s-.2.1-.2.2z"/></svg>