<svg height="494pt" viewBox="0 0 494.60598 494" width="494pt" xmlns="http://www.w3.org/2000/svg"><path d="m366.265625 183.789062-.003906-.003906v-.007812l-78.355469-78.355469c-1.585938-1.464844-3.785156-2.058594-5.890625-1.59375-3.214844.597656-5.9375 2.722656-7.296875 5.699219l-23.785156 50.667968c-1.449219 2.6875-1.070313 5.988282.941406 8.277344l13.367188 13.371094 48.304687 48.300781.019531.027344 12.871094 12.859375c2.304688 2.019531 5.621094 2.386719 8.3125.921875l50.609375-23.757813c2.984375-1.351562 5.121094-4.078124 5.722656-7.300781.464844-2.105469-.132812-4.304687-1.597656-5.886719zm0 0"/><path d="m329.855469 122.40625 42.648437 42.65625 19.226563-19.226562-51.183594-34.121094zm0 0"/><path d="m408.40625 43.859375 51.179688 34.117187 14.839843-14.839843-51.183593-34.117188zm0 0"/><path d="m353.277344 98.988281 51.179687 34.117188 14.832031-14.839844-51.171874-34.117187zm0 0"/><path d="m380.84375 71.417969 51.183594 34.117187 14.832031-14.828125-51.183594-34.121093zm0 0"/><path d="m435.972656 16.289062 51.183594 34.109376 7.449219-7.449219v-42.644531h-42.644531zm0 0"/><path d="m295.835938 237.40625-36.246094-36.25c-25.460938 33.792969-31.492188 78.410156-15.914063 117.753906 13.421875 32.371094 6.042969 69.640625-18.703125 94.453125-37.148437 37.496094-96.640625 40.808594-137.71875 7.664063-22.125-18.183594-35.433594-44.945313-36.582031-73.558594-1.257813-28.441406 9.480469-56.101562 29.59375-76.246094 10.269531-10.324218 22.664063-18.285156 36.328125-23.328125 6.289062-2.324219 11.394531-7.058593 14.191406-13.152343s3.054688-13.050782.714844-19.335938c-4.832031-13.085938-19.347656-19.789062-32.4375-14.976562-20.515625 7.574218-39.132812 19.53125-54.554688 35.035156-28.535156 28.539062-44.5468745 67.257812-44.507812 107.613281s16.128906 79.042969 44.71875 107.523437c3.210938 3.238282 6.582031 6.3125 10.101562 9.207032 61.285157 50.667968 151.21875 45.722656 206.578126-11.359375 38.320312-38.941407 49.917968-96.890625 29.535156-147.578125-8.359375-20.761719-6.546875-44.234375 4.902344-63.464844zm0 0"/></svg>