<svg id="Layer_1" xmlns="http://www.w3.org/2000/svg" viewBox="0 0 699.7 384.8"><style>.st0,.st1,.st2{stroke-miterlimit:10}.st0{display:none;fill:#1a1a1a;stroke:#fff}.st1,.st2{fill:none;stroke:#00ab9c;stroke-width:8;stroke-linecap:round}.st2{stroke:#fccd4c}.st3{fill:#fcf3e9}.st4{fill:#00ab9c}.st5{fill:#ffc000}</style><path class="st0" d="M-22.2-8.3h756.3v431.5H-22.2z"/><title>hp</title><path id="trait_x5F_newsletter" class="st1" d="M557.8 319.3s-32.4 26.1-54.1 2.9c-7.5-8.1-27.6-85.1-63.4-85.1s-73.2 131-140.2 91.9"/><path id="trait_x5F_social" class="st2" d="M564.5 310.2s-98.8 79.7-160 46.1C355.6 329.4 333.1 210 333.1 210"/><path id="trait_x5F_chat" class="st1" d="M567.5 316.1s8.4-42.4-29.5-66.4-110.5 71.2-123.5-33.2C401.8 114 326 91.8 326 91.8"/><path id="trait_x5F_form" class="st1" d="M574.6 285.7s10.8-63.7-56.3-92-141.7 93.1-273.7 12.1"/><path id="trait_x5F_mail" class="st2" d="M578.8 272s-21.5-6.6-41.8-11.8c-85.6-21.5-27.1-158.2-105.7-200"/><path id="megaphone_x5F_corps" class="st3" d="M644.1 319.7l-50.8-62.3c-4.4-2.1-9.6-.3-11.7 4l-36.2 73.8c-2.1 4.4-.3 9.6 4 11.7l80.7 3c4.4 2.1 9.6.3 11.7-4l6.3-14.5c2.1-4.3.3-9.5-4-11.7z"/><path id="megaphone_x5F_tete" class="st4" d="M651.7 315.9l31.6 15.5c5.9 2.9 8.4 10.1 5.5 16.1l-9.8 20c-2.9 5.9-10.1 8.4-16.1 5.5l-31.6-15.5c-5.9-2.9-8.4-10.1-5.5-16.1l9.8-20c3-6 10.2-8.4 16.1-5.5z"/><path id="bandeau" class="st4" d="M600.7 267l-3.5-4.2-41.4 84.3 5.4.2z"/><g id="mail"><path id="mail_x5F_area" class="st5" d="M354.5 0h76.8v60.2h-76.8z"/><path class="st3" d="M420.6 7.8h-50.3c-2.9 0-5.3 2.2-5.3 5v33.1c0 2.7 2.4 5 5.4 5h50.3c2.9 0 5.4-2.2 5.4-5V12.8c-.1-2.8-2.5-5-5.5-5zm-1.1 2.8l-24.1 22.6L371 10.6h48.5zM368 44.9V13l17.1 15.9-17.1 16zm3 2.2l17.1-16 6 5.6c.7.6 1.8.6 2.5 0l5.8-5.5 17 15.9H371zm51-2.2L405 29l17-15.9v31.8z"/></g><g id="newsletter"><path id="newsletter_x5F_area" class="st5" d="M214.2 294.8h76.9V378h-76.9z"/><path class="st3" d="M270.4 318.1c0-.8-.8-1.4-1.8-1.4h-40.7c-2.8 0-5 1.7-5 3.8V356c0 4.6 4.9 8.4 10.9 8.4H274c6 0 10.9-3.7 10.9-8.4v-35c0-.8-.8-1.4-1.8-1.4h-10.9c-1-.1-1.8-.7-1.8-1.5zM232 361.5c-3 0-5.5-1.9-5.5-4.2v-37.8h40.2v37.8c0 1.6.7 3 1.8 4.2H232zm49.3-4.1c0 2.3-2.4 4.2-5.5 4.2s-5.5-1.9-5.5-4.2v-35h3.6V357h3.6v-34.6h3.6v35z"/><path class="st3" d="M230.2 328h33v2.8h-33zm18.3 11.1h14.7v2.8h-14.7zm0 11.2h14.7v2.8h-14.7zm-18.3-11.2V353h14.7v-13.9h-14.7zm11 11.2h-7.4v-8.4h7.4v8.4z"/></g><g id="form"><path id="form_x5F_area" class="st5" d="M164.4 167.7h76.9v83.2h-76.9z"/><path class="st3" d="M235.8 190.9l-17.3-17.3c-.3-.3-.6-.4-1-.4h-33c-3.9 0-7.1 3.2-7.1 7.1v57.2c0 3.9 3.2 7.1 7.1 7.1h44.7c3.9 0 7.1-3.2 7.1-7.1V192c-.1-.4-.2-.8-.5-1.1zM219 178.2l12.3 12.3h-8.1c-1.1 0-2.2-.4-2.9-1.2-.8-.8-1.2-1.8-1.2-2.9v-8.2zm14.3 59.3c0 2.3-1.9 4.2-4.2 4.2h-44.7c-2.3 0-4.2-1.9-4.2-4.2v-57.2c0-2.3 1.9-4.2 4.2-4.2H216v10.2c0 1.9.7 3.7 2.1 5 1.3 1.3 3.1 2.1 5 2.1h10.2v44.1z"/><path class="st3" d="M191.7 215.6h-.7c-.8 0-1.5.7-1.5 1.5s.7 1.5 1.5 1.5h.7c.8 0 1.5-.7 1.5-1.5 0-.9-.7-1.5-1.5-1.5zm30.8 0h-26.1c-.8 0-1.5.7-1.5 1.5s.7 1.5 1.5 1.5h26.1c.8 0 1.5-.7 1.5-1.5 0-.9-.7-1.5-1.5-1.5zm-30.8-6.7h-.7c-.8 0-1.5.7-1.5 1.5s.7 1.5 1.5 1.5h.7c.8 0 1.5-.7 1.5-1.5s-.7-1.5-1.5-1.5zm30.8 0h-26.1c-.8 0-1.5.7-1.5 1.5s.7 1.5 1.5 1.5h26.1c.8 0 1.5-.7 1.5-1.5s-.7-1.5-1.5-1.5zm-30.8-6.6h-.7c-.8 0-1.5.7-1.5 1.5s.7 1.5 1.5 1.5h.7c.8 0 1.5-.7 1.5-1.5s-.7-1.5-1.5-1.5zm30.8 0h-26.1c-.8 0-1.5.7-1.5 1.5s.7 1.5 1.5 1.5h26.1c.8 0 1.5-.7 1.5-1.5s-.7-1.5-1.5-1.5z"/></g><g id="social"><path id="social_x5F_area" class="st5" d="M288.1 131.4H365v68.5h-76.9z"/><path class="st3" d="M349.5 136.9h-46.9c-4 0-7.2 3.1-7.2 6.8v44.7c0 3.8 3.2 6.8 7.2 6.8h46.9c4 0 7.2-3.1 7.2-6.8v-44.7c0-3.7-3.3-6.8-7.2-6.8zm2.4 51.5c0 1.3-1.1 2.3-2.4 2.3h-13.6v-18.6h7.4l1.2-7.1h-8.6v-4.9c0-1.9 1.6-3.4 3.6-3.4h4.9v-7.1h-4.9c-6.1 0-11 4.7-11 10.5v4.9h-7.2v7.1h7.2v18.6h-25.9c-1.3 0-2.4-1-2.4-2.3v-44.7c0-1.3 1.1-2.3 2.4-2.3h46.9c1.3 0 2.4 1 2.4 2.3v44.7z"/></g><g id="chat"><path id="chat_x5F_area" class="st5" d="M210 26.9h107v94.5H210z"/><path class="st3" d="M229.2 116.2c.2.1.5.1.7.1.4 0 .9-.2 1.2-.5l12.3-11.7h23c4.8 0 8.7-3.9 8.7-8.7v-13c0-1-.8-1.8-1.8-1.8s-1.8.8-1.8 1.8v13.1c0 2.8-2.3 5.1-5.1 5.1h-23.8c-.4 0-.9.2-1.2.5l-9.8 9.3v-8c0-1-.8-1.8-1.8-1.8h-5.4c-2.8 0-5.1-2.3-5.1-5.1V69.9c0-2.8 2.3-5.1 5.1-5.1h21c1 0 1.8-.8 1.8-1.8s-.8-1.8-1.8-1.8h-21c-4.8 0-8.7 3.9-8.7 8.7v25.6c0 4.8 3.9 8.7 8.7 8.7h3.6v10.5c.1.6.5 1.3 1.2 1.5z"/><path class="st3" d="M283.7 76.1L296 88c.3.3.8.5 1.2.5.2 0 .5 0 .7-.1.6-.3 1.1-.9 1.1-1.6V76.1h3.7c4.8 0 8.7-3.9 8.7-8.7V41.6c0-4.8-3.9-8.7-8.7-8.7h-42.3c-4.8 0-8.7 3.9-8.7 8.7v25.8c0 4.8 3.9 8.7 8.7 8.7h23.3zm-28.5-8.7V41.6c0-2.9 2.3-5.2 5.2-5.2h42.3c2.9 0 5.2 2.3 5.2 5.2v25.8c0 2.9-2.3 5.2-5.2 5.2h-5.5c-1 0-1.8.8-1.8 1.8v8.2l-9.9-9.4c-.3-.3-.8-.5-1.2-.5h-23.9c-2.8-.1-5.2-2.4-5.2-5.3z"/><path class="st3" d="M281.5 56.6c.5 0 .9-.2 1.3-.5.3-.3.5-.8.5-1.3s-.2-.9-.5-1.3c-.3-.3-.8-.5-1.3-.5s-.9.2-1.3.5c-.3.3-.5.8-.5 1.3s.2.9.5 1.3c.4.4.9.5 1.3.5zm6.6 0c.5 0 .9-.2 1.3-.5.3-.3.5-.8.5-1.3s-.2-.9-.5-1.3c-.3-.3-.8-.5-1.3-.5s-.9.2-1.3.5c-.3.3-.5.8-.5 1.3s.2.9.5 1.3c.4.4.9.5 1.3.5zm-13.1 0c.5 0 .9-.2 1.3-.5.3-.3.5-.8.5-1.3s-.2-.9-.5-1.3c-.3-.3-.8-.5-1.3-.5s-.9.2-1.3.5c-.3.3-.5.8-.5 1.3s.2.9.5 1.3.8.5 1.3.5z"/></g></svg>