<?xml version="1.0" encoding="UTF-8" standalone="no"?>
<svg
   xmlns:dc="http://purl.org/dc/elements/1.1/"
   xmlns:cc="http://creativecommons.org/ns#"
   xmlns:rdf="http://www.w3.org/1999/02/22-rdf-syntax-ns#"
   xmlns:svg="http://www.w3.org/2000/svg"
   xmlns="http://www.w3.org/2000/svg"
   xmlns:sodipodi="http://sodipodi.sourceforge.net/DTD/sodipodi-0.dtd"
   xmlns:inkscape="http://www.inkscape.org/namespaces/inkscape"
   id="H1aSdfjAG"
   viewBox="0 0 587.68572 729.68632"
   version="1.1"
   sodipodi:docname="diffuseur2.svg"
   width="652.98413"
   height="810.76257"
   inkscape:version="0.92.1 r15371">
  <metadata
     id="metadata178">
    <rdf:RDF>
      <cc:Work
         rdf:about="">
        <dc:format>image/svg+xml</dc:format>
        <dc:type
           rdf:resource="http://purl.org/dc/dcmitype/StillImage" />
        <dc:title></dc:title>
      </cc:Work>
    </rdf:RDF>
  </metadata>
  <defs
     id="defs176" />
  <sodipodi:namedview
     pagecolor="#ffffff"
     bordercolor="#666666"
     borderopacity="1"
     objecttolerance="10"
     gridtolerance="10"
     guidetolerance="10"
     inkscape:pageopacity="0"
     inkscape:pageshadow="2"
     inkscape:window-width="1920"
     inkscape:window-height="1051"
     id="namedview174"
     showgrid="false"
     inkscape:pagecheckerboard="true"
     scale-x="0.9"
     inkscape:zoom="0.35132042"
     inkscape:cx="58.872718"
     inkscape:cy="424.18426"
     inkscape:window-x="1600"
     inkscape:window-y="0"
     inkscape:window-maximized="1"
     inkscape:current-layer="H1aSdfjAG" />
  <style
     id="style2">@-webkit-keyframes HyCuaBOfjRG_SJAnOziAz_Animation{0%,44%,to{-webkit-transform:scale(0,0);transform:scale(0,0)}48.33%{-webkit-transform:scale(2,2);transform:scale(2,2)}49.67%,90%{-webkit-transform:scale(1,1);transform:scale(1,1)}}@keyframes HyCuaBOfjRG_SJAnOziAz_Animation{0%,44%,to{-webkit-transform:scale(0,0);transform:scale(0,0)}48.33%{-webkit-transform:scale(2,2);transform:scale(2,2)}49.67%,90%{-webkit-transform:scale(1,1);transform:scale(1,1)}}@-webkit-keyframes SJouaBOGi0G_BJ4aOGsCM_Animation{0%,40%,to{-webkit-transform:scale(0,0);transform:scale(0,0)}43.67%{-webkit-transform:scale(2,2);transform:scale(2,2)}45.67%,90%{-webkit-transform:scale(1,1);transform:scale(1,1)}}@keyframes SJouaBOGi0G_BJ4aOGsCM_Animation{0%,40%,to{-webkit-transform:scale(0,0);transform:scale(0,0)}43.67%{-webkit-transform:scale(2,2);transform:scale(2,2)}45.67%,90%{-webkit-transform:scale(1,1);transform:scale(1,1)}}@-webkit-keyframes BJmF6ruzjCz_SkGFdMj0G_Animation{0%,to{-webkit-transform:rotate(0deg);transform:rotate(0deg)}30%,90%{-webkit-transform:rotate(120deg);transform:rotate(120deg)}}@keyframes BJmF6ruzjCz_SkGFdMj0G_Animation{0%,to{-webkit-transform:rotate(0deg);transform:rotate(0deg)}30%,90%{-webkit-transform:rotate(120deg);transform:rotate(120deg)}}#H1aSdfjAG *{-webkit-animation-duration:10s;animation-duration:10s;-webkit-animation-iteration-count:infinite;animation-iteration-count:infinite;-webkit-animation-timing-function:cubic-bezier(0,0,1,1);animation-timing-function:cubic-bezier(0,0,1,1)}#BJ5TBdzj0z,#BJXar_fo0M,#Bk-pSOMj0z,#ByhTBuMsRz,#H1zaBufoCz,#HkVardzjAz,#HyraHuzoAG,#HysaBdGs0G,#S1aTBOGsCz,#SyIpB_fiRG,#Sye6BdzsCG,#rJYaBdMsCG,#rkwpruzj0G,#ryO6HOGoCf{fill:#00ab9c}#HyA6rdziAf{fill:#ededed}#HkkeprOzi0z{fill:#fcfcfc}#H1xlTSuzi0f{fill:#ededed}#HkWgTBOMjCM{fill:#fcfcfc}#ryGxTBuMjCG{fill:#ededed}#SkmgpSdfjRf{fill:#fcfcfc}#S1NepSdzoCf{fill:#ededed}#HyBxaHufsAf{fill:#fcfcfc}#SyUxpB_fj0M{fill:#ededed}#ByDgTr_GoCf{fill:#fcfcfc}#ryulTHOzsCM{fill:#ededed}#B1KgTBdGjCM{fill:#fcfcfc}#Sy9x6rdziAM{fill:#ededed}#HJseTSuMsRz{fill:#fcfcfc}#B13xpH_MsCf{fill:#ededed}#ryTx6H_fsRG{fill:#fcfcfc}#S10lpSufj0M{fill:#ededed}#HyJWardGoCz{fill:#fcfcfc}#BkxbTSufiRf{fill:#ededed}#HyWbTHdGsCz{fill:#fcfcfc}#H1zZprdMoCG{fill:#ededed}#BymbpB_GsRM{fill:#fcfcfc}#Sk4-ardMi0f{fill:#ededed}#S1HbpSuMjRf{fill:#fcfcfc}#SJU-THOzoAG{fill:#ededed}#B1YZ6rufiCM,#B1pWTr_zsRz,#BJ_-pHufsAM,#By2WTBdfiCf,#S1oWpHuMiCM,#r15-pBdMoRz,#r1PW6r_zoCf{fill:#fcfcfc}#B1Wz6BOGi0f,#HJxz6rOGi0G,#SJRWpBOGoCz,#SyJfaSOMiAM,#SyMfaS_GjAG{fill:#ededed}#BJmz6r_GoAM{fill:#00ab9c}#BkNzTSOzjAG{fill:#ededed}#Syrf6BdfiAM{fill:#00ab9c}#B19LTrdGo0G,#B1D_ardfsRz,#B1USpB_fiCG,#B1cXTSOfs0z,#B1nvpB_MsAf,#B1yEaHuzjRz,#BJ47TH_MiCf,#BJCP6S_fsAz,#BJQ7ar_Mi0f,#BJR4TS_GoCf,#BJ_S6HdzjRz,#BJpvaBOziRz,#BkKNpBdMs0f,#BkNPpHuzsAz,#BkSw6BuGoAf,#BkXN6SuMjAG,#Bkjm6H_foRM,#BkjwTrdziCf,#ByIwaBdMoRG,#BybI6BOGjAM,#H12I6HdMjAG,#H1OvarOfoRf,#H1XHaHuzi0M,#HJCXTS_zoAM,#HJHITSdMjCf,#HJPH6ruGjCM,#HJgX6Bufj0z,#HJuOprdzjAM,#Hk0M6SdzjRG,#Hk2rardziRM,#Hk5P6SOfoAG,#HkLVTHOfj0G,#HkOXpSdfoCf,#HkPfprdfoRf,#HktL6rOMsRf,#HkxHpBOfo0f,#Hy-QprdMjCG,#HyQLpHufi0f,#HyWBTrdzsAz,#HyYrTHuMiRM,#HyZupSdfiAf,#HydL6HOMjAG,#HykBprOfiCz,#HykOTHuMsRG,#HynzTHdMjRf,#HyoSpS_Go0M,#Hyr76SOfiAM,#HyvmaSuzoRM,#S14SpBdzj0M,#S18L6r_MiAf,#S1GwpBOfoAf,#S1WE6H_zoRz,#S1f46rOzjCG,#S1zuaHuzjRz,#SJQdTrOMoRG,#SJaIaSdMsCG,#SJqHpSOfjAf,#SJtz6ruGj0M,#Sk5fprOGi0G,#SkKQpSuGsAf,#SkMLpHOfiCG,#SkSdpHOMi0G,#SknmTSufjCG,#Sku46SOzjAf,#Sy2EpH_GiRf,#Sy8_TSOfi0z,#SyJXardzjRf,#SyPUaBOMoAf,#SyTBTruMjAG,#SyXD6SuGsRf,#SyaQpBufjRf,#SyfB6S_MiAf,#SygNaSdGoRM,#r11LprdMjAf,#r1wPpSOziRM,#rJAB6BufsCG,#rJHSTHdMsAz,#rJLQpH_foCz,#rJSVaHOzi0f,#rJV4ardzoCz,#rJiLpHdMiAM,#rJjf6SOGj0M,#rJpEpSuzjAG,#rJxPaH_fiCG,#rk0U6H_Go0M,#rk6G6BuziRG,#rkELaS_fj0G,#rkG76rOGjCG,#rkKv6ruMoRG,#rkVOaSufjAG,#rkWvaHdzoAf,#rkeuarOMo0M,#rkg86HufiRz,#rkjVaBuMjRG,#rkufTS_fjCf,#ry1vTrdMjRM,#ry8fprufjAz,#rycN6r_Gs0M,#ryvEpBOGs0z{fill:#ededed}#rkYuTBuzsRM{fill:#871d22}#HJqdTr_fi0M{fill:#ffc000}#Bk2O6SuGjAf{fill:#871d22}#rJTOpSOMiCM{fill:#ffc000}#SJJYaH_Ms0f{fill:#871d22}#r1gKTS_GjCz{fill:#ffc000}#H1ZtTrdMiRf{fill:#871d22}#BJfFpBdfiAf{fill:#ffc000}#BJmF6ruzjCz{fill:#ddd}#BJmF6ruzjCz_SkGFdMj0G,#HyCuaBOfjRG_SJAnOziAz,#SJouaBOGi0G_BJ4aOGsCM{-webkit-transform-origin:50% 50%;transform-origin:50% 50%;transform-box:fill-box}#BJmF6ruzjCz_SkGFdMj0G{-webkit-transform:rotate(0deg);transform:rotate(0deg);-webkit-animation-timing-function:cubic-bezier(.42,0,.58,1);animation-timing-function:cubic-bezier(.42,0,.58,1);-webkit-animation-name:BJmF6ruzjCz_SkGFdMj0G_Animation;animation-name:BJmF6ruzjCz_SkGFdMj0G_Animation}#HyCuaBOfjRG_SJAnOziAz,#SJouaBOGi0G_BJ4aOGsCM{-webkit-transform:scale(0,0);transform:scale(0,0)}#SJouaBOGi0G_BJ4aOGsCM{-webkit-animation-name:SJouaBOGi0G_BJ4aOGsCM_Animation;animation-name:SJouaBOGi0G_BJ4aOGsCM_Animation}#HyCuaBOfjRG_SJAnOziAz{-webkit-animation-name:HyCuaBOfjRG_SJAnOziAz_Animation;animation-name:HyCuaBOfjRG_SJAnOziAz_Animation}</style>
  <path
     id="Sye6BdzsCG"
     d="m 335.3939,136.05789 41.0534,5.19967 V 65.21247 L 335.3939,56.3297 Z"
     inkscape:connector-curvature="0"
     style="fill:#00ab9c;stroke-width:2.32174587" />
  <path
     id="Bk-pSOMj0z"
     d="m 469.2529,238.10133 46.27837,3.46643 v -74.74518 l -46.52719,-9.09941 z"
     inkscape:connector-curvature="0"
     style="fill:#871d22;stroke-width:2.32174587" />
  <path
     id="H1zaBufoCz"
     d="m 175.90763,216.43605 68.42234,3.24979 v -87.09438 l -68.17354,-9.96604 z"
     inkscape:connector-curvature="0"
     style="fill:#00ab9c;stroke-width:2.32174587" />
  <path
     id="BJXar_fo0M"
     d="m 334.89628,318.91278 54.73787,2.16653 0.24883,-83.84461 -54.24027,-4.76636 z"
     inkscape:connector-curvature="0"
     style="fill:#00ab9c;stroke-width:2.32174587" />
  <path
     id="HkVardzjAz"
     d="m 406.55314,409.90693 48.26887,-1.9499 0.4976,-81.0281 -49.01529,-5.41631 z"
     inkscape:connector-curvature="0"
     style="fill:#00ab9c;stroke-width:2.32174587" />
  <path
     id="HyraHuzoAG"
     d="m 260.25373,410.34021 60.21167,1.29992 v -89.26091 l -60.21167,-1.29991 z"
     inkscape:connector-curvature="0"
     style="fill:#00ab9c;stroke-width:2.32174587" />
  <path
     id="SyIpB_fiRG"
     d="m 85.59013,417.70641 61.95333,-1.51657 V 318.69613 H 84.5949 Z"
     inkscape:connector-curvature="0"
     style="fill:#871d22;stroke-width:2.32174587" />
  <path
     id="rkwpruzj0G"
     d="m 336.38913,498.95118 53.24502,-5.19968 v -83.41129 l -53.99144,1.29992 z"
     inkscape:connector-curvature="0"
     style="fill:#00ab9c;stroke-width:2.32174587" />
  <path
     id="ryO6HOGoCf"
     d="m 529.71337,406.87377 28.36416,-0.86661 -0.49762,-80.5948 -28.11535,-0.43332 z"
     inkscape:connector-curvature="0"
     style="fill:#00ab9c;stroke-width:2.32174587" />
  <path
     id="rJYaBdMsCG"
     d="m 469.2529,573.26303 45.53195,-7.58283 v -75.39513 l -44.53673,3.68308 z"
     inkscape:connector-curvature="0"
     style="fill:#00ab9c;stroke-width:2.32174587" />
  <path
     id="BJ5TBdzj0z"
     d="m 176.15643,608.14413 67.42712,-8.88277 v -86.44442 l -67.42712,4.54971 z"
     inkscape:connector-curvature="0"
     style="fill:#871d22;stroke-width:2.32174587" />
  <path
     id="HysaBdGs0G"
     d="m 335.3939,674.22319 41.30222,-8.66609 v -75.82846 l -41.05341,5.41632 z"
     inkscape:connector-curvature="0"
     style="fill:#00ab9c;stroke-width:2.32174587" />
  <path
     id="ByhTBuMsRz"
     d="m 88.575821,704.55458 29.110619,-6.49959 -0.49763,-75.61178 -29.359409,3.89975 z"
     inkscape:connector-curvature="0"
     style="fill:#00ab9c;stroke-width:2.32174587" />
  <path
     id="S1aTBOGsCz"
     d="m 82.35561,104.20995 33.34036,4.33305 1.49284,-76.47839 -35.82842,-8.23282 z"
     inkscape:connector-curvature="0"
     style="fill:#00ab9c;stroke-width:2.32174587" />
  <path
     id="HyA6rdziAf"
     d="M 587.18813,89.69421 81.111581,0.64994"
     inkscape:connector-curvature="0"
     style="fill:#ededed;stroke-width:2.32174587" />
  <path
     id="HkkeprOzi0z"
     d="M 586.93932,90.34417 81.111581,1.08326 81.36039,0 587.18813,89.26091"
     inkscape:connector-curvature="0"
     style="fill:#fcfcfc;stroke-width:2.32174587" />
  <path
     id="H1xlTSuzi0f"
     d="M 0.49762,17.33222 81.111581,0.64994"
     inkscape:connector-curvature="0"
     style="fill:#ededed;stroke-width:2.32174587" />
  <path
     id="HkWgTBOMjCM"
     d="M 0.49762,16.68226 81.111581,0 81.36039,1.08326 0.74642,17.76551"
     inkscape:connector-curvature="0"
     style="fill:#fcfcfc;stroke-width:2.32174587" />
  <path
     id="ryGxTBuMjCG"
     d="M 0.49762,711.05416 V 17.33222"
     inkscape:connector-curvature="0"
     style="fill:#ededed;stroke-width:2.32174587" />
  <path
     id="SkmgpSdfjRf"
     d="M 0,711.05416 V 17.33222 h 1.24404 v 693.72194"
     inkscape:connector-curvature="0"
     style="fill:#fcfcfc;stroke-width:2.32174587" />
  <path
     id="S1NepSdzoCf"
     d="M 88.82464,728.81967 0.49762,711.05416"
     inkscape:connector-curvature="0"
     style="fill:#ededed;stroke-width:2.32174587" />
  <path
     id="HyBxaHufsAf"
     d="M 88.82464,729.46963 0.49762,711.48747 0.74642,710.4042 89.07346,728.38638"
     inkscape:connector-curvature="0"
     style="fill:#fcfcfc;stroke-width:2.32174587" />
  <path
     id="SyUxpB_fj0M"
     d="M 81.111581,0.64994 88.82464,728.81967"
     inkscape:connector-curvature="0"
     style="fill:#ededed;stroke-width:2.32174587" />
  <path
     id="ByDgTr_GoCf"
     d="m 81.858001,0.64994 7.71307,728.16973 h -1.24404 L 80.613961,0.64994"
     inkscape:connector-curvature="0"
     style="fill:#fcfcfc;stroke-width:2.32174587" />
  <path
     id="ryulTHOzsCM"
     d="M 89.07346,729.25299 584.70004,639.12546"
     inkscape:connector-curvature="0"
     style="fill:#ededed;stroke-width:2.32174587" />
  <path
     id="B1KgTBdGjCM"
     d="m 88.82464,728.60302 495.8754,-90.12752 0.24881,1.08328 -495.875389,90.12752"
     inkscape:connector-curvature="0"
     style="fill:#fcfcfc;stroke-width:2.32174587" />
  <path
     id="Sy9x6rdziAM"
     d="m 587.18813,89.69421 -2.48809,549.86457"
     inkscape:connector-curvature="0"
     style="fill:#ededed;stroke-width:2.32174587" />
  <path
     id="HJseTSuMsRz"
     d="m 587.68574,89.69421 -2.48809,549.86457 h -1.24403 l 2.48807,-549.86457"
     inkscape:connector-curvature="0"
     style="fill:#fcfcfc;stroke-width:2.32174587" />
  <path
     id="B13xpH_MsCf"
     d="M 584.70004,563.51367 87.829401,626.34296"
     inkscape:connector-curvature="0"
     style="fill:#ededed;stroke-width:2.32174587" />
  <path
     id="ryTx6H_fsRG"
     d="M 584.70004,564.16363 87.829401,626.77627 V 625.693 L 584.45123,563.08035"
     inkscape:connector-curvature="0"
     style="fill:#fcfcfc;stroke-width:2.32174587" />
  <path
     id="S10lpSufj0M"
     d="M 585.94407,484.6521 86.83417,524.51619"
     inkscape:connector-curvature="0"
     style="fill:#ededed;stroke-width:2.32174587" />
  <path
     id="HyJWardGoCz"
     d="m 585.94407,485.08539 -499.1099,40.08076 -0.2488,-1.08328 499.3587,-40.08073"
     inkscape:connector-curvature="0"
     style="fill:#fcfcfc;stroke-width:2.32174587" />
  <path
     id="BkxbTSufiRf"
     d="M 85.59013,417.70641 585.69527,405.3572"
     inkscape:connector-curvature="0"
     style="fill:#ededed;stroke-width:2.32174587" />
  <path
     id="HyWbTHdGsCz"
     d="M 85.59013,417.05645 585.69527,404.9239 v 1.08326 L 85.59013,418.35635"
     inkscape:connector-curvature="0"
     style="fill:#fcfcfc;stroke-width:2.32174587" />
  <path
     id="H1zZprdMoCG"
     d="M 585.94407,326.27897 84.5949,312.8465"
     inkscape:connector-curvature="0"
     style="fill:#ededed;stroke-width:2.32174587" />
  <path
     id="BymbpB_GsRM"
     d="M 585.94407,326.71228 84.5949,313.49646 v -1.29992 L 586.19289,325.629"
     inkscape:connector-curvature="0"
     style="fill:#fcfcfc;stroke-width:2.32174587" />
  <path
     id="Sk4-ardMi0f"
     d="M 83.350851,209.06986 586.44169,246.98408"
     inkscape:connector-curvature="0"
     style="fill:#ededed;stroke-width:2.32174587" />
  <path
     id="S1HbpSuMjRf"
     d="m 83.599671,208.63655 502.842019,37.91424 v 1.08326 L 83.350851,209.71982"
     inkscape:connector-curvature="0"
     style="fill:#fcfcfc;stroke-width:2.32174587" />
  <path
     id="SJU-THOzoAG"
     d="M 586.69051,167.90585 82.35561,104.20995"
     inkscape:connector-curvature="0"
     style="fill:#ededed;stroke-width:2.32174587" />
  <path
     id="r1PW6r_zoCf"
     d="M 586.69051,168.33915 82.35561,104.85991 v -1.08327 l 504.58371,63.47925"
     inkscape:connector-curvature="0"
     style="fill:#fcfcfc;stroke-width:2.32174587" />
  <path
     id="BJ_-pHufsAM"
     d="m 528.22051,79.29488 3.98093,569.79662 H 530.7086 L 526.97647,79.29488"
     inkscape:connector-curvature="0"
     style="fill:#fcfcfc;stroke-width:2.32174587" />
  <path
     id="B1YZ6rufiCM"
     d="m 469.50169,68.89555 0.99525,591.46188 h -1.49286 L 468.25765,68.89555"
     inkscape:connector-curvature="0"
     style="fill:#fcfcfc;stroke-width:2.32174587" />
  <path
     id="r15-pBdMoRz"
     d="m 406.55314,57.84627 0.99524,613.7771 h -1.24406 l -0.99521,-613.7771"
     inkscape:connector-curvature="0"
     style="fill:#fcfcfc;stroke-width:2.32174587" />
  <path
     id="S1oWpHuMiCM"
     d="M 336.38913,45.06376 V 684.18923 H 335.1451 V 45.06376"
     inkscape:connector-curvature="0"
     style="fill:#fcfcfc;stroke-width:2.32174587" />
  <path
     id="By2WTBdfiCf"
     d="M 260.75135,32.06461 V 698.05499 H 259.5073 V 32.06461"
     inkscape:connector-curvature="0"
     style="fill:#fcfcfc;stroke-width:2.32174587" />
  <path
     id="B1pWTr_zsRz"
     d="m 176.65406,17.33222 -0.24882,695.88845 h -1.24403 l 0.24882,-695.88845"
     inkscape:connector-curvature="0"
     style="fill:#fcfcfc;stroke-width:2.32174587" />
  <path
     id="SJRWpBOGoCz"
     d="m 527.72289,79.72819 -58.2212,10.39933 -0.24879,-0.86661 58.22119,-10.39932"
     inkscape:connector-curvature="0"
     style="fill:#ededed;stroke-width:2.32174587" />
  <path
     id="SyJfaSOMiAM"
     d="m 469.00408,69.32887 -42.54626,8.66611 -0.24879,-0.86661 42.54625,-8.66611"
     inkscape:connector-curvature="0"
     style="fill:#ededed;stroke-width:2.32174587" />
  <path
     id="HJxz6rOGi0G"
     d="M 425.9602,147.54049 V 77.56166 h 0.99525 v 69.97883"
     inkscape:connector-curvature="0"
     style="fill:#ededed;stroke-width:2.32174587" />
  <path
     id="B1Wz6BOGi0f"
     d="m 406.05553,69.97883 20.65111,7.14954 -0.49761,0.86661 -20.40231,-7.36621"
     inkscape:connector-curvature="0"
     style="fill:#ededed;stroke-width:2.32174587" />
  <path
     id="SyMfaS_GjAG"
     d="m 406.05553,58.27958 -29.35941,7.36619 -0.24882,-0.86661 29.35942,-7.36619"
     inkscape:connector-curvature="0"
     style="fill:#ededed;stroke-width:2.32174587" />
  <path
     id="BJmz6r_GoAM"
     d="M 376.4473,141.25756 V 65.21247"
     inkscape:connector-curvature="0"
     style="fill:#00ab9c;stroke-width:2.32174587" />
  <path
     id="BkNzTSOzjAG"
     d="M 375.94968,141.25756 V 65.21247 h 0.99524 v 76.04509"
     inkscape:connector-curvature="0"
     style="fill:#ededed;stroke-width:2.32174587" />
  <path
     id="Syrf6BdfiAM"
     d="m 335.3939,56.3297 41.0534,8.88277"
     inkscape:connector-curvature="0"
     style="fill:#00ab9c;stroke-width:2.32174587" />
  <path
     id="ry8fprufjAz"
     d="m 335.64271,55.8964 41.05341,8.88276 -0.24882,0.86661 -41.0534,-8.88276"
     inkscape:connector-curvature="0"
     style="fill:#ededed;stroke-width:2.32174587" />
  <path
     id="HkPfprdfoRf"
     d="m 334.64748,45.71372 -45.78078,9.31607 -0.2488,-0.86661 45.78078,-9.09942"
     inkscape:connector-curvature="0"
     style="fill:#ededed;stroke-width:2.32174587" />
  <path
     id="rkufTS_fjCf"
     d="m 260.50253,44.84711 28.36417,9.31607 -0.2488,0.86661 -28.61299,-9.53272"
     inkscape:connector-curvature="0"
     style="fill:#ededed;stroke-width:2.32174587" />
  <path
     id="SJtz6ruGj0M"
     d="m 288.36909,130.20828 v -75.6118 h 0.74642 v 75.6118"
     inkscape:connector-curvature="0"
     style="fill:#ededed;stroke-width:2.32174587" />
  <path
     id="Sk5fprOGi0G"
     d="m 260.25373,32.4979 -84.0973,12.99917 -0.2488,-0.64996 84.3461,-13.21582"
     inkscape:connector-curvature="0"
     style="fill:#ededed;stroke-width:2.32174587" />
  <path
     id="rJjf6SOGj0M"
     d="M 176.15643,17.76551 117.18881,32.4979 116.94001,31.63129 175.90763,16.8989"
     inkscape:connector-curvature="0"
     style="fill:#ededed;stroke-width:2.32174587" />
  <path
     id="HynzTHdMjRf"
     d="m 81.60919,23.39848 35.57962,8.23281 -0.2488,0.86661 -35.57962,-8.23281"
     inkscape:connector-curvature="0"
     style="fill:#ededed;stroke-width:2.32174587" />
  <path
     id="rk6G6BuziRG"
     d="m 115.19835,108.543 1.49284,-76.47839 h 0.99525 l -1.49287,76.47839"
     inkscape:connector-curvature="0"
     style="fill:#ededed;stroke-width:2.32174587" />
  <path
     id="Hk0M6SdzjRG"
     d="m 528.46932,160.75629 -12.68924,6.28293 -0.49762,-0.64996 12.68924,-6.28291"
     inkscape:connector-curvature="0"
     style="fill:#ededed;stroke-width:2.32174587" />
  <path
     id="SyJXardzjRf"
     d="m 469.2529,157.50652 46.27837,8.88274 -0.24881,0.64996 -46.27838,-8.88275"
     inkscape:connector-curvature="0"
     style="fill:#ededed;stroke-width:2.32174587" />
  <path
     id="HJgX6Bufj0z"
     d="m 515.03365,241.56776 v -74.74518 h 0.99523 v 74.74518"
     inkscape:connector-curvature="0"
     style="fill:#ededed;stroke-width:2.32174587" />
  <path
     id="Hy-QprdMjCG"
     d="m 469.50169,153.39011 -62.94855,9.31607 -0.24882,-0.86661 62.94858,-9.09941"
     inkscape:connector-curvature="0"
     style="fill:#ededed;stroke-width:2.32174587" />
  <path
     id="rkG76rOGjCG"
     d="m 406.30432,145.59061 -57.97238,9.31607 -0.2488,-0.86661 57.97239,-9.31605"
     inkscape:connector-curvature="0"
     style="fill:#ededed;stroke-width:2.32174587" />
  <path
     id="BJQ7ar_Mi0f"
     d="m 347.0879,228.1353 v -73.66192 h 0.99524 v 73.66192"
     inkscape:connector-curvature="0"
     style="fill:#ededed;stroke-width:2.32174587" />
  <path
     id="BJ47TH_MiCf"
     d="m 335.64271,149.49036 12.93806,4.54971 -0.49763,0.86661 -12.68924,-4.76636"
     inkscape:connector-curvature="0"
     style="fill:#ededed;stroke-width:2.32174587" />
  <path
     id="Hyr76SOfiAM"
     d="m 260.25373,145.59061 75.14017,-9.96601 0.24881,0.8666 -75.38898,9.96602"
     inkscape:connector-curvature="0"
     style="fill:#ededed;stroke-width:2.32174587" />
  <path
     id="rJLQpH_foCz"
     d="m 260.50253,127.17514 -15.67493,5.41632 -0.49763,-0.86661 15.67494,-5.41632"
     inkscape:connector-curvature="0"
     style="fill:#ededed;stroke-width:2.32174587" />
  <path
     id="HyvmaSuzoRM"
     d="m 243.83235,221.20241 v -89.04427 h 0.99525 v 89.04427"
     inkscape:connector-curvature="0"
     style="fill:#ededed;stroke-width:2.32174587" />
  <path
     id="HkOXpSdfoCf"
     d="m 176.15643,122.19213 68.42235,9.53272 v 0.86661 l -68.67115,-9.53272"
     inkscape:connector-curvature="0"
     style="fill:#ededed;stroke-width:2.32174587" />
  <path
     id="SkKQpSuGsAf"
     d="m 176.15643,116.55916 -93.551999,13.2158 v -0.86661 l 93.303199,-13.21582"
     inkscape:connector-curvature="0"
     style="fill:#ededed;stroke-width:2.32174587" />
  <path
     id="B1cXTSOfs0z"
     d="m 586.44169,247.41738 -44.0391,6.06628 -0.24881,-0.86661 44.28791,-6.06626"
     inkscape:connector-curvature="0"
     style="fill:#ededed;stroke-width:2.32174587" />
  <path
     id="Bkjm6H_foRM"
     d="m 542.6514,324.97904 -0.74642,-71.92869 h 0.99522 l 0.74643,71.92869"
     inkscape:connector-curvature="0"
     style="fill:#ededed;stroke-width:2.32174587" />
  <path
     id="SknmTSufjCG"
     d="m 528.96693,249.58393 13.43566,3.03312 -0.24881,0.86661 -13.43566,-3.03314"
     inkscape:connector-curvature="0"
     style="fill:#ededed;stroke-width:2.32174587" />
  <path
     id="SyaQpBufjRf"
     d="m 529.46456,243.08433 -59.96287,7.36619 -0.24879,-0.86659 60.21166,-7.3662"
     inkscape:connector-curvature="0"
     style="fill:#ededed;stroke-width:2.32174587" />
  <path
     id="HJCXTS_zoAM"
     d="m 469.50169,238.53462 -27.86654,4.76636 -0.24881,-0.86661 27.86656,-4.54971"
     inkscape:connector-curvature="0"
     style="fill:#ededed;stroke-width:2.32174587" />
  <path
     id="B1yEaHuzjRz"
     d="m 440.39109,322.37922 v -79.51153 h 0.99525 v 79.51153"
     inkscape:connector-curvature="0"
     style="fill:#ededed;stroke-width:2.32174587" />
  <path
     id="SygNaSdGoRM"
     d="m 406.30432,238.75129 34.5844,3.68308 v 0.86661 l -34.5844,-3.6831"
     inkscape:connector-curvature="0"
     style="fill:#ededed;stroke-width:2.32174587" />
  <path
     id="S1WE6H_zoRz"
     d="m 406.55314,233.76828 -16.17255,3.68309 -0.24881,-0.86661 16.17254,-3.46644"
     inkscape:connector-curvature="0"
     style="fill:#ededed;stroke-width:2.32174587" />
  <path
     id="S1f46rOzjCG"
     d="m 335.64271,232.03505 54.73788,4.54971 -0.24881,0.86661 -54.48907,-4.54971"
     inkscape:connector-curvature="0"
     style="fill:#ededed;stroke-width:2.32174587" />
  <path
     id="BkXN6SuMjAG"
     d="m 389.13655,321.07931 v -84.06126 h 0.99523 v 84.06126"
     inkscape:connector-curvature="0"
     style="fill:#ededed;stroke-width:2.32174587" />
  <path
     id="rJV4ardzoCz"
     d="m 335.64271,228.56861 -30.60345,4.33305 v -0.86661 l 30.60345,-4.33305"
     inkscape:connector-curvature="0"
     style="fill:#ededed;stroke-width:2.32174587" />
  <path
     id="rJSVaHOzi0f"
     d="m 260.25373,227.702 44.78553,4.33305 v 0.86661 l -44.78553,-4.33305"
     inkscape:connector-curvature="0"
     style="fill:#ededed;stroke-width:2.32174587" />
  <path
     id="HkLVTHOfj0G"
     d="m 304.29282,318.69613 v -86.22779 h 0.99525 v 86.22779"
     inkscape:connector-curvature="0"
     style="fill:#ededed;stroke-width:2.32174587" />
  <path
     id="ryvEpBOGs0z"
     d="m 260.25373,222.93564 -72.40329,7.7995 v -0.86662 l 72.40329,-7.7995"
     inkscape:connector-curvature="0"
     style="fill:#ededed;stroke-width:2.32174587" />
  <path
     id="Sku46SOzjAf"
     d="m 176.15643,227.702 11.69401,2.16652 v 0.86662 l -11.94281,-2.16653"
     inkscape:connector-curvature="0"
     style="fill:#ededed;stroke-width:2.32174587" />
  <path
     id="BkKNpBdMs0f"
     d="m 187.35282,315.66299 v -85.36116 h 0.99523 v 85.36116"
     inkscape:connector-curvature="0"
     style="fill:#ededed;stroke-width:2.32174587" />
  <path
     id="rycN6r_Gs0M"
     d="m 175.90763,216.86936 -43.04388,6.28293 -0.2488,-0.86661 43.04386,-6.28293"
     inkscape:connector-curvature="0"
     style="fill:#ededed;stroke-width:2.32174587" />
  <path
     id="rkjVaBuMjRG"
     d="m 83.599671,216.43605 49.264079,5.84963 -0.2488,0.86661 -49.264099,-5.84963"
     inkscape:connector-curvature="0"
     style="fill:#ededed;stroke-width:2.32174587" />
  <path
     id="Sy2EpH_GiRf"
     d="m 130.62448,314.14642 v -91.42744 h 0.99522 v 91.42744"
     inkscape:connector-curvature="0"
     style="fill:#ededed;stroke-width:2.32174587" />
  <path
     id="rJpEpSuzjAG"
     d="m 176.15643,315.66299 -28.61297,3.46646 v -0.86663 l 28.36417,-3.46646"
     inkscape:connector-curvature="0"
     style="fill:#ededed;stroke-width:2.32174587" />
  <path
     id="BJR4TS_GoCf"
     d="m 84.5949,318.26282 h 62.94856 v 0.86663 H 84.5949"
     inkscape:connector-curvature="0"
     style="fill:#ededed;stroke-width:2.32174587" />
  <path
     id="HykBprOfiCz"
     d="m 147.04583,416.18984 v -97.49371 h 0.99525 v 97.49371"
     inkscape:connector-curvature="0"
     style="fill:#ededed;stroke-width:2.32174587" />
  <path
     id="HkxHpBOfo0f"
     d="m 260.25373,318.04617 -72.90091,4.76636 -0.2488,-0.86661 73.14971,-4.76638"
     inkscape:connector-curvature="0"
     style="fill:#ededed;stroke-width:2.32174587" />
  <path
     id="HyWBTrdzsAz"
     d="m 176.40524,315.01303 11.19639,6.93289 -0.74642,0.64994 -10.94758,-6.93287"
     inkscape:connector-curvature="0"
     style="fill:#ededed;stroke-width:2.32174587" />
  <path
     id="SyfB6S_MiAf"
     d="m 186.85521,415.32323 v -92.94401 h 0.74642 v 92.94401"
     inkscape:connector-curvature="0"
     style="fill:#ededed;stroke-width:2.32174587" />
  <path
     id="H1XHaHuzi0M"
     d="m 335.1451,319.12945 -14.6797,3.68308 -0.24883,-0.86661 14.67971,-3.46644"
     inkscape:connector-curvature="0"
     style="fill:#ededed;stroke-width:2.32174587" />
  <path
     id="S14SpBdzj0M"
     d="m 319.96779,411.64013 v -89.26091 h 0.99521 v 89.26091"
     inkscape:connector-curvature="0"
     style="fill:#ededed;stroke-width:2.32174587" />
  <path
     id="rJHSTHdMsAz"
     d="m 260.25373,320.646 60.21167,1.29992 v 0.86661 l -60.21167,-1.51657"
     inkscape:connector-curvature="0"
     style="fill:#ededed;stroke-width:2.32174587" />
  <path
     id="B1USpB_fiCG"
     d="m 469.50169,323.46249 -13.93326,3.89973 -0.24882,-0.86659 13.93329,-3.89977"
     inkscape:connector-curvature="0"
     style="fill:#ededed;stroke-width:2.32174587" />
  <path
     id="HJPH6ruGjCM"
     d="m 454.82201,408.60699 v -81.67806 h 0.99522 v 81.67806"
     inkscape:connector-curvature="0"
     style="fill:#ededed;stroke-width:2.32174587" />
  <path
     id="BJ_S6HdzjRz"
     d="m 406.55314,320.646 49.01529,5.84963 -0.24882,0.86659 -49.01529,-6.06626"
     inkscape:connector-curvature="0"
     style="fill:#ededed;stroke-width:2.32174587" />
  <path
     id="HyYrTHuMiRM"
     d="m 557.57991,406.00716 -0.2488,-80.5948 h 0.74642 l 0.49761,80.5948"
     inkscape:connector-curvature="0"
     style="fill:#ededed;stroke-width:2.32174587" />
  <path
     id="SJqHpSOfjAf"
     d="m 585.69527,485.08539 -43.04387,-5.19965 v -0.64996 l 43.29267,4.98301"
     inkscape:connector-curvature="0"
     style="fill:#ededed;stroke-width:2.32174587" />
  <path
     id="HyoSpS_Go0M"
     d="m 530.21098,479.66909 12.44042,-0.43331 v 0.86659 l -12.44042,0.43331"
     inkscape:connector-curvature="0"
     style="fill:#ededed;stroke-width:2.32174587" />
  <path
     id="Hk2rardziRM"
     d="m 543.14901,406.44047 v 73.22862 h -0.99523 v -73.22862"
     inkscape:connector-curvature="0"
     style="fill:#ededed;stroke-width:2.32174587" />
  <path
     id="SyTBTruMjAG"
     d="m 530.21098,489.41846 -60.70929,-6.93289 v -0.86661 l 60.9581,6.93287"
     inkscape:connector-curvature="0"
     style="fill:#ededed;stroke-width:2.32174587" />
  <path
     id="rJAB6BufsCG"
     d="m 469.2529,494.40146 -28.61298,-5.19967 0.2488,-0.86661 28.61297,5.19968"
     inkscape:connector-curvature="0"
     style="fill:#ededed;stroke-width:2.32174587" />
  <path
     id="r11LprdMjAf"
     d="m 441.38634,409.0403 v 79.7282 h -0.99525 v -79.7282"
     inkscape:connector-curvature="0"
     style="fill:#ededed;stroke-width:2.32174587" />
  <path
     id="rkg86HufiRz"
     d="m 406.30432,490.93501 34.5844,-2.59983 v 0.86661 l -34.33558,2.59985"
     inkscape:connector-curvature="0"
     style="fill:#ededed;stroke-width:2.32174587" />
  <path
     id="BybI6BOGjAM"
     d="m 406.55314,499.38447 -17.16778,-5.19965 0.49762,-0.86663 16.91898,5.19967"
     inkscape:connector-curvature="0"
     style="fill:#ededed;stroke-width:2.32174587" />
  <path
     id="SkMLpHOfiCG"
     d="m 390.13178,410.34021 v 83.41129 h -0.99523 v -83.41129"
     inkscape:connector-curvature="0"
     style="fill:#ededed;stroke-width:2.32174587" />
  <path
     id="HyQLpHufi0f"
     d="m 335.3939,498.73451 54.24025,-5.41632 v 0.86663 l -53.99144,5.41632"
     inkscape:connector-curvature="0"
     style="fill:#ededed;stroke-width:2.32174587" />
  <path
     id="rkELaS_fj0G"
     d="m 304.29282,497.65125 v -85.36116 h 0.99525 v 85.36116"
     inkscape:connector-curvature="0"
     style="fill:#ededed;stroke-width:2.32174587" />
  <path
     id="HJHITSdMjCf"
     d="m 335.3939,505.01746 -30.85226,-6.93291 0.2488,-0.86659 30.85227,7.14954"
     inkscape:connector-curvature="0"
     style="fill:#ededed;stroke-width:2.32174587" />
  <path
     id="S18L6r_MiAf"
     d="m 260.25373,500.68439 44.53671,-3.46643 v 0.86659 l -44.53671,3.46645"
     inkscape:connector-curvature="0"
     style="fill:#ededed;stroke-width:2.32174587" />
  <path
     id="SyPUaBOMoAf"
     d="m 260.25373,511.08372 -75.8866,-11.26594 v -0.8666 l 75.8866,11.26593"
     inkscape:connector-curvature="0"
     style="fill:#ededed;stroke-width:2.32174587" />
  <path
     id="HydL6HOMjAG"
     d="m 184.61592,415.32323 0.24881,84.06124 h -0.99523 l -0.24881,-84.06124"
     inkscape:connector-curvature="0"
     style="fill:#ededed;stroke-width:2.32174587" />
  <path
     id="HktL6rOMsRf"
     d="m 175.90763,501.98432 8.21068,-3.03314 0.49761,0.8666 -8.45949,3.03314"
     inkscape:connector-curvature="0"
     style="fill:#ededed;stroke-width:2.32174587" />
  <path
     id="B19LTrdGo0G"
     d="m 175.90763,517.79996 -44.78555,-9.31608 0.24882,-0.8666 44.78553,9.53272"
     inkscape:connector-curvature="0"
     style="fill:#ededed;stroke-width:2.32174587" />
  <path
     id="rJiLpHdMiAM"
     d="m 131.6197,416.62315 v 91.42745 h -0.99522 v -91.42745"
     inkscape:connector-curvature="0"
     style="fill:#ededed;stroke-width:2.32174587" />
  <path
     id="H12I6HdMjAG"
     d="m 86.58537,510.86707 44.53671,-3.24979 0.24882,0.8666 -44.78553,3.2498"
     inkscape:connector-curvature="0"
     style="fill:#ededed;stroke-width:2.32174587" />
  <path
     id="SJaIaSdMsCG"
     d="m 175.90763,615.51032 -88.57584,-17.11555 0.24882,-0.64996 88.57582,17.11555"
     inkscape:connector-curvature="0"
     style="fill:#ededed;stroke-width:2.32174587" />
  <path
     id="rk0U6H_Go0M"
     d="m 260.00491,605.11099 -15.92373,-5.63297 0.24879,-0.64996 16.17256,5.41632"
     inkscape:connector-curvature="0"
     style="fill:#ededed;stroke-width:2.32174587" />
  <path
     id="ry1vTrdMjRM"
     d="m 244.08118,511.95033 v 87.31103 h -0.99525 v -87.31103"
     inkscape:connector-curvature="0"
     style="fill:#ededed;stroke-width:2.32174587" />
  <path
     id="rJxPaH_fiCG"
     d="m 175.90763,607.71082 67.67592,-8.88276 v 0.86661 l -67.42712,8.88278"
     inkscape:connector-curvature="0"
     style="fill:#ededed;stroke-width:2.32174587" />
  <path
     id="rkWvaHdzoAf"
     d="m 335.64271,595.57827 -75.6378,-14.08242 0.24882,-0.86661 75.38898,14.08242"
     inkscape:connector-curvature="0"
     style="fill:#ededed;stroke-width:2.32174587" />
  <path
     id="S1GwpBOfoAf"
     d="m 406.80196,586.6955 -60.46048,-10.18266 v -0.86661 l 60.46048,10.18268"
     inkscape:connector-curvature="0"
     style="fill:#ededed;stroke-width:2.32174587" />
  <path
     id="SyXD6SuGsRf"
     d="m 347.0879,503.71752 -0.2488,72.36201 h -0.99523 l 0.24879,-72.36201"
     inkscape:connector-curvature="0"
     style="fill:#ededed;stroke-width:2.32174587" />
  <path
     id="BkNPpHuzsAz"
     d="m 335.3939,579.32931 10.69876,-3.68308 0.49763,0.86661 -10.94758,3.46643"
     inkscape:connector-curvature="0"
     style="fill:#ededed;stroke-width:2.32174587" />
  <path
     id="BkSw6BuGoAf"
     d="m 469.50169,578.67935 -63.19737,-10.39932 0.24882,-0.64995 63.19738,10.39933"
     inkscape:connector-curvature="0"
     style="fill:#ededed;stroke-width:2.32174587" />
  <path
     id="ByIwaBdMoRG"
     d="m 530.7086,571.09652 -16.17256,-4.98303 0.49761,-0.86659 15.92376,4.98301"
     inkscape:connector-curvature="0"
     style="fill:#ededed;stroke-width:2.32174587" />
  <path
     id="r1wPpSOziRM"
     d="m 515.28246,490.28507 v 75.39513 h -0.99523 v -75.39513"
     inkscape:connector-curvature="0"
     style="fill:#ededed;stroke-width:2.32174587" />
  <path
     id="H1OvarOfoRf"
     d="m 469.2529,572.82975 45.53195,-7.58285 v 0.86659 l -45.28316,7.36621"
     inkscape:connector-curvature="0"
     style="fill:#ededed;stroke-width:2.32174587" />
  <path
     id="rkKv6ruMoRG"
     d="m 584.45123,563.94698 -53.74263,-9.53272 0.24881,-0.86661 53.74263,9.5327"
     inkscape:connector-curvature="0"
     style="fill:#ededed;stroke-width:2.32174587" />
  <path
     id="Hk5P6SOfoAG"
     d="m 584.70004,639.55878 -53.49383,-8.23282 0.24881,-0.8666 53.49383,8.23279"
     inkscape:connector-curvature="0"
     style="fill:#ededed;stroke-width:2.32174587" />
  <path
     id="BkjwTrdziCf"
     d="m 531.45502,649.52479 -61.95333,-9.96601 0.24883,-0.86663 61.7045,10.18268"
     inkscape:connector-curvature="0"
     style="fill:#ededed;stroke-width:2.32174587" />
  <path
     id="B1nvpB_MsAf"
     d="m 469.75052,660.79074 -43.79032,-8.23281 0.24883,-0.86661 43.54149,8.2328"
     inkscape:connector-curvature="0"
     style="fill:#ededed;stroke-width:2.32174587" />
  <path
     id="BJpvaBOziRz"
     d="m 426.45782,583.87902 v 68.24562 h -0.74643 v -68.24562"
     inkscape:connector-curvature="0"
     style="fill:#ededed;stroke-width:2.32174587" />
  <path
     id="BJCP6S_fsAz"
     d="m 406.30432,655.80772 19.65588,-4.1164 0.24883,0.86661 -19.65589,4.1164"
     inkscape:connector-curvature="0"
     style="fill:#ededed;stroke-width:2.32174587" />
  <path
     id="HykOTHuMsRG"
     d="m 406.80196,672.05666 -30.35466,-6.06626 0.24882,-0.86661 30.35464,6.06628"
     inkscape:connector-curvature="0"
     style="fill:#ededed;stroke-width:2.32174587" />
  <path
     id="rkeuarOMo0M"
     d="m 377.19374,589.72864 v 75.82846 h -0.99523 v -75.82846"
     inkscape:connector-curvature="0"
     style="fill:#ededed;stroke-width:2.32174587" />
  <path
     id="HyZupSdfiAf"
     d="m 335.3939,673.7899 41.0534,-8.66611 0.24882,0.86661 -41.05341,8.66611"
     inkscape:connector-curvature="0"
     style="fill:#ededed;stroke-width:2.32174587" />
  <path
     id="S1zuaHuzjRz"
     d="m 335.64271,684.62252 -45.78078,-8.88274 0.24882,-0.86662 45.78076,8.88277"
     inkscape:connector-curvature="0"
     style="fill:#ededed;stroke-width:2.32174587" />
  <path
     id="SJQdTrOMoRG"
     d="m 292.10122,600.77795 v 74.52852 h -0.74642 v -74.52852"
     inkscape:connector-curvature="0"
     style="fill:#ededed;stroke-width:2.32174587" />
  <path
     id="rkVOaSufjAG"
     d="m 260.00491,682.23934 29.85702,-7.36618 0.24882,0.86662 -29.85702,7.14952"
     inkscape:connector-curvature="0"
     style="fill:#ededed;stroke-width:2.32174587" />
  <path
     id="SkSdpHOMi0G"
     d="m 260.00491,697.1884 -84.09728,-17.11557 0.2488,-0.64996 84.0973,16.89892"
     inkscape:connector-curvature="0"
     style="fill:#ededed;stroke-width:2.32174587" />
  <path
     id="Sy8_TSOfi0z"
     d="m 175.65881,713.65399 -57.97237,-15.16569 0.24879,-0.64996 57.9724,14.94904"
     inkscape:connector-curvature="0"
     style="fill:#ededed;stroke-width:2.32174587" />
  <path
     id="B1D_ardfsRz"
     d="m 117.68644,622.44321 0.49762,75.61178 h -0.99525 l -0.2488,-75.61178"
     inkscape:connector-curvature="0"
     style="fill:#ededed;stroke-width:2.32174587" />
  <path
     id="HJuOprdzjAM"
     d="m 88.575821,704.12127 29.110619,-6.28293 0.24879,0.64996 -29.110589,6.49958"
     inkscape:connector-curvature="0"
     style="fill:#ededed;stroke-width:2.32174587" />
  <script
     id="script171">(function(){var a=document.querySelector('#H1aSdfjAG'),b=a.querySelectorAll('style'),c=function(d){b.forEach(function(f){var g=f.textContent;g&amp;&amp;(f.textContent=g.replace(/transform-box:[^;\r\n]*/gi,'transform-box: '+d))})};c('initial'),window.requestAnimationFrame(function(){return c('fill-box')})})();</script>
</svg>
