<svg id="HkPFijtRf" xmlns="http://www.w3.org/2000/svg" viewBox="0 0 524 600"><style>@-webkit-keyframes BkneDFsotAf_ryPynoFCM_Animation{0%,to{-webkit-transform:translate(0,90px);transform:translate(0,90px)}20%,90%{-webkit-transform:translate(0,-60px);transform:translate(0,-60px)}}@keyframes BkneDFsotAf_ryPynoFCM_Animation{0%,to{-webkit-transform:translate(0,90px);transform:translate(0,90px)}20%,90%{-webkit-transform:translate(0,-60px);transform:translate(0,-60px)}}@-webkit-keyframes rkEPtisYCz_SyRCosYAG_Animation{0%,to{-webkit-transform:translate(0,0);transform:translate(0,0)}17%,90%{-webkit-transform:translate(0,200px);transform:translate(0,200px)}}@keyframes rkEPtisYCz_SyRCosYAG_Animation{0%,to{-webkit-transform:translate(0,0);transform:translate(0,0)}17%,90%{-webkit-transform:translate(0,200px);transform:translate(0,200px)}}@-webkit-keyframes HkegPtsiYAG_S159jjYRG_Animation{0%,to{-webkit-transform:translate(0,150px);transform:translate(0,150px)}20%,90%{-webkit-transform:translate(0,-200px);transform:translate(0,-200px)}}@keyframes HkegPtsiYAG_S159jjYRG_Animation{0%,to{-webkit-transform:translate(0,150px);transform:translate(0,150px)}20%,90%{-webkit-transform:translate(0,-200px);transform:translate(0,-200px)}}#HkPFijtRf *{-webkit-animation-duration:10s;animation-duration:10s;-webkit-animation-iteration-count:infinite;animation-iteration-count:infinite;-webkit-animation-timing-function:cubic-bezier(0,0,1,1);animation-timing-function:cubic-bezier(0,0,1,1)}#H1fwtostCf,#HyQPKjotCM,#HybwYjjYAM{fill:#00ab9c}#B1SPtiotCz{fill:#3a3a3a}#HJOwtojtCM,#S1wDtjoFRz,#SyUPtsoFRz{fill:#808285}#S1twKioYAz{fill:#3a3a3a}#SJcvFjotRz{opacity:.52;fill:#191919}#H1nPYjsKAM,#SyawKjiYCz,#rJjDFioKAM{fill:#808285}#HyAwKist0z{fill:#231f20}#SJ1eDtosFAG{opacity:.52;fill:#191919}#SkbxvFiotRf{fill:#3a3a3a}#BkXgDYosKAG,#ByMgPKojtAz,#r1VePFooFAf{fill:#808285}#SJBlvtostRG{fill:#3a3a3a}#ryIxvtjjK0f{opacity:.52;fill:#191919}#BkPgDtojtCf,#SkYxwtjjKCG,#rJOgPYojtCz{fill:#808285}#By9eDtooK0G{fill:#231f20}#rkogPYijF0z{opacity:.52;fill:#191919}#BJalDFiiYCf{fill:#3a3a3a}#B1gbPFjsK0f,#SJkbwFiiY0M,#rJAlPKojYCM{fill:#808285}#ryWWPFoiKCM{fill:#3a3a3a}#rkzbvKosFAM{opacity:.52;fill:#191919}#BJm-vKjstRM,#ByE-wFoiKAM,#H1BWDKjjYRf{fill:#808285}#By8WvFijKAf{fill:#231f20}#rJD-wYjjKAM{opacity:.52;fill:#191919}#BkneDFsotAf_ryPynoFCM,#HkegPtsiYAG_S159jjYRG,#rkEPtisYCz_SyRCosYAG{-webkit-transform-origin:50% 50%;transform-origin:50% 50%;transform-box:fill-box;-webkit-animation-timing-function:cubic-bezier(.42,0,.58,1);animation-timing-function:cubic-bezier(.42,0,.58,1)}#HkegPtsiYAG_S159jjYRG,#rkEPtisYCz_SyRCosYAG{-webkit-animation-name:HkegPtsiYAG_S159jjYRG_Animation;animation-name:HkegPtsiYAG_S159jjYRG_Animation;-webkit-transform:translate(0,150px);transform:translate(0,150px)}#rkEPtisYCz_SyRCosYAG{-webkit-animation-name:rkEPtisYCz_SyRCosYAG_Animation;animation-name:rkEPtisYCz_SyRCosYAG_Animation;-webkit-transform:translate(0,0);transform:translate(0,0)}#BkneDFsotAf_ryPynoFCM{-webkit-animation-name:BkneDFsotAf_ryPynoFCM_Animation;animation-name:BkneDFsotAf_ryPynoFCM_Animation;-webkit-transform:translate(0,90px);transform:translate(0,90px)}</style><g id="ByewKsjtAf"><path d="M464.8 15.7c2.8 0 5 5.6 5 12.6v649.4c0 6.9-2.2 12.6-5 12.6s-5-5.6-5-12.6V28.3c0-6.9 2.3-12.6 5-12.6z" id="HybwYjjYAM"/><path d="M271.8 15.7c2.8 0 5.1 5.6 5.1 12.6v649.4c0 6.9-2.3 12.6-5.1 12.6s-5.1-5.6-5.1-12.6V28.3c0-6.9 2.3-12.6 5.1-12.6z" id="H1fwtostCf"/><path d="M74.9 15.7c2.8 0 5 5.6 5 12.6v649.4c0 6.9-2.2 12.6-5 12.6s-5-5.6-5-12.6V28.3c0-6.9 2.2-12.6 5-12.6z" id="HyQPKjotCM"/></g><g id="rkEPtisYCz_SyRCosYAG" data-animator-group="true" data-animator-type="0"><g id="rkEPtisYCz"><path id="B1SPtiotCz" d="M229.6 75.3H314v91.6h-84.4z"/><path id="SyUPtsoFRz" d="M235.5 112.3h70.7v-2h-70.7"/><path id="S1wDtjoFRz" d="M235.5 128.7h70.7v-2h-70.7"/><path id="HJOwtojtCM" d="M235.5 145.3h70.7v-2h-70.7"/><path id="S1twKioYAz" d="M229.6 167H314v91.6h-84.4z"/><path id="SJcvFjotRz" d="M229.6 231.7H314v27.2h-84.4z"/><path id="rJjDFioKAM" d="M235.5 187.7h70.7v-2h-70.7"/><path id="H1nPYjsKAM" d="M235.5 204.1h70.7v-2h-70.7"/><path id="SyawKjiYCz" d="M235.5 220.5h70.7v-2h-70.7"/><path id="HyAwKist0z" d="M235.5 168.1h70.7v-2h-70.7"/><path id="SJ1eDtosFAG" d="M229.6 75.3H314v27.2h-84.4z"/></g></g><g id="HkegPtsiYAG_S159jjYRG" data-animator-group="true" data-animator-type="0"><g id="HkegPtsiYAG"><path id="SkbxvFiotRf" d="M32.7 274.3h84.4v91.6H32.7z"/><path id="ByMgPKojtAz" d="M38.5 311.3h70.8v-2H38.5"/><path id="BkXgDYosKAG" d="M38.5 327.7h70.8v-2H38.5"/><path id="r1VePFooFAf" d="M38.5 344.3h70.8v-2H38.5"/><path id="SJBlvtostRG" d="M32.7 365.9h84.4v91.6H32.7z"/><path id="ryIxvtjjK0f" d="M32.7 430.7h84.4v27.2H32.7z"/><path id="BkPgDtojtCf" d="M38.5 386.6h70.8v-2H38.5"/><path id="rJOgPYojtCz" d="M38.5 403h70.8v-2H38.5"/><path id="SkYxwtjjKCG" d="M38.5 419.4h70.8v-2H38.5"/><path id="By9eDtooK0G" d="M38.5 367.1h70.8v-2H38.5"/><path id="rkogPYijF0z" d="M32.7 274.3h84.4v27.2H32.7z"/></g></g><g id="BkneDFsotAf_ryPynoFCM" data-animator-group="true" data-animator-type="0"><g id="BkneDFsotAf"><path id="BJalDFiiYCf" d="M422.6 196.1H507v91.6h-84.4z"/><path id="rJAlPKojYCM" d="M428.5 233.1h70.7v-2h-70.7"/><path id="SJkbwFiiY0M" d="M428.5 249.5h70.7v-2h-70.7"/><path id="B1gbPFjsK0f" d="M428.5 266.1h70.7v-2h-70.7"/><path id="ryWWPFoiKCM" d="M422.6 287.8H507v91.6h-84.4z"/><path id="rkzbvKosFAM" d="M422.6 352.5H507v27.2h-84.4z"/><path id="BJm-vKjstRM" d="M428.5 308.5h70.7v-2h-70.7"/><path id="ByE-wFoiKAM" d="M428.5 324.9h70.7v-2h-70.7"/><path id="H1BWDKjjYRf" d="M428.5 341.2h70.7v-2h-70.7"/><path id="By8WvFijKAf" d="M428.5 288.9h70.7v-2h-70.7"/><path id="rJD-wYjjKAM" d="M422.6 196.1H507v27.2h-84.4z"/></g></g><script>(function(){var a=document.querySelector(&apos;#HkPFijtRf&apos;),b=a.querySelectorAll(&apos;style&apos;),c=function(d){b.forEach(function(f){var g=f.textContent;g&amp;&amp;(f.textContent=g.replace(/transform-box:[^;\r\n]*/gi,&apos;transform-box: &apos;+d))})};c(&apos;initial&apos;),window.requestAnimationFrame(function(){return c(&apos;fill-box&apos;)})})();</script></svg>